%TF.GenerationSoftware,KiCad,Pcbnew,8.0.1*%
%TF.CreationDate,2024-04-23T21:27:29-07:00*%
%TF.ProjectId,LED_Device,4c45445f-4465-4766-9963-652e6b696361,rev?*%
%TF.SameCoordinates,Original*%
%TF.FileFunction,Drillmap*%
%TF.FilePolarity,Positive*%
%FSLAX45Y45*%
G04 Gerber Fmt 4.5, Leading zero omitted, Abs format (unit mm)*
G04 Created by KiCad (PCBNEW 8.0.1) date 2024-04-23 21:27:29*
%MOMM*%
%LPD*%
G01*
G04 APERTURE LIST*
%ADD10C,0.100000*%
%ADD11C,0.200000*%
G04 APERTURE END LIST*
D10*
X19808800Y-7899400D02*
G75*
G02*
X19408800Y-7899400I-200000J0D01*
G01*
X19408800Y-7899400D02*
G75*
G02*
X19808800Y-7899400I200000J0D01*
G01*
X9725000Y-7899400D02*
G75*
G02*
X9325000Y-7899400I-200000J0D01*
G01*
X9325000Y-7899400D02*
G75*
G02*
X9725000Y-7899400I200000J0D01*
G01*
X8839200Y-7213600D02*
X20294600Y-7213600D01*
X20294600Y-15214600D01*
X8839200Y-15214600D01*
X8839200Y-7213600D01*
X9725000Y-14528800D02*
G75*
G02*
X9325000Y-14528800I-200000J0D01*
G01*
X9325000Y-14528800D02*
G75*
G02*
X9725000Y-14528800I200000J0D01*
G01*
X19808800Y-14528800D02*
G75*
G02*
X19408800Y-14528800I-200000J0D01*
G01*
X19408800Y-14528800D02*
G75*
G02*
X19808800Y-14528800I200000J0D01*
G01*
D11*
X9094977Y-15531084D02*
X9094977Y-15331084D01*
X9094977Y-15331084D02*
X9142596Y-15331084D01*
X9142596Y-15331084D02*
X9171167Y-15340608D01*
X9171167Y-15340608D02*
X9190215Y-15359655D01*
X9190215Y-15359655D02*
X9199739Y-15378703D01*
X9199739Y-15378703D02*
X9209263Y-15416798D01*
X9209263Y-15416798D02*
X9209263Y-15445369D01*
X9209263Y-15445369D02*
X9199739Y-15483465D01*
X9199739Y-15483465D02*
X9190215Y-15502512D01*
X9190215Y-15502512D02*
X9171167Y-15521560D01*
X9171167Y-15521560D02*
X9142596Y-15531084D01*
X9142596Y-15531084D02*
X9094977Y-15531084D01*
X9294977Y-15531084D02*
X9294977Y-15397750D01*
X9294977Y-15435846D02*
X9304501Y-15416798D01*
X9304501Y-15416798D02*
X9314024Y-15407274D01*
X9314024Y-15407274D02*
X9333072Y-15397750D01*
X9333072Y-15397750D02*
X9352120Y-15397750D01*
X9418786Y-15531084D02*
X9418786Y-15397750D01*
X9418786Y-15331084D02*
X9409263Y-15340608D01*
X9409263Y-15340608D02*
X9418786Y-15350131D01*
X9418786Y-15350131D02*
X9428310Y-15340608D01*
X9428310Y-15340608D02*
X9418786Y-15331084D01*
X9418786Y-15331084D02*
X9418786Y-15350131D01*
X9542596Y-15531084D02*
X9523548Y-15521560D01*
X9523548Y-15521560D02*
X9514024Y-15502512D01*
X9514024Y-15502512D02*
X9514024Y-15331084D01*
X9647358Y-15531084D02*
X9628310Y-15521560D01*
X9628310Y-15521560D02*
X9618786Y-15502512D01*
X9618786Y-15502512D02*
X9618786Y-15331084D01*
X9875929Y-15531084D02*
X9875929Y-15331084D01*
X9875929Y-15331084D02*
X9942596Y-15473941D01*
X9942596Y-15473941D02*
X10009263Y-15331084D01*
X10009263Y-15331084D02*
X10009263Y-15531084D01*
X10190215Y-15531084D02*
X10190215Y-15426322D01*
X10190215Y-15426322D02*
X10180691Y-15407274D01*
X10180691Y-15407274D02*
X10161644Y-15397750D01*
X10161644Y-15397750D02*
X10123548Y-15397750D01*
X10123548Y-15397750D02*
X10104501Y-15407274D01*
X10190215Y-15521560D02*
X10171167Y-15531084D01*
X10171167Y-15531084D02*
X10123548Y-15531084D01*
X10123548Y-15531084D02*
X10104501Y-15521560D01*
X10104501Y-15521560D02*
X10094977Y-15502512D01*
X10094977Y-15502512D02*
X10094977Y-15483465D01*
X10094977Y-15483465D02*
X10104501Y-15464417D01*
X10104501Y-15464417D02*
X10123548Y-15454893D01*
X10123548Y-15454893D02*
X10171167Y-15454893D01*
X10171167Y-15454893D02*
X10190215Y-15445369D01*
X10285453Y-15397750D02*
X10285453Y-15597750D01*
X10285453Y-15407274D02*
X10304501Y-15397750D01*
X10304501Y-15397750D02*
X10342596Y-15397750D01*
X10342596Y-15397750D02*
X10361644Y-15407274D01*
X10361644Y-15407274D02*
X10371167Y-15416798D01*
X10371167Y-15416798D02*
X10380691Y-15435846D01*
X10380691Y-15435846D02*
X10380691Y-15492988D01*
X10380691Y-15492988D02*
X10371167Y-15512036D01*
X10371167Y-15512036D02*
X10361644Y-15521560D01*
X10361644Y-15521560D02*
X10342596Y-15531084D01*
X10342596Y-15531084D02*
X10304501Y-15531084D01*
X10304501Y-15531084D02*
X10285453Y-15521560D01*
X10466405Y-15512036D02*
X10475929Y-15521560D01*
X10475929Y-15521560D02*
X10466405Y-15531084D01*
X10466405Y-15531084D02*
X10456882Y-15521560D01*
X10456882Y-15521560D02*
X10466405Y-15512036D01*
X10466405Y-15512036D02*
X10466405Y-15531084D01*
X10466405Y-15407274D02*
X10475929Y-15416798D01*
X10475929Y-15416798D02*
X10466405Y-15426322D01*
X10466405Y-15426322D02*
X10456882Y-15416798D01*
X10456882Y-15416798D02*
X10466405Y-15407274D01*
X10466405Y-15407274D02*
X10466405Y-15426322D01*
M02*
