%TF.GenerationSoftware,KiCad,Pcbnew,8.0.1*%
%TF.CreationDate,2024-04-23T21:27:29-07:00*%
%TF.ProjectId,LED_Device,4c45445f-4465-4766-9963-652e6b696361,rev?*%
%TF.SameCoordinates,Original*%
%TF.FileFunction,Drillmap*%
%TF.FilePolarity,Positive*%
%FSLAX45Y45*%
G04 Gerber Fmt 4.5, Leading zero omitted, Abs format (unit mm)*
G04 Created by KiCad (PCBNEW 8.0.1) date 2024-04-23 21:27:29*
%MOMM*%
%LPD*%
G01*
G04 APERTURE LIST*
%ADD10C,0.100000*%
%ADD11C,0.200000*%
%ADD12C,0.110000*%
%ADD13C,0.130000*%
%ADD14C,0.160000*%
G04 APERTURE END LIST*
D10*
X19808800Y-7899400D02*
G75*
G02*
X19408800Y-7899400I-200000J0D01*
G01*
X19408800Y-7899400D02*
G75*
G02*
X19808800Y-7899400I200000J0D01*
G01*
X9725000Y-7899400D02*
G75*
G02*
X9325000Y-7899400I-200000J0D01*
G01*
X9325000Y-7899400D02*
G75*
G02*
X9725000Y-7899400I200000J0D01*
G01*
X8839200Y-7213600D02*
X20294600Y-7213600D01*
X20294600Y-15214600D01*
X8839200Y-15214600D01*
X8839200Y-7213600D01*
X9725000Y-14528800D02*
G75*
G02*
X9325000Y-14528800I-200000J0D01*
G01*
X9325000Y-14528800D02*
G75*
G02*
X9725000Y-14528800I200000J0D01*
G01*
X19808800Y-14528800D02*
G75*
G02*
X19408800Y-14528800I-200000J0D01*
G01*
X19408800Y-14528800D02*
G75*
G02*
X19808800Y-14528800I200000J0D01*
G01*
D11*
D10*
X12533000Y-10737000D02*
X12613000Y-10817000D01*
X12613000Y-10737000D02*
X12533000Y-10817000D01*
X12533000Y-11517000D02*
X12613000Y-11597000D01*
X12613000Y-11517000D02*
X12533000Y-11597000D01*
X12787000Y-10737000D02*
X12867000Y-10817000D01*
X12867000Y-10737000D02*
X12787000Y-10817000D01*
X12787000Y-11517000D02*
X12867000Y-11597000D01*
X12867000Y-11517000D02*
X12787000Y-11597000D01*
X13041000Y-10737000D02*
X13121000Y-10817000D01*
X13121000Y-10737000D02*
X13041000Y-10817000D01*
X13041000Y-11517000D02*
X13121000Y-11597000D01*
X13121000Y-11517000D02*
X13041000Y-11597000D01*
X13295000Y-10737000D02*
X13375000Y-10817000D01*
X13375000Y-10737000D02*
X13295000Y-10817000D01*
X13295000Y-11517000D02*
X13375000Y-11597000D01*
X13375000Y-11517000D02*
X13295000Y-11597000D01*
X13549000Y-10737000D02*
X13629000Y-10817000D01*
X13629000Y-10737000D02*
X13549000Y-10817000D01*
X13549000Y-11517000D02*
X13629000Y-11597000D01*
X13629000Y-11517000D02*
X13549000Y-11597000D01*
X13803000Y-10737000D02*
X13883000Y-10817000D01*
X13883000Y-10737000D02*
X13803000Y-10817000D01*
X13803000Y-11517000D02*
X13883000Y-11597000D01*
X13883000Y-11517000D02*
X13803000Y-11597000D01*
X14057000Y-10737000D02*
X14137000Y-10817000D01*
X14137000Y-10737000D02*
X14057000Y-10817000D01*
X14057000Y-11517000D02*
X14137000Y-11597000D01*
X14137000Y-11517000D02*
X14057000Y-11597000D01*
X14374500Y-8596000D02*
X14454500Y-8676000D01*
X14454500Y-8596000D02*
X14374500Y-8676000D01*
X14374500Y-9358000D02*
X14454500Y-9438000D01*
X14454500Y-9358000D02*
X14374500Y-9438000D01*
X14442000Y-11009000D02*
X14522000Y-11089000D01*
X14522000Y-11009000D02*
X14442000Y-11089000D01*
X14444489Y-10310500D02*
X14524489Y-10390500D01*
X14524489Y-10310500D02*
X14444489Y-10390500D01*
X14692000Y-11009000D02*
X14772000Y-11089000D01*
X14772000Y-11009000D02*
X14692000Y-11089000D01*
X14694489Y-10310500D02*
X14774489Y-10390500D01*
X14774489Y-10310500D02*
X14694489Y-10390500D01*
X15136500Y-9929500D02*
X15216500Y-10009500D01*
X15216500Y-9929500D02*
X15136500Y-10009500D01*
X15136500Y-11453500D02*
X15216500Y-11533500D01*
X15216500Y-11453500D02*
X15136500Y-11533500D01*
X15898500Y-8596000D02*
X15978500Y-8676000D01*
X15978500Y-8596000D02*
X15898500Y-8676000D01*
X15898500Y-9358000D02*
X15978500Y-9438000D01*
X15978500Y-9358000D02*
X15898500Y-9438000D01*
X15898500Y-9929500D02*
X15978500Y-10009500D01*
X15978500Y-9929500D02*
X15898500Y-10009500D01*
X15898500Y-11453500D02*
X15978500Y-11533500D01*
X15978500Y-11453500D02*
X15898500Y-11533500D01*
X16566520Y-8405500D02*
X16646520Y-8485500D01*
X16646520Y-8405500D02*
X16566520Y-8485500D01*
X16566520Y-8659500D02*
X16646520Y-8739500D01*
X16646520Y-8659500D02*
X16566520Y-8739500D01*
X16566520Y-8913500D02*
X16646520Y-8993500D01*
X16646520Y-8913500D02*
X16566520Y-8993500D01*
X16566520Y-9167500D02*
X16646520Y-9247500D01*
X16646520Y-9167500D02*
X16566520Y-9247500D01*
X16566520Y-9421500D02*
X16646520Y-9501500D01*
X16646520Y-9421500D02*
X16566520Y-9501500D01*
X16566520Y-9675500D02*
X16646520Y-9755500D01*
X16646520Y-9675500D02*
X16566520Y-9755500D01*
X16566520Y-9929500D02*
X16646520Y-10009500D01*
X16646520Y-9929500D02*
X16566520Y-10009500D01*
X16566520Y-10183500D02*
X16646520Y-10263500D01*
X16646520Y-10183500D02*
X16566520Y-10263500D01*
X16566520Y-10437500D02*
X16646520Y-10517500D01*
X16646520Y-10437500D02*
X16566520Y-10517500D01*
X16566520Y-10691500D02*
X16646520Y-10771500D01*
X16646520Y-10691500D02*
X16566520Y-10771500D01*
X16566520Y-10945500D02*
X16646520Y-11025500D01*
X16646520Y-10945500D02*
X16566520Y-11025500D01*
X16566520Y-11199500D02*
X16646520Y-11279500D01*
X16646520Y-11199500D02*
X16566520Y-11279500D01*
X16566520Y-11453500D02*
X16646520Y-11533500D01*
X16646520Y-11453500D02*
X16566520Y-11533500D01*
X16566520Y-11707500D02*
X16646520Y-11787500D01*
X16646520Y-11707500D02*
X16566520Y-11787500D01*
X16566520Y-11961500D02*
X16646520Y-12041500D01*
X16646520Y-11961500D02*
X16566520Y-12041500D01*
X16566520Y-12215500D02*
X16646520Y-12295500D01*
X16646520Y-12215500D02*
X16566520Y-12295500D01*
X16566520Y-12469500D02*
X16646520Y-12549500D01*
X16646520Y-12469500D02*
X16566520Y-12549500D01*
X16566520Y-12723500D02*
X16646520Y-12803500D01*
X16646520Y-12723500D02*
X16566520Y-12803500D01*
X16566520Y-12977500D02*
X16646520Y-13057500D01*
X16646520Y-12977500D02*
X16566520Y-13057500D01*
X18883000Y-8405500D02*
X18963000Y-8485500D01*
X18963000Y-8405500D02*
X18883000Y-8485500D01*
X18883000Y-8659500D02*
X18963000Y-8739500D01*
X18963000Y-8659500D02*
X18883000Y-8739500D01*
X18883000Y-8913500D02*
X18963000Y-8993500D01*
X18963000Y-8913500D02*
X18883000Y-8993500D01*
X18883000Y-9167500D02*
X18963000Y-9247500D01*
X18963000Y-9167500D02*
X18883000Y-9247500D01*
X18883000Y-9421500D02*
X18963000Y-9501500D01*
X18963000Y-9421500D02*
X18883000Y-9501500D01*
X18883000Y-9675500D02*
X18963000Y-9755500D01*
X18963000Y-9675500D02*
X18883000Y-9755500D01*
X18883000Y-9929500D02*
X18963000Y-10009500D01*
X18963000Y-9929500D02*
X18883000Y-10009500D01*
X18883000Y-10183500D02*
X18963000Y-10263500D01*
X18963000Y-10183500D02*
X18883000Y-10263500D01*
X18883000Y-10437500D02*
X18963000Y-10517500D01*
X18963000Y-10437500D02*
X18883000Y-10517500D01*
X18883000Y-10691500D02*
X18963000Y-10771500D01*
X18963000Y-10691500D02*
X18883000Y-10771500D01*
X18883000Y-10945500D02*
X18963000Y-11025500D01*
X18963000Y-10945500D02*
X18883000Y-11025500D01*
X18883000Y-11199500D02*
X18963000Y-11279500D01*
X18963000Y-11199500D02*
X18883000Y-11279500D01*
X18883000Y-11453500D02*
X18963000Y-11533500D01*
X18963000Y-11453500D02*
X18883000Y-11533500D01*
X18883000Y-11707500D02*
X18963000Y-11787500D01*
X18963000Y-11707500D02*
X18883000Y-11787500D01*
X18883000Y-11961500D02*
X18963000Y-12041500D01*
X18963000Y-11961500D02*
X18883000Y-12041500D01*
X18883000Y-12215500D02*
X18963000Y-12295500D01*
X18963000Y-12215500D02*
X18883000Y-12295500D01*
X18883000Y-12469500D02*
X18963000Y-12549500D01*
X18963000Y-12469500D02*
X18883000Y-12549500D01*
X18883000Y-12723500D02*
X18963000Y-12803500D01*
X18963000Y-12723500D02*
X18883000Y-12803500D01*
X18883000Y-12977500D02*
X18963000Y-13057500D01*
X18963000Y-12977500D02*
X18883000Y-13057500D01*
X10908500Y-10922000D02*
G75*
G02*
X10808500Y-10922000I-50000J0D01*
G01*
X10808500Y-10922000D02*
G75*
G02*
X10908500Y-10922000I50000J0D01*
G01*
X10908500Y-11176000D02*
G75*
G02*
X10808500Y-11176000I-50000J0D01*
G01*
X10808500Y-11176000D02*
G75*
G02*
X10908500Y-11176000I50000J0D01*
G01*
X10908500Y-11430000D02*
G75*
G02*
X10808500Y-11430000I-50000J0D01*
G01*
X10808500Y-11430000D02*
G75*
G02*
X10908500Y-11430000I50000J0D01*
G01*
X12076900Y-8719820D02*
G75*
G02*
X11976900Y-8719820I-50000J0D01*
G01*
X11976900Y-8719820D02*
G75*
G02*
X12076900Y-8719820I50000J0D01*
G01*
X12076900Y-8973820D02*
G75*
G02*
X11976900Y-8973820I-50000J0D01*
G01*
X11976900Y-8973820D02*
G75*
G02*
X12076900Y-8973820I50000J0D01*
G01*
X12076900Y-9227820D02*
G75*
G02*
X11976900Y-9227820I-50000J0D01*
G01*
X11976900Y-9227820D02*
G75*
G02*
X12076900Y-9227820I50000J0D01*
G01*
X12076900Y-9481820D02*
G75*
G02*
X11976900Y-9481820I-50000J0D01*
G01*
X11976900Y-9481820D02*
G75*
G02*
X12076900Y-9481820I50000J0D01*
G01*
X12076900Y-9735820D02*
G75*
G02*
X11976900Y-9735820I-50000J0D01*
G01*
X11976900Y-9735820D02*
G75*
G02*
X12076900Y-9735820I50000J0D01*
G01*
X12076900Y-9989820D02*
G75*
G02*
X11976900Y-9989820I-50000J0D01*
G01*
X11976900Y-9989820D02*
G75*
G02*
X12076900Y-9989820I50000J0D01*
G01*
X12076900Y-10243820D02*
G75*
G02*
X11976900Y-10243820I-50000J0D01*
G01*
X11976900Y-10243820D02*
G75*
G02*
X12076900Y-10243820I50000J0D01*
G01*
D12*
X12685000Y-8644500D02*
X12685000Y-8754500D01*
X12630000Y-8699500D02*
X12740000Y-8699500D01*
X12685000Y-9094500D02*
X12685000Y-9204500D01*
X12630000Y-9149500D02*
X12740000Y-9149500D01*
X12685000Y-9677500D02*
X12685000Y-9787500D01*
X12630000Y-9732500D02*
X12740000Y-9732500D01*
X12685000Y-10127500D02*
X12685000Y-10237500D01*
X12630000Y-10182500D02*
X12740000Y-10182500D01*
X13335000Y-8644500D02*
X13335000Y-8754500D01*
X13280000Y-8699500D02*
X13390000Y-8699500D01*
X13335000Y-9094500D02*
X13335000Y-9204500D01*
X13280000Y-9149500D02*
X13390000Y-9149500D01*
X13335000Y-9677500D02*
X13335000Y-9787500D01*
X13280000Y-9732500D02*
X13390000Y-9732500D01*
X13335000Y-10127500D02*
X13335000Y-10237500D01*
X13280000Y-10182500D02*
X13390000Y-10182500D01*
D13*
X11531842Y-12121122D02*
X11531842Y-12029198D01*
X11439918Y-12029198D01*
X11439918Y-12121122D01*
X11531842Y-12121122D01*
X11531842Y-13909282D02*
X11531842Y-13817358D01*
X11439918Y-13817358D01*
X11439918Y-13909282D01*
X11531842Y-13909282D01*
X15539962Y-12121122D02*
X15539962Y-12029198D01*
X15448038Y-12029198D01*
X15448038Y-12121122D01*
X15539962Y-12121122D01*
X15539962Y-13909282D02*
X15539962Y-13817358D01*
X15448038Y-13817358D01*
X15448038Y-13909282D01*
X15539962Y-13909282D01*
D14*
X10544500Y-12706500D02*
X10624500Y-12626500D01*
X10544500Y-12546500D01*
X10464500Y-12626500D01*
X10544500Y-12706500D01*
X10544500Y-13326500D02*
X10624500Y-13246500D01*
X10544500Y-13166500D01*
X10464500Y-13246500D01*
X10544500Y-13326500D01*
X11014500Y-13026500D02*
X11094500Y-12946500D01*
X11014500Y-12866500D01*
X10934500Y-12946500D01*
X11014500Y-13026500D01*
D11*
X9094977Y-15531084D02*
X9094977Y-15331084D01*
X9094977Y-15331084D02*
X9142596Y-15331084D01*
X9142596Y-15331084D02*
X9171167Y-15340608D01*
X9171167Y-15340608D02*
X9190215Y-15359655D01*
X9190215Y-15359655D02*
X9199739Y-15378703D01*
X9199739Y-15378703D02*
X9209263Y-15416798D01*
X9209263Y-15416798D02*
X9209263Y-15445369D01*
X9209263Y-15445369D02*
X9199739Y-15483465D01*
X9199739Y-15483465D02*
X9190215Y-15502512D01*
X9190215Y-15502512D02*
X9171167Y-15521560D01*
X9171167Y-15521560D02*
X9142596Y-15531084D01*
X9142596Y-15531084D02*
X9094977Y-15531084D01*
X9294977Y-15531084D02*
X9294977Y-15397750D01*
X9294977Y-15435846D02*
X9304501Y-15416798D01*
X9304501Y-15416798D02*
X9314024Y-15407274D01*
X9314024Y-15407274D02*
X9333072Y-15397750D01*
X9333072Y-15397750D02*
X9352120Y-15397750D01*
X9418786Y-15531084D02*
X9418786Y-15397750D01*
X9418786Y-15331084D02*
X9409263Y-15340608D01*
X9409263Y-15340608D02*
X9418786Y-15350131D01*
X9418786Y-15350131D02*
X9428310Y-15340608D01*
X9428310Y-15340608D02*
X9418786Y-15331084D01*
X9418786Y-15331084D02*
X9418786Y-15350131D01*
X9542596Y-15531084D02*
X9523548Y-15521560D01*
X9523548Y-15521560D02*
X9514024Y-15502512D01*
X9514024Y-15502512D02*
X9514024Y-15331084D01*
X9647358Y-15531084D02*
X9628310Y-15521560D01*
X9628310Y-15521560D02*
X9618786Y-15502512D01*
X9618786Y-15502512D02*
X9618786Y-15331084D01*
X9875929Y-15531084D02*
X9875929Y-15331084D01*
X9875929Y-15331084D02*
X9942596Y-15473941D01*
X9942596Y-15473941D02*
X10009263Y-15331084D01*
X10009263Y-15331084D02*
X10009263Y-15531084D01*
X10190215Y-15531084D02*
X10190215Y-15426322D01*
X10190215Y-15426322D02*
X10180691Y-15407274D01*
X10180691Y-15407274D02*
X10161644Y-15397750D01*
X10161644Y-15397750D02*
X10123548Y-15397750D01*
X10123548Y-15397750D02*
X10104501Y-15407274D01*
X10190215Y-15521560D02*
X10171167Y-15531084D01*
X10171167Y-15531084D02*
X10123548Y-15531084D01*
X10123548Y-15531084D02*
X10104501Y-15521560D01*
X10104501Y-15521560D02*
X10094977Y-15502512D01*
X10094977Y-15502512D02*
X10094977Y-15483465D01*
X10094977Y-15483465D02*
X10104501Y-15464417D01*
X10104501Y-15464417D02*
X10123548Y-15454893D01*
X10123548Y-15454893D02*
X10171167Y-15454893D01*
X10171167Y-15454893D02*
X10190215Y-15445369D01*
X10285453Y-15397750D02*
X10285453Y-15597750D01*
X10285453Y-15407274D02*
X10304501Y-15397750D01*
X10304501Y-15397750D02*
X10342596Y-15397750D01*
X10342596Y-15397750D02*
X10361644Y-15407274D01*
X10361644Y-15407274D02*
X10371167Y-15416798D01*
X10371167Y-15416798D02*
X10380691Y-15435846D01*
X10380691Y-15435846D02*
X10380691Y-15492988D01*
X10380691Y-15492988D02*
X10371167Y-15512036D01*
X10371167Y-15512036D02*
X10361644Y-15521560D01*
X10361644Y-15521560D02*
X10342596Y-15531084D01*
X10342596Y-15531084D02*
X10304501Y-15531084D01*
X10304501Y-15531084D02*
X10285453Y-15521560D01*
X10466405Y-15512036D02*
X10475929Y-15521560D01*
X10475929Y-15521560D02*
X10466405Y-15531084D01*
X10466405Y-15531084D02*
X10456882Y-15521560D01*
X10456882Y-15521560D02*
X10466405Y-15512036D01*
X10466405Y-15512036D02*
X10466405Y-15531084D01*
X10466405Y-15407274D02*
X10475929Y-15416798D01*
X10475929Y-15416798D02*
X10466405Y-15426322D01*
X10466405Y-15426322D02*
X10456882Y-15416798D01*
X10456882Y-15416798D02*
X10466405Y-15407274D01*
X10466405Y-15407274D02*
X10466405Y-15426322D01*
D10*
X8754200Y-15819600D02*
X8834200Y-15899600D01*
X8834200Y-15819600D02*
X8754200Y-15899600D01*
D11*
X9133072Y-15751084D02*
X9152120Y-15751084D01*
X9152120Y-15751084D02*
X9171167Y-15760608D01*
X9171167Y-15760608D02*
X9180691Y-15770131D01*
X9180691Y-15770131D02*
X9190215Y-15789179D01*
X9190215Y-15789179D02*
X9199739Y-15827274D01*
X9199739Y-15827274D02*
X9199739Y-15874893D01*
X9199739Y-15874893D02*
X9190215Y-15912988D01*
X9190215Y-15912988D02*
X9180691Y-15932036D01*
X9180691Y-15932036D02*
X9171167Y-15941560D01*
X9171167Y-15941560D02*
X9152120Y-15951084D01*
X9152120Y-15951084D02*
X9133072Y-15951084D01*
X9133072Y-15951084D02*
X9114024Y-15941560D01*
X9114024Y-15941560D02*
X9104501Y-15932036D01*
X9104501Y-15932036D02*
X9094977Y-15912988D01*
X9094977Y-15912988D02*
X9085453Y-15874893D01*
X9085453Y-15874893D02*
X9085453Y-15827274D01*
X9085453Y-15827274D02*
X9094977Y-15789179D01*
X9094977Y-15789179D02*
X9104501Y-15770131D01*
X9104501Y-15770131D02*
X9114024Y-15760608D01*
X9114024Y-15760608D02*
X9133072Y-15751084D01*
X9285453Y-15932036D02*
X9294977Y-15941560D01*
X9294977Y-15941560D02*
X9285453Y-15951084D01*
X9285453Y-15951084D02*
X9275929Y-15941560D01*
X9275929Y-15941560D02*
X9285453Y-15932036D01*
X9285453Y-15932036D02*
X9285453Y-15951084D01*
X9409263Y-15836798D02*
X9390215Y-15827274D01*
X9390215Y-15827274D02*
X9380691Y-15817750D01*
X9380691Y-15817750D02*
X9371167Y-15798703D01*
X9371167Y-15798703D02*
X9371167Y-15789179D01*
X9371167Y-15789179D02*
X9380691Y-15770131D01*
X9380691Y-15770131D02*
X9390215Y-15760608D01*
X9390215Y-15760608D02*
X9409263Y-15751084D01*
X9409263Y-15751084D02*
X9447358Y-15751084D01*
X9447358Y-15751084D02*
X9466405Y-15760608D01*
X9466405Y-15760608D02*
X9475929Y-15770131D01*
X9475929Y-15770131D02*
X9485453Y-15789179D01*
X9485453Y-15789179D02*
X9485453Y-15798703D01*
X9485453Y-15798703D02*
X9475929Y-15817750D01*
X9475929Y-15817750D02*
X9466405Y-15827274D01*
X9466405Y-15827274D02*
X9447358Y-15836798D01*
X9447358Y-15836798D02*
X9409263Y-15836798D01*
X9409263Y-15836798D02*
X9390215Y-15846322D01*
X9390215Y-15846322D02*
X9380691Y-15855846D01*
X9380691Y-15855846D02*
X9371167Y-15874893D01*
X9371167Y-15874893D02*
X9371167Y-15912988D01*
X9371167Y-15912988D02*
X9380691Y-15932036D01*
X9380691Y-15932036D02*
X9390215Y-15941560D01*
X9390215Y-15941560D02*
X9409263Y-15951084D01*
X9409263Y-15951084D02*
X9447358Y-15951084D01*
X9447358Y-15951084D02*
X9466405Y-15941560D01*
X9466405Y-15941560D02*
X9475929Y-15932036D01*
X9475929Y-15932036D02*
X9485453Y-15912988D01*
X9485453Y-15912988D02*
X9485453Y-15874893D01*
X9485453Y-15874893D02*
X9475929Y-15855846D01*
X9475929Y-15855846D02*
X9466405Y-15846322D01*
X9466405Y-15846322D02*
X9447358Y-15836798D01*
X9609263Y-15751084D02*
X9628310Y-15751084D01*
X9628310Y-15751084D02*
X9647358Y-15760608D01*
X9647358Y-15760608D02*
X9656882Y-15770131D01*
X9656882Y-15770131D02*
X9666405Y-15789179D01*
X9666405Y-15789179D02*
X9675929Y-15827274D01*
X9675929Y-15827274D02*
X9675929Y-15874893D01*
X9675929Y-15874893D02*
X9666405Y-15912988D01*
X9666405Y-15912988D02*
X9656882Y-15932036D01*
X9656882Y-15932036D02*
X9647358Y-15941560D01*
X9647358Y-15941560D02*
X9628310Y-15951084D01*
X9628310Y-15951084D02*
X9609263Y-15951084D01*
X9609263Y-15951084D02*
X9590215Y-15941560D01*
X9590215Y-15941560D02*
X9580691Y-15932036D01*
X9580691Y-15932036D02*
X9571167Y-15912988D01*
X9571167Y-15912988D02*
X9561644Y-15874893D01*
X9561644Y-15874893D02*
X9561644Y-15827274D01*
X9561644Y-15827274D02*
X9571167Y-15789179D01*
X9571167Y-15789179D02*
X9580691Y-15770131D01*
X9580691Y-15770131D02*
X9590215Y-15760608D01*
X9590215Y-15760608D02*
X9609263Y-15751084D01*
X9799739Y-15751084D02*
X9818786Y-15751084D01*
X9818786Y-15751084D02*
X9837834Y-15760608D01*
X9837834Y-15760608D02*
X9847358Y-15770131D01*
X9847358Y-15770131D02*
X9856882Y-15789179D01*
X9856882Y-15789179D02*
X9866405Y-15827274D01*
X9866405Y-15827274D02*
X9866405Y-15874893D01*
X9866405Y-15874893D02*
X9856882Y-15912988D01*
X9856882Y-15912988D02*
X9847358Y-15932036D01*
X9847358Y-15932036D02*
X9837834Y-15941560D01*
X9837834Y-15941560D02*
X9818786Y-15951084D01*
X9818786Y-15951084D02*
X9799739Y-15951084D01*
X9799739Y-15951084D02*
X9780691Y-15941560D01*
X9780691Y-15941560D02*
X9771167Y-15932036D01*
X9771167Y-15932036D02*
X9761644Y-15912988D01*
X9761644Y-15912988D02*
X9752120Y-15874893D01*
X9752120Y-15874893D02*
X9752120Y-15827274D01*
X9752120Y-15827274D02*
X9761644Y-15789179D01*
X9761644Y-15789179D02*
X9771167Y-15770131D01*
X9771167Y-15770131D02*
X9780691Y-15760608D01*
X9780691Y-15760608D02*
X9799739Y-15751084D01*
X9952120Y-15951084D02*
X9952120Y-15817750D01*
X9952120Y-15836798D02*
X9961644Y-15827274D01*
X9961644Y-15827274D02*
X9980691Y-15817750D01*
X9980691Y-15817750D02*
X10009263Y-15817750D01*
X10009263Y-15817750D02*
X10028310Y-15827274D01*
X10028310Y-15827274D02*
X10037834Y-15846322D01*
X10037834Y-15846322D02*
X10037834Y-15951084D01*
X10037834Y-15846322D02*
X10047358Y-15827274D01*
X10047358Y-15827274D02*
X10066405Y-15817750D01*
X10066405Y-15817750D02*
X10094977Y-15817750D01*
X10094977Y-15817750D02*
X10114025Y-15827274D01*
X10114025Y-15827274D02*
X10123548Y-15846322D01*
X10123548Y-15846322D02*
X10123548Y-15951084D01*
X10218786Y-15951084D02*
X10218786Y-15817750D01*
X10218786Y-15836798D02*
X10228310Y-15827274D01*
X10228310Y-15827274D02*
X10247358Y-15817750D01*
X10247358Y-15817750D02*
X10275929Y-15817750D01*
X10275929Y-15817750D02*
X10294977Y-15827274D01*
X10294977Y-15827274D02*
X10304501Y-15846322D01*
X10304501Y-15846322D02*
X10304501Y-15951084D01*
X10304501Y-15846322D02*
X10314025Y-15827274D01*
X10314025Y-15827274D02*
X10333072Y-15817750D01*
X10333072Y-15817750D02*
X10361644Y-15817750D01*
X10361644Y-15817750D02*
X10380691Y-15827274D01*
X10380691Y-15827274D02*
X10390215Y-15846322D01*
X10390215Y-15846322D02*
X10390215Y-15951084D01*
X10780691Y-15741560D02*
X10609263Y-15998703D01*
X11037834Y-15751084D02*
X11056882Y-15751084D01*
X11056882Y-15751084D02*
X11075929Y-15760608D01*
X11075929Y-15760608D02*
X11085453Y-15770131D01*
X11085453Y-15770131D02*
X11094977Y-15789179D01*
X11094977Y-15789179D02*
X11104501Y-15827274D01*
X11104501Y-15827274D02*
X11104501Y-15874893D01*
X11104501Y-15874893D02*
X11094977Y-15912988D01*
X11094977Y-15912988D02*
X11085453Y-15932036D01*
X11085453Y-15932036D02*
X11075929Y-15941560D01*
X11075929Y-15941560D02*
X11056882Y-15951084D01*
X11056882Y-15951084D02*
X11037834Y-15951084D01*
X11037834Y-15951084D02*
X11018787Y-15941560D01*
X11018787Y-15941560D02*
X11009263Y-15932036D01*
X11009263Y-15932036D02*
X10999739Y-15912988D01*
X10999739Y-15912988D02*
X10990215Y-15874893D01*
X10990215Y-15874893D02*
X10990215Y-15827274D01*
X10990215Y-15827274D02*
X10999739Y-15789179D01*
X10999739Y-15789179D02*
X11009263Y-15770131D01*
X11009263Y-15770131D02*
X11018787Y-15760608D01*
X11018787Y-15760608D02*
X11037834Y-15751084D01*
X11190215Y-15932036D02*
X11199739Y-15941560D01*
X11199739Y-15941560D02*
X11190215Y-15951084D01*
X11190215Y-15951084D02*
X11180691Y-15941560D01*
X11180691Y-15941560D02*
X11190215Y-15932036D01*
X11190215Y-15932036D02*
X11190215Y-15951084D01*
X11323548Y-15751084D02*
X11342596Y-15751084D01*
X11342596Y-15751084D02*
X11361644Y-15760608D01*
X11361644Y-15760608D02*
X11371167Y-15770131D01*
X11371167Y-15770131D02*
X11380691Y-15789179D01*
X11380691Y-15789179D02*
X11390215Y-15827274D01*
X11390215Y-15827274D02*
X11390215Y-15874893D01*
X11390215Y-15874893D02*
X11380691Y-15912988D01*
X11380691Y-15912988D02*
X11371167Y-15932036D01*
X11371167Y-15932036D02*
X11361644Y-15941560D01*
X11361644Y-15941560D02*
X11342596Y-15951084D01*
X11342596Y-15951084D02*
X11323548Y-15951084D01*
X11323548Y-15951084D02*
X11304501Y-15941560D01*
X11304501Y-15941560D02*
X11294977Y-15932036D01*
X11294977Y-15932036D02*
X11285453Y-15912988D01*
X11285453Y-15912988D02*
X11275929Y-15874893D01*
X11275929Y-15874893D02*
X11275929Y-15827274D01*
X11275929Y-15827274D02*
X11285453Y-15789179D01*
X11285453Y-15789179D02*
X11294977Y-15770131D01*
X11294977Y-15770131D02*
X11304501Y-15760608D01*
X11304501Y-15760608D02*
X11323548Y-15751084D01*
X11456882Y-15751084D02*
X11580691Y-15751084D01*
X11580691Y-15751084D02*
X11514025Y-15827274D01*
X11514025Y-15827274D02*
X11542596Y-15827274D01*
X11542596Y-15827274D02*
X11561644Y-15836798D01*
X11561644Y-15836798D02*
X11571167Y-15846322D01*
X11571167Y-15846322D02*
X11580691Y-15865369D01*
X11580691Y-15865369D02*
X11580691Y-15912988D01*
X11580691Y-15912988D02*
X11571167Y-15932036D01*
X11571167Y-15932036D02*
X11561644Y-15941560D01*
X11561644Y-15941560D02*
X11542596Y-15951084D01*
X11542596Y-15951084D02*
X11485453Y-15951084D01*
X11485453Y-15951084D02*
X11466406Y-15941560D01*
X11466406Y-15941560D02*
X11456882Y-15932036D01*
X11771167Y-15951084D02*
X11656882Y-15951084D01*
X11714025Y-15951084D02*
X11714025Y-15751084D01*
X11714025Y-15751084D02*
X11694977Y-15779655D01*
X11694977Y-15779655D02*
X11675929Y-15798703D01*
X11675929Y-15798703D02*
X11656882Y-15808227D01*
X11952120Y-15751084D02*
X11856882Y-15751084D01*
X11856882Y-15751084D02*
X11847358Y-15846322D01*
X11847358Y-15846322D02*
X11856882Y-15836798D01*
X11856882Y-15836798D02*
X11875929Y-15827274D01*
X11875929Y-15827274D02*
X11923548Y-15827274D01*
X11923548Y-15827274D02*
X11942596Y-15836798D01*
X11942596Y-15836798D02*
X11952120Y-15846322D01*
X11952120Y-15846322D02*
X11961644Y-15865369D01*
X11961644Y-15865369D02*
X11961644Y-15912988D01*
X11961644Y-15912988D02*
X11952120Y-15932036D01*
X11952120Y-15932036D02*
X11942596Y-15941560D01*
X11942596Y-15941560D02*
X11923548Y-15951084D01*
X11923548Y-15951084D02*
X11875929Y-15951084D01*
X11875929Y-15951084D02*
X11856882Y-15941560D01*
X11856882Y-15941560D02*
X11847358Y-15932036D01*
X12037834Y-15751084D02*
X12037834Y-15789179D01*
X12114025Y-15751084D02*
X12114025Y-15789179D01*
X12409263Y-16027274D02*
X12399739Y-16017750D01*
X12399739Y-16017750D02*
X12380691Y-15989179D01*
X12380691Y-15989179D02*
X12371168Y-15970131D01*
X12371168Y-15970131D02*
X12361644Y-15941560D01*
X12361644Y-15941560D02*
X12352120Y-15893941D01*
X12352120Y-15893941D02*
X12352120Y-15855846D01*
X12352120Y-15855846D02*
X12361644Y-15808227D01*
X12361644Y-15808227D02*
X12371168Y-15779655D01*
X12371168Y-15779655D02*
X12380691Y-15760608D01*
X12380691Y-15760608D02*
X12399739Y-15732036D01*
X12399739Y-15732036D02*
X12409263Y-15722512D01*
X12571168Y-15751084D02*
X12533072Y-15751084D01*
X12533072Y-15751084D02*
X12514025Y-15760608D01*
X12514025Y-15760608D02*
X12504501Y-15770131D01*
X12504501Y-15770131D02*
X12485453Y-15798703D01*
X12485453Y-15798703D02*
X12475929Y-15836798D01*
X12475929Y-15836798D02*
X12475929Y-15912988D01*
X12475929Y-15912988D02*
X12485453Y-15932036D01*
X12485453Y-15932036D02*
X12494977Y-15941560D01*
X12494977Y-15941560D02*
X12514025Y-15951084D01*
X12514025Y-15951084D02*
X12552120Y-15951084D01*
X12552120Y-15951084D02*
X12571168Y-15941560D01*
X12571168Y-15941560D02*
X12580691Y-15932036D01*
X12580691Y-15932036D02*
X12590215Y-15912988D01*
X12590215Y-15912988D02*
X12590215Y-15865369D01*
X12590215Y-15865369D02*
X12580691Y-15846322D01*
X12580691Y-15846322D02*
X12571168Y-15836798D01*
X12571168Y-15836798D02*
X12552120Y-15827274D01*
X12552120Y-15827274D02*
X12514025Y-15827274D01*
X12514025Y-15827274D02*
X12494977Y-15836798D01*
X12494977Y-15836798D02*
X12485453Y-15846322D01*
X12485453Y-15846322D02*
X12475929Y-15865369D01*
X12761644Y-15817750D02*
X12761644Y-15951084D01*
X12714025Y-15741560D02*
X12666406Y-15884417D01*
X12666406Y-15884417D02*
X12790215Y-15884417D01*
X13018787Y-15951084D02*
X13018787Y-15751084D01*
X13104501Y-15951084D02*
X13104501Y-15846322D01*
X13104501Y-15846322D02*
X13094977Y-15827274D01*
X13094977Y-15827274D02*
X13075930Y-15817750D01*
X13075930Y-15817750D02*
X13047358Y-15817750D01*
X13047358Y-15817750D02*
X13028310Y-15827274D01*
X13028310Y-15827274D02*
X13018787Y-15836798D01*
X13228310Y-15951084D02*
X13209263Y-15941560D01*
X13209263Y-15941560D02*
X13199739Y-15932036D01*
X13199739Y-15932036D02*
X13190215Y-15912988D01*
X13190215Y-15912988D02*
X13190215Y-15855846D01*
X13190215Y-15855846D02*
X13199739Y-15836798D01*
X13199739Y-15836798D02*
X13209263Y-15827274D01*
X13209263Y-15827274D02*
X13228310Y-15817750D01*
X13228310Y-15817750D02*
X13256882Y-15817750D01*
X13256882Y-15817750D02*
X13275930Y-15827274D01*
X13275930Y-15827274D02*
X13285453Y-15836798D01*
X13285453Y-15836798D02*
X13294977Y-15855846D01*
X13294977Y-15855846D02*
X13294977Y-15912988D01*
X13294977Y-15912988D02*
X13285453Y-15932036D01*
X13285453Y-15932036D02*
X13275930Y-15941560D01*
X13275930Y-15941560D02*
X13256882Y-15951084D01*
X13256882Y-15951084D02*
X13228310Y-15951084D01*
X13409263Y-15951084D02*
X13390215Y-15941560D01*
X13390215Y-15941560D02*
X13380691Y-15922512D01*
X13380691Y-15922512D02*
X13380691Y-15751084D01*
X13561644Y-15941560D02*
X13542596Y-15951084D01*
X13542596Y-15951084D02*
X13504501Y-15951084D01*
X13504501Y-15951084D02*
X13485453Y-15941560D01*
X13485453Y-15941560D02*
X13475930Y-15922512D01*
X13475930Y-15922512D02*
X13475930Y-15846322D01*
X13475930Y-15846322D02*
X13485453Y-15827274D01*
X13485453Y-15827274D02*
X13504501Y-15817750D01*
X13504501Y-15817750D02*
X13542596Y-15817750D01*
X13542596Y-15817750D02*
X13561644Y-15827274D01*
X13561644Y-15827274D02*
X13571168Y-15846322D01*
X13571168Y-15846322D02*
X13571168Y-15865369D01*
X13571168Y-15865369D02*
X13475930Y-15884417D01*
X13647358Y-15941560D02*
X13666406Y-15951084D01*
X13666406Y-15951084D02*
X13704501Y-15951084D01*
X13704501Y-15951084D02*
X13723549Y-15941560D01*
X13723549Y-15941560D02*
X13733072Y-15922512D01*
X13733072Y-15922512D02*
X13733072Y-15912988D01*
X13733072Y-15912988D02*
X13723549Y-15893941D01*
X13723549Y-15893941D02*
X13704501Y-15884417D01*
X13704501Y-15884417D02*
X13675930Y-15884417D01*
X13675930Y-15884417D02*
X13656882Y-15874893D01*
X13656882Y-15874893D02*
X13647358Y-15855846D01*
X13647358Y-15855846D02*
X13647358Y-15846322D01*
X13647358Y-15846322D02*
X13656882Y-15827274D01*
X13656882Y-15827274D02*
X13675930Y-15817750D01*
X13675930Y-15817750D02*
X13704501Y-15817750D01*
X13704501Y-15817750D02*
X13723549Y-15827274D01*
X13799739Y-16027274D02*
X13809263Y-16017750D01*
X13809263Y-16017750D02*
X13828311Y-15989179D01*
X13828311Y-15989179D02*
X13837834Y-15970131D01*
X13837834Y-15970131D02*
X13847358Y-15941560D01*
X13847358Y-15941560D02*
X13856882Y-15893941D01*
X13856882Y-15893941D02*
X13856882Y-15855846D01*
X13856882Y-15855846D02*
X13847358Y-15808227D01*
X13847358Y-15808227D02*
X13837834Y-15779655D01*
X13837834Y-15779655D02*
X13828311Y-15760608D01*
X13828311Y-15760608D02*
X13809263Y-15732036D01*
X13809263Y-15732036D02*
X13799739Y-15722512D01*
D10*
X8834200Y-16123600D02*
G75*
G02*
X8734200Y-16123600I-50000J0D01*
G01*
X8734200Y-16123600D02*
G75*
G02*
X8834200Y-16123600I50000J0D01*
G01*
D11*
X9199739Y-16215084D02*
X9085453Y-16215084D01*
X9142596Y-16215084D02*
X9142596Y-16015084D01*
X9142596Y-16015084D02*
X9123548Y-16043655D01*
X9123548Y-16043655D02*
X9104501Y-16062703D01*
X9104501Y-16062703D02*
X9085453Y-16072227D01*
X9285453Y-16196036D02*
X9294977Y-16205560D01*
X9294977Y-16205560D02*
X9285453Y-16215084D01*
X9285453Y-16215084D02*
X9275929Y-16205560D01*
X9275929Y-16205560D02*
X9285453Y-16196036D01*
X9285453Y-16196036D02*
X9285453Y-16215084D01*
X9418786Y-16015084D02*
X9437834Y-16015084D01*
X9437834Y-16015084D02*
X9456882Y-16024608D01*
X9456882Y-16024608D02*
X9466405Y-16034131D01*
X9466405Y-16034131D02*
X9475929Y-16053179D01*
X9475929Y-16053179D02*
X9485453Y-16091274D01*
X9485453Y-16091274D02*
X9485453Y-16138893D01*
X9485453Y-16138893D02*
X9475929Y-16176988D01*
X9475929Y-16176988D02*
X9466405Y-16196036D01*
X9466405Y-16196036D02*
X9456882Y-16205560D01*
X9456882Y-16205560D02*
X9437834Y-16215084D01*
X9437834Y-16215084D02*
X9418786Y-16215084D01*
X9418786Y-16215084D02*
X9399739Y-16205560D01*
X9399739Y-16205560D02*
X9390215Y-16196036D01*
X9390215Y-16196036D02*
X9380691Y-16176988D01*
X9380691Y-16176988D02*
X9371167Y-16138893D01*
X9371167Y-16138893D02*
X9371167Y-16091274D01*
X9371167Y-16091274D02*
X9380691Y-16053179D01*
X9380691Y-16053179D02*
X9390215Y-16034131D01*
X9390215Y-16034131D02*
X9399739Y-16024608D01*
X9399739Y-16024608D02*
X9418786Y-16015084D01*
X9609263Y-16015084D02*
X9628310Y-16015084D01*
X9628310Y-16015084D02*
X9647358Y-16024608D01*
X9647358Y-16024608D02*
X9656882Y-16034131D01*
X9656882Y-16034131D02*
X9666405Y-16053179D01*
X9666405Y-16053179D02*
X9675929Y-16091274D01*
X9675929Y-16091274D02*
X9675929Y-16138893D01*
X9675929Y-16138893D02*
X9666405Y-16176988D01*
X9666405Y-16176988D02*
X9656882Y-16196036D01*
X9656882Y-16196036D02*
X9647358Y-16205560D01*
X9647358Y-16205560D02*
X9628310Y-16215084D01*
X9628310Y-16215084D02*
X9609263Y-16215084D01*
X9609263Y-16215084D02*
X9590215Y-16205560D01*
X9590215Y-16205560D02*
X9580691Y-16196036D01*
X9580691Y-16196036D02*
X9571167Y-16176988D01*
X9571167Y-16176988D02*
X9561644Y-16138893D01*
X9561644Y-16138893D02*
X9561644Y-16091274D01*
X9561644Y-16091274D02*
X9571167Y-16053179D01*
X9571167Y-16053179D02*
X9580691Y-16034131D01*
X9580691Y-16034131D02*
X9590215Y-16024608D01*
X9590215Y-16024608D02*
X9609263Y-16015084D01*
X9799739Y-16015084D02*
X9818786Y-16015084D01*
X9818786Y-16015084D02*
X9837834Y-16024608D01*
X9837834Y-16024608D02*
X9847358Y-16034131D01*
X9847358Y-16034131D02*
X9856882Y-16053179D01*
X9856882Y-16053179D02*
X9866405Y-16091274D01*
X9866405Y-16091274D02*
X9866405Y-16138893D01*
X9866405Y-16138893D02*
X9856882Y-16176988D01*
X9856882Y-16176988D02*
X9847358Y-16196036D01*
X9847358Y-16196036D02*
X9837834Y-16205560D01*
X9837834Y-16205560D02*
X9818786Y-16215084D01*
X9818786Y-16215084D02*
X9799739Y-16215084D01*
X9799739Y-16215084D02*
X9780691Y-16205560D01*
X9780691Y-16205560D02*
X9771167Y-16196036D01*
X9771167Y-16196036D02*
X9761644Y-16176988D01*
X9761644Y-16176988D02*
X9752120Y-16138893D01*
X9752120Y-16138893D02*
X9752120Y-16091274D01*
X9752120Y-16091274D02*
X9761644Y-16053179D01*
X9761644Y-16053179D02*
X9771167Y-16034131D01*
X9771167Y-16034131D02*
X9780691Y-16024608D01*
X9780691Y-16024608D02*
X9799739Y-16015084D01*
X9952120Y-16215084D02*
X9952120Y-16081750D01*
X9952120Y-16100798D02*
X9961644Y-16091274D01*
X9961644Y-16091274D02*
X9980691Y-16081750D01*
X9980691Y-16081750D02*
X10009263Y-16081750D01*
X10009263Y-16081750D02*
X10028310Y-16091274D01*
X10028310Y-16091274D02*
X10037834Y-16110322D01*
X10037834Y-16110322D02*
X10037834Y-16215084D01*
X10037834Y-16110322D02*
X10047358Y-16091274D01*
X10047358Y-16091274D02*
X10066405Y-16081750D01*
X10066405Y-16081750D02*
X10094977Y-16081750D01*
X10094977Y-16081750D02*
X10114025Y-16091274D01*
X10114025Y-16091274D02*
X10123548Y-16110322D01*
X10123548Y-16110322D02*
X10123548Y-16215084D01*
X10218786Y-16215084D02*
X10218786Y-16081750D01*
X10218786Y-16100798D02*
X10228310Y-16091274D01*
X10228310Y-16091274D02*
X10247358Y-16081750D01*
X10247358Y-16081750D02*
X10275929Y-16081750D01*
X10275929Y-16081750D02*
X10294977Y-16091274D01*
X10294977Y-16091274D02*
X10304501Y-16110322D01*
X10304501Y-16110322D02*
X10304501Y-16215084D01*
X10304501Y-16110322D02*
X10314025Y-16091274D01*
X10314025Y-16091274D02*
X10333072Y-16081750D01*
X10333072Y-16081750D02*
X10361644Y-16081750D01*
X10361644Y-16081750D02*
X10380691Y-16091274D01*
X10380691Y-16091274D02*
X10390215Y-16110322D01*
X10390215Y-16110322D02*
X10390215Y-16215084D01*
X10780691Y-16005560D02*
X10609263Y-16262703D01*
X11037834Y-16015084D02*
X11056882Y-16015084D01*
X11056882Y-16015084D02*
X11075929Y-16024608D01*
X11075929Y-16024608D02*
X11085453Y-16034131D01*
X11085453Y-16034131D02*
X11094977Y-16053179D01*
X11094977Y-16053179D02*
X11104501Y-16091274D01*
X11104501Y-16091274D02*
X11104501Y-16138893D01*
X11104501Y-16138893D02*
X11094977Y-16176988D01*
X11094977Y-16176988D02*
X11085453Y-16196036D01*
X11085453Y-16196036D02*
X11075929Y-16205560D01*
X11075929Y-16205560D02*
X11056882Y-16215084D01*
X11056882Y-16215084D02*
X11037834Y-16215084D01*
X11037834Y-16215084D02*
X11018787Y-16205560D01*
X11018787Y-16205560D02*
X11009263Y-16196036D01*
X11009263Y-16196036D02*
X10999739Y-16176988D01*
X10999739Y-16176988D02*
X10990215Y-16138893D01*
X10990215Y-16138893D02*
X10990215Y-16091274D01*
X10990215Y-16091274D02*
X10999739Y-16053179D01*
X10999739Y-16053179D02*
X11009263Y-16034131D01*
X11009263Y-16034131D02*
X11018787Y-16024608D01*
X11018787Y-16024608D02*
X11037834Y-16015084D01*
X11190215Y-16196036D02*
X11199739Y-16205560D01*
X11199739Y-16205560D02*
X11190215Y-16215084D01*
X11190215Y-16215084D02*
X11180691Y-16205560D01*
X11180691Y-16205560D02*
X11190215Y-16196036D01*
X11190215Y-16196036D02*
X11190215Y-16215084D01*
X11323548Y-16015084D02*
X11342596Y-16015084D01*
X11342596Y-16015084D02*
X11361644Y-16024608D01*
X11361644Y-16024608D02*
X11371167Y-16034131D01*
X11371167Y-16034131D02*
X11380691Y-16053179D01*
X11380691Y-16053179D02*
X11390215Y-16091274D01*
X11390215Y-16091274D02*
X11390215Y-16138893D01*
X11390215Y-16138893D02*
X11380691Y-16176988D01*
X11380691Y-16176988D02*
X11371167Y-16196036D01*
X11371167Y-16196036D02*
X11361644Y-16205560D01*
X11361644Y-16205560D02*
X11342596Y-16215084D01*
X11342596Y-16215084D02*
X11323548Y-16215084D01*
X11323548Y-16215084D02*
X11304501Y-16205560D01*
X11304501Y-16205560D02*
X11294977Y-16196036D01*
X11294977Y-16196036D02*
X11285453Y-16176988D01*
X11285453Y-16176988D02*
X11275929Y-16138893D01*
X11275929Y-16138893D02*
X11275929Y-16091274D01*
X11275929Y-16091274D02*
X11285453Y-16053179D01*
X11285453Y-16053179D02*
X11294977Y-16034131D01*
X11294977Y-16034131D02*
X11304501Y-16024608D01*
X11304501Y-16024608D02*
X11323548Y-16015084D01*
X11456882Y-16015084D02*
X11580691Y-16015084D01*
X11580691Y-16015084D02*
X11514025Y-16091274D01*
X11514025Y-16091274D02*
X11542596Y-16091274D01*
X11542596Y-16091274D02*
X11561644Y-16100798D01*
X11561644Y-16100798D02*
X11571167Y-16110322D01*
X11571167Y-16110322D02*
X11580691Y-16129369D01*
X11580691Y-16129369D02*
X11580691Y-16176988D01*
X11580691Y-16176988D02*
X11571167Y-16196036D01*
X11571167Y-16196036D02*
X11561644Y-16205560D01*
X11561644Y-16205560D02*
X11542596Y-16215084D01*
X11542596Y-16215084D02*
X11485453Y-16215084D01*
X11485453Y-16215084D02*
X11466406Y-16205560D01*
X11466406Y-16205560D02*
X11456882Y-16196036D01*
X11675929Y-16215084D02*
X11714025Y-16215084D01*
X11714025Y-16215084D02*
X11733072Y-16205560D01*
X11733072Y-16205560D02*
X11742596Y-16196036D01*
X11742596Y-16196036D02*
X11761644Y-16167465D01*
X11761644Y-16167465D02*
X11771167Y-16129369D01*
X11771167Y-16129369D02*
X11771167Y-16053179D01*
X11771167Y-16053179D02*
X11761644Y-16034131D01*
X11761644Y-16034131D02*
X11752120Y-16024608D01*
X11752120Y-16024608D02*
X11733072Y-16015084D01*
X11733072Y-16015084D02*
X11694977Y-16015084D01*
X11694977Y-16015084D02*
X11675929Y-16024608D01*
X11675929Y-16024608D02*
X11666406Y-16034131D01*
X11666406Y-16034131D02*
X11656882Y-16053179D01*
X11656882Y-16053179D02*
X11656882Y-16100798D01*
X11656882Y-16100798D02*
X11666406Y-16119846D01*
X11666406Y-16119846D02*
X11675929Y-16129369D01*
X11675929Y-16129369D02*
X11694977Y-16138893D01*
X11694977Y-16138893D02*
X11733072Y-16138893D01*
X11733072Y-16138893D02*
X11752120Y-16129369D01*
X11752120Y-16129369D02*
X11761644Y-16119846D01*
X11761644Y-16119846D02*
X11771167Y-16100798D01*
X11942596Y-16081750D02*
X11942596Y-16215084D01*
X11894977Y-16005560D02*
X11847358Y-16148417D01*
X11847358Y-16148417D02*
X11971167Y-16148417D01*
X12037834Y-16015084D02*
X12037834Y-16053179D01*
X12114025Y-16015084D02*
X12114025Y-16053179D01*
X12409263Y-16291274D02*
X12399739Y-16281750D01*
X12399739Y-16281750D02*
X12380691Y-16253179D01*
X12380691Y-16253179D02*
X12371168Y-16234131D01*
X12371168Y-16234131D02*
X12361644Y-16205560D01*
X12361644Y-16205560D02*
X12352120Y-16157941D01*
X12352120Y-16157941D02*
X12352120Y-16119846D01*
X12352120Y-16119846D02*
X12361644Y-16072227D01*
X12361644Y-16072227D02*
X12371168Y-16043655D01*
X12371168Y-16043655D02*
X12380691Y-16024608D01*
X12380691Y-16024608D02*
X12399739Y-15996036D01*
X12399739Y-15996036D02*
X12409263Y-15986512D01*
X12590215Y-16215084D02*
X12475929Y-16215084D01*
X12533072Y-16215084D02*
X12533072Y-16015084D01*
X12533072Y-16015084D02*
X12514025Y-16043655D01*
X12514025Y-16043655D02*
X12494977Y-16062703D01*
X12494977Y-16062703D02*
X12475929Y-16072227D01*
X12714025Y-16015084D02*
X12733072Y-16015084D01*
X12733072Y-16015084D02*
X12752120Y-16024608D01*
X12752120Y-16024608D02*
X12761644Y-16034131D01*
X12761644Y-16034131D02*
X12771168Y-16053179D01*
X12771168Y-16053179D02*
X12780691Y-16091274D01*
X12780691Y-16091274D02*
X12780691Y-16138893D01*
X12780691Y-16138893D02*
X12771168Y-16176988D01*
X12771168Y-16176988D02*
X12761644Y-16196036D01*
X12761644Y-16196036D02*
X12752120Y-16205560D01*
X12752120Y-16205560D02*
X12733072Y-16215084D01*
X12733072Y-16215084D02*
X12714025Y-16215084D01*
X12714025Y-16215084D02*
X12694977Y-16205560D01*
X12694977Y-16205560D02*
X12685453Y-16196036D01*
X12685453Y-16196036D02*
X12675929Y-16176988D01*
X12675929Y-16176988D02*
X12666406Y-16138893D01*
X12666406Y-16138893D02*
X12666406Y-16091274D01*
X12666406Y-16091274D02*
X12675929Y-16053179D01*
X12675929Y-16053179D02*
X12685453Y-16034131D01*
X12685453Y-16034131D02*
X12694977Y-16024608D01*
X12694977Y-16024608D02*
X12714025Y-16015084D01*
X13018787Y-16215084D02*
X13018787Y-16015084D01*
X13104501Y-16215084D02*
X13104501Y-16110322D01*
X13104501Y-16110322D02*
X13094977Y-16091274D01*
X13094977Y-16091274D02*
X13075930Y-16081750D01*
X13075930Y-16081750D02*
X13047358Y-16081750D01*
X13047358Y-16081750D02*
X13028310Y-16091274D01*
X13028310Y-16091274D02*
X13018787Y-16100798D01*
X13228310Y-16215084D02*
X13209263Y-16205560D01*
X13209263Y-16205560D02*
X13199739Y-16196036D01*
X13199739Y-16196036D02*
X13190215Y-16176988D01*
X13190215Y-16176988D02*
X13190215Y-16119846D01*
X13190215Y-16119846D02*
X13199739Y-16100798D01*
X13199739Y-16100798D02*
X13209263Y-16091274D01*
X13209263Y-16091274D02*
X13228310Y-16081750D01*
X13228310Y-16081750D02*
X13256882Y-16081750D01*
X13256882Y-16081750D02*
X13275930Y-16091274D01*
X13275930Y-16091274D02*
X13285453Y-16100798D01*
X13285453Y-16100798D02*
X13294977Y-16119846D01*
X13294977Y-16119846D02*
X13294977Y-16176988D01*
X13294977Y-16176988D02*
X13285453Y-16196036D01*
X13285453Y-16196036D02*
X13275930Y-16205560D01*
X13275930Y-16205560D02*
X13256882Y-16215084D01*
X13256882Y-16215084D02*
X13228310Y-16215084D01*
X13409263Y-16215084D02*
X13390215Y-16205560D01*
X13390215Y-16205560D02*
X13380691Y-16186512D01*
X13380691Y-16186512D02*
X13380691Y-16015084D01*
X13561644Y-16205560D02*
X13542596Y-16215084D01*
X13542596Y-16215084D02*
X13504501Y-16215084D01*
X13504501Y-16215084D02*
X13485453Y-16205560D01*
X13485453Y-16205560D02*
X13475930Y-16186512D01*
X13475930Y-16186512D02*
X13475930Y-16110322D01*
X13475930Y-16110322D02*
X13485453Y-16091274D01*
X13485453Y-16091274D02*
X13504501Y-16081750D01*
X13504501Y-16081750D02*
X13542596Y-16081750D01*
X13542596Y-16081750D02*
X13561644Y-16091274D01*
X13561644Y-16091274D02*
X13571168Y-16110322D01*
X13571168Y-16110322D02*
X13571168Y-16129369D01*
X13571168Y-16129369D02*
X13475930Y-16148417D01*
X13647358Y-16205560D02*
X13666406Y-16215084D01*
X13666406Y-16215084D02*
X13704501Y-16215084D01*
X13704501Y-16215084D02*
X13723549Y-16205560D01*
X13723549Y-16205560D02*
X13733072Y-16186512D01*
X13733072Y-16186512D02*
X13733072Y-16176988D01*
X13733072Y-16176988D02*
X13723549Y-16157941D01*
X13723549Y-16157941D02*
X13704501Y-16148417D01*
X13704501Y-16148417D02*
X13675930Y-16148417D01*
X13675930Y-16148417D02*
X13656882Y-16138893D01*
X13656882Y-16138893D02*
X13647358Y-16119846D01*
X13647358Y-16119846D02*
X13647358Y-16110322D01*
X13647358Y-16110322D02*
X13656882Y-16091274D01*
X13656882Y-16091274D02*
X13675930Y-16081750D01*
X13675930Y-16081750D02*
X13704501Y-16081750D01*
X13704501Y-16081750D02*
X13723549Y-16091274D01*
X13799739Y-16291274D02*
X13809263Y-16281750D01*
X13809263Y-16281750D02*
X13828311Y-16253179D01*
X13828311Y-16253179D02*
X13837834Y-16234131D01*
X13837834Y-16234131D02*
X13847358Y-16205560D01*
X13847358Y-16205560D02*
X13856882Y-16157941D01*
X13856882Y-16157941D02*
X13856882Y-16119846D01*
X13856882Y-16119846D02*
X13847358Y-16072227D01*
X13847358Y-16072227D02*
X13837834Y-16043655D01*
X13837834Y-16043655D02*
X13828311Y-16024608D01*
X13828311Y-16024608D02*
X13809263Y-15996036D01*
X13809263Y-15996036D02*
X13799739Y-15986512D01*
D12*
X8779200Y-16332600D02*
X8779200Y-16442600D01*
X8724200Y-16387600D02*
X8834200Y-16387600D01*
D11*
X9199739Y-16479084D02*
X9085453Y-16479084D01*
X9142596Y-16479084D02*
X9142596Y-16279084D01*
X9142596Y-16279084D02*
X9123548Y-16307655D01*
X9123548Y-16307655D02*
X9104501Y-16326703D01*
X9104501Y-16326703D02*
X9085453Y-16336227D01*
X9285453Y-16460036D02*
X9294977Y-16469560D01*
X9294977Y-16469560D02*
X9285453Y-16479084D01*
X9285453Y-16479084D02*
X9275929Y-16469560D01*
X9275929Y-16469560D02*
X9285453Y-16460036D01*
X9285453Y-16460036D02*
X9285453Y-16479084D01*
X9485453Y-16479084D02*
X9371167Y-16479084D01*
X9428310Y-16479084D02*
X9428310Y-16279084D01*
X9428310Y-16279084D02*
X9409263Y-16307655D01*
X9409263Y-16307655D02*
X9390215Y-16326703D01*
X9390215Y-16326703D02*
X9371167Y-16336227D01*
X9609263Y-16279084D02*
X9628310Y-16279084D01*
X9628310Y-16279084D02*
X9647358Y-16288608D01*
X9647358Y-16288608D02*
X9656882Y-16298131D01*
X9656882Y-16298131D02*
X9666405Y-16317179D01*
X9666405Y-16317179D02*
X9675929Y-16355274D01*
X9675929Y-16355274D02*
X9675929Y-16402893D01*
X9675929Y-16402893D02*
X9666405Y-16440988D01*
X9666405Y-16440988D02*
X9656882Y-16460036D01*
X9656882Y-16460036D02*
X9647358Y-16469560D01*
X9647358Y-16469560D02*
X9628310Y-16479084D01*
X9628310Y-16479084D02*
X9609263Y-16479084D01*
X9609263Y-16479084D02*
X9590215Y-16469560D01*
X9590215Y-16469560D02*
X9580691Y-16460036D01*
X9580691Y-16460036D02*
X9571167Y-16440988D01*
X9571167Y-16440988D02*
X9561644Y-16402893D01*
X9561644Y-16402893D02*
X9561644Y-16355274D01*
X9561644Y-16355274D02*
X9571167Y-16317179D01*
X9571167Y-16317179D02*
X9580691Y-16298131D01*
X9580691Y-16298131D02*
X9590215Y-16288608D01*
X9590215Y-16288608D02*
X9609263Y-16279084D01*
X9799739Y-16279084D02*
X9818786Y-16279084D01*
X9818786Y-16279084D02*
X9837834Y-16288608D01*
X9837834Y-16288608D02*
X9847358Y-16298131D01*
X9847358Y-16298131D02*
X9856882Y-16317179D01*
X9856882Y-16317179D02*
X9866405Y-16355274D01*
X9866405Y-16355274D02*
X9866405Y-16402893D01*
X9866405Y-16402893D02*
X9856882Y-16440988D01*
X9856882Y-16440988D02*
X9847358Y-16460036D01*
X9847358Y-16460036D02*
X9837834Y-16469560D01*
X9837834Y-16469560D02*
X9818786Y-16479084D01*
X9818786Y-16479084D02*
X9799739Y-16479084D01*
X9799739Y-16479084D02*
X9780691Y-16469560D01*
X9780691Y-16469560D02*
X9771167Y-16460036D01*
X9771167Y-16460036D02*
X9761644Y-16440988D01*
X9761644Y-16440988D02*
X9752120Y-16402893D01*
X9752120Y-16402893D02*
X9752120Y-16355274D01*
X9752120Y-16355274D02*
X9761644Y-16317179D01*
X9761644Y-16317179D02*
X9771167Y-16298131D01*
X9771167Y-16298131D02*
X9780691Y-16288608D01*
X9780691Y-16288608D02*
X9799739Y-16279084D01*
X9952120Y-16479084D02*
X9952120Y-16345750D01*
X9952120Y-16364798D02*
X9961644Y-16355274D01*
X9961644Y-16355274D02*
X9980691Y-16345750D01*
X9980691Y-16345750D02*
X10009263Y-16345750D01*
X10009263Y-16345750D02*
X10028310Y-16355274D01*
X10028310Y-16355274D02*
X10037834Y-16374322D01*
X10037834Y-16374322D02*
X10037834Y-16479084D01*
X10037834Y-16374322D02*
X10047358Y-16355274D01*
X10047358Y-16355274D02*
X10066405Y-16345750D01*
X10066405Y-16345750D02*
X10094977Y-16345750D01*
X10094977Y-16345750D02*
X10114025Y-16355274D01*
X10114025Y-16355274D02*
X10123548Y-16374322D01*
X10123548Y-16374322D02*
X10123548Y-16479084D01*
X10218786Y-16479084D02*
X10218786Y-16345750D01*
X10218786Y-16364798D02*
X10228310Y-16355274D01*
X10228310Y-16355274D02*
X10247358Y-16345750D01*
X10247358Y-16345750D02*
X10275929Y-16345750D01*
X10275929Y-16345750D02*
X10294977Y-16355274D01*
X10294977Y-16355274D02*
X10304501Y-16374322D01*
X10304501Y-16374322D02*
X10304501Y-16479084D01*
X10304501Y-16374322D02*
X10314025Y-16355274D01*
X10314025Y-16355274D02*
X10333072Y-16345750D01*
X10333072Y-16345750D02*
X10361644Y-16345750D01*
X10361644Y-16345750D02*
X10380691Y-16355274D01*
X10380691Y-16355274D02*
X10390215Y-16374322D01*
X10390215Y-16374322D02*
X10390215Y-16479084D01*
X10780691Y-16269560D02*
X10609263Y-16526703D01*
X11037834Y-16279084D02*
X11056882Y-16279084D01*
X11056882Y-16279084D02*
X11075929Y-16288608D01*
X11075929Y-16288608D02*
X11085453Y-16298131D01*
X11085453Y-16298131D02*
X11094977Y-16317179D01*
X11094977Y-16317179D02*
X11104501Y-16355274D01*
X11104501Y-16355274D02*
X11104501Y-16402893D01*
X11104501Y-16402893D02*
X11094977Y-16440988D01*
X11094977Y-16440988D02*
X11085453Y-16460036D01*
X11085453Y-16460036D02*
X11075929Y-16469560D01*
X11075929Y-16469560D02*
X11056882Y-16479084D01*
X11056882Y-16479084D02*
X11037834Y-16479084D01*
X11037834Y-16479084D02*
X11018787Y-16469560D01*
X11018787Y-16469560D02*
X11009263Y-16460036D01*
X11009263Y-16460036D02*
X10999739Y-16440988D01*
X10999739Y-16440988D02*
X10990215Y-16402893D01*
X10990215Y-16402893D02*
X10990215Y-16355274D01*
X10990215Y-16355274D02*
X10999739Y-16317179D01*
X10999739Y-16317179D02*
X11009263Y-16298131D01*
X11009263Y-16298131D02*
X11018787Y-16288608D01*
X11018787Y-16288608D02*
X11037834Y-16279084D01*
X11190215Y-16460036D02*
X11199739Y-16469560D01*
X11199739Y-16469560D02*
X11190215Y-16479084D01*
X11190215Y-16479084D02*
X11180691Y-16469560D01*
X11180691Y-16469560D02*
X11190215Y-16460036D01*
X11190215Y-16460036D02*
X11190215Y-16479084D01*
X11323548Y-16279084D02*
X11342596Y-16279084D01*
X11342596Y-16279084D02*
X11361644Y-16288608D01*
X11361644Y-16288608D02*
X11371167Y-16298131D01*
X11371167Y-16298131D02*
X11380691Y-16317179D01*
X11380691Y-16317179D02*
X11390215Y-16355274D01*
X11390215Y-16355274D02*
X11390215Y-16402893D01*
X11390215Y-16402893D02*
X11380691Y-16440988D01*
X11380691Y-16440988D02*
X11371167Y-16460036D01*
X11371167Y-16460036D02*
X11361644Y-16469560D01*
X11361644Y-16469560D02*
X11342596Y-16479084D01*
X11342596Y-16479084D02*
X11323548Y-16479084D01*
X11323548Y-16479084D02*
X11304501Y-16469560D01*
X11304501Y-16469560D02*
X11294977Y-16460036D01*
X11294977Y-16460036D02*
X11285453Y-16440988D01*
X11285453Y-16440988D02*
X11275929Y-16402893D01*
X11275929Y-16402893D02*
X11275929Y-16355274D01*
X11275929Y-16355274D02*
X11285453Y-16317179D01*
X11285453Y-16317179D02*
X11294977Y-16298131D01*
X11294977Y-16298131D02*
X11304501Y-16288608D01*
X11304501Y-16288608D02*
X11323548Y-16279084D01*
X11561644Y-16345750D02*
X11561644Y-16479084D01*
X11514025Y-16269560D02*
X11466406Y-16412417D01*
X11466406Y-16412417D02*
X11590215Y-16412417D01*
X11647358Y-16279084D02*
X11771167Y-16279084D01*
X11771167Y-16279084D02*
X11704501Y-16355274D01*
X11704501Y-16355274D02*
X11733072Y-16355274D01*
X11733072Y-16355274D02*
X11752120Y-16364798D01*
X11752120Y-16364798D02*
X11761644Y-16374322D01*
X11761644Y-16374322D02*
X11771167Y-16393369D01*
X11771167Y-16393369D02*
X11771167Y-16440988D01*
X11771167Y-16440988D02*
X11761644Y-16460036D01*
X11761644Y-16460036D02*
X11752120Y-16469560D01*
X11752120Y-16469560D02*
X11733072Y-16479084D01*
X11733072Y-16479084D02*
X11675929Y-16479084D01*
X11675929Y-16479084D02*
X11656882Y-16469560D01*
X11656882Y-16469560D02*
X11647358Y-16460036D01*
X11837834Y-16279084D02*
X11961644Y-16279084D01*
X11961644Y-16279084D02*
X11894977Y-16355274D01*
X11894977Y-16355274D02*
X11923548Y-16355274D01*
X11923548Y-16355274D02*
X11942596Y-16364798D01*
X11942596Y-16364798D02*
X11952120Y-16374322D01*
X11952120Y-16374322D02*
X11961644Y-16393369D01*
X11961644Y-16393369D02*
X11961644Y-16440988D01*
X11961644Y-16440988D02*
X11952120Y-16460036D01*
X11952120Y-16460036D02*
X11942596Y-16469560D01*
X11942596Y-16469560D02*
X11923548Y-16479084D01*
X11923548Y-16479084D02*
X11866406Y-16479084D01*
X11866406Y-16479084D02*
X11847358Y-16469560D01*
X11847358Y-16469560D02*
X11837834Y-16460036D01*
X12037834Y-16279084D02*
X12037834Y-16317179D01*
X12114025Y-16279084D02*
X12114025Y-16317179D01*
X12409263Y-16555274D02*
X12399739Y-16545750D01*
X12399739Y-16545750D02*
X12380691Y-16517179D01*
X12380691Y-16517179D02*
X12371168Y-16498131D01*
X12371168Y-16498131D02*
X12361644Y-16469560D01*
X12361644Y-16469560D02*
X12352120Y-16421941D01*
X12352120Y-16421941D02*
X12352120Y-16383846D01*
X12352120Y-16383846D02*
X12361644Y-16336227D01*
X12361644Y-16336227D02*
X12371168Y-16307655D01*
X12371168Y-16307655D02*
X12380691Y-16288608D01*
X12380691Y-16288608D02*
X12399739Y-16260036D01*
X12399739Y-16260036D02*
X12409263Y-16250512D01*
X12514025Y-16364798D02*
X12494977Y-16355274D01*
X12494977Y-16355274D02*
X12485453Y-16345750D01*
X12485453Y-16345750D02*
X12475929Y-16326703D01*
X12475929Y-16326703D02*
X12475929Y-16317179D01*
X12475929Y-16317179D02*
X12485453Y-16298131D01*
X12485453Y-16298131D02*
X12494977Y-16288608D01*
X12494977Y-16288608D02*
X12514025Y-16279084D01*
X12514025Y-16279084D02*
X12552120Y-16279084D01*
X12552120Y-16279084D02*
X12571168Y-16288608D01*
X12571168Y-16288608D02*
X12580691Y-16298131D01*
X12580691Y-16298131D02*
X12590215Y-16317179D01*
X12590215Y-16317179D02*
X12590215Y-16326703D01*
X12590215Y-16326703D02*
X12580691Y-16345750D01*
X12580691Y-16345750D02*
X12571168Y-16355274D01*
X12571168Y-16355274D02*
X12552120Y-16364798D01*
X12552120Y-16364798D02*
X12514025Y-16364798D01*
X12514025Y-16364798D02*
X12494977Y-16374322D01*
X12494977Y-16374322D02*
X12485453Y-16383846D01*
X12485453Y-16383846D02*
X12475929Y-16402893D01*
X12475929Y-16402893D02*
X12475929Y-16440988D01*
X12475929Y-16440988D02*
X12485453Y-16460036D01*
X12485453Y-16460036D02*
X12494977Y-16469560D01*
X12494977Y-16469560D02*
X12514025Y-16479084D01*
X12514025Y-16479084D02*
X12552120Y-16479084D01*
X12552120Y-16479084D02*
X12571168Y-16469560D01*
X12571168Y-16469560D02*
X12580691Y-16460036D01*
X12580691Y-16460036D02*
X12590215Y-16440988D01*
X12590215Y-16440988D02*
X12590215Y-16402893D01*
X12590215Y-16402893D02*
X12580691Y-16383846D01*
X12580691Y-16383846D02*
X12571168Y-16374322D01*
X12571168Y-16374322D02*
X12552120Y-16364798D01*
X12828310Y-16479084D02*
X12828310Y-16279084D01*
X12914025Y-16479084D02*
X12914025Y-16374322D01*
X12914025Y-16374322D02*
X12904501Y-16355274D01*
X12904501Y-16355274D02*
X12885453Y-16345750D01*
X12885453Y-16345750D02*
X12856882Y-16345750D01*
X12856882Y-16345750D02*
X12837834Y-16355274D01*
X12837834Y-16355274D02*
X12828310Y-16364798D01*
X13037834Y-16479084D02*
X13018787Y-16469560D01*
X13018787Y-16469560D02*
X13009263Y-16460036D01*
X13009263Y-16460036D02*
X12999739Y-16440988D01*
X12999739Y-16440988D02*
X12999739Y-16383846D01*
X12999739Y-16383846D02*
X13009263Y-16364798D01*
X13009263Y-16364798D02*
X13018787Y-16355274D01*
X13018787Y-16355274D02*
X13037834Y-16345750D01*
X13037834Y-16345750D02*
X13066406Y-16345750D01*
X13066406Y-16345750D02*
X13085453Y-16355274D01*
X13085453Y-16355274D02*
X13094977Y-16364798D01*
X13094977Y-16364798D02*
X13104501Y-16383846D01*
X13104501Y-16383846D02*
X13104501Y-16440988D01*
X13104501Y-16440988D02*
X13094977Y-16460036D01*
X13094977Y-16460036D02*
X13085453Y-16469560D01*
X13085453Y-16469560D02*
X13066406Y-16479084D01*
X13066406Y-16479084D02*
X13037834Y-16479084D01*
X13218787Y-16479084D02*
X13199739Y-16469560D01*
X13199739Y-16469560D02*
X13190215Y-16450512D01*
X13190215Y-16450512D02*
X13190215Y-16279084D01*
X13371168Y-16469560D02*
X13352120Y-16479084D01*
X13352120Y-16479084D02*
X13314025Y-16479084D01*
X13314025Y-16479084D02*
X13294977Y-16469560D01*
X13294977Y-16469560D02*
X13285453Y-16450512D01*
X13285453Y-16450512D02*
X13285453Y-16374322D01*
X13285453Y-16374322D02*
X13294977Y-16355274D01*
X13294977Y-16355274D02*
X13314025Y-16345750D01*
X13314025Y-16345750D02*
X13352120Y-16345750D01*
X13352120Y-16345750D02*
X13371168Y-16355274D01*
X13371168Y-16355274D02*
X13380691Y-16374322D01*
X13380691Y-16374322D02*
X13380691Y-16393369D01*
X13380691Y-16393369D02*
X13285453Y-16412417D01*
X13456882Y-16469560D02*
X13475930Y-16479084D01*
X13475930Y-16479084D02*
X13514025Y-16479084D01*
X13514025Y-16479084D02*
X13533072Y-16469560D01*
X13533072Y-16469560D02*
X13542596Y-16450512D01*
X13542596Y-16450512D02*
X13542596Y-16440988D01*
X13542596Y-16440988D02*
X13533072Y-16421941D01*
X13533072Y-16421941D02*
X13514025Y-16412417D01*
X13514025Y-16412417D02*
X13485453Y-16412417D01*
X13485453Y-16412417D02*
X13466406Y-16402893D01*
X13466406Y-16402893D02*
X13456882Y-16383846D01*
X13456882Y-16383846D02*
X13456882Y-16374322D01*
X13456882Y-16374322D02*
X13466406Y-16355274D01*
X13466406Y-16355274D02*
X13485453Y-16345750D01*
X13485453Y-16345750D02*
X13514025Y-16345750D01*
X13514025Y-16345750D02*
X13533072Y-16355274D01*
X13609263Y-16555274D02*
X13618787Y-16545750D01*
X13618787Y-16545750D02*
X13637834Y-16517179D01*
X13637834Y-16517179D02*
X13647358Y-16498131D01*
X13647358Y-16498131D02*
X13656882Y-16469560D01*
X13656882Y-16469560D02*
X13666406Y-16421941D01*
X13666406Y-16421941D02*
X13666406Y-16383846D01*
X13666406Y-16383846D02*
X13656882Y-16336227D01*
X13656882Y-16336227D02*
X13647358Y-16307655D01*
X13647358Y-16307655D02*
X13637834Y-16288608D01*
X13637834Y-16288608D02*
X13618787Y-16260036D01*
X13618787Y-16260036D02*
X13609263Y-16250512D01*
D13*
X8815162Y-16697562D02*
X8815162Y-16605638D01*
X8723238Y-16605638D01*
X8723238Y-16697562D01*
X8815162Y-16697562D01*
D11*
X9199739Y-16743084D02*
X9085453Y-16743084D01*
X9142596Y-16743084D02*
X9142596Y-16543084D01*
X9142596Y-16543084D02*
X9123548Y-16571655D01*
X9123548Y-16571655D02*
X9104501Y-16590703D01*
X9104501Y-16590703D02*
X9085453Y-16600227D01*
X9285453Y-16724036D02*
X9294977Y-16733560D01*
X9294977Y-16733560D02*
X9285453Y-16743084D01*
X9285453Y-16743084D02*
X9275929Y-16733560D01*
X9275929Y-16733560D02*
X9285453Y-16724036D01*
X9285453Y-16724036D02*
X9285453Y-16743084D01*
X9361644Y-16543084D02*
X9485453Y-16543084D01*
X9485453Y-16543084D02*
X9418786Y-16619274D01*
X9418786Y-16619274D02*
X9447358Y-16619274D01*
X9447358Y-16619274D02*
X9466405Y-16628798D01*
X9466405Y-16628798D02*
X9475929Y-16638322D01*
X9475929Y-16638322D02*
X9485453Y-16657369D01*
X9485453Y-16657369D02*
X9485453Y-16704988D01*
X9485453Y-16704988D02*
X9475929Y-16724036D01*
X9475929Y-16724036D02*
X9466405Y-16733560D01*
X9466405Y-16733560D02*
X9447358Y-16743084D01*
X9447358Y-16743084D02*
X9390215Y-16743084D01*
X9390215Y-16743084D02*
X9371167Y-16733560D01*
X9371167Y-16733560D02*
X9361644Y-16724036D01*
X9609263Y-16543084D02*
X9628310Y-16543084D01*
X9628310Y-16543084D02*
X9647358Y-16552608D01*
X9647358Y-16552608D02*
X9656882Y-16562131D01*
X9656882Y-16562131D02*
X9666405Y-16581179D01*
X9666405Y-16581179D02*
X9675929Y-16619274D01*
X9675929Y-16619274D02*
X9675929Y-16666893D01*
X9675929Y-16666893D02*
X9666405Y-16704988D01*
X9666405Y-16704988D02*
X9656882Y-16724036D01*
X9656882Y-16724036D02*
X9647358Y-16733560D01*
X9647358Y-16733560D02*
X9628310Y-16743084D01*
X9628310Y-16743084D02*
X9609263Y-16743084D01*
X9609263Y-16743084D02*
X9590215Y-16733560D01*
X9590215Y-16733560D02*
X9580691Y-16724036D01*
X9580691Y-16724036D02*
X9571167Y-16704988D01*
X9571167Y-16704988D02*
X9561644Y-16666893D01*
X9561644Y-16666893D02*
X9561644Y-16619274D01*
X9561644Y-16619274D02*
X9571167Y-16581179D01*
X9571167Y-16581179D02*
X9580691Y-16562131D01*
X9580691Y-16562131D02*
X9590215Y-16552608D01*
X9590215Y-16552608D02*
X9609263Y-16543084D01*
X9799739Y-16543084D02*
X9818786Y-16543084D01*
X9818786Y-16543084D02*
X9837834Y-16552608D01*
X9837834Y-16552608D02*
X9847358Y-16562131D01*
X9847358Y-16562131D02*
X9856882Y-16581179D01*
X9856882Y-16581179D02*
X9866405Y-16619274D01*
X9866405Y-16619274D02*
X9866405Y-16666893D01*
X9866405Y-16666893D02*
X9856882Y-16704988D01*
X9856882Y-16704988D02*
X9847358Y-16724036D01*
X9847358Y-16724036D02*
X9837834Y-16733560D01*
X9837834Y-16733560D02*
X9818786Y-16743084D01*
X9818786Y-16743084D02*
X9799739Y-16743084D01*
X9799739Y-16743084D02*
X9780691Y-16733560D01*
X9780691Y-16733560D02*
X9771167Y-16724036D01*
X9771167Y-16724036D02*
X9761644Y-16704988D01*
X9761644Y-16704988D02*
X9752120Y-16666893D01*
X9752120Y-16666893D02*
X9752120Y-16619274D01*
X9752120Y-16619274D02*
X9761644Y-16581179D01*
X9761644Y-16581179D02*
X9771167Y-16562131D01*
X9771167Y-16562131D02*
X9780691Y-16552608D01*
X9780691Y-16552608D02*
X9799739Y-16543084D01*
X9952120Y-16743084D02*
X9952120Y-16609750D01*
X9952120Y-16628798D02*
X9961644Y-16619274D01*
X9961644Y-16619274D02*
X9980691Y-16609750D01*
X9980691Y-16609750D02*
X10009263Y-16609750D01*
X10009263Y-16609750D02*
X10028310Y-16619274D01*
X10028310Y-16619274D02*
X10037834Y-16638322D01*
X10037834Y-16638322D02*
X10037834Y-16743084D01*
X10037834Y-16638322D02*
X10047358Y-16619274D01*
X10047358Y-16619274D02*
X10066405Y-16609750D01*
X10066405Y-16609750D02*
X10094977Y-16609750D01*
X10094977Y-16609750D02*
X10114025Y-16619274D01*
X10114025Y-16619274D02*
X10123548Y-16638322D01*
X10123548Y-16638322D02*
X10123548Y-16743084D01*
X10218786Y-16743084D02*
X10218786Y-16609750D01*
X10218786Y-16628798D02*
X10228310Y-16619274D01*
X10228310Y-16619274D02*
X10247358Y-16609750D01*
X10247358Y-16609750D02*
X10275929Y-16609750D01*
X10275929Y-16609750D02*
X10294977Y-16619274D01*
X10294977Y-16619274D02*
X10304501Y-16638322D01*
X10304501Y-16638322D02*
X10304501Y-16743084D01*
X10304501Y-16638322D02*
X10314025Y-16619274D01*
X10314025Y-16619274D02*
X10333072Y-16609750D01*
X10333072Y-16609750D02*
X10361644Y-16609750D01*
X10361644Y-16609750D02*
X10380691Y-16619274D01*
X10380691Y-16619274D02*
X10390215Y-16638322D01*
X10390215Y-16638322D02*
X10390215Y-16743084D01*
X10780691Y-16533560D02*
X10609263Y-16790703D01*
X11037834Y-16543084D02*
X11056882Y-16543084D01*
X11056882Y-16543084D02*
X11075929Y-16552608D01*
X11075929Y-16552608D02*
X11085453Y-16562131D01*
X11085453Y-16562131D02*
X11094977Y-16581179D01*
X11094977Y-16581179D02*
X11104501Y-16619274D01*
X11104501Y-16619274D02*
X11104501Y-16666893D01*
X11104501Y-16666893D02*
X11094977Y-16704988D01*
X11094977Y-16704988D02*
X11085453Y-16724036D01*
X11085453Y-16724036D02*
X11075929Y-16733560D01*
X11075929Y-16733560D02*
X11056882Y-16743084D01*
X11056882Y-16743084D02*
X11037834Y-16743084D01*
X11037834Y-16743084D02*
X11018787Y-16733560D01*
X11018787Y-16733560D02*
X11009263Y-16724036D01*
X11009263Y-16724036D02*
X10999739Y-16704988D01*
X10999739Y-16704988D02*
X10990215Y-16666893D01*
X10990215Y-16666893D02*
X10990215Y-16619274D01*
X10990215Y-16619274D02*
X10999739Y-16581179D01*
X10999739Y-16581179D02*
X11009263Y-16562131D01*
X11009263Y-16562131D02*
X11018787Y-16552608D01*
X11018787Y-16552608D02*
X11037834Y-16543084D01*
X11190215Y-16724036D02*
X11199739Y-16733560D01*
X11199739Y-16733560D02*
X11190215Y-16743084D01*
X11190215Y-16743084D02*
X11180691Y-16733560D01*
X11180691Y-16733560D02*
X11190215Y-16724036D01*
X11190215Y-16724036D02*
X11190215Y-16743084D01*
X11323548Y-16543084D02*
X11342596Y-16543084D01*
X11342596Y-16543084D02*
X11361644Y-16552608D01*
X11361644Y-16552608D02*
X11371167Y-16562131D01*
X11371167Y-16562131D02*
X11380691Y-16581179D01*
X11380691Y-16581179D02*
X11390215Y-16619274D01*
X11390215Y-16619274D02*
X11390215Y-16666893D01*
X11390215Y-16666893D02*
X11380691Y-16704988D01*
X11380691Y-16704988D02*
X11371167Y-16724036D01*
X11371167Y-16724036D02*
X11361644Y-16733560D01*
X11361644Y-16733560D02*
X11342596Y-16743084D01*
X11342596Y-16743084D02*
X11323548Y-16743084D01*
X11323548Y-16743084D02*
X11304501Y-16733560D01*
X11304501Y-16733560D02*
X11294977Y-16724036D01*
X11294977Y-16724036D02*
X11285453Y-16704988D01*
X11285453Y-16704988D02*
X11275929Y-16666893D01*
X11275929Y-16666893D02*
X11275929Y-16619274D01*
X11275929Y-16619274D02*
X11285453Y-16581179D01*
X11285453Y-16581179D02*
X11294977Y-16562131D01*
X11294977Y-16562131D02*
X11304501Y-16552608D01*
X11304501Y-16552608D02*
X11323548Y-16543084D01*
X11571167Y-16543084D02*
X11475929Y-16543084D01*
X11475929Y-16543084D02*
X11466406Y-16638322D01*
X11466406Y-16638322D02*
X11475929Y-16628798D01*
X11475929Y-16628798D02*
X11494977Y-16619274D01*
X11494977Y-16619274D02*
X11542596Y-16619274D01*
X11542596Y-16619274D02*
X11561644Y-16628798D01*
X11561644Y-16628798D02*
X11571167Y-16638322D01*
X11571167Y-16638322D02*
X11580691Y-16657369D01*
X11580691Y-16657369D02*
X11580691Y-16704988D01*
X11580691Y-16704988D02*
X11571167Y-16724036D01*
X11571167Y-16724036D02*
X11561644Y-16733560D01*
X11561644Y-16733560D02*
X11542596Y-16743084D01*
X11542596Y-16743084D02*
X11494977Y-16743084D01*
X11494977Y-16743084D02*
X11475929Y-16733560D01*
X11475929Y-16733560D02*
X11466406Y-16724036D01*
X11771167Y-16743084D02*
X11656882Y-16743084D01*
X11714025Y-16743084D02*
X11714025Y-16543084D01*
X11714025Y-16543084D02*
X11694977Y-16571655D01*
X11694977Y-16571655D02*
X11675929Y-16590703D01*
X11675929Y-16590703D02*
X11656882Y-16600227D01*
X11847358Y-16562131D02*
X11856882Y-16552608D01*
X11856882Y-16552608D02*
X11875929Y-16543084D01*
X11875929Y-16543084D02*
X11923548Y-16543084D01*
X11923548Y-16543084D02*
X11942596Y-16552608D01*
X11942596Y-16552608D02*
X11952120Y-16562131D01*
X11952120Y-16562131D02*
X11961644Y-16581179D01*
X11961644Y-16581179D02*
X11961644Y-16600227D01*
X11961644Y-16600227D02*
X11952120Y-16628798D01*
X11952120Y-16628798D02*
X11837834Y-16743084D01*
X11837834Y-16743084D02*
X11961644Y-16743084D01*
X12037834Y-16543084D02*
X12037834Y-16581179D01*
X12114025Y-16543084D02*
X12114025Y-16581179D01*
X12409263Y-16819274D02*
X12399739Y-16809750D01*
X12399739Y-16809750D02*
X12380691Y-16781179D01*
X12380691Y-16781179D02*
X12371168Y-16762131D01*
X12371168Y-16762131D02*
X12361644Y-16733560D01*
X12361644Y-16733560D02*
X12352120Y-16685941D01*
X12352120Y-16685941D02*
X12352120Y-16647846D01*
X12352120Y-16647846D02*
X12361644Y-16600227D01*
X12361644Y-16600227D02*
X12371168Y-16571655D01*
X12371168Y-16571655D02*
X12380691Y-16552608D01*
X12380691Y-16552608D02*
X12399739Y-16524036D01*
X12399739Y-16524036D02*
X12409263Y-16514512D01*
X12571168Y-16609750D02*
X12571168Y-16743084D01*
X12523548Y-16533560D02*
X12475929Y-16676417D01*
X12475929Y-16676417D02*
X12599739Y-16676417D01*
X12828310Y-16743084D02*
X12828310Y-16543084D01*
X12914025Y-16743084D02*
X12914025Y-16638322D01*
X12914025Y-16638322D02*
X12904501Y-16619274D01*
X12904501Y-16619274D02*
X12885453Y-16609750D01*
X12885453Y-16609750D02*
X12856882Y-16609750D01*
X12856882Y-16609750D02*
X12837834Y-16619274D01*
X12837834Y-16619274D02*
X12828310Y-16628798D01*
X13037834Y-16743084D02*
X13018787Y-16733560D01*
X13018787Y-16733560D02*
X13009263Y-16724036D01*
X13009263Y-16724036D02*
X12999739Y-16704988D01*
X12999739Y-16704988D02*
X12999739Y-16647846D01*
X12999739Y-16647846D02*
X13009263Y-16628798D01*
X13009263Y-16628798D02*
X13018787Y-16619274D01*
X13018787Y-16619274D02*
X13037834Y-16609750D01*
X13037834Y-16609750D02*
X13066406Y-16609750D01*
X13066406Y-16609750D02*
X13085453Y-16619274D01*
X13085453Y-16619274D02*
X13094977Y-16628798D01*
X13094977Y-16628798D02*
X13104501Y-16647846D01*
X13104501Y-16647846D02*
X13104501Y-16704988D01*
X13104501Y-16704988D02*
X13094977Y-16724036D01*
X13094977Y-16724036D02*
X13085453Y-16733560D01*
X13085453Y-16733560D02*
X13066406Y-16743084D01*
X13066406Y-16743084D02*
X13037834Y-16743084D01*
X13218787Y-16743084D02*
X13199739Y-16733560D01*
X13199739Y-16733560D02*
X13190215Y-16714512D01*
X13190215Y-16714512D02*
X13190215Y-16543084D01*
X13371168Y-16733560D02*
X13352120Y-16743084D01*
X13352120Y-16743084D02*
X13314025Y-16743084D01*
X13314025Y-16743084D02*
X13294977Y-16733560D01*
X13294977Y-16733560D02*
X13285453Y-16714512D01*
X13285453Y-16714512D02*
X13285453Y-16638322D01*
X13285453Y-16638322D02*
X13294977Y-16619274D01*
X13294977Y-16619274D02*
X13314025Y-16609750D01*
X13314025Y-16609750D02*
X13352120Y-16609750D01*
X13352120Y-16609750D02*
X13371168Y-16619274D01*
X13371168Y-16619274D02*
X13380691Y-16638322D01*
X13380691Y-16638322D02*
X13380691Y-16657369D01*
X13380691Y-16657369D02*
X13285453Y-16676417D01*
X13456882Y-16733560D02*
X13475930Y-16743084D01*
X13475930Y-16743084D02*
X13514025Y-16743084D01*
X13514025Y-16743084D02*
X13533072Y-16733560D01*
X13533072Y-16733560D02*
X13542596Y-16714512D01*
X13542596Y-16714512D02*
X13542596Y-16704988D01*
X13542596Y-16704988D02*
X13533072Y-16685941D01*
X13533072Y-16685941D02*
X13514025Y-16676417D01*
X13514025Y-16676417D02*
X13485453Y-16676417D01*
X13485453Y-16676417D02*
X13466406Y-16666893D01*
X13466406Y-16666893D02*
X13456882Y-16647846D01*
X13456882Y-16647846D02*
X13456882Y-16638322D01*
X13456882Y-16638322D02*
X13466406Y-16619274D01*
X13466406Y-16619274D02*
X13485453Y-16609750D01*
X13485453Y-16609750D02*
X13514025Y-16609750D01*
X13514025Y-16609750D02*
X13533072Y-16619274D01*
X13609263Y-16819274D02*
X13618787Y-16809750D01*
X13618787Y-16809750D02*
X13637834Y-16781179D01*
X13637834Y-16781179D02*
X13647358Y-16762131D01*
X13647358Y-16762131D02*
X13656882Y-16733560D01*
X13656882Y-16733560D02*
X13666406Y-16685941D01*
X13666406Y-16685941D02*
X13666406Y-16647846D01*
X13666406Y-16647846D02*
X13656882Y-16600227D01*
X13656882Y-16600227D02*
X13647358Y-16571655D01*
X13647358Y-16571655D02*
X13637834Y-16552608D01*
X13637834Y-16552608D02*
X13618787Y-16524036D01*
X13618787Y-16524036D02*
X13609263Y-16514512D01*
D14*
X8754200Y-16995600D02*
X8834200Y-16915600D01*
X8754200Y-16835600D01*
X8674200Y-16915600D01*
X8754200Y-16995600D01*
D11*
X9199739Y-17007084D02*
X9085453Y-17007084D01*
X9142596Y-17007084D02*
X9142596Y-16807084D01*
X9142596Y-16807084D02*
X9123548Y-16835655D01*
X9123548Y-16835655D02*
X9104501Y-16854703D01*
X9104501Y-16854703D02*
X9085453Y-16864227D01*
X9285453Y-16988036D02*
X9294977Y-16997560D01*
X9294977Y-16997560D02*
X9285453Y-17007084D01*
X9285453Y-17007084D02*
X9275929Y-16997560D01*
X9275929Y-16997560D02*
X9285453Y-16988036D01*
X9285453Y-16988036D02*
X9285453Y-17007084D01*
X9466405Y-16807084D02*
X9428310Y-16807084D01*
X9428310Y-16807084D02*
X9409263Y-16816608D01*
X9409263Y-16816608D02*
X9399739Y-16826131D01*
X9399739Y-16826131D02*
X9380691Y-16854703D01*
X9380691Y-16854703D02*
X9371167Y-16892798D01*
X9371167Y-16892798D02*
X9371167Y-16968989D01*
X9371167Y-16968989D02*
X9380691Y-16988036D01*
X9380691Y-16988036D02*
X9390215Y-16997560D01*
X9390215Y-16997560D02*
X9409263Y-17007084D01*
X9409263Y-17007084D02*
X9447358Y-17007084D01*
X9447358Y-17007084D02*
X9466405Y-16997560D01*
X9466405Y-16997560D02*
X9475929Y-16988036D01*
X9475929Y-16988036D02*
X9485453Y-16968989D01*
X9485453Y-16968989D02*
X9485453Y-16921370D01*
X9485453Y-16921370D02*
X9475929Y-16902322D01*
X9475929Y-16902322D02*
X9466405Y-16892798D01*
X9466405Y-16892798D02*
X9447358Y-16883274D01*
X9447358Y-16883274D02*
X9409263Y-16883274D01*
X9409263Y-16883274D02*
X9390215Y-16892798D01*
X9390215Y-16892798D02*
X9380691Y-16902322D01*
X9380691Y-16902322D02*
X9371167Y-16921370D01*
X9609263Y-16807084D02*
X9628310Y-16807084D01*
X9628310Y-16807084D02*
X9647358Y-16816608D01*
X9647358Y-16816608D02*
X9656882Y-16826131D01*
X9656882Y-16826131D02*
X9666405Y-16845179D01*
X9666405Y-16845179D02*
X9675929Y-16883274D01*
X9675929Y-16883274D02*
X9675929Y-16930893D01*
X9675929Y-16930893D02*
X9666405Y-16968989D01*
X9666405Y-16968989D02*
X9656882Y-16988036D01*
X9656882Y-16988036D02*
X9647358Y-16997560D01*
X9647358Y-16997560D02*
X9628310Y-17007084D01*
X9628310Y-17007084D02*
X9609263Y-17007084D01*
X9609263Y-17007084D02*
X9590215Y-16997560D01*
X9590215Y-16997560D02*
X9580691Y-16988036D01*
X9580691Y-16988036D02*
X9571167Y-16968989D01*
X9571167Y-16968989D02*
X9561644Y-16930893D01*
X9561644Y-16930893D02*
X9561644Y-16883274D01*
X9561644Y-16883274D02*
X9571167Y-16845179D01*
X9571167Y-16845179D02*
X9580691Y-16826131D01*
X9580691Y-16826131D02*
X9590215Y-16816608D01*
X9590215Y-16816608D02*
X9609263Y-16807084D01*
X9799739Y-16807084D02*
X9818786Y-16807084D01*
X9818786Y-16807084D02*
X9837834Y-16816608D01*
X9837834Y-16816608D02*
X9847358Y-16826131D01*
X9847358Y-16826131D02*
X9856882Y-16845179D01*
X9856882Y-16845179D02*
X9866405Y-16883274D01*
X9866405Y-16883274D02*
X9866405Y-16930893D01*
X9866405Y-16930893D02*
X9856882Y-16968989D01*
X9856882Y-16968989D02*
X9847358Y-16988036D01*
X9847358Y-16988036D02*
X9837834Y-16997560D01*
X9837834Y-16997560D02*
X9818786Y-17007084D01*
X9818786Y-17007084D02*
X9799739Y-17007084D01*
X9799739Y-17007084D02*
X9780691Y-16997560D01*
X9780691Y-16997560D02*
X9771167Y-16988036D01*
X9771167Y-16988036D02*
X9761644Y-16968989D01*
X9761644Y-16968989D02*
X9752120Y-16930893D01*
X9752120Y-16930893D02*
X9752120Y-16883274D01*
X9752120Y-16883274D02*
X9761644Y-16845179D01*
X9761644Y-16845179D02*
X9771167Y-16826131D01*
X9771167Y-16826131D02*
X9780691Y-16816608D01*
X9780691Y-16816608D02*
X9799739Y-16807084D01*
X9952120Y-17007084D02*
X9952120Y-16873750D01*
X9952120Y-16892798D02*
X9961644Y-16883274D01*
X9961644Y-16883274D02*
X9980691Y-16873750D01*
X9980691Y-16873750D02*
X10009263Y-16873750D01*
X10009263Y-16873750D02*
X10028310Y-16883274D01*
X10028310Y-16883274D02*
X10037834Y-16902322D01*
X10037834Y-16902322D02*
X10037834Y-17007084D01*
X10037834Y-16902322D02*
X10047358Y-16883274D01*
X10047358Y-16883274D02*
X10066405Y-16873750D01*
X10066405Y-16873750D02*
X10094977Y-16873750D01*
X10094977Y-16873750D02*
X10114025Y-16883274D01*
X10114025Y-16883274D02*
X10123548Y-16902322D01*
X10123548Y-16902322D02*
X10123548Y-17007084D01*
X10218786Y-17007084D02*
X10218786Y-16873750D01*
X10218786Y-16892798D02*
X10228310Y-16883274D01*
X10228310Y-16883274D02*
X10247358Y-16873750D01*
X10247358Y-16873750D02*
X10275929Y-16873750D01*
X10275929Y-16873750D02*
X10294977Y-16883274D01*
X10294977Y-16883274D02*
X10304501Y-16902322D01*
X10304501Y-16902322D02*
X10304501Y-17007084D01*
X10304501Y-16902322D02*
X10314025Y-16883274D01*
X10314025Y-16883274D02*
X10333072Y-16873750D01*
X10333072Y-16873750D02*
X10361644Y-16873750D01*
X10361644Y-16873750D02*
X10380691Y-16883274D01*
X10380691Y-16883274D02*
X10390215Y-16902322D01*
X10390215Y-16902322D02*
X10390215Y-17007084D01*
X10780691Y-16797560D02*
X10609263Y-17054703D01*
X11037834Y-16807084D02*
X11056882Y-16807084D01*
X11056882Y-16807084D02*
X11075929Y-16816608D01*
X11075929Y-16816608D02*
X11085453Y-16826131D01*
X11085453Y-16826131D02*
X11094977Y-16845179D01*
X11094977Y-16845179D02*
X11104501Y-16883274D01*
X11104501Y-16883274D02*
X11104501Y-16930893D01*
X11104501Y-16930893D02*
X11094977Y-16968989D01*
X11094977Y-16968989D02*
X11085453Y-16988036D01*
X11085453Y-16988036D02*
X11075929Y-16997560D01*
X11075929Y-16997560D02*
X11056882Y-17007084D01*
X11056882Y-17007084D02*
X11037834Y-17007084D01*
X11037834Y-17007084D02*
X11018787Y-16997560D01*
X11018787Y-16997560D02*
X11009263Y-16988036D01*
X11009263Y-16988036D02*
X10999739Y-16968989D01*
X10999739Y-16968989D02*
X10990215Y-16930893D01*
X10990215Y-16930893D02*
X10990215Y-16883274D01*
X10990215Y-16883274D02*
X10999739Y-16845179D01*
X10999739Y-16845179D02*
X11009263Y-16826131D01*
X11009263Y-16826131D02*
X11018787Y-16816608D01*
X11018787Y-16816608D02*
X11037834Y-16807084D01*
X11190215Y-16988036D02*
X11199739Y-16997560D01*
X11199739Y-16997560D02*
X11190215Y-17007084D01*
X11190215Y-17007084D02*
X11180691Y-16997560D01*
X11180691Y-16997560D02*
X11190215Y-16988036D01*
X11190215Y-16988036D02*
X11190215Y-17007084D01*
X11323548Y-16807084D02*
X11342596Y-16807084D01*
X11342596Y-16807084D02*
X11361644Y-16816608D01*
X11361644Y-16816608D02*
X11371167Y-16826131D01*
X11371167Y-16826131D02*
X11380691Y-16845179D01*
X11380691Y-16845179D02*
X11390215Y-16883274D01*
X11390215Y-16883274D02*
X11390215Y-16930893D01*
X11390215Y-16930893D02*
X11380691Y-16968989D01*
X11380691Y-16968989D02*
X11371167Y-16988036D01*
X11371167Y-16988036D02*
X11361644Y-16997560D01*
X11361644Y-16997560D02*
X11342596Y-17007084D01*
X11342596Y-17007084D02*
X11323548Y-17007084D01*
X11323548Y-17007084D02*
X11304501Y-16997560D01*
X11304501Y-16997560D02*
X11294977Y-16988036D01*
X11294977Y-16988036D02*
X11285453Y-16968989D01*
X11285453Y-16968989D02*
X11275929Y-16930893D01*
X11275929Y-16930893D02*
X11275929Y-16883274D01*
X11275929Y-16883274D02*
X11285453Y-16845179D01*
X11285453Y-16845179D02*
X11294977Y-16826131D01*
X11294977Y-16826131D02*
X11304501Y-16816608D01*
X11304501Y-16816608D02*
X11323548Y-16807084D01*
X11561644Y-16807084D02*
X11523548Y-16807084D01*
X11523548Y-16807084D02*
X11504501Y-16816608D01*
X11504501Y-16816608D02*
X11494977Y-16826131D01*
X11494977Y-16826131D02*
X11475929Y-16854703D01*
X11475929Y-16854703D02*
X11466406Y-16892798D01*
X11466406Y-16892798D02*
X11466406Y-16968989D01*
X11466406Y-16968989D02*
X11475929Y-16988036D01*
X11475929Y-16988036D02*
X11485453Y-16997560D01*
X11485453Y-16997560D02*
X11504501Y-17007084D01*
X11504501Y-17007084D02*
X11542596Y-17007084D01*
X11542596Y-17007084D02*
X11561644Y-16997560D01*
X11561644Y-16997560D02*
X11571167Y-16988036D01*
X11571167Y-16988036D02*
X11580691Y-16968989D01*
X11580691Y-16968989D02*
X11580691Y-16921370D01*
X11580691Y-16921370D02*
X11571167Y-16902322D01*
X11571167Y-16902322D02*
X11561644Y-16892798D01*
X11561644Y-16892798D02*
X11542596Y-16883274D01*
X11542596Y-16883274D02*
X11504501Y-16883274D01*
X11504501Y-16883274D02*
X11485453Y-16892798D01*
X11485453Y-16892798D02*
X11475929Y-16902322D01*
X11475929Y-16902322D02*
X11466406Y-16921370D01*
X11647358Y-16807084D02*
X11771167Y-16807084D01*
X11771167Y-16807084D02*
X11704501Y-16883274D01*
X11704501Y-16883274D02*
X11733072Y-16883274D01*
X11733072Y-16883274D02*
X11752120Y-16892798D01*
X11752120Y-16892798D02*
X11761644Y-16902322D01*
X11761644Y-16902322D02*
X11771167Y-16921370D01*
X11771167Y-16921370D02*
X11771167Y-16968989D01*
X11771167Y-16968989D02*
X11761644Y-16988036D01*
X11761644Y-16988036D02*
X11752120Y-16997560D01*
X11752120Y-16997560D02*
X11733072Y-17007084D01*
X11733072Y-17007084D02*
X11675929Y-17007084D01*
X11675929Y-17007084D02*
X11656882Y-16997560D01*
X11656882Y-16997560D02*
X11647358Y-16988036D01*
X11894977Y-16807084D02*
X11914025Y-16807084D01*
X11914025Y-16807084D02*
X11933072Y-16816608D01*
X11933072Y-16816608D02*
X11942596Y-16826131D01*
X11942596Y-16826131D02*
X11952120Y-16845179D01*
X11952120Y-16845179D02*
X11961644Y-16883274D01*
X11961644Y-16883274D02*
X11961644Y-16930893D01*
X11961644Y-16930893D02*
X11952120Y-16968989D01*
X11952120Y-16968989D02*
X11942596Y-16988036D01*
X11942596Y-16988036D02*
X11933072Y-16997560D01*
X11933072Y-16997560D02*
X11914025Y-17007084D01*
X11914025Y-17007084D02*
X11894977Y-17007084D01*
X11894977Y-17007084D02*
X11875929Y-16997560D01*
X11875929Y-16997560D02*
X11866406Y-16988036D01*
X11866406Y-16988036D02*
X11856882Y-16968989D01*
X11856882Y-16968989D02*
X11847358Y-16930893D01*
X11847358Y-16930893D02*
X11847358Y-16883274D01*
X11847358Y-16883274D02*
X11856882Y-16845179D01*
X11856882Y-16845179D02*
X11866406Y-16826131D01*
X11866406Y-16826131D02*
X11875929Y-16816608D01*
X11875929Y-16816608D02*
X11894977Y-16807084D01*
X12037834Y-16807084D02*
X12037834Y-16845179D01*
X12114025Y-16807084D02*
X12114025Y-16845179D01*
X12409263Y-17083274D02*
X12399739Y-17073750D01*
X12399739Y-17073750D02*
X12380691Y-17045179D01*
X12380691Y-17045179D02*
X12371168Y-17026131D01*
X12371168Y-17026131D02*
X12361644Y-16997560D01*
X12361644Y-16997560D02*
X12352120Y-16949941D01*
X12352120Y-16949941D02*
X12352120Y-16911846D01*
X12352120Y-16911846D02*
X12361644Y-16864227D01*
X12361644Y-16864227D02*
X12371168Y-16835655D01*
X12371168Y-16835655D02*
X12380691Y-16816608D01*
X12380691Y-16816608D02*
X12399739Y-16788036D01*
X12399739Y-16788036D02*
X12409263Y-16778512D01*
X12466406Y-16807084D02*
X12590215Y-16807084D01*
X12590215Y-16807084D02*
X12523548Y-16883274D01*
X12523548Y-16883274D02*
X12552120Y-16883274D01*
X12552120Y-16883274D02*
X12571168Y-16892798D01*
X12571168Y-16892798D02*
X12580691Y-16902322D01*
X12580691Y-16902322D02*
X12590215Y-16921370D01*
X12590215Y-16921370D02*
X12590215Y-16968989D01*
X12590215Y-16968989D02*
X12580691Y-16988036D01*
X12580691Y-16988036D02*
X12571168Y-16997560D01*
X12571168Y-16997560D02*
X12552120Y-17007084D01*
X12552120Y-17007084D02*
X12494977Y-17007084D01*
X12494977Y-17007084D02*
X12475929Y-16997560D01*
X12475929Y-16997560D02*
X12466406Y-16988036D01*
X12828310Y-17007084D02*
X12828310Y-16807084D01*
X12914025Y-17007084D02*
X12914025Y-16902322D01*
X12914025Y-16902322D02*
X12904501Y-16883274D01*
X12904501Y-16883274D02*
X12885453Y-16873750D01*
X12885453Y-16873750D02*
X12856882Y-16873750D01*
X12856882Y-16873750D02*
X12837834Y-16883274D01*
X12837834Y-16883274D02*
X12828310Y-16892798D01*
X13037834Y-17007084D02*
X13018787Y-16997560D01*
X13018787Y-16997560D02*
X13009263Y-16988036D01*
X13009263Y-16988036D02*
X12999739Y-16968989D01*
X12999739Y-16968989D02*
X12999739Y-16911846D01*
X12999739Y-16911846D02*
X13009263Y-16892798D01*
X13009263Y-16892798D02*
X13018787Y-16883274D01*
X13018787Y-16883274D02*
X13037834Y-16873750D01*
X13037834Y-16873750D02*
X13066406Y-16873750D01*
X13066406Y-16873750D02*
X13085453Y-16883274D01*
X13085453Y-16883274D02*
X13094977Y-16892798D01*
X13094977Y-16892798D02*
X13104501Y-16911846D01*
X13104501Y-16911846D02*
X13104501Y-16968989D01*
X13104501Y-16968989D02*
X13094977Y-16988036D01*
X13094977Y-16988036D02*
X13085453Y-16997560D01*
X13085453Y-16997560D02*
X13066406Y-17007084D01*
X13066406Y-17007084D02*
X13037834Y-17007084D01*
X13218787Y-17007084D02*
X13199739Y-16997560D01*
X13199739Y-16997560D02*
X13190215Y-16978512D01*
X13190215Y-16978512D02*
X13190215Y-16807084D01*
X13371168Y-16997560D02*
X13352120Y-17007084D01*
X13352120Y-17007084D02*
X13314025Y-17007084D01*
X13314025Y-17007084D02*
X13294977Y-16997560D01*
X13294977Y-16997560D02*
X13285453Y-16978512D01*
X13285453Y-16978512D02*
X13285453Y-16902322D01*
X13285453Y-16902322D02*
X13294977Y-16883274D01*
X13294977Y-16883274D02*
X13314025Y-16873750D01*
X13314025Y-16873750D02*
X13352120Y-16873750D01*
X13352120Y-16873750D02*
X13371168Y-16883274D01*
X13371168Y-16883274D02*
X13380691Y-16902322D01*
X13380691Y-16902322D02*
X13380691Y-16921370D01*
X13380691Y-16921370D02*
X13285453Y-16940417D01*
X13456882Y-16997560D02*
X13475930Y-17007084D01*
X13475930Y-17007084D02*
X13514025Y-17007084D01*
X13514025Y-17007084D02*
X13533072Y-16997560D01*
X13533072Y-16997560D02*
X13542596Y-16978512D01*
X13542596Y-16978512D02*
X13542596Y-16968989D01*
X13542596Y-16968989D02*
X13533072Y-16949941D01*
X13533072Y-16949941D02*
X13514025Y-16940417D01*
X13514025Y-16940417D02*
X13485453Y-16940417D01*
X13485453Y-16940417D02*
X13466406Y-16930893D01*
X13466406Y-16930893D02*
X13456882Y-16911846D01*
X13456882Y-16911846D02*
X13456882Y-16902322D01*
X13456882Y-16902322D02*
X13466406Y-16883274D01*
X13466406Y-16883274D02*
X13485453Y-16873750D01*
X13485453Y-16873750D02*
X13514025Y-16873750D01*
X13514025Y-16873750D02*
X13533072Y-16883274D01*
X13609263Y-17083274D02*
X13618787Y-17073750D01*
X13618787Y-17073750D02*
X13637834Y-17045179D01*
X13637834Y-17045179D02*
X13647358Y-17026131D01*
X13647358Y-17026131D02*
X13656882Y-16997560D01*
X13656882Y-16997560D02*
X13666406Y-16949941D01*
X13666406Y-16949941D02*
X13666406Y-16911846D01*
X13666406Y-16911846D02*
X13656882Y-16864227D01*
X13656882Y-16864227D02*
X13647358Y-16835655D01*
X13647358Y-16835655D02*
X13637834Y-16816608D01*
X13637834Y-16816608D02*
X13618787Y-16788036D01*
X13618787Y-16788036D02*
X13609263Y-16778512D01*
M02*
