G04 #@! TF.GenerationSoftware,KiCad,Pcbnew,8.0.1*
G04 #@! TF.CreationDate,2024-04-23T21:26:09-07:00*
G04 #@! TF.ProjectId,LED_Device,4c45445f-4465-4766-9963-652e6b696361,rev?*
G04 #@! TF.SameCoordinates,Original*
G04 #@! TF.FileFunction,Soldermask,Bot*
G04 #@! TF.FilePolarity,Negative*
%FSLAX46Y46*%
G04 Gerber Fmt 4.6, Leading zero omitted, Abs format (unit mm)*
G04 Created by KiCad (PCBNEW 8.0.1) date 2024-04-23 21:26:09*
%MOMM*%
%LPD*%
G01*
G04 APERTURE LIST*
%ADD10R,4.500000X2.000000*%
%ADD11O,4.000000X2.000000*%
%ADD12O,2.000000X4.000000*%
%ADD13C,1.600000*%
%ADD14O,1.600000X1.600000*%
%ADD15C,2.000000*%
%ADD16R,1.600000X1.600000*%
%ADD17C,1.800000*%
%ADD18O,2.000000X1.200000*%
%ADD19R,2.000000X1.200000*%
%ADD20O,1.200000X3.180000*%
%ADD21R,3.100000X3.100000*%
G04 APERTURE END LIST*
D10*
X105445000Y-126265000D03*
D11*
X105445000Y-132465000D03*
D12*
X110145000Y-129465000D03*
D13*
X144145000Y-86360000D03*
D14*
X159385000Y-86360000D03*
D15*
X133350000Y-91495000D03*
X126850000Y-91495000D03*
X133350000Y-86995000D03*
X126850000Y-86995000D03*
D13*
X159385000Y-114935000D03*
D14*
X159385000Y-99695000D03*
D16*
X144820000Y-110490000D03*
D13*
X147320000Y-110490000D03*
D17*
X120269000Y-102438200D03*
X120269000Y-99898200D03*
X120269000Y-97358200D03*
X120269000Y-94818200D03*
X120269000Y-92278200D03*
X120269000Y-89738200D03*
X120269000Y-87198200D03*
D16*
X108585000Y-109220000D03*
X108585000Y-111760000D03*
X108585000Y-114300000D03*
D15*
X133350000Y-101825000D03*
X126850000Y-101825000D03*
X133350000Y-97325000D03*
X126850000Y-97325000D03*
D13*
X144145000Y-93980000D03*
D14*
X159385000Y-93980000D03*
D18*
X166065200Y-84455000D03*
X166065200Y-86995000D03*
X166065200Y-89535000D03*
X166065200Y-92075000D03*
X166065200Y-94615000D03*
X166065200Y-97155000D03*
X166065200Y-99695000D03*
X166065200Y-102235000D03*
X166065200Y-104775000D03*
X166065200Y-107315000D03*
X166065200Y-109855000D03*
X166065200Y-112395000D03*
X166065200Y-114935000D03*
X166065200Y-117475000D03*
X166065200Y-120015000D03*
D19*
X166065200Y-122555000D03*
D18*
X166065200Y-125095000D03*
X166065200Y-127635000D03*
X166065200Y-130175000D03*
X189230000Y-84455000D03*
X189230000Y-86995000D03*
X189230000Y-89535000D03*
X189230000Y-92075000D03*
X189230000Y-94615000D03*
X189230000Y-97155000D03*
X189230000Y-99695000D03*
X189230000Y-102235000D03*
X189230000Y-104775000D03*
X189230000Y-107315000D03*
X189230000Y-109855000D03*
X189230000Y-112395000D03*
X189230000Y-114935000D03*
X189230000Y-117475000D03*
X189230000Y-120015000D03*
D19*
X189230000Y-122555000D03*
D18*
X189230000Y-125095000D03*
X189230000Y-127635000D03*
X189230000Y-130175000D03*
D16*
X144844888Y-103505000D03*
D13*
X147344888Y-103505000D03*
D20*
X140970000Y-107770000D03*
X138430000Y-107770000D03*
X135890000Y-107770000D03*
X133350000Y-107770000D03*
X130810000Y-107770000D03*
X128270000Y-107770000D03*
X125730000Y-107770000D03*
X125730000Y-115570000D03*
X128270000Y-115570000D03*
X130810000Y-115570000D03*
X133350000Y-115570000D03*
X135890000Y-115570000D03*
X138430000Y-115570000D03*
X140970000Y-115570000D03*
D13*
X151765000Y-114935000D03*
D14*
X151765000Y-99695000D03*
D21*
X114858800Y-120751600D03*
X114858800Y-138633200D03*
X154940000Y-120751600D03*
X154940000Y-138633200D03*
M02*
