M48
; DRILL file {KiCad 8.0.1} date 2024-04-23T21:26:31-0700
; FORMAT={-:-/ absolute / metric / decimal}
; #@! TF.CreationDate,2024-04-23T21:26:31-07:00
; #@! TF.GenerationSoftware,Kicad,Pcbnew,8.0.1
; #@! TF.FileFunction,Plated,1,4,PTH
FMAT,2
METRIC
; #@! TA.AperFunction,Plated,PTH,ComponentDrill
T1C0.800
; #@! TA.AperFunction,Plated,PTH,ComponentDrill
T2C1.000
; #@! TA.AperFunction,Plated,PTH,ComponentDrill
T3C1.100
; #@! TA.AperFunction,Plated,PTH,ComponentDrill
T4C1.300
; #@! TA.AperFunction,Plated,PTH,ComponentDrill
T5C1.600
%
G90
G05
T1
X125.73Y-107.77
X125.73Y-115.57
X128.27Y-107.77
X128.27Y-115.57
X130.81Y-107.77
X130.81Y-115.57
X133.35Y-107.77
X133.35Y-115.57
X135.89Y-107.77
X135.89Y-115.57
X138.43Y-107.77
X138.43Y-115.57
X140.97Y-107.77
X140.97Y-115.57
X144.145Y-86.36
X144.145Y-93.98
X144.82Y-110.49
X144.845Y-103.505
X147.32Y-110.49
X147.345Y-103.505
X151.765Y-99.695
X151.765Y-114.935
X159.385Y-86.36
X159.385Y-93.98
X159.385Y-99.695
X159.385Y-114.935
X166.065Y-84.455
X166.065Y-86.995
X166.065Y-89.535
X166.065Y-92.075
X166.065Y-94.615
X166.065Y-97.155
X166.065Y-99.695
X166.065Y-102.235
X166.065Y-104.775
X166.065Y-107.315
X166.065Y-109.855
X166.065Y-112.395
X166.065Y-114.935
X166.065Y-117.475
X166.065Y-120.015
X166.065Y-122.555
X166.065Y-125.095
X166.065Y-127.635
X166.065Y-130.175
X189.23Y-84.455
X189.23Y-86.995
X189.23Y-89.535
X189.23Y-92.075
X189.23Y-94.615
X189.23Y-97.155
X189.23Y-99.695
X189.23Y-102.235
X189.23Y-104.775
X189.23Y-107.315
X189.23Y-109.855
X189.23Y-112.395
X189.23Y-114.935
X189.23Y-117.475
X189.23Y-120.015
X189.23Y-122.555
X189.23Y-125.095
X189.23Y-127.635
X189.23Y-130.175
T2
X108.585Y-109.22
X108.585Y-111.76
X108.585Y-114.3
X120.269Y-87.198
X120.269Y-89.738
X120.269Y-92.278
X120.269Y-94.818
X120.269Y-97.358
X120.269Y-99.898
X120.269Y-102.438
T3
X126.85Y-86.995
X126.85Y-91.495
X126.85Y-97.325
X126.85Y-101.825
X133.35Y-86.995
X133.35Y-91.495
X133.35Y-97.325
X133.35Y-101.825
T4
X114.859Y-120.752
X114.859Y-138.633
X154.94Y-120.752
X154.94Y-138.633
T5
X105.445Y-126.265
X105.445Y-132.465
X110.145Y-129.465
M30
