G04 #@! TF.GenerationSoftware,KiCad,Pcbnew,8.0.1*
G04 #@! TF.CreationDate,2024-04-23T21:26:09-07:00*
G04 #@! TF.ProjectId,LED_Device,4c45445f-4465-4766-9963-652e6b696361,rev?*
G04 #@! TF.SameCoordinates,Original*
G04 #@! TF.FileFunction,Copper,L3,Inr*
G04 #@! TF.FilePolarity,Positive*
%FSLAX46Y46*%
G04 Gerber Fmt 4.6, Leading zero omitted, Abs format (unit mm)*
G04 Created by KiCad (PCBNEW 8.0.1) date 2024-04-23 21:26:09*
%MOMM*%
%LPD*%
G01*
G04 APERTURE LIST*
G04 #@! TA.AperFunction,ComponentPad*
%ADD10R,4.500000X2.000000*%
G04 #@! TD*
G04 #@! TA.AperFunction,ComponentPad*
%ADD11O,4.000000X2.000000*%
G04 #@! TD*
G04 #@! TA.AperFunction,ComponentPad*
%ADD12O,2.000000X4.000000*%
G04 #@! TD*
G04 #@! TA.AperFunction,ComponentPad*
%ADD13C,1.600000*%
G04 #@! TD*
G04 #@! TA.AperFunction,ComponentPad*
%ADD14O,1.600000X1.600000*%
G04 #@! TD*
G04 #@! TA.AperFunction,ComponentPad*
%ADD15C,2.000000*%
G04 #@! TD*
G04 #@! TA.AperFunction,ComponentPad*
%ADD16R,1.600000X1.600000*%
G04 #@! TD*
G04 #@! TA.AperFunction,ComponentPad*
%ADD17C,1.800000*%
G04 #@! TD*
G04 #@! TA.AperFunction,ComponentPad*
%ADD18O,2.000000X1.200000*%
G04 #@! TD*
G04 #@! TA.AperFunction,ComponentPad*
%ADD19R,2.000000X1.200000*%
G04 #@! TD*
G04 #@! TA.AperFunction,ComponentPad*
%ADD20O,1.200000X3.180000*%
G04 #@! TD*
G04 #@! TA.AperFunction,ComponentPad*
%ADD21R,3.100000X3.100000*%
G04 #@! TD*
G04 APERTURE END LIST*
D10*
X105445000Y-126265000D03*
D11*
X105445000Y-132465000D03*
D12*
X110145000Y-129465000D03*
D13*
X144145000Y-86360000D03*
D14*
X159385000Y-86360000D03*
D15*
X133350000Y-91495000D03*
X126850000Y-91495000D03*
X133350000Y-86995000D03*
X126850000Y-86995000D03*
D13*
X159385000Y-114935000D03*
D14*
X159385000Y-99695000D03*
D16*
X144820000Y-110490000D03*
D13*
X147320000Y-110490000D03*
D17*
X120269000Y-102438200D03*
X120269000Y-99898200D03*
X120269000Y-97358200D03*
X120269000Y-94818200D03*
X120269000Y-92278200D03*
X120269000Y-89738200D03*
X120269000Y-87198200D03*
D16*
X108585000Y-109220000D03*
X108585000Y-111760000D03*
X108585000Y-114300000D03*
D15*
X133350000Y-101825000D03*
X126850000Y-101825000D03*
X133350000Y-97325000D03*
X126850000Y-97325000D03*
D13*
X144145000Y-93980000D03*
D14*
X159385000Y-93980000D03*
D18*
X166065200Y-84455000D03*
X166065200Y-86995000D03*
X166065200Y-89535000D03*
X166065200Y-92075000D03*
X166065200Y-94615000D03*
X166065200Y-97155000D03*
X166065200Y-99695000D03*
X166065200Y-102235000D03*
X166065200Y-104775000D03*
X166065200Y-107315000D03*
X166065200Y-109855000D03*
X166065200Y-112395000D03*
X166065200Y-114935000D03*
X166065200Y-117475000D03*
X166065200Y-120015000D03*
D19*
X166065200Y-122555000D03*
D18*
X166065200Y-125095000D03*
X166065200Y-127635000D03*
X166065200Y-130175000D03*
X189230000Y-84455000D03*
X189230000Y-86995000D03*
X189230000Y-89535000D03*
X189230000Y-92075000D03*
X189230000Y-94615000D03*
X189230000Y-97155000D03*
X189230000Y-99695000D03*
X189230000Y-102235000D03*
X189230000Y-104775000D03*
X189230000Y-107315000D03*
X189230000Y-109855000D03*
X189230000Y-112395000D03*
X189230000Y-114935000D03*
X189230000Y-117475000D03*
X189230000Y-120015000D03*
D19*
X189230000Y-122555000D03*
D18*
X189230000Y-125095000D03*
X189230000Y-127635000D03*
X189230000Y-130175000D03*
D16*
X144844888Y-103505000D03*
D13*
X147344888Y-103505000D03*
D20*
X140970000Y-107770000D03*
X138430000Y-107770000D03*
X135890000Y-107770000D03*
X133350000Y-107770000D03*
X130810000Y-107770000D03*
X128270000Y-107770000D03*
X125730000Y-107770000D03*
X125730000Y-115570000D03*
X128270000Y-115570000D03*
X130810000Y-115570000D03*
X133350000Y-115570000D03*
X135890000Y-115570000D03*
X138430000Y-115570000D03*
X140970000Y-115570000D03*
D13*
X151765000Y-114935000D03*
D14*
X151765000Y-99695000D03*
D21*
X114858800Y-120751600D03*
X114858800Y-138633200D03*
X154940000Y-120751600D03*
X154940000Y-138633200D03*
G04 #@! TA.AperFunction,Conductor*
G36*
X191713039Y-81934685D02*
G01*
X191758794Y-81987489D01*
X191770000Y-82039000D01*
X191770000Y-141481000D01*
X191750315Y-141548039D01*
X191697511Y-141593794D01*
X191646000Y-141605000D01*
X99819000Y-141605000D01*
X99751961Y-141585315D01*
X99706206Y-141532511D01*
X99695000Y-141481000D01*
X99695000Y-140231044D01*
X112808800Y-140231044D01*
X112815201Y-140290572D01*
X112815203Y-140290579D01*
X112865445Y-140425286D01*
X112865449Y-140425293D01*
X112951609Y-140540387D01*
X112951612Y-140540390D01*
X113066706Y-140626550D01*
X113066713Y-140626554D01*
X113201420Y-140676796D01*
X113201427Y-140676798D01*
X113260955Y-140683199D01*
X113260972Y-140683200D01*
X114608800Y-140683200D01*
X114608800Y-139233201D01*
X114669202Y-139258221D01*
X114794781Y-139283200D01*
X114922819Y-139283200D01*
X115048398Y-139258221D01*
X115108800Y-139233201D01*
X115108800Y-140683200D01*
X116456628Y-140683200D01*
X116456644Y-140683199D01*
X116516172Y-140676798D01*
X116516179Y-140676796D01*
X116650886Y-140626554D01*
X116650893Y-140626550D01*
X116765987Y-140540390D01*
X116765990Y-140540387D01*
X116852150Y-140425293D01*
X116852154Y-140425286D01*
X116902396Y-140290579D01*
X116902398Y-140290572D01*
X116908799Y-140231044D01*
X152890000Y-140231044D01*
X152896401Y-140290572D01*
X152896403Y-140290579D01*
X152946645Y-140425286D01*
X152946649Y-140425293D01*
X153032809Y-140540387D01*
X153032812Y-140540390D01*
X153147906Y-140626550D01*
X153147913Y-140626554D01*
X153282620Y-140676796D01*
X153282627Y-140676798D01*
X153342155Y-140683199D01*
X153342172Y-140683200D01*
X154690000Y-140683200D01*
X154690000Y-139233201D01*
X154750402Y-139258221D01*
X154875981Y-139283200D01*
X155004019Y-139283200D01*
X155129598Y-139258221D01*
X155190000Y-139233201D01*
X155190000Y-140683200D01*
X156537828Y-140683200D01*
X156537844Y-140683199D01*
X156597372Y-140676798D01*
X156597379Y-140676796D01*
X156732086Y-140626554D01*
X156732093Y-140626550D01*
X156847187Y-140540390D01*
X156847190Y-140540387D01*
X156933350Y-140425293D01*
X156933354Y-140425286D01*
X156983596Y-140290579D01*
X156983598Y-140290572D01*
X156989999Y-140231044D01*
X156990000Y-140231027D01*
X156990000Y-138883200D01*
X155540001Y-138883200D01*
X155565021Y-138822798D01*
X155590000Y-138697219D01*
X155590000Y-138569181D01*
X155565021Y-138443602D01*
X155540001Y-138383200D01*
X156990000Y-138383200D01*
X156990000Y-137035372D01*
X156989999Y-137035355D01*
X156983598Y-136975827D01*
X156983596Y-136975820D01*
X156933354Y-136841113D01*
X156933350Y-136841106D01*
X156847190Y-136726012D01*
X156847187Y-136726009D01*
X156732093Y-136639849D01*
X156732086Y-136639845D01*
X156597379Y-136589603D01*
X156597372Y-136589601D01*
X156537844Y-136583200D01*
X155190000Y-136583200D01*
X155190000Y-138033198D01*
X155129598Y-138008179D01*
X155004019Y-137983200D01*
X154875981Y-137983200D01*
X154750402Y-138008179D01*
X154690000Y-138033198D01*
X154690000Y-136583200D01*
X153342155Y-136583200D01*
X153282627Y-136589601D01*
X153282620Y-136589603D01*
X153147913Y-136639845D01*
X153147906Y-136639849D01*
X153032812Y-136726009D01*
X153032809Y-136726012D01*
X152946649Y-136841106D01*
X152946645Y-136841113D01*
X152896403Y-136975820D01*
X152896401Y-136975827D01*
X152890000Y-137035355D01*
X152890000Y-138383200D01*
X154339999Y-138383200D01*
X154314979Y-138443602D01*
X154290000Y-138569181D01*
X154290000Y-138697219D01*
X154314979Y-138822798D01*
X154339999Y-138883200D01*
X152890000Y-138883200D01*
X152890000Y-140231044D01*
X116908799Y-140231044D01*
X116908800Y-140231027D01*
X116908800Y-138883200D01*
X115458801Y-138883200D01*
X115483821Y-138822798D01*
X115508800Y-138697219D01*
X115508800Y-138569181D01*
X115483821Y-138443602D01*
X115458801Y-138383200D01*
X116908800Y-138383200D01*
X116908800Y-137035372D01*
X116908799Y-137035355D01*
X116902398Y-136975827D01*
X116902396Y-136975820D01*
X116852154Y-136841113D01*
X116852150Y-136841106D01*
X116765990Y-136726012D01*
X116765987Y-136726009D01*
X116650893Y-136639849D01*
X116650886Y-136639845D01*
X116516179Y-136589603D01*
X116516172Y-136589601D01*
X116456644Y-136583200D01*
X115108800Y-136583200D01*
X115108800Y-138033198D01*
X115048398Y-138008179D01*
X114922819Y-137983200D01*
X114794781Y-137983200D01*
X114669202Y-138008179D01*
X114608800Y-138033198D01*
X114608800Y-136583200D01*
X113260955Y-136583200D01*
X113201427Y-136589601D01*
X113201420Y-136589603D01*
X113066713Y-136639845D01*
X113066706Y-136639849D01*
X112951612Y-136726009D01*
X112951609Y-136726012D01*
X112865449Y-136841106D01*
X112865445Y-136841113D01*
X112815203Y-136975820D01*
X112815201Y-136975827D01*
X112808800Y-137035355D01*
X112808800Y-138383200D01*
X114258799Y-138383200D01*
X114233779Y-138443602D01*
X114208800Y-138569181D01*
X114208800Y-138697219D01*
X114233779Y-138822798D01*
X114258799Y-138883200D01*
X112808800Y-138883200D01*
X112808800Y-140231044D01*
X99695000Y-140231044D01*
X99695000Y-132715000D01*
X102965898Y-132715000D01*
X102981934Y-132816247D01*
X103054897Y-133040802D01*
X103162085Y-133251171D01*
X103300866Y-133442186D01*
X103467813Y-133609133D01*
X103658828Y-133747914D01*
X103869197Y-133855102D01*
X104093752Y-133928065D01*
X104093751Y-133928065D01*
X104326948Y-133965000D01*
X105195000Y-133965000D01*
X105195000Y-133227360D01*
X105211649Y-133234257D01*
X105366207Y-133265000D01*
X105523793Y-133265000D01*
X105678351Y-133234257D01*
X105695000Y-133227360D01*
X105695000Y-133965000D01*
X106563052Y-133965000D01*
X106796247Y-133928065D01*
X107020802Y-133855102D01*
X107231171Y-133747914D01*
X107422186Y-133609133D01*
X107589133Y-133442186D01*
X107727914Y-133251171D01*
X107835102Y-133040802D01*
X107908065Y-132816247D01*
X107924102Y-132715000D01*
X106207361Y-132715000D01*
X106214257Y-132698351D01*
X106245000Y-132543793D01*
X106245000Y-132386207D01*
X106214257Y-132231649D01*
X106207361Y-132215000D01*
X107924102Y-132215000D01*
X107908065Y-132113752D01*
X107835102Y-131889197D01*
X107727914Y-131678828D01*
X107589133Y-131487813D01*
X107422186Y-131320866D01*
X107231171Y-131182085D01*
X107020802Y-131074897D01*
X106796247Y-131001934D01*
X106796248Y-131001934D01*
X106563052Y-130965000D01*
X105695000Y-130965000D01*
X105695000Y-131702639D01*
X105678351Y-131695743D01*
X105523793Y-131665000D01*
X105366207Y-131665000D01*
X105211649Y-131695743D01*
X105195000Y-131702639D01*
X105195000Y-130965000D01*
X104326948Y-130965000D01*
X104093752Y-131001934D01*
X103869197Y-131074897D01*
X103658828Y-131182085D01*
X103467813Y-131320866D01*
X103300866Y-131487813D01*
X103162085Y-131678828D01*
X103054897Y-131889197D01*
X102981934Y-132113752D01*
X102965898Y-132215000D01*
X104682639Y-132215000D01*
X104675743Y-132231649D01*
X104645000Y-132386207D01*
X104645000Y-132543793D01*
X104675743Y-132698351D01*
X104682639Y-132715000D01*
X102965898Y-132715000D01*
X99695000Y-132715000D01*
X99695000Y-130559486D01*
X108944500Y-130559486D01*
X108974059Y-130746118D01*
X109032454Y-130925836D01*
X109108405Y-131074897D01*
X109118240Y-131094199D01*
X109229310Y-131247073D01*
X109362927Y-131380690D01*
X109515801Y-131491760D01*
X109595347Y-131532290D01*
X109684163Y-131577545D01*
X109684165Y-131577545D01*
X109684168Y-131577547D01*
X109780497Y-131608846D01*
X109863881Y-131635940D01*
X110050514Y-131665500D01*
X110050519Y-131665500D01*
X110239486Y-131665500D01*
X110426118Y-131635940D01*
X110605832Y-131577547D01*
X110774199Y-131491760D01*
X110927073Y-131380690D01*
X111060690Y-131247073D01*
X111171760Y-131094199D01*
X111257547Y-130925832D01*
X111315940Y-130746118D01*
X111325574Y-130685289D01*
X111345500Y-130559486D01*
X111345500Y-130253846D01*
X164864700Y-130253846D01*
X164895461Y-130408489D01*
X164895464Y-130408501D01*
X164955802Y-130554172D01*
X164955809Y-130554185D01*
X165043410Y-130685288D01*
X165043413Y-130685292D01*
X165154907Y-130796786D01*
X165154911Y-130796789D01*
X165286014Y-130884390D01*
X165286027Y-130884397D01*
X165431698Y-130944735D01*
X165431703Y-130944737D01*
X165586353Y-130975499D01*
X165586356Y-130975500D01*
X165586358Y-130975500D01*
X166544044Y-130975500D01*
X166544045Y-130975499D01*
X166698697Y-130944737D01*
X166844379Y-130884394D01*
X166975489Y-130796789D01*
X167086989Y-130685289D01*
X167174594Y-130554179D01*
X167234937Y-130408497D01*
X167265699Y-130253846D01*
X188029500Y-130253846D01*
X188060261Y-130408489D01*
X188060264Y-130408501D01*
X188120602Y-130554172D01*
X188120609Y-130554185D01*
X188208210Y-130685288D01*
X188208213Y-130685292D01*
X188319707Y-130796786D01*
X188319711Y-130796789D01*
X188450814Y-130884390D01*
X188450827Y-130884397D01*
X188596498Y-130944735D01*
X188596503Y-130944737D01*
X188751153Y-130975499D01*
X188751156Y-130975500D01*
X188751158Y-130975500D01*
X189708844Y-130975500D01*
X189708845Y-130975499D01*
X189863497Y-130944737D01*
X190009179Y-130884394D01*
X190140289Y-130796789D01*
X190251789Y-130685289D01*
X190339394Y-130554179D01*
X190399737Y-130408497D01*
X190430500Y-130253842D01*
X190430500Y-130096158D01*
X190430500Y-130096155D01*
X190430499Y-130096153D01*
X190399738Y-129941510D01*
X190399737Y-129941503D01*
X190399735Y-129941498D01*
X190339397Y-129795827D01*
X190339390Y-129795814D01*
X190251789Y-129664711D01*
X190251786Y-129664707D01*
X190140292Y-129553213D01*
X190140288Y-129553210D01*
X190009185Y-129465609D01*
X190009172Y-129465602D01*
X189863501Y-129405264D01*
X189863489Y-129405261D01*
X189708845Y-129374500D01*
X189708842Y-129374500D01*
X188751158Y-129374500D01*
X188751155Y-129374500D01*
X188596510Y-129405261D01*
X188596498Y-129405264D01*
X188450827Y-129465602D01*
X188450814Y-129465609D01*
X188319711Y-129553210D01*
X188319707Y-129553213D01*
X188208213Y-129664707D01*
X188208210Y-129664711D01*
X188120609Y-129795814D01*
X188120602Y-129795827D01*
X188060264Y-129941498D01*
X188060261Y-129941510D01*
X188029500Y-130096153D01*
X188029500Y-130253846D01*
X167265699Y-130253846D01*
X167265700Y-130253842D01*
X167265700Y-130096158D01*
X167265700Y-130096155D01*
X167265699Y-130096153D01*
X167234938Y-129941510D01*
X167234937Y-129941503D01*
X167234935Y-129941498D01*
X167174597Y-129795827D01*
X167174590Y-129795814D01*
X167086989Y-129664711D01*
X167086986Y-129664707D01*
X166975492Y-129553213D01*
X166975488Y-129553210D01*
X166844385Y-129465609D01*
X166844372Y-129465602D01*
X166698701Y-129405264D01*
X166698689Y-129405261D01*
X166544045Y-129374500D01*
X166544042Y-129374500D01*
X165586358Y-129374500D01*
X165586355Y-129374500D01*
X165431710Y-129405261D01*
X165431698Y-129405264D01*
X165286027Y-129465602D01*
X165286014Y-129465609D01*
X165154911Y-129553210D01*
X165154907Y-129553213D01*
X165043413Y-129664707D01*
X165043410Y-129664711D01*
X164955809Y-129795814D01*
X164955802Y-129795827D01*
X164895464Y-129941498D01*
X164895461Y-129941510D01*
X164864700Y-130096153D01*
X164864700Y-130253846D01*
X111345500Y-130253846D01*
X111345500Y-128370513D01*
X111315940Y-128183881D01*
X111288846Y-128100497D01*
X111257547Y-128004168D01*
X111257545Y-128004165D01*
X111257545Y-128004163D01*
X111171759Y-127835800D01*
X111083154Y-127713846D01*
X164864700Y-127713846D01*
X164895461Y-127868489D01*
X164895464Y-127868501D01*
X164955802Y-128014172D01*
X164955809Y-128014185D01*
X165043410Y-128145288D01*
X165043413Y-128145292D01*
X165154907Y-128256786D01*
X165154911Y-128256789D01*
X165286014Y-128344390D01*
X165286027Y-128344397D01*
X165431698Y-128404735D01*
X165431703Y-128404737D01*
X165586353Y-128435499D01*
X165586356Y-128435500D01*
X165586358Y-128435500D01*
X166544044Y-128435500D01*
X166544045Y-128435499D01*
X166698697Y-128404737D01*
X166844379Y-128344394D01*
X166975489Y-128256789D01*
X167086989Y-128145289D01*
X167174594Y-128014179D01*
X167234937Y-127868497D01*
X167265699Y-127713846D01*
X188029500Y-127713846D01*
X188060261Y-127868489D01*
X188060264Y-127868501D01*
X188120602Y-128014172D01*
X188120609Y-128014185D01*
X188208210Y-128145288D01*
X188208213Y-128145292D01*
X188319707Y-128256786D01*
X188319711Y-128256789D01*
X188450814Y-128344390D01*
X188450827Y-128344397D01*
X188596498Y-128404735D01*
X188596503Y-128404737D01*
X188751153Y-128435499D01*
X188751156Y-128435500D01*
X188751158Y-128435500D01*
X189708844Y-128435500D01*
X189708845Y-128435499D01*
X189863497Y-128404737D01*
X190009179Y-128344394D01*
X190140289Y-128256789D01*
X190251789Y-128145289D01*
X190339394Y-128014179D01*
X190399737Y-127868497D01*
X190430500Y-127713842D01*
X190430500Y-127556158D01*
X190430500Y-127556155D01*
X190430499Y-127556153D01*
X190412467Y-127465500D01*
X190399737Y-127401503D01*
X190399735Y-127401498D01*
X190339397Y-127255827D01*
X190339390Y-127255814D01*
X190251789Y-127124711D01*
X190251786Y-127124707D01*
X190140292Y-127013213D01*
X190140288Y-127013210D01*
X190009185Y-126925609D01*
X190009172Y-126925602D01*
X189863501Y-126865264D01*
X189863489Y-126865261D01*
X189708845Y-126834500D01*
X189708842Y-126834500D01*
X188751158Y-126834500D01*
X188751155Y-126834500D01*
X188596510Y-126865261D01*
X188596498Y-126865264D01*
X188450827Y-126925602D01*
X188450814Y-126925609D01*
X188319711Y-127013210D01*
X188319707Y-127013213D01*
X188208213Y-127124707D01*
X188208210Y-127124711D01*
X188120609Y-127255814D01*
X188120602Y-127255827D01*
X188060264Y-127401498D01*
X188060261Y-127401510D01*
X188029500Y-127556153D01*
X188029500Y-127713846D01*
X167265699Y-127713846D01*
X167265700Y-127713842D01*
X167265700Y-127556158D01*
X167265700Y-127556155D01*
X167265699Y-127556153D01*
X167247667Y-127465500D01*
X167234937Y-127401503D01*
X167234935Y-127401498D01*
X167174597Y-127255827D01*
X167174590Y-127255814D01*
X167086989Y-127124711D01*
X167086986Y-127124707D01*
X166975492Y-127013213D01*
X166975488Y-127013210D01*
X166844385Y-126925609D01*
X166844372Y-126925602D01*
X166698701Y-126865264D01*
X166698689Y-126865261D01*
X166544045Y-126834500D01*
X166544042Y-126834500D01*
X165586358Y-126834500D01*
X165586355Y-126834500D01*
X165431710Y-126865261D01*
X165431698Y-126865264D01*
X165286027Y-126925602D01*
X165286014Y-126925609D01*
X165154911Y-127013210D01*
X165154907Y-127013213D01*
X165043413Y-127124707D01*
X165043410Y-127124711D01*
X164955809Y-127255814D01*
X164955802Y-127255827D01*
X164895464Y-127401498D01*
X164895461Y-127401510D01*
X164864700Y-127556153D01*
X164864700Y-127713846D01*
X111083154Y-127713846D01*
X111060690Y-127682927D01*
X110927073Y-127549310D01*
X110774199Y-127438240D01*
X110605836Y-127352454D01*
X110426118Y-127294059D01*
X110239486Y-127264500D01*
X110239481Y-127264500D01*
X110050519Y-127264500D01*
X110050514Y-127264500D01*
X109863881Y-127294059D01*
X109684163Y-127352454D01*
X109515800Y-127438240D01*
X109428579Y-127501610D01*
X109362927Y-127549310D01*
X109362925Y-127549312D01*
X109362924Y-127549312D01*
X109229312Y-127682924D01*
X109229312Y-127682925D01*
X109229310Y-127682927D01*
X109206846Y-127713846D01*
X109118240Y-127835800D01*
X109032454Y-128004163D01*
X108974059Y-128183881D01*
X108944500Y-128370513D01*
X108944500Y-130559486D01*
X99695000Y-130559486D01*
X99695000Y-127284752D01*
X102994500Y-127284752D01*
X103006131Y-127343229D01*
X103006132Y-127343230D01*
X103050447Y-127409552D01*
X103116769Y-127453867D01*
X103116770Y-127453868D01*
X103175247Y-127465499D01*
X103175250Y-127465500D01*
X103175252Y-127465500D01*
X107714750Y-127465500D01*
X107714751Y-127465499D01*
X107729568Y-127462552D01*
X107773229Y-127453868D01*
X107773229Y-127453867D01*
X107773231Y-127453867D01*
X107839552Y-127409552D01*
X107883867Y-127343231D01*
X107883867Y-127343229D01*
X107883868Y-127343229D01*
X107895499Y-127284752D01*
X107895500Y-127284750D01*
X107895500Y-125245249D01*
X107895499Y-125245247D01*
X107883868Y-125186770D01*
X107883867Y-125186769D01*
X107875232Y-125173846D01*
X164864700Y-125173846D01*
X164895461Y-125328489D01*
X164895464Y-125328501D01*
X164955802Y-125474172D01*
X164955809Y-125474185D01*
X165043410Y-125605288D01*
X165043413Y-125605292D01*
X165154907Y-125716786D01*
X165154911Y-125716789D01*
X165286014Y-125804390D01*
X165286027Y-125804397D01*
X165431698Y-125864735D01*
X165431703Y-125864737D01*
X165586353Y-125895499D01*
X165586356Y-125895500D01*
X165586358Y-125895500D01*
X166544044Y-125895500D01*
X166544045Y-125895499D01*
X166698697Y-125864737D01*
X166844379Y-125804394D01*
X166975489Y-125716789D01*
X167086989Y-125605289D01*
X167174594Y-125474179D01*
X167234937Y-125328497D01*
X167265699Y-125173846D01*
X188029500Y-125173846D01*
X188060261Y-125328489D01*
X188060264Y-125328501D01*
X188120602Y-125474172D01*
X188120609Y-125474185D01*
X188208210Y-125605288D01*
X188208213Y-125605292D01*
X188319707Y-125716786D01*
X188319711Y-125716789D01*
X188450814Y-125804390D01*
X188450827Y-125804397D01*
X188596498Y-125864735D01*
X188596503Y-125864737D01*
X188751153Y-125895499D01*
X188751156Y-125895500D01*
X188751158Y-125895500D01*
X189708844Y-125895500D01*
X189708845Y-125895499D01*
X189863497Y-125864737D01*
X190009179Y-125804394D01*
X190140289Y-125716789D01*
X190251789Y-125605289D01*
X190339394Y-125474179D01*
X190399737Y-125328497D01*
X190430500Y-125173842D01*
X190430500Y-125016158D01*
X190430500Y-125016155D01*
X190430499Y-125016153D01*
X190399738Y-124861510D01*
X190399737Y-124861503D01*
X190399735Y-124861498D01*
X190339397Y-124715827D01*
X190339390Y-124715814D01*
X190251789Y-124584711D01*
X190251786Y-124584707D01*
X190140292Y-124473213D01*
X190140288Y-124473210D01*
X190009185Y-124385609D01*
X190009172Y-124385602D01*
X189863501Y-124325264D01*
X189863489Y-124325261D01*
X189708845Y-124294500D01*
X189708842Y-124294500D01*
X188751158Y-124294500D01*
X188751155Y-124294500D01*
X188596510Y-124325261D01*
X188596498Y-124325264D01*
X188450827Y-124385602D01*
X188450814Y-124385609D01*
X188319711Y-124473210D01*
X188319707Y-124473213D01*
X188208213Y-124584707D01*
X188208210Y-124584711D01*
X188120609Y-124715814D01*
X188120602Y-124715827D01*
X188060264Y-124861498D01*
X188060261Y-124861510D01*
X188029500Y-125016153D01*
X188029500Y-125173846D01*
X167265699Y-125173846D01*
X167265700Y-125173842D01*
X167265700Y-125016158D01*
X167265700Y-125016155D01*
X167265699Y-125016153D01*
X167234938Y-124861510D01*
X167234937Y-124861503D01*
X167234935Y-124861498D01*
X167174597Y-124715827D01*
X167174590Y-124715814D01*
X167086989Y-124584711D01*
X167086986Y-124584707D01*
X166975492Y-124473213D01*
X166975488Y-124473210D01*
X166844385Y-124385609D01*
X166844372Y-124385602D01*
X166698701Y-124325264D01*
X166698689Y-124325261D01*
X166544045Y-124294500D01*
X166544042Y-124294500D01*
X165586358Y-124294500D01*
X165586355Y-124294500D01*
X165431710Y-124325261D01*
X165431698Y-124325264D01*
X165286027Y-124385602D01*
X165286014Y-124385609D01*
X165154911Y-124473210D01*
X165154907Y-124473213D01*
X165043413Y-124584707D01*
X165043410Y-124584711D01*
X164955809Y-124715814D01*
X164955802Y-124715827D01*
X164895464Y-124861498D01*
X164895461Y-124861510D01*
X164864700Y-125016153D01*
X164864700Y-125173846D01*
X107875232Y-125173846D01*
X107839552Y-125120447D01*
X107773230Y-125076132D01*
X107773229Y-125076131D01*
X107714752Y-125064500D01*
X107714748Y-125064500D01*
X103175252Y-125064500D01*
X103175247Y-125064500D01*
X103116770Y-125076131D01*
X103116769Y-125076132D01*
X103050447Y-125120447D01*
X103006132Y-125186769D01*
X103006131Y-125186770D01*
X102994500Y-125245247D01*
X102994500Y-127284752D01*
X99695000Y-127284752D01*
X99695000Y-123174752D01*
X164864700Y-123174752D01*
X164876331Y-123233229D01*
X164876332Y-123233230D01*
X164920647Y-123299552D01*
X164986969Y-123343867D01*
X164986970Y-123343868D01*
X165045447Y-123355499D01*
X165045450Y-123355500D01*
X165045452Y-123355500D01*
X167084950Y-123355500D01*
X167084951Y-123355499D01*
X167099768Y-123352552D01*
X167143429Y-123343868D01*
X167143429Y-123343867D01*
X167143431Y-123343867D01*
X167209752Y-123299552D01*
X167254067Y-123233231D01*
X167254067Y-123233229D01*
X167254068Y-123233229D01*
X167265699Y-123174752D01*
X188029500Y-123174752D01*
X188041131Y-123233229D01*
X188041132Y-123233230D01*
X188085447Y-123299552D01*
X188151769Y-123343867D01*
X188151770Y-123343868D01*
X188210247Y-123355499D01*
X188210250Y-123355500D01*
X188210252Y-123355500D01*
X190249750Y-123355500D01*
X190249751Y-123355499D01*
X190264568Y-123352552D01*
X190308229Y-123343868D01*
X190308229Y-123343867D01*
X190308231Y-123343867D01*
X190374552Y-123299552D01*
X190418867Y-123233231D01*
X190418867Y-123233229D01*
X190418868Y-123233229D01*
X190430499Y-123174752D01*
X190430500Y-123174750D01*
X190430500Y-121935249D01*
X190430499Y-121935247D01*
X190418868Y-121876770D01*
X190418867Y-121876769D01*
X190374552Y-121810447D01*
X190308230Y-121766132D01*
X190308229Y-121766131D01*
X190249752Y-121754500D01*
X190249748Y-121754500D01*
X188210252Y-121754500D01*
X188210247Y-121754500D01*
X188151770Y-121766131D01*
X188151769Y-121766132D01*
X188085447Y-121810447D01*
X188041132Y-121876769D01*
X188041131Y-121876770D01*
X188029500Y-121935247D01*
X188029500Y-123174752D01*
X167265699Y-123174752D01*
X167265700Y-123174750D01*
X167265700Y-121935249D01*
X167265699Y-121935247D01*
X167254068Y-121876770D01*
X167254067Y-121876769D01*
X167209752Y-121810447D01*
X167143430Y-121766132D01*
X167143429Y-121766131D01*
X167084952Y-121754500D01*
X167084948Y-121754500D01*
X165045452Y-121754500D01*
X165045447Y-121754500D01*
X164986970Y-121766131D01*
X164986969Y-121766132D01*
X164920647Y-121810447D01*
X164876332Y-121876769D01*
X164876331Y-121876770D01*
X164864700Y-121935247D01*
X164864700Y-123174752D01*
X99695000Y-123174752D01*
X99695000Y-122321352D01*
X113108300Y-122321352D01*
X113119931Y-122379829D01*
X113119932Y-122379830D01*
X113164247Y-122446152D01*
X113230569Y-122490467D01*
X113230570Y-122490468D01*
X113289047Y-122502099D01*
X113289050Y-122502100D01*
X113289052Y-122502100D01*
X116428550Y-122502100D01*
X116428551Y-122502099D01*
X116443368Y-122499152D01*
X116487029Y-122490468D01*
X116487029Y-122490467D01*
X116487031Y-122490467D01*
X116553352Y-122446152D01*
X116597667Y-122379831D01*
X116597667Y-122379829D01*
X116597668Y-122379829D01*
X116609299Y-122321352D01*
X153189500Y-122321352D01*
X153201131Y-122379829D01*
X153201132Y-122379830D01*
X153245447Y-122446152D01*
X153311769Y-122490467D01*
X153311770Y-122490468D01*
X153370247Y-122502099D01*
X153370250Y-122502100D01*
X153370252Y-122502100D01*
X156509750Y-122502100D01*
X156509751Y-122502099D01*
X156524568Y-122499152D01*
X156568229Y-122490468D01*
X156568229Y-122490467D01*
X156568231Y-122490467D01*
X156634552Y-122446152D01*
X156678867Y-122379831D01*
X156678867Y-122379829D01*
X156678868Y-122379829D01*
X156690499Y-122321352D01*
X156690500Y-122321350D01*
X156690500Y-120093846D01*
X164864700Y-120093846D01*
X164895461Y-120248489D01*
X164895464Y-120248501D01*
X164955802Y-120394172D01*
X164955809Y-120394185D01*
X165043410Y-120525288D01*
X165043413Y-120525292D01*
X165154907Y-120636786D01*
X165154911Y-120636789D01*
X165286014Y-120724390D01*
X165286027Y-120724397D01*
X165431698Y-120784735D01*
X165431703Y-120784737D01*
X165586353Y-120815499D01*
X165586356Y-120815500D01*
X165586358Y-120815500D01*
X166544044Y-120815500D01*
X166544045Y-120815499D01*
X166698697Y-120784737D01*
X166844379Y-120724394D01*
X166975489Y-120636789D01*
X167086989Y-120525289D01*
X167174594Y-120394179D01*
X167234937Y-120248497D01*
X167265699Y-120093846D01*
X188029500Y-120093846D01*
X188060261Y-120248489D01*
X188060264Y-120248501D01*
X188120602Y-120394172D01*
X188120609Y-120394185D01*
X188208210Y-120525288D01*
X188208213Y-120525292D01*
X188319707Y-120636786D01*
X188319711Y-120636789D01*
X188450814Y-120724390D01*
X188450827Y-120724397D01*
X188596498Y-120784735D01*
X188596503Y-120784737D01*
X188751153Y-120815499D01*
X188751156Y-120815500D01*
X188751158Y-120815500D01*
X189708844Y-120815500D01*
X189708845Y-120815499D01*
X189863497Y-120784737D01*
X190009179Y-120724394D01*
X190140289Y-120636789D01*
X190251789Y-120525289D01*
X190339394Y-120394179D01*
X190399737Y-120248497D01*
X190430500Y-120093842D01*
X190430500Y-119936158D01*
X190430500Y-119936155D01*
X190430499Y-119936153D01*
X190399738Y-119781510D01*
X190399737Y-119781503D01*
X190399735Y-119781498D01*
X190339397Y-119635827D01*
X190339390Y-119635814D01*
X190251789Y-119504711D01*
X190251786Y-119504707D01*
X190140292Y-119393213D01*
X190140288Y-119393210D01*
X190009185Y-119305609D01*
X190009172Y-119305602D01*
X189863501Y-119245264D01*
X189863489Y-119245261D01*
X189708845Y-119214500D01*
X189708842Y-119214500D01*
X188751158Y-119214500D01*
X188751155Y-119214500D01*
X188596510Y-119245261D01*
X188596498Y-119245264D01*
X188450827Y-119305602D01*
X188450814Y-119305609D01*
X188319711Y-119393210D01*
X188319707Y-119393213D01*
X188208213Y-119504707D01*
X188208210Y-119504711D01*
X188120609Y-119635814D01*
X188120602Y-119635827D01*
X188060264Y-119781498D01*
X188060261Y-119781510D01*
X188029500Y-119936153D01*
X188029500Y-120093846D01*
X167265699Y-120093846D01*
X167265700Y-120093842D01*
X167265700Y-119936158D01*
X167265700Y-119936155D01*
X167265699Y-119936153D01*
X167234938Y-119781510D01*
X167234937Y-119781503D01*
X167234935Y-119781498D01*
X167174597Y-119635827D01*
X167174590Y-119635814D01*
X167086989Y-119504711D01*
X167086986Y-119504707D01*
X166975492Y-119393213D01*
X166975488Y-119393210D01*
X166844385Y-119305609D01*
X166844372Y-119305602D01*
X166698701Y-119245264D01*
X166698689Y-119245261D01*
X166544045Y-119214500D01*
X166544042Y-119214500D01*
X165586358Y-119214500D01*
X165586355Y-119214500D01*
X165431710Y-119245261D01*
X165431698Y-119245264D01*
X165286027Y-119305602D01*
X165286014Y-119305609D01*
X165154911Y-119393210D01*
X165154907Y-119393213D01*
X165043413Y-119504707D01*
X165043410Y-119504711D01*
X164955809Y-119635814D01*
X164955802Y-119635827D01*
X164895464Y-119781498D01*
X164895461Y-119781510D01*
X164864700Y-119936153D01*
X164864700Y-120093846D01*
X156690500Y-120093846D01*
X156690500Y-119181849D01*
X156690499Y-119181847D01*
X156678868Y-119123370D01*
X156678867Y-119123369D01*
X156634552Y-119057047D01*
X156568230Y-119012732D01*
X156568229Y-119012731D01*
X156509752Y-119001100D01*
X156509748Y-119001100D01*
X153370252Y-119001100D01*
X153370247Y-119001100D01*
X153311770Y-119012731D01*
X153311769Y-119012732D01*
X153245447Y-119057047D01*
X153201132Y-119123369D01*
X153201131Y-119123370D01*
X153189500Y-119181847D01*
X153189500Y-122321352D01*
X116609299Y-122321352D01*
X116609300Y-122321350D01*
X116609300Y-119181849D01*
X116609299Y-119181847D01*
X116597668Y-119123370D01*
X116597667Y-119123369D01*
X116553352Y-119057047D01*
X116487030Y-119012732D01*
X116487029Y-119012731D01*
X116428552Y-119001100D01*
X116428548Y-119001100D01*
X113289052Y-119001100D01*
X113289047Y-119001100D01*
X113230570Y-119012731D01*
X113230569Y-119012732D01*
X113164247Y-119057047D01*
X113119932Y-119123369D01*
X113119931Y-119123370D01*
X113108300Y-119181847D01*
X113108300Y-122321352D01*
X99695000Y-122321352D01*
X99695000Y-116638846D01*
X124929500Y-116638846D01*
X124960261Y-116793489D01*
X124960264Y-116793501D01*
X125020602Y-116939172D01*
X125020609Y-116939185D01*
X125108210Y-117070288D01*
X125108213Y-117070292D01*
X125219707Y-117181786D01*
X125219711Y-117181789D01*
X125350814Y-117269390D01*
X125350827Y-117269397D01*
X125496498Y-117329735D01*
X125496503Y-117329737D01*
X125651153Y-117360499D01*
X125651156Y-117360500D01*
X125651158Y-117360500D01*
X125808844Y-117360500D01*
X125808845Y-117360499D01*
X125963497Y-117329737D01*
X126109179Y-117269394D01*
X126240289Y-117181789D01*
X126351789Y-117070289D01*
X126439394Y-116939179D01*
X126499737Y-116793497D01*
X126530499Y-116638846D01*
X127469500Y-116638846D01*
X127500261Y-116793489D01*
X127500264Y-116793501D01*
X127560602Y-116939172D01*
X127560609Y-116939185D01*
X127648210Y-117070288D01*
X127648213Y-117070292D01*
X127759707Y-117181786D01*
X127759711Y-117181789D01*
X127890814Y-117269390D01*
X127890827Y-117269397D01*
X128036498Y-117329735D01*
X128036503Y-117329737D01*
X128191153Y-117360499D01*
X128191156Y-117360500D01*
X128191158Y-117360500D01*
X128348844Y-117360500D01*
X128348845Y-117360499D01*
X128503497Y-117329737D01*
X128649179Y-117269394D01*
X128780289Y-117181789D01*
X128891789Y-117070289D01*
X128979394Y-116939179D01*
X129039737Y-116793497D01*
X129070499Y-116638846D01*
X130009500Y-116638846D01*
X130040261Y-116793489D01*
X130040264Y-116793501D01*
X130100602Y-116939172D01*
X130100609Y-116939185D01*
X130188210Y-117070288D01*
X130188213Y-117070292D01*
X130299707Y-117181786D01*
X130299711Y-117181789D01*
X130430814Y-117269390D01*
X130430827Y-117269397D01*
X130576498Y-117329735D01*
X130576503Y-117329737D01*
X130731153Y-117360499D01*
X130731156Y-117360500D01*
X130731158Y-117360500D01*
X130888844Y-117360500D01*
X130888845Y-117360499D01*
X131043497Y-117329737D01*
X131189179Y-117269394D01*
X131320289Y-117181789D01*
X131431789Y-117070289D01*
X131519394Y-116939179D01*
X131579737Y-116793497D01*
X131610499Y-116638846D01*
X132549500Y-116638846D01*
X132580261Y-116793489D01*
X132580264Y-116793501D01*
X132640602Y-116939172D01*
X132640609Y-116939185D01*
X132728210Y-117070288D01*
X132728213Y-117070292D01*
X132839707Y-117181786D01*
X132839711Y-117181789D01*
X132970814Y-117269390D01*
X132970827Y-117269397D01*
X133116498Y-117329735D01*
X133116503Y-117329737D01*
X133271153Y-117360499D01*
X133271156Y-117360500D01*
X133271158Y-117360500D01*
X133428844Y-117360500D01*
X133428845Y-117360499D01*
X133583497Y-117329737D01*
X133729179Y-117269394D01*
X133860289Y-117181789D01*
X133971789Y-117070289D01*
X134059394Y-116939179D01*
X134119737Y-116793497D01*
X134150499Y-116638846D01*
X135089500Y-116638846D01*
X135120261Y-116793489D01*
X135120264Y-116793501D01*
X135180602Y-116939172D01*
X135180609Y-116939185D01*
X135268210Y-117070288D01*
X135268213Y-117070292D01*
X135379707Y-117181786D01*
X135379711Y-117181789D01*
X135510814Y-117269390D01*
X135510827Y-117269397D01*
X135656498Y-117329735D01*
X135656503Y-117329737D01*
X135811153Y-117360499D01*
X135811156Y-117360500D01*
X135811158Y-117360500D01*
X135968844Y-117360500D01*
X135968845Y-117360499D01*
X136123497Y-117329737D01*
X136269179Y-117269394D01*
X136400289Y-117181789D01*
X136511789Y-117070289D01*
X136599394Y-116939179D01*
X136659737Y-116793497D01*
X136690499Y-116638846D01*
X137629500Y-116638846D01*
X137660261Y-116793489D01*
X137660264Y-116793501D01*
X137720602Y-116939172D01*
X137720609Y-116939185D01*
X137808210Y-117070288D01*
X137808213Y-117070292D01*
X137919707Y-117181786D01*
X137919711Y-117181789D01*
X138050814Y-117269390D01*
X138050827Y-117269397D01*
X138196498Y-117329735D01*
X138196503Y-117329737D01*
X138351153Y-117360499D01*
X138351156Y-117360500D01*
X138351158Y-117360500D01*
X138508844Y-117360500D01*
X138508845Y-117360499D01*
X138663497Y-117329737D01*
X138809179Y-117269394D01*
X138940289Y-117181789D01*
X139051789Y-117070289D01*
X139139394Y-116939179D01*
X139199737Y-116793497D01*
X139230499Y-116638846D01*
X140169500Y-116638846D01*
X140200261Y-116793489D01*
X140200264Y-116793501D01*
X140260602Y-116939172D01*
X140260609Y-116939185D01*
X140348210Y-117070288D01*
X140348213Y-117070292D01*
X140459707Y-117181786D01*
X140459711Y-117181789D01*
X140590814Y-117269390D01*
X140590827Y-117269397D01*
X140736498Y-117329735D01*
X140736503Y-117329737D01*
X140891153Y-117360499D01*
X140891156Y-117360500D01*
X140891158Y-117360500D01*
X141048844Y-117360500D01*
X141048845Y-117360499D01*
X141203497Y-117329737D01*
X141349179Y-117269394D01*
X141415621Y-117224999D01*
X164591084Y-117224999D01*
X164591085Y-117225000D01*
X165749514Y-117225000D01*
X165745120Y-117229394D01*
X165692459Y-117320606D01*
X165665200Y-117422339D01*
X165665200Y-117527661D01*
X165692459Y-117629394D01*
X165745120Y-117720606D01*
X165749514Y-117725000D01*
X164591085Y-117725000D01*
X164592285Y-117732584D01*
X164645791Y-117897255D01*
X164724395Y-118051524D01*
X164826167Y-118191602D01*
X164948597Y-118314032D01*
X165088675Y-118415804D01*
X165242942Y-118494408D01*
X165407615Y-118547914D01*
X165578629Y-118575000D01*
X165815200Y-118575000D01*
X165815200Y-117790686D01*
X165819594Y-117795080D01*
X165910806Y-117847741D01*
X166012539Y-117875000D01*
X166117861Y-117875000D01*
X166219594Y-117847741D01*
X166310806Y-117795080D01*
X166315200Y-117790686D01*
X166315200Y-118575000D01*
X166551771Y-118575000D01*
X166722784Y-118547914D01*
X166887457Y-118494408D01*
X167041724Y-118415804D01*
X167181802Y-118314032D01*
X167304232Y-118191602D01*
X167406004Y-118051524D01*
X167484608Y-117897255D01*
X167538114Y-117732584D01*
X167539315Y-117725000D01*
X166380886Y-117725000D01*
X166385280Y-117720606D01*
X166437941Y-117629394D01*
X166458184Y-117553846D01*
X188029500Y-117553846D01*
X188060261Y-117708489D01*
X188060264Y-117708501D01*
X188120602Y-117854172D01*
X188120609Y-117854185D01*
X188208210Y-117985288D01*
X188208213Y-117985292D01*
X188319707Y-118096786D01*
X188319711Y-118096789D01*
X188450814Y-118184390D01*
X188450827Y-118184397D01*
X188596498Y-118244735D01*
X188596503Y-118244737D01*
X188751153Y-118275499D01*
X188751156Y-118275500D01*
X188751158Y-118275500D01*
X189708844Y-118275500D01*
X189708845Y-118275499D01*
X189863497Y-118244737D01*
X190009179Y-118184394D01*
X190140289Y-118096789D01*
X190251789Y-117985289D01*
X190339394Y-117854179D01*
X190399737Y-117708497D01*
X190430500Y-117553842D01*
X190430500Y-117396158D01*
X190430500Y-117396155D01*
X190430499Y-117396153D01*
X190417288Y-117329737D01*
X190399737Y-117241503D01*
X190392901Y-117224999D01*
X190339397Y-117095827D01*
X190339390Y-117095814D01*
X190251789Y-116964711D01*
X190251786Y-116964707D01*
X190140292Y-116853213D01*
X190140288Y-116853210D01*
X190009185Y-116765609D01*
X190009172Y-116765602D01*
X189863501Y-116705264D01*
X189863489Y-116705261D01*
X189708845Y-116674500D01*
X189708842Y-116674500D01*
X188751158Y-116674500D01*
X188751155Y-116674500D01*
X188596510Y-116705261D01*
X188596498Y-116705264D01*
X188450827Y-116765602D01*
X188450814Y-116765609D01*
X188319711Y-116853210D01*
X188319707Y-116853213D01*
X188208213Y-116964707D01*
X188208210Y-116964711D01*
X188120609Y-117095814D01*
X188120602Y-117095827D01*
X188060264Y-117241498D01*
X188060261Y-117241510D01*
X188029500Y-117396153D01*
X188029500Y-117553846D01*
X166458184Y-117553846D01*
X166465200Y-117527661D01*
X166465200Y-117422339D01*
X166437941Y-117320606D01*
X166385280Y-117229394D01*
X166380886Y-117225000D01*
X167539315Y-117225000D01*
X167539315Y-117224999D01*
X167538114Y-117217415D01*
X167484608Y-117052744D01*
X167406004Y-116898475D01*
X167304232Y-116758397D01*
X167181802Y-116635967D01*
X167041724Y-116534195D01*
X166887457Y-116455591D01*
X166722784Y-116402085D01*
X166551771Y-116375000D01*
X166315200Y-116375000D01*
X166315200Y-117159314D01*
X166310806Y-117154920D01*
X166219594Y-117102259D01*
X166117861Y-117075000D01*
X166012539Y-117075000D01*
X165910806Y-117102259D01*
X165819594Y-117154920D01*
X165815200Y-117159314D01*
X165815200Y-116375000D01*
X165578629Y-116375000D01*
X165407615Y-116402085D01*
X165242942Y-116455591D01*
X165088675Y-116534195D01*
X164948597Y-116635967D01*
X164826167Y-116758397D01*
X164724395Y-116898475D01*
X164645791Y-117052744D01*
X164592285Y-117217415D01*
X164591084Y-117224999D01*
X141415621Y-117224999D01*
X141480289Y-117181789D01*
X141591789Y-117070289D01*
X141679394Y-116939179D01*
X141739737Y-116793497D01*
X141770500Y-116638842D01*
X141770500Y-114935000D01*
X150759659Y-114935000D01*
X150778975Y-115131129D01*
X150836188Y-115319733D01*
X150929086Y-115493532D01*
X150929090Y-115493539D01*
X151054116Y-115645883D01*
X151206460Y-115770909D01*
X151206467Y-115770913D01*
X151380266Y-115863811D01*
X151380269Y-115863811D01*
X151380273Y-115863814D01*
X151568868Y-115921024D01*
X151765000Y-115940341D01*
X151961132Y-115921024D01*
X152149727Y-115863814D01*
X152323538Y-115770910D01*
X152475883Y-115645883D01*
X152600910Y-115493538D01*
X152693814Y-115319727D01*
X152751024Y-115131132D01*
X152770341Y-114935000D01*
X158379659Y-114935000D01*
X158398975Y-115131129D01*
X158456188Y-115319733D01*
X158549086Y-115493532D01*
X158549090Y-115493539D01*
X158674116Y-115645883D01*
X158826460Y-115770909D01*
X158826467Y-115770913D01*
X159000266Y-115863811D01*
X159000269Y-115863811D01*
X159000273Y-115863814D01*
X159188868Y-115921024D01*
X159385000Y-115940341D01*
X159581132Y-115921024D01*
X159769727Y-115863814D01*
X159943538Y-115770910D01*
X160095883Y-115645883D01*
X160220910Y-115493538D01*
X160313814Y-115319727D01*
X160371024Y-115131132D01*
X160382575Y-115013846D01*
X164864700Y-115013846D01*
X164895461Y-115168489D01*
X164895464Y-115168501D01*
X164955802Y-115314172D01*
X164955809Y-115314185D01*
X165043410Y-115445288D01*
X165043413Y-115445292D01*
X165154907Y-115556786D01*
X165154911Y-115556789D01*
X165286014Y-115644390D01*
X165286027Y-115644397D01*
X165431698Y-115704735D01*
X165431703Y-115704737D01*
X165586353Y-115735499D01*
X165586356Y-115735500D01*
X165586358Y-115735500D01*
X166544044Y-115735500D01*
X166544045Y-115735499D01*
X166698697Y-115704737D01*
X166844379Y-115644394D01*
X166975489Y-115556789D01*
X167086989Y-115445289D01*
X167174594Y-115314179D01*
X167185079Y-115288867D01*
X167234935Y-115168501D01*
X167234937Y-115168497D01*
X167265699Y-115013846D01*
X188029500Y-115013846D01*
X188060261Y-115168489D01*
X188060264Y-115168501D01*
X188120602Y-115314172D01*
X188120609Y-115314185D01*
X188208210Y-115445288D01*
X188208213Y-115445292D01*
X188319707Y-115556786D01*
X188319711Y-115556789D01*
X188450814Y-115644390D01*
X188450827Y-115644397D01*
X188596498Y-115704735D01*
X188596503Y-115704737D01*
X188751153Y-115735499D01*
X188751156Y-115735500D01*
X188751158Y-115735500D01*
X189708844Y-115735500D01*
X189708845Y-115735499D01*
X189863497Y-115704737D01*
X190009179Y-115644394D01*
X190140289Y-115556789D01*
X190251789Y-115445289D01*
X190339394Y-115314179D01*
X190349879Y-115288867D01*
X190399735Y-115168501D01*
X190399737Y-115168497D01*
X190430500Y-115013842D01*
X190430500Y-114856158D01*
X190430500Y-114856155D01*
X190430499Y-114856153D01*
X190399738Y-114701510D01*
X190399737Y-114701503D01*
X190399735Y-114701498D01*
X190339397Y-114555827D01*
X190339390Y-114555814D01*
X190251789Y-114424711D01*
X190251786Y-114424707D01*
X190140292Y-114313213D01*
X190140288Y-114313210D01*
X190009185Y-114225609D01*
X190009172Y-114225602D01*
X189863501Y-114165264D01*
X189863489Y-114165261D01*
X189708845Y-114134500D01*
X189708842Y-114134500D01*
X188751158Y-114134500D01*
X188751155Y-114134500D01*
X188596510Y-114165261D01*
X188596498Y-114165264D01*
X188450827Y-114225602D01*
X188450814Y-114225609D01*
X188319711Y-114313210D01*
X188319707Y-114313213D01*
X188208213Y-114424707D01*
X188208210Y-114424711D01*
X188120609Y-114555814D01*
X188120602Y-114555827D01*
X188060264Y-114701498D01*
X188060261Y-114701510D01*
X188029500Y-114856153D01*
X188029500Y-115013846D01*
X167265699Y-115013846D01*
X167265700Y-115013842D01*
X167265700Y-114856158D01*
X167265700Y-114856155D01*
X167265699Y-114856153D01*
X167234938Y-114701510D01*
X167234937Y-114701503D01*
X167234935Y-114701498D01*
X167174597Y-114555827D01*
X167174590Y-114555814D01*
X167086989Y-114424711D01*
X167086986Y-114424707D01*
X166975492Y-114313213D01*
X166975488Y-114313210D01*
X166844385Y-114225609D01*
X166844372Y-114225602D01*
X166698701Y-114165264D01*
X166698689Y-114165261D01*
X166544045Y-114134500D01*
X166544042Y-114134500D01*
X165586358Y-114134500D01*
X165586355Y-114134500D01*
X165431710Y-114165261D01*
X165431698Y-114165264D01*
X165286027Y-114225602D01*
X165286014Y-114225609D01*
X165154911Y-114313210D01*
X165154907Y-114313213D01*
X165043413Y-114424707D01*
X165043410Y-114424711D01*
X164955809Y-114555814D01*
X164955802Y-114555827D01*
X164895464Y-114701498D01*
X164895461Y-114701510D01*
X164864700Y-114856153D01*
X164864700Y-115013846D01*
X160382575Y-115013846D01*
X160390341Y-114935000D01*
X160371024Y-114738868D01*
X160313814Y-114550273D01*
X160313811Y-114550269D01*
X160313811Y-114550266D01*
X160220913Y-114376467D01*
X160220909Y-114376460D01*
X160095883Y-114224116D01*
X159943539Y-114099090D01*
X159943532Y-114099086D01*
X159769733Y-114006188D01*
X159769727Y-114006186D01*
X159581132Y-113948976D01*
X159581129Y-113948975D01*
X159385000Y-113929659D01*
X159188870Y-113948975D01*
X159000266Y-114006188D01*
X158826467Y-114099086D01*
X158826460Y-114099090D01*
X158674116Y-114224116D01*
X158549090Y-114376460D01*
X158549086Y-114376467D01*
X158456188Y-114550266D01*
X158398975Y-114738870D01*
X158379659Y-114935000D01*
X152770341Y-114935000D01*
X152751024Y-114738868D01*
X152693814Y-114550273D01*
X152693811Y-114550269D01*
X152693811Y-114550266D01*
X152600913Y-114376467D01*
X152600909Y-114376460D01*
X152475883Y-114224116D01*
X152323539Y-114099090D01*
X152323532Y-114099086D01*
X152149733Y-114006188D01*
X152149727Y-114006186D01*
X151961132Y-113948976D01*
X151961129Y-113948975D01*
X151765000Y-113929659D01*
X151568870Y-113948975D01*
X151380266Y-114006188D01*
X151206467Y-114099086D01*
X151206460Y-114099090D01*
X151054116Y-114224116D01*
X150929090Y-114376460D01*
X150929086Y-114376467D01*
X150836188Y-114550266D01*
X150778975Y-114738870D01*
X150759659Y-114935000D01*
X141770500Y-114935000D01*
X141770500Y-114501158D01*
X141770500Y-114501155D01*
X141770499Y-114501153D01*
X141739737Y-114346503D01*
X141725947Y-114313210D01*
X141679397Y-114200827D01*
X141679390Y-114200814D01*
X141591789Y-114069711D01*
X141591786Y-114069707D01*
X141480292Y-113958213D01*
X141480288Y-113958210D01*
X141349185Y-113870609D01*
X141349172Y-113870602D01*
X141203501Y-113810264D01*
X141203489Y-113810261D01*
X141048845Y-113779500D01*
X141048842Y-113779500D01*
X140891158Y-113779500D01*
X140891155Y-113779500D01*
X140736510Y-113810261D01*
X140736498Y-113810264D01*
X140590827Y-113870602D01*
X140590814Y-113870609D01*
X140459711Y-113958210D01*
X140459707Y-113958213D01*
X140348213Y-114069707D01*
X140348210Y-114069711D01*
X140260609Y-114200814D01*
X140260602Y-114200827D01*
X140200264Y-114346498D01*
X140200261Y-114346510D01*
X140169500Y-114501153D01*
X140169500Y-116638846D01*
X139230499Y-116638846D01*
X139230500Y-116638842D01*
X139230500Y-114501158D01*
X139230500Y-114501155D01*
X139230499Y-114501153D01*
X139199737Y-114346503D01*
X139185947Y-114313210D01*
X139139397Y-114200827D01*
X139139390Y-114200814D01*
X139051789Y-114069711D01*
X139051786Y-114069707D01*
X138940292Y-113958213D01*
X138940288Y-113958210D01*
X138809185Y-113870609D01*
X138809172Y-113870602D01*
X138663501Y-113810264D01*
X138663489Y-113810261D01*
X138508845Y-113779500D01*
X138508842Y-113779500D01*
X138351158Y-113779500D01*
X138351155Y-113779500D01*
X138196510Y-113810261D01*
X138196498Y-113810264D01*
X138050827Y-113870602D01*
X138050814Y-113870609D01*
X137919711Y-113958210D01*
X137919707Y-113958213D01*
X137808213Y-114069707D01*
X137808210Y-114069711D01*
X137720609Y-114200814D01*
X137720602Y-114200827D01*
X137660264Y-114346498D01*
X137660261Y-114346510D01*
X137629500Y-114501153D01*
X137629500Y-116638846D01*
X136690499Y-116638846D01*
X136690500Y-116638842D01*
X136690500Y-114501158D01*
X136690500Y-114501155D01*
X136690499Y-114501153D01*
X136659737Y-114346503D01*
X136645947Y-114313210D01*
X136599397Y-114200827D01*
X136599390Y-114200814D01*
X136511789Y-114069711D01*
X136511786Y-114069707D01*
X136400292Y-113958213D01*
X136400288Y-113958210D01*
X136269185Y-113870609D01*
X136269172Y-113870602D01*
X136123501Y-113810264D01*
X136123489Y-113810261D01*
X135968845Y-113779500D01*
X135968842Y-113779500D01*
X135811158Y-113779500D01*
X135811155Y-113779500D01*
X135656510Y-113810261D01*
X135656498Y-113810264D01*
X135510827Y-113870602D01*
X135510814Y-113870609D01*
X135379711Y-113958210D01*
X135379707Y-113958213D01*
X135268213Y-114069707D01*
X135268210Y-114069711D01*
X135180609Y-114200814D01*
X135180602Y-114200827D01*
X135120264Y-114346498D01*
X135120261Y-114346510D01*
X135089500Y-114501153D01*
X135089500Y-116638846D01*
X134150499Y-116638846D01*
X134150500Y-116638842D01*
X134150500Y-114501158D01*
X134150500Y-114501155D01*
X134150499Y-114501153D01*
X134119737Y-114346503D01*
X134105947Y-114313210D01*
X134059397Y-114200827D01*
X134059390Y-114200814D01*
X133971789Y-114069711D01*
X133971786Y-114069707D01*
X133860292Y-113958213D01*
X133860288Y-113958210D01*
X133729185Y-113870609D01*
X133729172Y-113870602D01*
X133583501Y-113810264D01*
X133583489Y-113810261D01*
X133428845Y-113779500D01*
X133428842Y-113779500D01*
X133271158Y-113779500D01*
X133271155Y-113779500D01*
X133116510Y-113810261D01*
X133116498Y-113810264D01*
X132970827Y-113870602D01*
X132970814Y-113870609D01*
X132839711Y-113958210D01*
X132839707Y-113958213D01*
X132728213Y-114069707D01*
X132728210Y-114069711D01*
X132640609Y-114200814D01*
X132640602Y-114200827D01*
X132580264Y-114346498D01*
X132580261Y-114346510D01*
X132549500Y-114501153D01*
X132549500Y-116638846D01*
X131610499Y-116638846D01*
X131610500Y-116638842D01*
X131610500Y-114501158D01*
X131610500Y-114501155D01*
X131610499Y-114501153D01*
X131579737Y-114346503D01*
X131565947Y-114313210D01*
X131519397Y-114200827D01*
X131519390Y-114200814D01*
X131431789Y-114069711D01*
X131431786Y-114069707D01*
X131320292Y-113958213D01*
X131320288Y-113958210D01*
X131189185Y-113870609D01*
X131189172Y-113870602D01*
X131043501Y-113810264D01*
X131043489Y-113810261D01*
X130888845Y-113779500D01*
X130888842Y-113779500D01*
X130731158Y-113779500D01*
X130731155Y-113779500D01*
X130576510Y-113810261D01*
X130576498Y-113810264D01*
X130430827Y-113870602D01*
X130430814Y-113870609D01*
X130299711Y-113958210D01*
X130299707Y-113958213D01*
X130188213Y-114069707D01*
X130188210Y-114069711D01*
X130100609Y-114200814D01*
X130100602Y-114200827D01*
X130040264Y-114346498D01*
X130040261Y-114346510D01*
X130009500Y-114501153D01*
X130009500Y-116638846D01*
X129070499Y-116638846D01*
X129070500Y-116638842D01*
X129070500Y-114501158D01*
X129070500Y-114501155D01*
X129070499Y-114501153D01*
X129039737Y-114346503D01*
X129025947Y-114313210D01*
X128979397Y-114200827D01*
X128979390Y-114200814D01*
X128891789Y-114069711D01*
X128891786Y-114069707D01*
X128780292Y-113958213D01*
X128780288Y-113958210D01*
X128649185Y-113870609D01*
X128649172Y-113870602D01*
X128503501Y-113810264D01*
X128503489Y-113810261D01*
X128348845Y-113779500D01*
X128348842Y-113779500D01*
X128191158Y-113779500D01*
X128191155Y-113779500D01*
X128036510Y-113810261D01*
X128036498Y-113810264D01*
X127890827Y-113870602D01*
X127890814Y-113870609D01*
X127759711Y-113958210D01*
X127759707Y-113958213D01*
X127648213Y-114069707D01*
X127648210Y-114069711D01*
X127560609Y-114200814D01*
X127560602Y-114200827D01*
X127500264Y-114346498D01*
X127500261Y-114346510D01*
X127469500Y-114501153D01*
X127469500Y-116638846D01*
X126530499Y-116638846D01*
X126530500Y-116638842D01*
X126530500Y-114501158D01*
X126530500Y-114501155D01*
X126530499Y-114501153D01*
X126499737Y-114346503D01*
X126485947Y-114313210D01*
X126439397Y-114200827D01*
X126439390Y-114200814D01*
X126351789Y-114069711D01*
X126351786Y-114069707D01*
X126240292Y-113958213D01*
X126240288Y-113958210D01*
X126109185Y-113870609D01*
X126109172Y-113870602D01*
X125963501Y-113810264D01*
X125963489Y-113810261D01*
X125808845Y-113779500D01*
X125808842Y-113779500D01*
X125651158Y-113779500D01*
X125651155Y-113779500D01*
X125496510Y-113810261D01*
X125496498Y-113810264D01*
X125350827Y-113870602D01*
X125350814Y-113870609D01*
X125219711Y-113958210D01*
X125219707Y-113958213D01*
X125108213Y-114069707D01*
X125108210Y-114069711D01*
X125020609Y-114200814D01*
X125020602Y-114200827D01*
X124960264Y-114346498D01*
X124960261Y-114346510D01*
X124929500Y-114501153D01*
X124929500Y-116638846D01*
X99695000Y-116638846D01*
X99695000Y-112607844D01*
X107285000Y-112607844D01*
X107291401Y-112667372D01*
X107291403Y-112667379D01*
X107341645Y-112802086D01*
X107341649Y-112802093D01*
X107427809Y-112917187D01*
X107427812Y-112917190D01*
X107542906Y-113003350D01*
X107542913Y-113003354D01*
X107677620Y-113053596D01*
X107677627Y-113053598D01*
X107730654Y-113059300D01*
X107795205Y-113086038D01*
X107835053Y-113143431D01*
X107837546Y-113213256D01*
X107801893Y-113273345D01*
X107741589Y-113304206D01*
X107706770Y-113311131D01*
X107706769Y-113311132D01*
X107640447Y-113355447D01*
X107596132Y-113421769D01*
X107596131Y-113421770D01*
X107584500Y-113480247D01*
X107584500Y-115119752D01*
X107596131Y-115178229D01*
X107596132Y-115178230D01*
X107640447Y-115244552D01*
X107706769Y-115288867D01*
X107706770Y-115288868D01*
X107765247Y-115300499D01*
X107765250Y-115300500D01*
X107765252Y-115300500D01*
X109404750Y-115300500D01*
X109404751Y-115300499D01*
X109419568Y-115297552D01*
X109463229Y-115288868D01*
X109463229Y-115288867D01*
X109463231Y-115288867D01*
X109529552Y-115244552D01*
X109573867Y-115178231D01*
X109573867Y-115178229D01*
X109573868Y-115178229D01*
X109585499Y-115119752D01*
X109585500Y-115119750D01*
X109585500Y-113480249D01*
X109585499Y-113480247D01*
X109573868Y-113421770D01*
X109573867Y-113421769D01*
X109529552Y-113355447D01*
X109463230Y-113311132D01*
X109463229Y-113311131D01*
X109428410Y-113304206D01*
X109366499Y-113271821D01*
X109331925Y-113211106D01*
X109335664Y-113141336D01*
X109376530Y-113084664D01*
X109439345Y-113059300D01*
X109492372Y-113053598D01*
X109492379Y-113053596D01*
X109627086Y-113003354D01*
X109627093Y-113003350D01*
X109742187Y-112917190D01*
X109742190Y-112917187D01*
X109828350Y-112802093D01*
X109828354Y-112802086D01*
X109878596Y-112667379D01*
X109878598Y-112667372D01*
X109884999Y-112607844D01*
X109885000Y-112607827D01*
X109885000Y-112473846D01*
X164864700Y-112473846D01*
X164895461Y-112628489D01*
X164895464Y-112628501D01*
X164955802Y-112774172D01*
X164955809Y-112774185D01*
X165043410Y-112905288D01*
X165043413Y-112905292D01*
X165154907Y-113016786D01*
X165154911Y-113016789D01*
X165286014Y-113104390D01*
X165286027Y-113104397D01*
X165380265Y-113143431D01*
X165431703Y-113164737D01*
X165586353Y-113195499D01*
X165586356Y-113195500D01*
X165586358Y-113195500D01*
X166544044Y-113195500D01*
X166544045Y-113195499D01*
X166698697Y-113164737D01*
X166844379Y-113104394D01*
X166975489Y-113016789D01*
X167086989Y-112905289D01*
X167174594Y-112774179D01*
X167234937Y-112628497D01*
X167265699Y-112473846D01*
X188029500Y-112473846D01*
X188060261Y-112628489D01*
X188060264Y-112628501D01*
X188120602Y-112774172D01*
X188120609Y-112774185D01*
X188208210Y-112905288D01*
X188208213Y-112905292D01*
X188319707Y-113016786D01*
X188319711Y-113016789D01*
X188450814Y-113104390D01*
X188450827Y-113104397D01*
X188545065Y-113143431D01*
X188596503Y-113164737D01*
X188751153Y-113195499D01*
X188751156Y-113195500D01*
X188751158Y-113195500D01*
X189708844Y-113195500D01*
X189708845Y-113195499D01*
X189863497Y-113164737D01*
X190009179Y-113104394D01*
X190140289Y-113016789D01*
X190251789Y-112905289D01*
X190339394Y-112774179D01*
X190399737Y-112628497D01*
X190430500Y-112473842D01*
X190430500Y-112316158D01*
X190430500Y-112316155D01*
X190430499Y-112316153D01*
X190399738Y-112161510D01*
X190399737Y-112161503D01*
X190399735Y-112161498D01*
X190339397Y-112015827D01*
X190339390Y-112015814D01*
X190251789Y-111884711D01*
X190251786Y-111884707D01*
X190140292Y-111773213D01*
X190140288Y-111773210D01*
X190009185Y-111685609D01*
X190009172Y-111685602D01*
X189863501Y-111625264D01*
X189863489Y-111625261D01*
X189708845Y-111594500D01*
X189708842Y-111594500D01*
X188751158Y-111594500D01*
X188751155Y-111594500D01*
X188596510Y-111625261D01*
X188596498Y-111625264D01*
X188450827Y-111685602D01*
X188450814Y-111685609D01*
X188319711Y-111773210D01*
X188319707Y-111773213D01*
X188208213Y-111884707D01*
X188208210Y-111884711D01*
X188120609Y-112015814D01*
X188120602Y-112015827D01*
X188060264Y-112161498D01*
X188060261Y-112161510D01*
X188029500Y-112316153D01*
X188029500Y-112473846D01*
X167265699Y-112473846D01*
X167265700Y-112473842D01*
X167265700Y-112316158D01*
X167265700Y-112316155D01*
X167265699Y-112316153D01*
X167234938Y-112161510D01*
X167234937Y-112161503D01*
X167234935Y-112161498D01*
X167174597Y-112015827D01*
X167174590Y-112015814D01*
X167086989Y-111884711D01*
X167086986Y-111884707D01*
X166975492Y-111773213D01*
X166975488Y-111773210D01*
X166844385Y-111685609D01*
X166844372Y-111685602D01*
X166698701Y-111625264D01*
X166698689Y-111625261D01*
X166544045Y-111594500D01*
X166544042Y-111594500D01*
X165586358Y-111594500D01*
X165586355Y-111594500D01*
X165431710Y-111625261D01*
X165431698Y-111625264D01*
X165286027Y-111685602D01*
X165286014Y-111685609D01*
X165154911Y-111773210D01*
X165154907Y-111773213D01*
X165043413Y-111884707D01*
X165043410Y-111884711D01*
X164955809Y-112015814D01*
X164955802Y-112015827D01*
X164895464Y-112161498D01*
X164895461Y-112161510D01*
X164864700Y-112316153D01*
X164864700Y-112473846D01*
X109885000Y-112473846D01*
X109885000Y-112010000D01*
X109018012Y-112010000D01*
X109050925Y-111952993D01*
X109085000Y-111825826D01*
X109085000Y-111694174D01*
X109050925Y-111567007D01*
X109018012Y-111510000D01*
X109885000Y-111510000D01*
X109885000Y-111309752D01*
X143819500Y-111309752D01*
X143831131Y-111368229D01*
X143831132Y-111368230D01*
X143875447Y-111434552D01*
X143941769Y-111478867D01*
X143941770Y-111478868D01*
X144000247Y-111490499D01*
X144000250Y-111490500D01*
X144000252Y-111490500D01*
X145639750Y-111490500D01*
X145639751Y-111490499D01*
X145654568Y-111487552D01*
X145698229Y-111478868D01*
X145698229Y-111478867D01*
X145698231Y-111478867D01*
X145764552Y-111434552D01*
X145808867Y-111368231D01*
X145808867Y-111368229D01*
X145808868Y-111368229D01*
X145820499Y-111309752D01*
X145820500Y-111309750D01*
X145820500Y-110858480D01*
X145840185Y-110791441D01*
X145892989Y-110745686D01*
X145962147Y-110735742D01*
X146025703Y-110764767D01*
X146063477Y-110823545D01*
X146064275Y-110826387D01*
X146093730Y-110936317D01*
X146093735Y-110936331D01*
X146189863Y-111142478D01*
X146240974Y-111215472D01*
X146920000Y-110536446D01*
X146920000Y-110542661D01*
X146947259Y-110644394D01*
X146999920Y-110735606D01*
X147074394Y-110810080D01*
X147165606Y-110862741D01*
X147267339Y-110890000D01*
X147273553Y-110890000D01*
X146594526Y-111569025D01*
X146667513Y-111620132D01*
X146667521Y-111620136D01*
X146873668Y-111716264D01*
X146873682Y-111716269D01*
X147093389Y-111775139D01*
X147093400Y-111775141D01*
X147319998Y-111794966D01*
X147320002Y-111794966D01*
X147546599Y-111775141D01*
X147546610Y-111775139D01*
X147766317Y-111716269D01*
X147766331Y-111716264D01*
X147972478Y-111620136D01*
X148045471Y-111569024D01*
X147366447Y-110890000D01*
X147372661Y-110890000D01*
X147474394Y-110862741D01*
X147565606Y-110810080D01*
X147640080Y-110735606D01*
X147692741Y-110644394D01*
X147720000Y-110542661D01*
X147720000Y-110536447D01*
X148399024Y-111215471D01*
X148450136Y-111142478D01*
X148546264Y-110936331D01*
X148546269Y-110936317D01*
X148605139Y-110716610D01*
X148605141Y-110716599D01*
X148624966Y-110490002D01*
X148624966Y-110489997D01*
X148605141Y-110263400D01*
X148605139Y-110263389D01*
X148546269Y-110043682D01*
X148546264Y-110043668D01*
X148495053Y-109933846D01*
X164864700Y-109933846D01*
X164895461Y-110088489D01*
X164895464Y-110088501D01*
X164955802Y-110234172D01*
X164955809Y-110234185D01*
X165043410Y-110365288D01*
X165043413Y-110365292D01*
X165154907Y-110476786D01*
X165154911Y-110476789D01*
X165286014Y-110564390D01*
X165286027Y-110564397D01*
X165431698Y-110624735D01*
X165431703Y-110624737D01*
X165530525Y-110644394D01*
X165586353Y-110655499D01*
X165586356Y-110655500D01*
X165586358Y-110655500D01*
X166544044Y-110655500D01*
X166544045Y-110655499D01*
X166698697Y-110624737D01*
X166844379Y-110564394D01*
X166975489Y-110476789D01*
X167086989Y-110365289D01*
X167174594Y-110234179D01*
X167183254Y-110213273D01*
X167207965Y-110153613D01*
X167234937Y-110088497D01*
X167265699Y-109933846D01*
X188029500Y-109933846D01*
X188060261Y-110088489D01*
X188060264Y-110088501D01*
X188120602Y-110234172D01*
X188120609Y-110234185D01*
X188208210Y-110365288D01*
X188208213Y-110365292D01*
X188319707Y-110476786D01*
X188319711Y-110476789D01*
X188450814Y-110564390D01*
X188450827Y-110564397D01*
X188596498Y-110624735D01*
X188596503Y-110624737D01*
X188695325Y-110644394D01*
X188751153Y-110655499D01*
X188751156Y-110655500D01*
X188751158Y-110655500D01*
X189708844Y-110655500D01*
X189708845Y-110655499D01*
X189863497Y-110624737D01*
X190009179Y-110564394D01*
X190140289Y-110476789D01*
X190251789Y-110365289D01*
X190339394Y-110234179D01*
X190348054Y-110213273D01*
X190372765Y-110153613D01*
X190399737Y-110088497D01*
X190430500Y-109933842D01*
X190430500Y-109776158D01*
X190430500Y-109776155D01*
X190430499Y-109776153D01*
X190399738Y-109621510D01*
X190399737Y-109621503D01*
X190399735Y-109621498D01*
X190339397Y-109475827D01*
X190339390Y-109475814D01*
X190251789Y-109344711D01*
X190251786Y-109344707D01*
X190140292Y-109233213D01*
X190140288Y-109233210D01*
X190009185Y-109145609D01*
X190009172Y-109145602D01*
X189863501Y-109085264D01*
X189863489Y-109085261D01*
X189708845Y-109054500D01*
X189708842Y-109054500D01*
X188751158Y-109054500D01*
X188751155Y-109054500D01*
X188596510Y-109085261D01*
X188596498Y-109085264D01*
X188450827Y-109145602D01*
X188450814Y-109145609D01*
X188319711Y-109233210D01*
X188319707Y-109233213D01*
X188208213Y-109344707D01*
X188208210Y-109344711D01*
X188120609Y-109475814D01*
X188120602Y-109475827D01*
X188060264Y-109621498D01*
X188060261Y-109621510D01*
X188029500Y-109776153D01*
X188029500Y-109933846D01*
X167265699Y-109933846D01*
X167265700Y-109933842D01*
X167265700Y-109776158D01*
X167265700Y-109776155D01*
X167265699Y-109776153D01*
X167234938Y-109621510D01*
X167234937Y-109621503D01*
X167234935Y-109621498D01*
X167174597Y-109475827D01*
X167174590Y-109475814D01*
X167086989Y-109344711D01*
X167086986Y-109344707D01*
X166975492Y-109233213D01*
X166975488Y-109233210D01*
X166844385Y-109145609D01*
X166844372Y-109145602D01*
X166698701Y-109085264D01*
X166698689Y-109085261D01*
X166544045Y-109054500D01*
X166544042Y-109054500D01*
X165586358Y-109054500D01*
X165586355Y-109054500D01*
X165431710Y-109085261D01*
X165431698Y-109085264D01*
X165286027Y-109145602D01*
X165286014Y-109145609D01*
X165154911Y-109233210D01*
X165154907Y-109233213D01*
X165043413Y-109344707D01*
X165043410Y-109344711D01*
X164955809Y-109475814D01*
X164955802Y-109475827D01*
X164895464Y-109621498D01*
X164895461Y-109621510D01*
X164864700Y-109776153D01*
X164864700Y-109933846D01*
X148495053Y-109933846D01*
X148450136Y-109837521D01*
X148450132Y-109837513D01*
X148399025Y-109764526D01*
X147720000Y-110443551D01*
X147720000Y-110437339D01*
X147692741Y-110335606D01*
X147640080Y-110244394D01*
X147565606Y-110169920D01*
X147474394Y-110117259D01*
X147372661Y-110090000D01*
X147366448Y-110090000D01*
X148045472Y-109410974D01*
X147972478Y-109359863D01*
X147766331Y-109263735D01*
X147766317Y-109263730D01*
X147546610Y-109204860D01*
X147546599Y-109204858D01*
X147320002Y-109185034D01*
X147319998Y-109185034D01*
X147093400Y-109204858D01*
X147093389Y-109204860D01*
X146873682Y-109263730D01*
X146873673Y-109263734D01*
X146667516Y-109359866D01*
X146667512Y-109359868D01*
X146594526Y-109410973D01*
X146594526Y-109410974D01*
X147273553Y-110090000D01*
X147267339Y-110090000D01*
X147165606Y-110117259D01*
X147074394Y-110169920D01*
X146999920Y-110244394D01*
X146947259Y-110335606D01*
X146920000Y-110437339D01*
X146920000Y-110443552D01*
X146240974Y-109764526D01*
X146240973Y-109764526D01*
X146189868Y-109837512D01*
X146189866Y-109837516D01*
X146093734Y-110043673D01*
X146093731Y-110043679D01*
X146064275Y-110153613D01*
X146027910Y-110213273D01*
X145965063Y-110243802D01*
X145895687Y-110235507D01*
X145841809Y-110191022D01*
X145820535Y-110124470D01*
X145820500Y-110121519D01*
X145820500Y-109670249D01*
X145820499Y-109670247D01*
X145808868Y-109611770D01*
X145808867Y-109611769D01*
X145764552Y-109545447D01*
X145698230Y-109501132D01*
X145698229Y-109501131D01*
X145639752Y-109489500D01*
X145639748Y-109489500D01*
X144000252Y-109489500D01*
X144000247Y-109489500D01*
X143941770Y-109501131D01*
X143941769Y-109501132D01*
X143875447Y-109545447D01*
X143831132Y-109611769D01*
X143831131Y-109611770D01*
X143819500Y-109670247D01*
X143819500Y-111309752D01*
X109885000Y-111309752D01*
X109885000Y-110912172D01*
X109884999Y-110912155D01*
X109878598Y-110852627D01*
X109878596Y-110852620D01*
X109828354Y-110717913D01*
X109828350Y-110717906D01*
X109742190Y-110602812D01*
X109742187Y-110602809D01*
X109627093Y-110516649D01*
X109627086Y-110516645D01*
X109492379Y-110466403D01*
X109492373Y-110466401D01*
X109439343Y-110460699D01*
X109374792Y-110433960D01*
X109334946Y-110376566D01*
X109332454Y-110306741D01*
X109368107Y-110246653D01*
X109428410Y-110215793D01*
X109463231Y-110208867D01*
X109529552Y-110164552D01*
X109573867Y-110098231D01*
X109573867Y-110098229D01*
X109573868Y-110098229D01*
X109585499Y-110039752D01*
X109585500Y-110039750D01*
X109585500Y-108516447D01*
X124630000Y-108516447D01*
X125330000Y-107816447D01*
X125330000Y-107822661D01*
X125357259Y-107924394D01*
X125409920Y-108015606D01*
X125484394Y-108090080D01*
X125575606Y-108142741D01*
X125677339Y-108170000D01*
X125683553Y-108170000D01*
X124700954Y-109152597D01*
X124700953Y-109152599D01*
X124710588Y-109182248D01*
X124789195Y-109336524D01*
X124890967Y-109476602D01*
X125013397Y-109599032D01*
X125153475Y-109700804D01*
X125307742Y-109779408D01*
X125472415Y-109832914D01*
X125643429Y-109860000D01*
X125816571Y-109860000D01*
X125987584Y-109832914D01*
X126152257Y-109779408D01*
X126306524Y-109700804D01*
X126446602Y-109599032D01*
X126569032Y-109476602D01*
X126670804Y-109336524D01*
X126749409Y-109182254D01*
X126749411Y-109182249D01*
X126759045Y-109152598D01*
X126759044Y-109152596D01*
X126445294Y-108838846D01*
X127469500Y-108838846D01*
X127500261Y-108993489D01*
X127500264Y-108993501D01*
X127560602Y-109139172D01*
X127560609Y-109139185D01*
X127648210Y-109270288D01*
X127648213Y-109270292D01*
X127759707Y-109381786D01*
X127759711Y-109381789D01*
X127890814Y-109469390D01*
X127890827Y-109469397D01*
X127967446Y-109501133D01*
X128036503Y-109529737D01*
X128191153Y-109560499D01*
X128191156Y-109560500D01*
X128191158Y-109560500D01*
X128348844Y-109560500D01*
X128348845Y-109560499D01*
X128503497Y-109529737D01*
X128649179Y-109469394D01*
X128780289Y-109381789D01*
X128891789Y-109270289D01*
X128979394Y-109139179D01*
X129039737Y-108993497D01*
X129070499Y-108838846D01*
X130009500Y-108838846D01*
X130040261Y-108993489D01*
X130040264Y-108993501D01*
X130100602Y-109139172D01*
X130100609Y-109139185D01*
X130188210Y-109270288D01*
X130188213Y-109270292D01*
X130299707Y-109381786D01*
X130299711Y-109381789D01*
X130430814Y-109469390D01*
X130430827Y-109469397D01*
X130507446Y-109501133D01*
X130576503Y-109529737D01*
X130731153Y-109560499D01*
X130731156Y-109560500D01*
X130731158Y-109560500D01*
X130888844Y-109560500D01*
X130888845Y-109560499D01*
X131043497Y-109529737D01*
X131189179Y-109469394D01*
X131320289Y-109381789D01*
X131431789Y-109270289D01*
X131519394Y-109139179D01*
X131579737Y-108993497D01*
X131610499Y-108838846D01*
X132549500Y-108838846D01*
X132580261Y-108993489D01*
X132580264Y-108993501D01*
X132640602Y-109139172D01*
X132640609Y-109139185D01*
X132728210Y-109270288D01*
X132728213Y-109270292D01*
X132839707Y-109381786D01*
X132839711Y-109381789D01*
X132970814Y-109469390D01*
X132970827Y-109469397D01*
X133047446Y-109501133D01*
X133116503Y-109529737D01*
X133271153Y-109560499D01*
X133271156Y-109560500D01*
X133271158Y-109560500D01*
X133428844Y-109560500D01*
X133428845Y-109560499D01*
X133583497Y-109529737D01*
X133729179Y-109469394D01*
X133860289Y-109381789D01*
X133971789Y-109270289D01*
X134059394Y-109139179D01*
X134119737Y-108993497D01*
X134150499Y-108838846D01*
X135089500Y-108838846D01*
X135120261Y-108993489D01*
X135120264Y-108993501D01*
X135180602Y-109139172D01*
X135180609Y-109139185D01*
X135268210Y-109270288D01*
X135268213Y-109270292D01*
X135379707Y-109381786D01*
X135379711Y-109381789D01*
X135510814Y-109469390D01*
X135510827Y-109469397D01*
X135587446Y-109501133D01*
X135656503Y-109529737D01*
X135811153Y-109560499D01*
X135811156Y-109560500D01*
X135811158Y-109560500D01*
X135968844Y-109560500D01*
X135968845Y-109560499D01*
X136123497Y-109529737D01*
X136269179Y-109469394D01*
X136400289Y-109381789D01*
X136511789Y-109270289D01*
X136599394Y-109139179D01*
X136659737Y-108993497D01*
X136690499Y-108838846D01*
X137629500Y-108838846D01*
X137660261Y-108993489D01*
X137660264Y-108993501D01*
X137720602Y-109139172D01*
X137720609Y-109139185D01*
X137808210Y-109270288D01*
X137808213Y-109270292D01*
X137919707Y-109381786D01*
X137919711Y-109381789D01*
X138050814Y-109469390D01*
X138050827Y-109469397D01*
X138127446Y-109501133D01*
X138196503Y-109529737D01*
X138351153Y-109560499D01*
X138351156Y-109560500D01*
X138351158Y-109560500D01*
X138508844Y-109560500D01*
X138508845Y-109560499D01*
X138663497Y-109529737D01*
X138809179Y-109469394D01*
X138940289Y-109381789D01*
X139051789Y-109270289D01*
X139139394Y-109139179D01*
X139199737Y-108993497D01*
X139230499Y-108838846D01*
X140169500Y-108838846D01*
X140200261Y-108993489D01*
X140200264Y-108993501D01*
X140260602Y-109139172D01*
X140260609Y-109139185D01*
X140348210Y-109270288D01*
X140348213Y-109270292D01*
X140459707Y-109381786D01*
X140459711Y-109381789D01*
X140590814Y-109469390D01*
X140590827Y-109469397D01*
X140667446Y-109501133D01*
X140736503Y-109529737D01*
X140891153Y-109560499D01*
X140891156Y-109560500D01*
X140891158Y-109560500D01*
X141048844Y-109560500D01*
X141048845Y-109560499D01*
X141203497Y-109529737D01*
X141349179Y-109469394D01*
X141480289Y-109381789D01*
X141591789Y-109270289D01*
X141679394Y-109139179D01*
X141739737Y-108993497D01*
X141770500Y-108838842D01*
X141770500Y-107393846D01*
X164864700Y-107393846D01*
X164895461Y-107548489D01*
X164895464Y-107548501D01*
X164955802Y-107694172D01*
X164955809Y-107694185D01*
X165043410Y-107825288D01*
X165043413Y-107825292D01*
X165154907Y-107936786D01*
X165154911Y-107936789D01*
X165286014Y-108024390D01*
X165286027Y-108024397D01*
X165431698Y-108084735D01*
X165431703Y-108084737D01*
X165586353Y-108115499D01*
X165586356Y-108115500D01*
X165586358Y-108115500D01*
X166544044Y-108115500D01*
X166544045Y-108115499D01*
X166698697Y-108084737D01*
X166844379Y-108024394D01*
X166975489Y-107936789D01*
X167086989Y-107825289D01*
X167174594Y-107694179D01*
X167234937Y-107548497D01*
X167265699Y-107393846D01*
X188029500Y-107393846D01*
X188060261Y-107548489D01*
X188060264Y-107548501D01*
X188120602Y-107694172D01*
X188120609Y-107694185D01*
X188208210Y-107825288D01*
X188208213Y-107825292D01*
X188319707Y-107936786D01*
X188319711Y-107936789D01*
X188450814Y-108024390D01*
X188450827Y-108024397D01*
X188596498Y-108084735D01*
X188596503Y-108084737D01*
X188751153Y-108115499D01*
X188751156Y-108115500D01*
X188751158Y-108115500D01*
X189708844Y-108115500D01*
X189708845Y-108115499D01*
X189863497Y-108084737D01*
X190009179Y-108024394D01*
X190140289Y-107936789D01*
X190251789Y-107825289D01*
X190339394Y-107694179D01*
X190399737Y-107548497D01*
X190430500Y-107393842D01*
X190430500Y-107236158D01*
X190430500Y-107236155D01*
X190430499Y-107236153D01*
X190399738Y-107081510D01*
X190399737Y-107081503D01*
X190375733Y-107023552D01*
X190339397Y-106935827D01*
X190339390Y-106935814D01*
X190251789Y-106804711D01*
X190251786Y-106804707D01*
X190140292Y-106693213D01*
X190140288Y-106693210D01*
X190009185Y-106605609D01*
X190009172Y-106605602D01*
X189863501Y-106545264D01*
X189863489Y-106545261D01*
X189708845Y-106514500D01*
X189708842Y-106514500D01*
X188751158Y-106514500D01*
X188751155Y-106514500D01*
X188596510Y-106545261D01*
X188596498Y-106545264D01*
X188450827Y-106605602D01*
X188450814Y-106605609D01*
X188319711Y-106693210D01*
X188319707Y-106693213D01*
X188208213Y-106804707D01*
X188208210Y-106804711D01*
X188120609Y-106935814D01*
X188120602Y-106935827D01*
X188060264Y-107081498D01*
X188060261Y-107081510D01*
X188029500Y-107236153D01*
X188029500Y-107393846D01*
X167265699Y-107393846D01*
X167265700Y-107393842D01*
X167265700Y-107236158D01*
X167265700Y-107236155D01*
X167265699Y-107236153D01*
X167234938Y-107081510D01*
X167234937Y-107081503D01*
X167210933Y-107023552D01*
X167174597Y-106935827D01*
X167174590Y-106935814D01*
X167086989Y-106804711D01*
X167086986Y-106804707D01*
X166975492Y-106693213D01*
X166975488Y-106693210D01*
X166844385Y-106605609D01*
X166844372Y-106605602D01*
X166698701Y-106545264D01*
X166698689Y-106545261D01*
X166544045Y-106514500D01*
X166544042Y-106514500D01*
X165586358Y-106514500D01*
X165586355Y-106514500D01*
X165431710Y-106545261D01*
X165431698Y-106545264D01*
X165286027Y-106605602D01*
X165286014Y-106605609D01*
X165154911Y-106693210D01*
X165154907Y-106693213D01*
X165043413Y-106804707D01*
X165043410Y-106804711D01*
X164955809Y-106935814D01*
X164955802Y-106935827D01*
X164895464Y-107081498D01*
X164895461Y-107081510D01*
X164864700Y-107236153D01*
X164864700Y-107393846D01*
X141770500Y-107393846D01*
X141770500Y-106701158D01*
X141770500Y-106701155D01*
X141770499Y-106701153D01*
X141751493Y-106605606D01*
X141739737Y-106546503D01*
X141726481Y-106514500D01*
X141679397Y-106400827D01*
X141679390Y-106400814D01*
X141591789Y-106269711D01*
X141591786Y-106269707D01*
X141480292Y-106158213D01*
X141480288Y-106158210D01*
X141349185Y-106070609D01*
X141349172Y-106070602D01*
X141203501Y-106010264D01*
X141203489Y-106010261D01*
X141048845Y-105979500D01*
X141048842Y-105979500D01*
X140891158Y-105979500D01*
X140891155Y-105979500D01*
X140736510Y-106010261D01*
X140736498Y-106010264D01*
X140590827Y-106070602D01*
X140590814Y-106070609D01*
X140459711Y-106158210D01*
X140459707Y-106158213D01*
X140348213Y-106269707D01*
X140348210Y-106269711D01*
X140260609Y-106400814D01*
X140260602Y-106400827D01*
X140200264Y-106546498D01*
X140200261Y-106546510D01*
X140169500Y-106701153D01*
X140169500Y-108838846D01*
X139230499Y-108838846D01*
X139230500Y-108838842D01*
X139230500Y-106701158D01*
X139230500Y-106701155D01*
X139230499Y-106701153D01*
X139211493Y-106605606D01*
X139199737Y-106546503D01*
X139186481Y-106514500D01*
X139139397Y-106400827D01*
X139139390Y-106400814D01*
X139051789Y-106269711D01*
X139051786Y-106269707D01*
X138940292Y-106158213D01*
X138940288Y-106158210D01*
X138809185Y-106070609D01*
X138809172Y-106070602D01*
X138663501Y-106010264D01*
X138663489Y-106010261D01*
X138508845Y-105979500D01*
X138508842Y-105979500D01*
X138351158Y-105979500D01*
X138351155Y-105979500D01*
X138196510Y-106010261D01*
X138196498Y-106010264D01*
X138050827Y-106070602D01*
X138050814Y-106070609D01*
X137919711Y-106158210D01*
X137919707Y-106158213D01*
X137808213Y-106269707D01*
X137808210Y-106269711D01*
X137720609Y-106400814D01*
X137720602Y-106400827D01*
X137660264Y-106546498D01*
X137660261Y-106546510D01*
X137629500Y-106701153D01*
X137629500Y-108838846D01*
X136690499Y-108838846D01*
X136690500Y-108838842D01*
X136690500Y-106701158D01*
X136690500Y-106701155D01*
X136690499Y-106701153D01*
X136671493Y-106605606D01*
X136659737Y-106546503D01*
X136646481Y-106514500D01*
X136599397Y-106400827D01*
X136599390Y-106400814D01*
X136511789Y-106269711D01*
X136511786Y-106269707D01*
X136400292Y-106158213D01*
X136400288Y-106158210D01*
X136269185Y-106070609D01*
X136269172Y-106070602D01*
X136123501Y-106010264D01*
X136123489Y-106010261D01*
X135968845Y-105979500D01*
X135968842Y-105979500D01*
X135811158Y-105979500D01*
X135811155Y-105979500D01*
X135656510Y-106010261D01*
X135656498Y-106010264D01*
X135510827Y-106070602D01*
X135510814Y-106070609D01*
X135379711Y-106158210D01*
X135379707Y-106158213D01*
X135268213Y-106269707D01*
X135268210Y-106269711D01*
X135180609Y-106400814D01*
X135180602Y-106400827D01*
X135120264Y-106546498D01*
X135120261Y-106546510D01*
X135089500Y-106701153D01*
X135089500Y-108838846D01*
X134150499Y-108838846D01*
X134150500Y-108838842D01*
X134150500Y-106701158D01*
X134150500Y-106701155D01*
X134150499Y-106701153D01*
X134131493Y-106605606D01*
X134119737Y-106546503D01*
X134106481Y-106514500D01*
X134059397Y-106400827D01*
X134059390Y-106400814D01*
X133971789Y-106269711D01*
X133971786Y-106269707D01*
X133860292Y-106158213D01*
X133860288Y-106158210D01*
X133729185Y-106070609D01*
X133729172Y-106070602D01*
X133583501Y-106010264D01*
X133583489Y-106010261D01*
X133428845Y-105979500D01*
X133428842Y-105979500D01*
X133271158Y-105979500D01*
X133271155Y-105979500D01*
X133116510Y-106010261D01*
X133116498Y-106010264D01*
X132970827Y-106070602D01*
X132970814Y-106070609D01*
X132839711Y-106158210D01*
X132839707Y-106158213D01*
X132728213Y-106269707D01*
X132728210Y-106269711D01*
X132640609Y-106400814D01*
X132640602Y-106400827D01*
X132580264Y-106546498D01*
X132580261Y-106546510D01*
X132549500Y-106701153D01*
X132549500Y-108838846D01*
X131610499Y-108838846D01*
X131610500Y-108838842D01*
X131610500Y-106701158D01*
X131610500Y-106701155D01*
X131610499Y-106701153D01*
X131591493Y-106605606D01*
X131579737Y-106546503D01*
X131566481Y-106514500D01*
X131519397Y-106400827D01*
X131519390Y-106400814D01*
X131431789Y-106269711D01*
X131431786Y-106269707D01*
X131320292Y-106158213D01*
X131320288Y-106158210D01*
X131189185Y-106070609D01*
X131189172Y-106070602D01*
X131043501Y-106010264D01*
X131043489Y-106010261D01*
X130888845Y-105979500D01*
X130888842Y-105979500D01*
X130731158Y-105979500D01*
X130731155Y-105979500D01*
X130576510Y-106010261D01*
X130576498Y-106010264D01*
X130430827Y-106070602D01*
X130430814Y-106070609D01*
X130299711Y-106158210D01*
X130299707Y-106158213D01*
X130188213Y-106269707D01*
X130188210Y-106269711D01*
X130100609Y-106400814D01*
X130100602Y-106400827D01*
X130040264Y-106546498D01*
X130040261Y-106546510D01*
X130009500Y-106701153D01*
X130009500Y-108838846D01*
X129070499Y-108838846D01*
X129070500Y-108838842D01*
X129070500Y-106701158D01*
X129070500Y-106701155D01*
X129070499Y-106701153D01*
X129051493Y-106605606D01*
X129039737Y-106546503D01*
X129026481Y-106514500D01*
X128979397Y-106400827D01*
X128979390Y-106400814D01*
X128891789Y-106269711D01*
X128891786Y-106269707D01*
X128780292Y-106158213D01*
X128780288Y-106158210D01*
X128649185Y-106070609D01*
X128649172Y-106070602D01*
X128503501Y-106010264D01*
X128503489Y-106010261D01*
X128348845Y-105979500D01*
X128348842Y-105979500D01*
X128191158Y-105979500D01*
X128191155Y-105979500D01*
X128036510Y-106010261D01*
X128036498Y-106010264D01*
X127890827Y-106070602D01*
X127890814Y-106070609D01*
X127759711Y-106158210D01*
X127759707Y-106158213D01*
X127648213Y-106269707D01*
X127648210Y-106269711D01*
X127560609Y-106400814D01*
X127560602Y-106400827D01*
X127500264Y-106546498D01*
X127500261Y-106546510D01*
X127469500Y-106701153D01*
X127469500Y-108838846D01*
X126445294Y-108838846D01*
X125776447Y-108170000D01*
X125782661Y-108170000D01*
X125884394Y-108142741D01*
X125975606Y-108090080D01*
X126050080Y-108015606D01*
X126102741Y-107924394D01*
X126130000Y-107822661D01*
X126130000Y-107816447D01*
X126829999Y-108516447D01*
X126830000Y-108516446D01*
X126830000Y-107023553D01*
X126829999Y-107023552D01*
X126130000Y-107723551D01*
X126130000Y-107717339D01*
X126102741Y-107615606D01*
X126050080Y-107524394D01*
X125975606Y-107449920D01*
X125884394Y-107397259D01*
X125782661Y-107370000D01*
X125776448Y-107370000D01*
X126759044Y-106387402D01*
X126759045Y-106387400D01*
X126749411Y-106357749D01*
X126749410Y-106357746D01*
X126670804Y-106203475D01*
X126569032Y-106063397D01*
X126446602Y-105940967D01*
X126306524Y-105839195D01*
X126152257Y-105760591D01*
X125987584Y-105707085D01*
X125816571Y-105680000D01*
X125643429Y-105680000D01*
X125472415Y-105707085D01*
X125307742Y-105760591D01*
X125153475Y-105839195D01*
X125013397Y-105940967D01*
X124890967Y-106063397D01*
X124789195Y-106203475D01*
X124710588Y-106357751D01*
X124700953Y-106387401D01*
X125683553Y-107370000D01*
X125677339Y-107370000D01*
X125575606Y-107397259D01*
X125484394Y-107449920D01*
X125409920Y-107524394D01*
X125357259Y-107615606D01*
X125330000Y-107717339D01*
X125330000Y-107723552D01*
X124630000Y-107023552D01*
X124630000Y-108516447D01*
X109585500Y-108516447D01*
X109585500Y-108400249D01*
X109585499Y-108400247D01*
X109573868Y-108341770D01*
X109573867Y-108341769D01*
X109529552Y-108275447D01*
X109463230Y-108231132D01*
X109463229Y-108231131D01*
X109404752Y-108219500D01*
X109404748Y-108219500D01*
X107765252Y-108219500D01*
X107765247Y-108219500D01*
X107706770Y-108231131D01*
X107706769Y-108231132D01*
X107640447Y-108275447D01*
X107596132Y-108341769D01*
X107596131Y-108341770D01*
X107584500Y-108400247D01*
X107584500Y-110039752D01*
X107596131Y-110098229D01*
X107596132Y-110098230D01*
X107640447Y-110164552D01*
X107684762Y-110194162D01*
X107706769Y-110208867D01*
X107741589Y-110215793D01*
X107803499Y-110248176D01*
X107838074Y-110308891D01*
X107834335Y-110378661D01*
X107793470Y-110435334D01*
X107730656Y-110460699D01*
X107677626Y-110466401D01*
X107677620Y-110466403D01*
X107542913Y-110516645D01*
X107542906Y-110516649D01*
X107427812Y-110602809D01*
X107427809Y-110602812D01*
X107341649Y-110717906D01*
X107341645Y-110717913D01*
X107291403Y-110852620D01*
X107291401Y-110852627D01*
X107285000Y-110912155D01*
X107285000Y-111510000D01*
X108151988Y-111510000D01*
X108119075Y-111567007D01*
X108085000Y-111694174D01*
X108085000Y-111825826D01*
X108119075Y-111952993D01*
X108151988Y-112010000D01*
X107285000Y-112010000D01*
X107285000Y-112607844D01*
X99695000Y-112607844D01*
X99695000Y-104853846D01*
X164864700Y-104853846D01*
X164895461Y-105008489D01*
X164895464Y-105008501D01*
X164955802Y-105154172D01*
X164955809Y-105154185D01*
X165043410Y-105285288D01*
X165043413Y-105285292D01*
X165154907Y-105396786D01*
X165154911Y-105396789D01*
X165286014Y-105484390D01*
X165286027Y-105484397D01*
X165431698Y-105544735D01*
X165431703Y-105544737D01*
X165586353Y-105575499D01*
X165586356Y-105575500D01*
X165586358Y-105575500D01*
X166544044Y-105575500D01*
X166544045Y-105575499D01*
X166698697Y-105544737D01*
X166844379Y-105484394D01*
X166975489Y-105396789D01*
X167086989Y-105285289D01*
X167174594Y-105154179D01*
X167234937Y-105008497D01*
X167265699Y-104853846D01*
X188029500Y-104853846D01*
X188060261Y-105008489D01*
X188060264Y-105008501D01*
X188120602Y-105154172D01*
X188120609Y-105154185D01*
X188208210Y-105285288D01*
X188208213Y-105285292D01*
X188319707Y-105396786D01*
X188319711Y-105396789D01*
X188450814Y-105484390D01*
X188450827Y-105484397D01*
X188596498Y-105544735D01*
X188596503Y-105544737D01*
X188751153Y-105575499D01*
X188751156Y-105575500D01*
X188751158Y-105575500D01*
X189708844Y-105575500D01*
X189708845Y-105575499D01*
X189863497Y-105544737D01*
X190009179Y-105484394D01*
X190140289Y-105396789D01*
X190251789Y-105285289D01*
X190339394Y-105154179D01*
X190399737Y-105008497D01*
X190430500Y-104853842D01*
X190430500Y-104696158D01*
X190430500Y-104696155D01*
X190430499Y-104696153D01*
X190399738Y-104541510D01*
X190399737Y-104541503D01*
X190361650Y-104449552D01*
X190339397Y-104395827D01*
X190339390Y-104395814D01*
X190251789Y-104264711D01*
X190251786Y-104264707D01*
X190140292Y-104153213D01*
X190140288Y-104153210D01*
X190009185Y-104065609D01*
X190009172Y-104065602D01*
X189863501Y-104005264D01*
X189863489Y-104005261D01*
X189708845Y-103974500D01*
X189708842Y-103974500D01*
X188751158Y-103974500D01*
X188751155Y-103974500D01*
X188596510Y-104005261D01*
X188596498Y-104005264D01*
X188450827Y-104065602D01*
X188450814Y-104065609D01*
X188319711Y-104153210D01*
X188319707Y-104153213D01*
X188208213Y-104264707D01*
X188208210Y-104264711D01*
X188120609Y-104395814D01*
X188120602Y-104395827D01*
X188060264Y-104541498D01*
X188060261Y-104541510D01*
X188029500Y-104696153D01*
X188029500Y-104853846D01*
X167265699Y-104853846D01*
X167265700Y-104853842D01*
X167265700Y-104696158D01*
X167265700Y-104696155D01*
X167265699Y-104696153D01*
X167234938Y-104541510D01*
X167234937Y-104541503D01*
X167196850Y-104449552D01*
X167174597Y-104395827D01*
X167174590Y-104395814D01*
X167086989Y-104264711D01*
X167086986Y-104264707D01*
X166975492Y-104153213D01*
X166975488Y-104153210D01*
X166844385Y-104065609D01*
X166844372Y-104065602D01*
X166698701Y-104005264D01*
X166698689Y-104005261D01*
X166544045Y-103974500D01*
X166544042Y-103974500D01*
X165586358Y-103974500D01*
X165586355Y-103974500D01*
X165431710Y-104005261D01*
X165431698Y-104005264D01*
X165286027Y-104065602D01*
X165286014Y-104065609D01*
X165154911Y-104153210D01*
X165154907Y-104153213D01*
X165043413Y-104264707D01*
X165043410Y-104264711D01*
X164955809Y-104395814D01*
X164955802Y-104395827D01*
X164895464Y-104541498D01*
X164895461Y-104541510D01*
X164864700Y-104696153D01*
X164864700Y-104853846D01*
X99695000Y-104853846D01*
X99695000Y-104324752D01*
X143844388Y-104324752D01*
X143856019Y-104383229D01*
X143856020Y-104383230D01*
X143900335Y-104449552D01*
X143966657Y-104493867D01*
X143966658Y-104493868D01*
X144025135Y-104505499D01*
X144025138Y-104505500D01*
X144025140Y-104505500D01*
X145664638Y-104505500D01*
X145664639Y-104505499D01*
X145679456Y-104502552D01*
X145723117Y-104493868D01*
X145723117Y-104493867D01*
X145723119Y-104493867D01*
X145789440Y-104449552D01*
X145833755Y-104383231D01*
X145833755Y-104383229D01*
X145833756Y-104383229D01*
X145845387Y-104324752D01*
X145845388Y-104324750D01*
X145845388Y-103873480D01*
X145865073Y-103806441D01*
X145917877Y-103760686D01*
X145987035Y-103750742D01*
X146050591Y-103779767D01*
X146088365Y-103838545D01*
X146089163Y-103841387D01*
X146118618Y-103951317D01*
X146118623Y-103951331D01*
X146214751Y-104157478D01*
X146265862Y-104230472D01*
X146944888Y-103551446D01*
X146944888Y-103557661D01*
X146972147Y-103659394D01*
X147024808Y-103750606D01*
X147099282Y-103825080D01*
X147190494Y-103877741D01*
X147292227Y-103905000D01*
X147298441Y-103905000D01*
X146619414Y-104584025D01*
X146692401Y-104635132D01*
X146692409Y-104635136D01*
X146898556Y-104731264D01*
X146898570Y-104731269D01*
X147118277Y-104790139D01*
X147118288Y-104790141D01*
X147344886Y-104809966D01*
X147344890Y-104809966D01*
X147571487Y-104790141D01*
X147571498Y-104790139D01*
X147791205Y-104731269D01*
X147791219Y-104731264D01*
X147997366Y-104635136D01*
X148070359Y-104584024D01*
X147391335Y-103905000D01*
X147397549Y-103905000D01*
X147499282Y-103877741D01*
X147590494Y-103825080D01*
X147664968Y-103750606D01*
X147717629Y-103659394D01*
X147744888Y-103557661D01*
X147744888Y-103551447D01*
X148423912Y-104230471D01*
X148475024Y-104157478D01*
X148571152Y-103951331D01*
X148571157Y-103951317D01*
X148630027Y-103731610D01*
X148630029Y-103731599D01*
X148649854Y-103505002D01*
X148649854Y-103504997D01*
X148630029Y-103278400D01*
X148630027Y-103278389D01*
X148571157Y-103058682D01*
X148571152Y-103058668D01*
X148475024Y-102852521D01*
X148475020Y-102852513D01*
X148423913Y-102779526D01*
X147744888Y-103458551D01*
X147744888Y-103452339D01*
X147717629Y-103350606D01*
X147664968Y-103259394D01*
X147590494Y-103184920D01*
X147499282Y-103132259D01*
X147397549Y-103105000D01*
X147391336Y-103105000D01*
X148070360Y-102425974D01*
X147997366Y-102374863D01*
X147866515Y-102313846D01*
X164864700Y-102313846D01*
X164895461Y-102468489D01*
X164895464Y-102468501D01*
X164955802Y-102614172D01*
X164955809Y-102614185D01*
X165043410Y-102745288D01*
X165043413Y-102745292D01*
X165154907Y-102856786D01*
X165154911Y-102856789D01*
X165286014Y-102944390D01*
X165286027Y-102944397D01*
X165383131Y-102984618D01*
X165431703Y-103004737D01*
X165586353Y-103035499D01*
X165586356Y-103035500D01*
X165586358Y-103035500D01*
X166544044Y-103035500D01*
X166544045Y-103035499D01*
X166698697Y-103004737D01*
X166844379Y-102944394D01*
X166975489Y-102856789D01*
X167086989Y-102745289D01*
X167174594Y-102614179D01*
X167234937Y-102468497D01*
X167265699Y-102313846D01*
X188029500Y-102313846D01*
X188060261Y-102468489D01*
X188060264Y-102468501D01*
X188120602Y-102614172D01*
X188120609Y-102614185D01*
X188208210Y-102745288D01*
X188208213Y-102745292D01*
X188319707Y-102856786D01*
X188319711Y-102856789D01*
X188450814Y-102944390D01*
X188450827Y-102944397D01*
X188547931Y-102984618D01*
X188596503Y-103004737D01*
X188751153Y-103035499D01*
X188751156Y-103035500D01*
X188751158Y-103035500D01*
X189708844Y-103035500D01*
X189708845Y-103035499D01*
X189863497Y-103004737D01*
X190009179Y-102944394D01*
X190140289Y-102856789D01*
X190251789Y-102745289D01*
X190339394Y-102614179D01*
X190399737Y-102468497D01*
X190430500Y-102313842D01*
X190430500Y-102156158D01*
X190430500Y-102156155D01*
X190430499Y-102156153D01*
X190408695Y-102046537D01*
X190399737Y-102001503D01*
X190399735Y-102001498D01*
X190339397Y-101855827D01*
X190339390Y-101855814D01*
X190251789Y-101724711D01*
X190251786Y-101724707D01*
X190140292Y-101613213D01*
X190140288Y-101613210D01*
X190009185Y-101525609D01*
X190009172Y-101525602D01*
X189863501Y-101465264D01*
X189863489Y-101465261D01*
X189708845Y-101434500D01*
X189708842Y-101434500D01*
X188751158Y-101434500D01*
X188751155Y-101434500D01*
X188596510Y-101465261D01*
X188596498Y-101465264D01*
X188450827Y-101525602D01*
X188450814Y-101525609D01*
X188319711Y-101613210D01*
X188319707Y-101613213D01*
X188208213Y-101724707D01*
X188208210Y-101724711D01*
X188120609Y-101855814D01*
X188120602Y-101855827D01*
X188060264Y-102001498D01*
X188060261Y-102001510D01*
X188029500Y-102156153D01*
X188029500Y-102313846D01*
X167265699Y-102313846D01*
X167265700Y-102313842D01*
X167265700Y-102156158D01*
X167265700Y-102156155D01*
X167265699Y-102156153D01*
X167243895Y-102046537D01*
X167234937Y-102001503D01*
X167234935Y-102001498D01*
X167174597Y-101855827D01*
X167174590Y-101855814D01*
X167086989Y-101724711D01*
X167086986Y-101724707D01*
X166975492Y-101613213D01*
X166975488Y-101613210D01*
X166844385Y-101525609D01*
X166844372Y-101525602D01*
X166698701Y-101465264D01*
X166698689Y-101465261D01*
X166544045Y-101434500D01*
X166544042Y-101434500D01*
X165586358Y-101434500D01*
X165586355Y-101434500D01*
X165431710Y-101465261D01*
X165431698Y-101465264D01*
X165286027Y-101525602D01*
X165286014Y-101525609D01*
X165154911Y-101613210D01*
X165154907Y-101613213D01*
X165043413Y-101724707D01*
X165043410Y-101724711D01*
X164955809Y-101855814D01*
X164955802Y-101855827D01*
X164895464Y-102001498D01*
X164895461Y-102001510D01*
X164864700Y-102156153D01*
X164864700Y-102313846D01*
X147866515Y-102313846D01*
X147791219Y-102278735D01*
X147791205Y-102278730D01*
X147571498Y-102219860D01*
X147571487Y-102219858D01*
X147344890Y-102200034D01*
X147344886Y-102200034D01*
X147118288Y-102219858D01*
X147118277Y-102219860D01*
X146898570Y-102278730D01*
X146898561Y-102278734D01*
X146692404Y-102374866D01*
X146692400Y-102374868D01*
X146619414Y-102425973D01*
X146619414Y-102425974D01*
X147298441Y-103105000D01*
X147292227Y-103105000D01*
X147190494Y-103132259D01*
X147099282Y-103184920D01*
X147024808Y-103259394D01*
X146972147Y-103350606D01*
X146944888Y-103452339D01*
X146944888Y-103458552D01*
X146265862Y-102779526D01*
X146265861Y-102779526D01*
X146214756Y-102852512D01*
X146214754Y-102852516D01*
X146118622Y-103058673D01*
X146118619Y-103058679D01*
X146089163Y-103168613D01*
X146052798Y-103228273D01*
X145989951Y-103258802D01*
X145920575Y-103250507D01*
X145866697Y-103206022D01*
X145845423Y-103139470D01*
X145845388Y-103136519D01*
X145845388Y-102685249D01*
X145845387Y-102685247D01*
X145833756Y-102626770D01*
X145833755Y-102626769D01*
X145789440Y-102560447D01*
X145723118Y-102516132D01*
X145723117Y-102516131D01*
X145664640Y-102504500D01*
X145664636Y-102504500D01*
X144025140Y-102504500D01*
X144025135Y-102504500D01*
X143966658Y-102516131D01*
X143966657Y-102516132D01*
X143900335Y-102560447D01*
X143856020Y-102626769D01*
X143856019Y-102626770D01*
X143844388Y-102685247D01*
X143844388Y-104324752D01*
X99695000Y-104324752D01*
X99695000Y-102438200D01*
X119163785Y-102438200D01*
X119182602Y-102641282D01*
X119238417Y-102837447D01*
X119238422Y-102837460D01*
X119329327Y-103020021D01*
X119452237Y-103182781D01*
X119602958Y-103320180D01*
X119602960Y-103320182D01*
X119652097Y-103350606D01*
X119776363Y-103427548D01*
X119966544Y-103501224D01*
X120167024Y-103538700D01*
X120167026Y-103538700D01*
X120370974Y-103538700D01*
X120370976Y-103538700D01*
X120571456Y-103501224D01*
X120761637Y-103427548D01*
X120935041Y-103320181D01*
X121063122Y-103203419D01*
X121085762Y-103182781D01*
X121085764Y-103182779D01*
X121208673Y-103020021D01*
X121299582Y-102837450D01*
X121355397Y-102641283D01*
X121374215Y-102438200D01*
X121355397Y-102235117D01*
X121299582Y-102038950D01*
X121280933Y-102001498D01*
X121255272Y-101949964D01*
X121208673Y-101856379D01*
X121184977Y-101825000D01*
X125644357Y-101825000D01*
X125664884Y-102046535D01*
X125664885Y-102046537D01*
X125725769Y-102260523D01*
X125725775Y-102260538D01*
X125824938Y-102459683D01*
X125824943Y-102459691D01*
X125959020Y-102637238D01*
X126123437Y-102787123D01*
X126123439Y-102787125D01*
X126312595Y-102904245D01*
X126312596Y-102904245D01*
X126312599Y-102904247D01*
X126520060Y-102984618D01*
X126738757Y-103025500D01*
X126738759Y-103025500D01*
X126961241Y-103025500D01*
X126961243Y-103025500D01*
X127179940Y-102984618D01*
X127387401Y-102904247D01*
X127576562Y-102787124D01*
X127740981Y-102637236D01*
X127875058Y-102459689D01*
X127974229Y-102260528D01*
X128035115Y-102046536D01*
X128055643Y-101825000D01*
X132144357Y-101825000D01*
X132164884Y-102046535D01*
X132164885Y-102046537D01*
X132225769Y-102260523D01*
X132225775Y-102260538D01*
X132324938Y-102459683D01*
X132324943Y-102459691D01*
X132459020Y-102637238D01*
X132623437Y-102787123D01*
X132623439Y-102787125D01*
X132812595Y-102904245D01*
X132812596Y-102904245D01*
X132812599Y-102904247D01*
X133020060Y-102984618D01*
X133238757Y-103025500D01*
X133238759Y-103025500D01*
X133461241Y-103025500D01*
X133461243Y-103025500D01*
X133679940Y-102984618D01*
X133887401Y-102904247D01*
X134076562Y-102787124D01*
X134240981Y-102637236D01*
X134375058Y-102459689D01*
X134474229Y-102260528D01*
X134535115Y-102046536D01*
X134555643Y-101825000D01*
X134535115Y-101603464D01*
X134474229Y-101389472D01*
X134467111Y-101375177D01*
X134375061Y-101190316D01*
X134375056Y-101190308D01*
X134240979Y-101012761D01*
X134076562Y-100862876D01*
X134076560Y-100862874D01*
X133887404Y-100745754D01*
X133887398Y-100745752D01*
X133679940Y-100665382D01*
X133461243Y-100624500D01*
X133238757Y-100624500D01*
X133020060Y-100665382D01*
X132929821Y-100700341D01*
X132812601Y-100745752D01*
X132812595Y-100745754D01*
X132623439Y-100862874D01*
X132623437Y-100862876D01*
X132459020Y-101012761D01*
X132324943Y-101190308D01*
X132324938Y-101190316D01*
X132225775Y-101389461D01*
X132225769Y-101389476D01*
X132164885Y-101603462D01*
X132164884Y-101603464D01*
X132144357Y-101824999D01*
X132144357Y-101825000D01*
X128055643Y-101825000D01*
X128035115Y-101603464D01*
X127974229Y-101389472D01*
X127967111Y-101375177D01*
X127875061Y-101190316D01*
X127875056Y-101190308D01*
X127740979Y-101012761D01*
X127576562Y-100862876D01*
X127576560Y-100862874D01*
X127387404Y-100745754D01*
X127387398Y-100745752D01*
X127179940Y-100665382D01*
X126961243Y-100624500D01*
X126738757Y-100624500D01*
X126520060Y-100665382D01*
X126429821Y-100700341D01*
X126312601Y-100745752D01*
X126312595Y-100745754D01*
X126123439Y-100862874D01*
X126123437Y-100862876D01*
X125959020Y-101012761D01*
X125824943Y-101190308D01*
X125824938Y-101190316D01*
X125725775Y-101389461D01*
X125725769Y-101389476D01*
X125664885Y-101603462D01*
X125664884Y-101603464D01*
X125644357Y-101824999D01*
X125644357Y-101825000D01*
X121184977Y-101825000D01*
X121085764Y-101693621D01*
X121085762Y-101693618D01*
X120935041Y-101556219D01*
X120935039Y-101556217D01*
X120761642Y-101448855D01*
X120761635Y-101448851D01*
X120666546Y-101412014D01*
X120571456Y-101375176D01*
X120370976Y-101337700D01*
X120167024Y-101337700D01*
X119966544Y-101375176D01*
X119966541Y-101375176D01*
X119966541Y-101375177D01*
X119776364Y-101448851D01*
X119776357Y-101448855D01*
X119602960Y-101556217D01*
X119602958Y-101556219D01*
X119452237Y-101693618D01*
X119329327Y-101856378D01*
X119238422Y-102038939D01*
X119238417Y-102038952D01*
X119182602Y-102235117D01*
X119163785Y-102438199D01*
X119163785Y-102438200D01*
X99695000Y-102438200D01*
X99695000Y-99898200D01*
X119163785Y-99898200D01*
X119182602Y-100101282D01*
X119238417Y-100297447D01*
X119238422Y-100297460D01*
X119329327Y-100480021D01*
X119452237Y-100642781D01*
X119602958Y-100780180D01*
X119602960Y-100780182D01*
X119702141Y-100841592D01*
X119776363Y-100887548D01*
X119966544Y-100961224D01*
X120167024Y-100998700D01*
X120167026Y-100998700D01*
X120370974Y-100998700D01*
X120370976Y-100998700D01*
X120571456Y-100961224D01*
X120761637Y-100887548D01*
X120935041Y-100780181D01*
X121085764Y-100642779D01*
X121208673Y-100480021D01*
X121299582Y-100297450D01*
X121355397Y-100101283D01*
X121374215Y-99898200D01*
X121355397Y-99695117D01*
X121355364Y-99695000D01*
X150759659Y-99695000D01*
X150778975Y-99891129D01*
X150836188Y-100079733D01*
X150929086Y-100253532D01*
X150929090Y-100253539D01*
X151054116Y-100405883D01*
X151206460Y-100530909D01*
X151206467Y-100530913D01*
X151380266Y-100623811D01*
X151380269Y-100623811D01*
X151380273Y-100623814D01*
X151568868Y-100681024D01*
X151765000Y-100700341D01*
X151961132Y-100681024D01*
X152149727Y-100623814D01*
X152323538Y-100530910D01*
X152475883Y-100405883D01*
X152600910Y-100253538D01*
X152693814Y-100079727D01*
X152751024Y-99891132D01*
X152770341Y-99695000D01*
X158379659Y-99695000D01*
X158398975Y-99891129D01*
X158456188Y-100079733D01*
X158549086Y-100253532D01*
X158549090Y-100253539D01*
X158674116Y-100405883D01*
X158826460Y-100530909D01*
X158826467Y-100530913D01*
X159000266Y-100623811D01*
X159000269Y-100623811D01*
X159000273Y-100623814D01*
X159188868Y-100681024D01*
X159385000Y-100700341D01*
X159581132Y-100681024D01*
X159769727Y-100623814D01*
X159943538Y-100530910D01*
X160095883Y-100405883D01*
X160220910Y-100253538D01*
X160313814Y-100079727D01*
X160371024Y-99891132D01*
X160382575Y-99773846D01*
X164864700Y-99773846D01*
X164895461Y-99928489D01*
X164895464Y-99928501D01*
X164955802Y-100074172D01*
X164955809Y-100074185D01*
X165043410Y-100205288D01*
X165043413Y-100205292D01*
X165154907Y-100316786D01*
X165154911Y-100316789D01*
X165286014Y-100404390D01*
X165286027Y-100404397D01*
X165431698Y-100464735D01*
X165431703Y-100464737D01*
X165586353Y-100495499D01*
X165586356Y-100495500D01*
X165586358Y-100495500D01*
X166544044Y-100495500D01*
X166544045Y-100495499D01*
X166698697Y-100464737D01*
X166844379Y-100404394D01*
X166975489Y-100316789D01*
X167086989Y-100205289D01*
X167174594Y-100074179D01*
X167234937Y-99928497D01*
X167265699Y-99773846D01*
X188029500Y-99773846D01*
X188060261Y-99928489D01*
X188060264Y-99928501D01*
X188120602Y-100074172D01*
X188120609Y-100074185D01*
X188208210Y-100205288D01*
X188208213Y-100205292D01*
X188319707Y-100316786D01*
X188319711Y-100316789D01*
X188450814Y-100404390D01*
X188450827Y-100404397D01*
X188596498Y-100464735D01*
X188596503Y-100464737D01*
X188751153Y-100495499D01*
X188751156Y-100495500D01*
X188751158Y-100495500D01*
X189708844Y-100495500D01*
X189708845Y-100495499D01*
X189863497Y-100464737D01*
X190009179Y-100404394D01*
X190140289Y-100316789D01*
X190251789Y-100205289D01*
X190339394Y-100074179D01*
X190399737Y-99928497D01*
X190430500Y-99773842D01*
X190430500Y-99616158D01*
X190430500Y-99616155D01*
X190430499Y-99616153D01*
X190407186Y-99498952D01*
X190399737Y-99461503D01*
X190399735Y-99461498D01*
X190339397Y-99315827D01*
X190339390Y-99315814D01*
X190251789Y-99184711D01*
X190251786Y-99184707D01*
X190140292Y-99073213D01*
X190140288Y-99073210D01*
X190009185Y-98985609D01*
X190009172Y-98985602D01*
X189863501Y-98925264D01*
X189863489Y-98925261D01*
X189708845Y-98894500D01*
X189708842Y-98894500D01*
X188751158Y-98894500D01*
X188751155Y-98894500D01*
X188596510Y-98925261D01*
X188596498Y-98925264D01*
X188450827Y-98985602D01*
X188450814Y-98985609D01*
X188319711Y-99073210D01*
X188319707Y-99073213D01*
X188208213Y-99184707D01*
X188208210Y-99184711D01*
X188120609Y-99315814D01*
X188120602Y-99315827D01*
X188060264Y-99461498D01*
X188060261Y-99461510D01*
X188029500Y-99616153D01*
X188029500Y-99773846D01*
X167265699Y-99773846D01*
X167265700Y-99773842D01*
X167265700Y-99616158D01*
X167265700Y-99616155D01*
X167265699Y-99616153D01*
X167242386Y-99498952D01*
X167234937Y-99461503D01*
X167234935Y-99461498D01*
X167174597Y-99315827D01*
X167174590Y-99315814D01*
X167086989Y-99184711D01*
X167086986Y-99184707D01*
X166975492Y-99073213D01*
X166975488Y-99073210D01*
X166844385Y-98985609D01*
X166844372Y-98985602D01*
X166698701Y-98925264D01*
X166698689Y-98925261D01*
X166544045Y-98894500D01*
X166544042Y-98894500D01*
X165586358Y-98894500D01*
X165586355Y-98894500D01*
X165431710Y-98925261D01*
X165431698Y-98925264D01*
X165286027Y-98985602D01*
X165286014Y-98985609D01*
X165154911Y-99073210D01*
X165154907Y-99073213D01*
X165043413Y-99184707D01*
X165043410Y-99184711D01*
X164955809Y-99315814D01*
X164955802Y-99315827D01*
X164895464Y-99461498D01*
X164895461Y-99461510D01*
X164864700Y-99616153D01*
X164864700Y-99773846D01*
X160382575Y-99773846D01*
X160390341Y-99695000D01*
X160371024Y-99498868D01*
X160313814Y-99310273D01*
X160313811Y-99310269D01*
X160313811Y-99310266D01*
X160220913Y-99136467D01*
X160220909Y-99136460D01*
X160095883Y-98984116D01*
X159943539Y-98859090D01*
X159943532Y-98859086D01*
X159769733Y-98766188D01*
X159769727Y-98766186D01*
X159581132Y-98708976D01*
X159581129Y-98708975D01*
X159385000Y-98689659D01*
X159188870Y-98708975D01*
X159000266Y-98766188D01*
X158826467Y-98859086D01*
X158826460Y-98859090D01*
X158674116Y-98984116D01*
X158549090Y-99136460D01*
X158549086Y-99136467D01*
X158456188Y-99310266D01*
X158398975Y-99498870D01*
X158379659Y-99695000D01*
X152770341Y-99695000D01*
X152751024Y-99498868D01*
X152693814Y-99310273D01*
X152693811Y-99310269D01*
X152693811Y-99310266D01*
X152600913Y-99136467D01*
X152600909Y-99136460D01*
X152475883Y-98984116D01*
X152323539Y-98859090D01*
X152323532Y-98859086D01*
X152149733Y-98766188D01*
X152149727Y-98766186D01*
X151961132Y-98708976D01*
X151961129Y-98708975D01*
X151765000Y-98689659D01*
X151568870Y-98708975D01*
X151380266Y-98766188D01*
X151206467Y-98859086D01*
X151206460Y-98859090D01*
X151054116Y-98984116D01*
X150929090Y-99136460D01*
X150929086Y-99136467D01*
X150836188Y-99310266D01*
X150778975Y-99498870D01*
X150759659Y-99695000D01*
X121355364Y-99695000D01*
X121299582Y-99498950D01*
X121299542Y-99498870D01*
X121255272Y-99409964D01*
X121208673Y-99316379D01*
X121085764Y-99153621D01*
X121085762Y-99153618D01*
X120935041Y-99016219D01*
X120935039Y-99016217D01*
X120761642Y-98908855D01*
X120761635Y-98908851D01*
X120666546Y-98872014D01*
X120571456Y-98835176D01*
X120370976Y-98797700D01*
X120167024Y-98797700D01*
X119966544Y-98835176D01*
X119966541Y-98835176D01*
X119966541Y-98835177D01*
X119776364Y-98908851D01*
X119776357Y-98908855D01*
X119602960Y-99016217D01*
X119602958Y-99016219D01*
X119452237Y-99153618D01*
X119329327Y-99316378D01*
X119238422Y-99498939D01*
X119238417Y-99498952D01*
X119182602Y-99695117D01*
X119163785Y-99898199D01*
X119163785Y-99898200D01*
X99695000Y-99898200D01*
X99695000Y-94818205D01*
X118864202Y-94818205D01*
X118883361Y-95049418D01*
X118940317Y-95274335D01*
X119033515Y-95486806D01*
X119117812Y-95615833D01*
X119786037Y-94947608D01*
X119803075Y-95011193D01*
X119868901Y-95125207D01*
X119961993Y-95218299D01*
X120076007Y-95284125D01*
X120139590Y-95301162D01*
X119470201Y-95970551D01*
X119500649Y-95994250D01*
X119704697Y-96104676D01*
X119704706Y-96104679D01*
X119783081Y-96131586D01*
X119840096Y-96171971D01*
X119866227Y-96236771D01*
X119853176Y-96305411D01*
X119805087Y-96356099D01*
X119787615Y-96364492D01*
X119776373Y-96368847D01*
X119776357Y-96368855D01*
X119602960Y-96476217D01*
X119602958Y-96476219D01*
X119452237Y-96613618D01*
X119329327Y-96776378D01*
X119238422Y-96958939D01*
X119238417Y-96958952D01*
X119182602Y-97155117D01*
X119163785Y-97358199D01*
X119163785Y-97358200D01*
X119182602Y-97561282D01*
X119238417Y-97757447D01*
X119238422Y-97757460D01*
X119329327Y-97940021D01*
X119452237Y-98102781D01*
X119602958Y-98240180D01*
X119602960Y-98240182D01*
X119678773Y-98287123D01*
X119776363Y-98347548D01*
X119966544Y-98421224D01*
X120167024Y-98458700D01*
X120167026Y-98458700D01*
X120370974Y-98458700D01*
X120370976Y-98458700D01*
X120571456Y-98421224D01*
X120761637Y-98347548D01*
X120935041Y-98240181D01*
X121085764Y-98102779D01*
X121208673Y-97940021D01*
X121299582Y-97757450D01*
X121355397Y-97561283D01*
X121374215Y-97358200D01*
X121371139Y-97325005D01*
X125344859Y-97325005D01*
X125365385Y-97572729D01*
X125365387Y-97572738D01*
X125426412Y-97813717D01*
X125526266Y-98041364D01*
X125626564Y-98194882D01*
X126326212Y-97495234D01*
X126337482Y-97537292D01*
X126409890Y-97662708D01*
X126512292Y-97765110D01*
X126637708Y-97837518D01*
X126679765Y-97848787D01*
X125979942Y-98548609D01*
X126026768Y-98585055D01*
X126026770Y-98585056D01*
X126245385Y-98703364D01*
X126245396Y-98703369D01*
X126480506Y-98784083D01*
X126725707Y-98825000D01*
X126974293Y-98825000D01*
X127219493Y-98784083D01*
X127454603Y-98703369D01*
X127454614Y-98703364D01*
X127673228Y-98585057D01*
X127673231Y-98585055D01*
X127720056Y-98548609D01*
X127020234Y-97848787D01*
X127062292Y-97837518D01*
X127187708Y-97765110D01*
X127290110Y-97662708D01*
X127362518Y-97537292D01*
X127373787Y-97495235D01*
X128073434Y-98194882D01*
X128173731Y-98041369D01*
X128273587Y-97813717D01*
X128334612Y-97572738D01*
X128334614Y-97572729D01*
X128355141Y-97325005D01*
X128355141Y-97325000D01*
X132144357Y-97325000D01*
X132164884Y-97546535D01*
X132164885Y-97546537D01*
X132225769Y-97760523D01*
X132225775Y-97760538D01*
X132324938Y-97959683D01*
X132324943Y-97959691D01*
X132459020Y-98137238D01*
X132623437Y-98287123D01*
X132623439Y-98287125D01*
X132812595Y-98404245D01*
X132812596Y-98404245D01*
X132812599Y-98404247D01*
X133020060Y-98484618D01*
X133238757Y-98525500D01*
X133238759Y-98525500D01*
X133461241Y-98525500D01*
X133461243Y-98525500D01*
X133679940Y-98484618D01*
X133887401Y-98404247D01*
X134076562Y-98287124D01*
X134240981Y-98137236D01*
X134375058Y-97959689D01*
X134474229Y-97760528D01*
X134535115Y-97546536D01*
X134555643Y-97325000D01*
X134555642Y-97324994D01*
X134547196Y-97233846D01*
X164864700Y-97233846D01*
X164895461Y-97388489D01*
X164895464Y-97388501D01*
X164955802Y-97534172D01*
X164955809Y-97534185D01*
X165043410Y-97665288D01*
X165043413Y-97665292D01*
X165154907Y-97776786D01*
X165154911Y-97776789D01*
X165286014Y-97864390D01*
X165286027Y-97864397D01*
X165431698Y-97924735D01*
X165431703Y-97924737D01*
X165586353Y-97955499D01*
X165586356Y-97955500D01*
X165586358Y-97955500D01*
X166544044Y-97955500D01*
X166544045Y-97955499D01*
X166698697Y-97924737D01*
X166844379Y-97864394D01*
X166975489Y-97776789D01*
X167086989Y-97665289D01*
X167174594Y-97534179D01*
X167234937Y-97388497D01*
X167265699Y-97233846D01*
X188029500Y-97233846D01*
X188060261Y-97388489D01*
X188060264Y-97388501D01*
X188120602Y-97534172D01*
X188120609Y-97534185D01*
X188208210Y-97665288D01*
X188208213Y-97665292D01*
X188319707Y-97776786D01*
X188319711Y-97776789D01*
X188450814Y-97864390D01*
X188450827Y-97864397D01*
X188596498Y-97924735D01*
X188596503Y-97924737D01*
X188751153Y-97955499D01*
X188751156Y-97955500D01*
X188751158Y-97955500D01*
X189708844Y-97955500D01*
X189708845Y-97955499D01*
X189863497Y-97924737D01*
X190009179Y-97864394D01*
X190140289Y-97776789D01*
X190251789Y-97665289D01*
X190339394Y-97534179D01*
X190399737Y-97388497D01*
X190430500Y-97233842D01*
X190430500Y-97076158D01*
X190430500Y-97076155D01*
X190430499Y-97076153D01*
X190412823Y-96987292D01*
X190399737Y-96921503D01*
X190386471Y-96889476D01*
X190339397Y-96775827D01*
X190339390Y-96775814D01*
X190251789Y-96644711D01*
X190251786Y-96644707D01*
X190140292Y-96533213D01*
X190140288Y-96533210D01*
X190009185Y-96445609D01*
X190009172Y-96445602D01*
X189863501Y-96385264D01*
X189863489Y-96385261D01*
X189708845Y-96354500D01*
X189708842Y-96354500D01*
X188751158Y-96354500D01*
X188751155Y-96354500D01*
X188596510Y-96385261D01*
X188596498Y-96385264D01*
X188450827Y-96445602D01*
X188450814Y-96445609D01*
X188319711Y-96533210D01*
X188319707Y-96533213D01*
X188208213Y-96644707D01*
X188208210Y-96644711D01*
X188120609Y-96775814D01*
X188120602Y-96775827D01*
X188060264Y-96921498D01*
X188060261Y-96921510D01*
X188029500Y-97076153D01*
X188029500Y-97233846D01*
X167265699Y-97233846D01*
X167265700Y-97233842D01*
X167265700Y-97076158D01*
X167265700Y-97076155D01*
X167265699Y-97076153D01*
X167248023Y-96987292D01*
X167234937Y-96921503D01*
X167221671Y-96889476D01*
X167174597Y-96775827D01*
X167174590Y-96775814D01*
X167086989Y-96644711D01*
X167086986Y-96644707D01*
X166975492Y-96533213D01*
X166975488Y-96533210D01*
X166844385Y-96445609D01*
X166844372Y-96445602D01*
X166698701Y-96385264D01*
X166698689Y-96385261D01*
X166544045Y-96354500D01*
X166544042Y-96354500D01*
X165586358Y-96354500D01*
X165586355Y-96354500D01*
X165431710Y-96385261D01*
X165431698Y-96385264D01*
X165286027Y-96445602D01*
X165286014Y-96445609D01*
X165154911Y-96533210D01*
X165154907Y-96533213D01*
X165043413Y-96644707D01*
X165043410Y-96644711D01*
X164955809Y-96775814D01*
X164955802Y-96775827D01*
X164895464Y-96921498D01*
X164895461Y-96921510D01*
X164864700Y-97076153D01*
X164864700Y-97233846D01*
X134547196Y-97233846D01*
X134535115Y-97103464D01*
X134535114Y-97103462D01*
X134527659Y-97077261D01*
X134474229Y-96889472D01*
X134474224Y-96889461D01*
X134375061Y-96690316D01*
X134375056Y-96690308D01*
X134240979Y-96512761D01*
X134076562Y-96362876D01*
X134076560Y-96362874D01*
X133887404Y-96245754D01*
X133887398Y-96245752D01*
X133679940Y-96165382D01*
X133461243Y-96124500D01*
X133238757Y-96124500D01*
X133020060Y-96165382D01*
X132961488Y-96188073D01*
X132812601Y-96245752D01*
X132812595Y-96245754D01*
X132623439Y-96362874D01*
X132623437Y-96362876D01*
X132459020Y-96512761D01*
X132324943Y-96690308D01*
X132324938Y-96690316D01*
X132225775Y-96889461D01*
X132225769Y-96889476D01*
X132164885Y-97103462D01*
X132164884Y-97103464D01*
X132144357Y-97324999D01*
X132144357Y-97325000D01*
X128355141Y-97325000D01*
X128355141Y-97324994D01*
X128334614Y-97077270D01*
X128334612Y-97077261D01*
X128273587Y-96836282D01*
X128173731Y-96608630D01*
X128073434Y-96455116D01*
X127373787Y-97154764D01*
X127362518Y-97112708D01*
X127290110Y-96987292D01*
X127187708Y-96884890D01*
X127062292Y-96812482D01*
X127020235Y-96801212D01*
X127720057Y-96101390D01*
X127720056Y-96101389D01*
X127673229Y-96064943D01*
X127454614Y-95946635D01*
X127454603Y-95946630D01*
X127219493Y-95865916D01*
X126974293Y-95825000D01*
X126725707Y-95825000D01*
X126480506Y-95865916D01*
X126245396Y-95946630D01*
X126245390Y-95946632D01*
X126026761Y-96064949D01*
X125979942Y-96101388D01*
X125979942Y-96101390D01*
X126679765Y-96801212D01*
X126637708Y-96812482D01*
X126512292Y-96884890D01*
X126409890Y-96987292D01*
X126337482Y-97112708D01*
X126326212Y-97154764D01*
X125626564Y-96455116D01*
X125526267Y-96608632D01*
X125426412Y-96836282D01*
X125365387Y-97077261D01*
X125365385Y-97077270D01*
X125344859Y-97324994D01*
X125344859Y-97325005D01*
X121371139Y-97325005D01*
X121355397Y-97155117D01*
X121299582Y-96958950D01*
X121280933Y-96921498D01*
X121226650Y-96812482D01*
X121208673Y-96776379D01*
X121085764Y-96613621D01*
X121085762Y-96613618D01*
X120935041Y-96476219D01*
X120935039Y-96476217D01*
X120761642Y-96368855D01*
X120761641Y-96368854D01*
X120761637Y-96368852D01*
X120761632Y-96368850D01*
X120761626Y-96368847D01*
X120750387Y-96364493D01*
X120694985Y-96321920D01*
X120671395Y-96256154D01*
X120687106Y-96188073D01*
X120737130Y-96139294D01*
X120754919Y-96131586D01*
X120833290Y-96104681D01*
X120833301Y-96104676D01*
X121037355Y-95994247D01*
X121067797Y-95970551D01*
X121067798Y-95970550D01*
X120398410Y-95301162D01*
X120461993Y-95284125D01*
X120576007Y-95218299D01*
X120669099Y-95125207D01*
X120734925Y-95011193D01*
X120751962Y-94947609D01*
X121420186Y-95615833D01*
X121504482Y-95486811D01*
X121597682Y-95274335D01*
X121654638Y-95049418D01*
X121673798Y-94818205D01*
X121673798Y-94818194D01*
X121654638Y-94586981D01*
X121597682Y-94362064D01*
X121504484Y-94149593D01*
X121420186Y-94020565D01*
X120751962Y-94688789D01*
X120734925Y-94625207D01*
X120669099Y-94511193D01*
X120576007Y-94418101D01*
X120461993Y-94352275D01*
X120398409Y-94335237D01*
X120753645Y-93980000D01*
X143139659Y-93980000D01*
X143158975Y-94176129D01*
X143216188Y-94364733D01*
X143309086Y-94538532D01*
X143309090Y-94538539D01*
X143434116Y-94690883D01*
X143586460Y-94815909D01*
X143586467Y-94815913D01*
X143760266Y-94908811D01*
X143760269Y-94908811D01*
X143760273Y-94908814D01*
X143948868Y-94966024D01*
X144145000Y-94985341D01*
X144341132Y-94966024D01*
X144529727Y-94908814D01*
X144703538Y-94815910D01*
X144855883Y-94690883D01*
X144980910Y-94538538D01*
X145073814Y-94364727D01*
X145131024Y-94176132D01*
X145150341Y-93980000D01*
X158379659Y-93980000D01*
X158398975Y-94176129D01*
X158456188Y-94364733D01*
X158549086Y-94538532D01*
X158549090Y-94538539D01*
X158674116Y-94690883D01*
X158826460Y-94815909D01*
X158826467Y-94815913D01*
X159000266Y-94908811D01*
X159000269Y-94908811D01*
X159000273Y-94908814D01*
X159188868Y-94966024D01*
X159385000Y-94985341D01*
X159581132Y-94966024D01*
X159769727Y-94908814D01*
X159943538Y-94815910D01*
X160092273Y-94693846D01*
X164864700Y-94693846D01*
X164895461Y-94848489D01*
X164895464Y-94848501D01*
X164955802Y-94994172D01*
X164955809Y-94994185D01*
X165043410Y-95125288D01*
X165043413Y-95125292D01*
X165154907Y-95236786D01*
X165154911Y-95236789D01*
X165286014Y-95324390D01*
X165286027Y-95324397D01*
X165431698Y-95384735D01*
X165431703Y-95384737D01*
X165586353Y-95415499D01*
X165586356Y-95415500D01*
X165586358Y-95415500D01*
X166544044Y-95415500D01*
X166544045Y-95415499D01*
X166698697Y-95384737D01*
X166844379Y-95324394D01*
X166975489Y-95236789D01*
X167086989Y-95125289D01*
X167174594Y-94994179D01*
X167234937Y-94848497D01*
X167265699Y-94693846D01*
X188029500Y-94693846D01*
X188060261Y-94848489D01*
X188060264Y-94848501D01*
X188120602Y-94994172D01*
X188120609Y-94994185D01*
X188208210Y-95125288D01*
X188208213Y-95125292D01*
X188319707Y-95236786D01*
X188319711Y-95236789D01*
X188450814Y-95324390D01*
X188450827Y-95324397D01*
X188596498Y-95384735D01*
X188596503Y-95384737D01*
X188751153Y-95415499D01*
X188751156Y-95415500D01*
X188751158Y-95415500D01*
X189708844Y-95415500D01*
X189708845Y-95415499D01*
X189863497Y-95384737D01*
X190009179Y-95324394D01*
X190140289Y-95236789D01*
X190251789Y-95125289D01*
X190339394Y-94994179D01*
X190399737Y-94848497D01*
X190430500Y-94693842D01*
X190430500Y-94536158D01*
X190430500Y-94536155D01*
X190430499Y-94536153D01*
X190399738Y-94381510D01*
X190399737Y-94381503D01*
X190391685Y-94362064D01*
X190339397Y-94235827D01*
X190339390Y-94235814D01*
X190251789Y-94104711D01*
X190251786Y-94104707D01*
X190140292Y-93993213D01*
X190140288Y-93993210D01*
X190009185Y-93905609D01*
X190009172Y-93905602D01*
X189863501Y-93845264D01*
X189863489Y-93845261D01*
X189708845Y-93814500D01*
X189708842Y-93814500D01*
X188751158Y-93814500D01*
X188751155Y-93814500D01*
X188596510Y-93845261D01*
X188596498Y-93845264D01*
X188450827Y-93905602D01*
X188450814Y-93905609D01*
X188319711Y-93993210D01*
X188319707Y-93993213D01*
X188208213Y-94104707D01*
X188208210Y-94104711D01*
X188120609Y-94235814D01*
X188120602Y-94235827D01*
X188060264Y-94381498D01*
X188060261Y-94381510D01*
X188029500Y-94536153D01*
X188029500Y-94693846D01*
X167265699Y-94693846D01*
X167265700Y-94693842D01*
X167265700Y-94536158D01*
X167265700Y-94536155D01*
X167265699Y-94536153D01*
X167234938Y-94381510D01*
X167234937Y-94381503D01*
X167226885Y-94362064D01*
X167174597Y-94235827D01*
X167174590Y-94235814D01*
X167086989Y-94104711D01*
X167086986Y-94104707D01*
X166975492Y-93993213D01*
X166975488Y-93993210D01*
X166844385Y-93905609D01*
X166844372Y-93905602D01*
X166698701Y-93845264D01*
X166698689Y-93845261D01*
X166544045Y-93814500D01*
X166544042Y-93814500D01*
X165586358Y-93814500D01*
X165586355Y-93814500D01*
X165431710Y-93845261D01*
X165431698Y-93845264D01*
X165286027Y-93905602D01*
X165286014Y-93905609D01*
X165154911Y-93993210D01*
X165154907Y-93993213D01*
X165043413Y-94104707D01*
X165043410Y-94104711D01*
X164955809Y-94235814D01*
X164955802Y-94235827D01*
X164895464Y-94381498D01*
X164895461Y-94381510D01*
X164864700Y-94536153D01*
X164864700Y-94693846D01*
X160092273Y-94693846D01*
X160095883Y-94690883D01*
X160220910Y-94538538D01*
X160313814Y-94364727D01*
X160371024Y-94176132D01*
X160390341Y-93980000D01*
X160371024Y-93783868D01*
X160313814Y-93595273D01*
X160313811Y-93595269D01*
X160313811Y-93595266D01*
X160220913Y-93421467D01*
X160220909Y-93421460D01*
X160095883Y-93269116D01*
X159943539Y-93144090D01*
X159943532Y-93144086D01*
X159769733Y-93051188D01*
X159769727Y-93051186D01*
X159581132Y-92993976D01*
X159581129Y-92993975D01*
X159385000Y-92974659D01*
X159188870Y-92993975D01*
X159000266Y-93051188D01*
X158826467Y-93144086D01*
X158826460Y-93144090D01*
X158674116Y-93269116D01*
X158549090Y-93421460D01*
X158549086Y-93421467D01*
X158456188Y-93595266D01*
X158398975Y-93783870D01*
X158379659Y-93980000D01*
X145150341Y-93980000D01*
X145131024Y-93783868D01*
X145073814Y-93595273D01*
X145073811Y-93595269D01*
X145073811Y-93595266D01*
X144980913Y-93421467D01*
X144980909Y-93421460D01*
X144855883Y-93269116D01*
X144703539Y-93144090D01*
X144703532Y-93144086D01*
X144529733Y-93051188D01*
X144529727Y-93051186D01*
X144341132Y-92993976D01*
X144341129Y-92993975D01*
X144145000Y-92974659D01*
X143948870Y-92993975D01*
X143760266Y-93051188D01*
X143586467Y-93144086D01*
X143586460Y-93144090D01*
X143434116Y-93269116D01*
X143309090Y-93421460D01*
X143309086Y-93421467D01*
X143216188Y-93595266D01*
X143158975Y-93783870D01*
X143139659Y-93980000D01*
X120753645Y-93980000D01*
X121067797Y-93665847D01*
X121067797Y-93665845D01*
X121037360Y-93642155D01*
X121037354Y-93642151D01*
X120833302Y-93531723D01*
X120833296Y-93531721D01*
X120754917Y-93504813D01*
X120697902Y-93464427D01*
X120671772Y-93399627D01*
X120684824Y-93330987D01*
X120732913Y-93280300D01*
X120750383Y-93271907D01*
X120761637Y-93267548D01*
X120935041Y-93160181D01*
X121085764Y-93022779D01*
X121208673Y-92860021D01*
X121299582Y-92677450D01*
X121355397Y-92481283D01*
X121374215Y-92278200D01*
X121355397Y-92075117D01*
X121299582Y-91878950D01*
X121280933Y-91841498D01*
X121218709Y-91716535D01*
X121208673Y-91696379D01*
X121085764Y-91533621D01*
X121085762Y-91533618D01*
X121043400Y-91495000D01*
X125644357Y-91495000D01*
X125664884Y-91716535D01*
X125664885Y-91716537D01*
X125725769Y-91930523D01*
X125725775Y-91930538D01*
X125824938Y-92129683D01*
X125824943Y-92129691D01*
X125959020Y-92307238D01*
X126111088Y-92445866D01*
X126120207Y-92454179D01*
X126123437Y-92457123D01*
X126123439Y-92457125D01*
X126312595Y-92574245D01*
X126312596Y-92574245D01*
X126312599Y-92574247D01*
X126520060Y-92654618D01*
X126738757Y-92695500D01*
X126738759Y-92695500D01*
X126961241Y-92695500D01*
X126961243Y-92695500D01*
X127179940Y-92654618D01*
X127387401Y-92574247D01*
X127576562Y-92457124D01*
X127716282Y-92329751D01*
X127740979Y-92307238D01*
X127762908Y-92278200D01*
X127875058Y-92129689D01*
X127974229Y-91930528D01*
X128035115Y-91716536D01*
X128055643Y-91495000D01*
X132144357Y-91495000D01*
X132164884Y-91716535D01*
X132164885Y-91716537D01*
X132225769Y-91930523D01*
X132225775Y-91930538D01*
X132324938Y-92129683D01*
X132324943Y-92129691D01*
X132459020Y-92307238D01*
X132611088Y-92445866D01*
X132620207Y-92454179D01*
X132623437Y-92457123D01*
X132623439Y-92457125D01*
X132812595Y-92574245D01*
X132812596Y-92574245D01*
X132812599Y-92574247D01*
X133020060Y-92654618D01*
X133238757Y-92695500D01*
X133238759Y-92695500D01*
X133461241Y-92695500D01*
X133461243Y-92695500D01*
X133679940Y-92654618D01*
X133887401Y-92574247D01*
X134076562Y-92457124D01*
X134216282Y-92329751D01*
X134240979Y-92307238D01*
X134262908Y-92278200D01*
X134356816Y-92153846D01*
X164864700Y-92153846D01*
X164895461Y-92308489D01*
X164895464Y-92308501D01*
X164955802Y-92454172D01*
X164955809Y-92454185D01*
X165043410Y-92585288D01*
X165043413Y-92585292D01*
X165154907Y-92696786D01*
X165154911Y-92696789D01*
X165286014Y-92784390D01*
X165286027Y-92784397D01*
X165431698Y-92844735D01*
X165431703Y-92844737D01*
X165586353Y-92875499D01*
X165586356Y-92875500D01*
X165586358Y-92875500D01*
X166544044Y-92875500D01*
X166544045Y-92875499D01*
X166698697Y-92844737D01*
X166844379Y-92784394D01*
X166975489Y-92696789D01*
X167086989Y-92585289D01*
X167174594Y-92454179D01*
X167234937Y-92308497D01*
X167265699Y-92153846D01*
X188029500Y-92153846D01*
X188060261Y-92308489D01*
X188060264Y-92308501D01*
X188120602Y-92454172D01*
X188120609Y-92454185D01*
X188208210Y-92585288D01*
X188208213Y-92585292D01*
X188319707Y-92696786D01*
X188319711Y-92696789D01*
X188450814Y-92784390D01*
X188450827Y-92784397D01*
X188596498Y-92844735D01*
X188596503Y-92844737D01*
X188751153Y-92875499D01*
X188751156Y-92875500D01*
X188751158Y-92875500D01*
X189708844Y-92875500D01*
X189708845Y-92875499D01*
X189863497Y-92844737D01*
X190009179Y-92784394D01*
X190140289Y-92696789D01*
X190251789Y-92585289D01*
X190339394Y-92454179D01*
X190399737Y-92308497D01*
X190430500Y-92153842D01*
X190430500Y-91996158D01*
X190430500Y-91996155D01*
X190430499Y-91996153D01*
X190407186Y-91878952D01*
X190399737Y-91841503D01*
X190347975Y-91716537D01*
X190339397Y-91695827D01*
X190339390Y-91695814D01*
X190251789Y-91564711D01*
X190251786Y-91564707D01*
X190140292Y-91453213D01*
X190140288Y-91453210D01*
X190009185Y-91365609D01*
X190009172Y-91365602D01*
X189863501Y-91305264D01*
X189863489Y-91305261D01*
X189708845Y-91274500D01*
X189708842Y-91274500D01*
X188751158Y-91274500D01*
X188751155Y-91274500D01*
X188596510Y-91305261D01*
X188596498Y-91305264D01*
X188450827Y-91365602D01*
X188450814Y-91365609D01*
X188319711Y-91453210D01*
X188319707Y-91453213D01*
X188208213Y-91564707D01*
X188208210Y-91564711D01*
X188120609Y-91695814D01*
X188120602Y-91695827D01*
X188060264Y-91841498D01*
X188060261Y-91841510D01*
X188029500Y-91996153D01*
X188029500Y-92153846D01*
X167265699Y-92153846D01*
X167265700Y-92153842D01*
X167265700Y-91996158D01*
X167265700Y-91996155D01*
X167265699Y-91996153D01*
X167242386Y-91878952D01*
X167234937Y-91841503D01*
X167183175Y-91716537D01*
X167174597Y-91695827D01*
X167174590Y-91695814D01*
X167086989Y-91564711D01*
X167086986Y-91564707D01*
X166975492Y-91453213D01*
X166975488Y-91453210D01*
X166844385Y-91365609D01*
X166844372Y-91365602D01*
X166698701Y-91305264D01*
X166698689Y-91305261D01*
X166544045Y-91274500D01*
X166544042Y-91274500D01*
X165586358Y-91274500D01*
X165586355Y-91274500D01*
X165431710Y-91305261D01*
X165431698Y-91305264D01*
X165286027Y-91365602D01*
X165286014Y-91365609D01*
X165154911Y-91453210D01*
X165154907Y-91453213D01*
X165043413Y-91564707D01*
X165043410Y-91564711D01*
X164955809Y-91695814D01*
X164955802Y-91695827D01*
X164895464Y-91841498D01*
X164895461Y-91841510D01*
X164864700Y-91996153D01*
X164864700Y-92153846D01*
X134356816Y-92153846D01*
X134375058Y-92129689D01*
X134474229Y-91930528D01*
X134535115Y-91716536D01*
X134555643Y-91495000D01*
X134535115Y-91273464D01*
X134474229Y-91059472D01*
X134474224Y-91059461D01*
X134375061Y-90860316D01*
X134375056Y-90860308D01*
X134240979Y-90682761D01*
X134076562Y-90532876D01*
X134076560Y-90532874D01*
X133887404Y-90415754D01*
X133887398Y-90415752D01*
X133679940Y-90335382D01*
X133461243Y-90294500D01*
X133238757Y-90294500D01*
X133020060Y-90335382D01*
X132888864Y-90386207D01*
X132812601Y-90415752D01*
X132812595Y-90415754D01*
X132623439Y-90532874D01*
X132623437Y-90532876D01*
X132459020Y-90682761D01*
X132324943Y-90860308D01*
X132324938Y-90860316D01*
X132225775Y-91059461D01*
X132225769Y-91059476D01*
X132164885Y-91273462D01*
X132164884Y-91273464D01*
X132144357Y-91494999D01*
X132144357Y-91495000D01*
X128055643Y-91495000D01*
X128035115Y-91273464D01*
X127974229Y-91059472D01*
X127974224Y-91059461D01*
X127875061Y-90860316D01*
X127875056Y-90860308D01*
X127740979Y-90682761D01*
X127576562Y-90532876D01*
X127576560Y-90532874D01*
X127387404Y-90415754D01*
X127387398Y-90415752D01*
X127179940Y-90335382D01*
X126961243Y-90294500D01*
X126738757Y-90294500D01*
X126520060Y-90335382D01*
X126388864Y-90386207D01*
X126312601Y-90415752D01*
X126312595Y-90415754D01*
X126123439Y-90532874D01*
X126123437Y-90532876D01*
X125959020Y-90682761D01*
X125824943Y-90860308D01*
X125824938Y-90860316D01*
X125725775Y-91059461D01*
X125725769Y-91059476D01*
X125664885Y-91273462D01*
X125664884Y-91273464D01*
X125644357Y-91494999D01*
X125644357Y-91495000D01*
X121043400Y-91495000D01*
X120935041Y-91396219D01*
X120935039Y-91396217D01*
X120761642Y-91288855D01*
X120761641Y-91288854D01*
X120761637Y-91288852D01*
X120761632Y-91288850D01*
X120761626Y-91288847D01*
X120750387Y-91284493D01*
X120694985Y-91241920D01*
X120671395Y-91176154D01*
X120687106Y-91108073D01*
X120737130Y-91059294D01*
X120754919Y-91051586D01*
X120833290Y-91024681D01*
X120833301Y-91024676D01*
X121037355Y-90914247D01*
X121067797Y-90890551D01*
X121067798Y-90890550D01*
X120398410Y-90221162D01*
X120461993Y-90204125D01*
X120576007Y-90138299D01*
X120669099Y-90045207D01*
X120734925Y-89931193D01*
X120751962Y-89867609D01*
X121420186Y-90535833D01*
X121504482Y-90406811D01*
X121597682Y-90194335D01*
X121654638Y-89969418D01*
X121673798Y-89738205D01*
X121673798Y-89738194D01*
X121663494Y-89613846D01*
X164864700Y-89613846D01*
X164895461Y-89768489D01*
X164895464Y-89768501D01*
X164955802Y-89914172D01*
X164955809Y-89914185D01*
X165043410Y-90045288D01*
X165043413Y-90045292D01*
X165154907Y-90156786D01*
X165154911Y-90156789D01*
X165286014Y-90244390D01*
X165286027Y-90244397D01*
X165431698Y-90304735D01*
X165431703Y-90304737D01*
X165585765Y-90335382D01*
X165586353Y-90335499D01*
X165586356Y-90335500D01*
X165586358Y-90335500D01*
X166544044Y-90335500D01*
X166544045Y-90335499D01*
X166698697Y-90304737D01*
X166844379Y-90244394D01*
X166975489Y-90156789D01*
X167086989Y-90045289D01*
X167174594Y-89914179D01*
X167234937Y-89768497D01*
X167265699Y-89613846D01*
X188029500Y-89613846D01*
X188060261Y-89768489D01*
X188060264Y-89768501D01*
X188120602Y-89914172D01*
X188120609Y-89914185D01*
X188208210Y-90045288D01*
X188208213Y-90045292D01*
X188319707Y-90156786D01*
X188319711Y-90156789D01*
X188450814Y-90244390D01*
X188450827Y-90244397D01*
X188596498Y-90304735D01*
X188596503Y-90304737D01*
X188750565Y-90335382D01*
X188751153Y-90335499D01*
X188751156Y-90335500D01*
X188751158Y-90335500D01*
X189708844Y-90335500D01*
X189708845Y-90335499D01*
X189863497Y-90304737D01*
X190009179Y-90244394D01*
X190140289Y-90156789D01*
X190251789Y-90045289D01*
X190339394Y-89914179D01*
X190399737Y-89768497D01*
X190430500Y-89613842D01*
X190430500Y-89456158D01*
X190430500Y-89456155D01*
X190430499Y-89456153D01*
X190399738Y-89301510D01*
X190399737Y-89301503D01*
X190391685Y-89282064D01*
X190339397Y-89155827D01*
X190339390Y-89155814D01*
X190251789Y-89024711D01*
X190251786Y-89024707D01*
X190140292Y-88913213D01*
X190140288Y-88913210D01*
X190009185Y-88825609D01*
X190009172Y-88825602D01*
X189863501Y-88765264D01*
X189863489Y-88765261D01*
X189708845Y-88734500D01*
X189708842Y-88734500D01*
X188751158Y-88734500D01*
X188751155Y-88734500D01*
X188596510Y-88765261D01*
X188596498Y-88765264D01*
X188450827Y-88825602D01*
X188450814Y-88825609D01*
X188319711Y-88913210D01*
X188319707Y-88913213D01*
X188208213Y-89024707D01*
X188208210Y-89024711D01*
X188120609Y-89155814D01*
X188120602Y-89155827D01*
X188060264Y-89301498D01*
X188060261Y-89301510D01*
X188029500Y-89456153D01*
X188029500Y-89613846D01*
X167265699Y-89613846D01*
X167265700Y-89613842D01*
X167265700Y-89456158D01*
X167265700Y-89456155D01*
X167265699Y-89456153D01*
X167234938Y-89301510D01*
X167234937Y-89301503D01*
X167226885Y-89282064D01*
X167174597Y-89155827D01*
X167174590Y-89155814D01*
X167086989Y-89024711D01*
X167086986Y-89024707D01*
X166975492Y-88913213D01*
X166975488Y-88913210D01*
X166844385Y-88825609D01*
X166844372Y-88825602D01*
X166698701Y-88765264D01*
X166698689Y-88765261D01*
X166544045Y-88734500D01*
X166544042Y-88734500D01*
X165586358Y-88734500D01*
X165586355Y-88734500D01*
X165431710Y-88765261D01*
X165431698Y-88765264D01*
X165286027Y-88825602D01*
X165286014Y-88825609D01*
X165154911Y-88913210D01*
X165154907Y-88913213D01*
X165043413Y-89024707D01*
X165043410Y-89024711D01*
X164955809Y-89155814D01*
X164955802Y-89155827D01*
X164895464Y-89301498D01*
X164895461Y-89301510D01*
X164864700Y-89456153D01*
X164864700Y-89613846D01*
X121663494Y-89613846D01*
X121654638Y-89506981D01*
X121597682Y-89282064D01*
X121504484Y-89069593D01*
X121420186Y-88940565D01*
X120751962Y-89608789D01*
X120734925Y-89545207D01*
X120669099Y-89431193D01*
X120576007Y-89338101D01*
X120461993Y-89272275D01*
X120398409Y-89255237D01*
X121067797Y-88585847D01*
X121067797Y-88585845D01*
X121037360Y-88562155D01*
X121037354Y-88562151D01*
X120833302Y-88451723D01*
X120833296Y-88451721D01*
X120754917Y-88424813D01*
X120697902Y-88384427D01*
X120671772Y-88319627D01*
X120684824Y-88250987D01*
X120732913Y-88200300D01*
X120750383Y-88191907D01*
X120761637Y-88187548D01*
X120935041Y-88080181D01*
X121085764Y-87942779D01*
X121208673Y-87780021D01*
X121299582Y-87597450D01*
X121355397Y-87401283D01*
X121374215Y-87198200D01*
X121355397Y-86995117D01*
X121355365Y-86995005D01*
X125344859Y-86995005D01*
X125365385Y-87242729D01*
X125365387Y-87242738D01*
X125426412Y-87483717D01*
X125526266Y-87711364D01*
X125626564Y-87864882D01*
X126326212Y-87165234D01*
X126337482Y-87207292D01*
X126409890Y-87332708D01*
X126512292Y-87435110D01*
X126637708Y-87507518D01*
X126679765Y-87518787D01*
X125979942Y-88218609D01*
X126026768Y-88255055D01*
X126026770Y-88255056D01*
X126245385Y-88373364D01*
X126245396Y-88373369D01*
X126480506Y-88454083D01*
X126725707Y-88495000D01*
X126974293Y-88495000D01*
X127219493Y-88454083D01*
X127454603Y-88373369D01*
X127454614Y-88373364D01*
X127673228Y-88255057D01*
X127673231Y-88255055D01*
X127720056Y-88218609D01*
X127020234Y-87518787D01*
X127062292Y-87507518D01*
X127187708Y-87435110D01*
X127290110Y-87332708D01*
X127362518Y-87207292D01*
X127373787Y-87165235D01*
X128073434Y-87864882D01*
X128173731Y-87711369D01*
X128273587Y-87483717D01*
X128334612Y-87242738D01*
X128334614Y-87242729D01*
X128355141Y-86995005D01*
X128355141Y-86995000D01*
X132144357Y-86995000D01*
X132164884Y-87216535D01*
X132164885Y-87216537D01*
X132225769Y-87430523D01*
X132225775Y-87430538D01*
X132324938Y-87629683D01*
X132324943Y-87629691D01*
X132459020Y-87807238D01*
X132623437Y-87957123D01*
X132623439Y-87957125D01*
X132812595Y-88074245D01*
X132812596Y-88074245D01*
X132812599Y-88074247D01*
X133020060Y-88154618D01*
X133238757Y-88195500D01*
X133238759Y-88195500D01*
X133461241Y-88195500D01*
X133461243Y-88195500D01*
X133679940Y-88154618D01*
X133887401Y-88074247D01*
X134076562Y-87957124D01*
X134240981Y-87807236D01*
X134375058Y-87629689D01*
X134474229Y-87430528D01*
X134535115Y-87216536D01*
X134555643Y-86995000D01*
X134555642Y-86994994D01*
X134535115Y-86773464D01*
X134535114Y-86773462D01*
X134531713Y-86761510D01*
X134474229Y-86559472D01*
X134472566Y-86556132D01*
X134375061Y-86360316D01*
X134375056Y-86360308D01*
X134374823Y-86360000D01*
X143139659Y-86360000D01*
X143158975Y-86556129D01*
X143216188Y-86744733D01*
X143309086Y-86918532D01*
X143309090Y-86918539D01*
X143434116Y-87070883D01*
X143586460Y-87195909D01*
X143586467Y-87195913D01*
X143760266Y-87288811D01*
X143760269Y-87288811D01*
X143760273Y-87288814D01*
X143948868Y-87346024D01*
X144145000Y-87365341D01*
X144341132Y-87346024D01*
X144529727Y-87288814D01*
X144703538Y-87195910D01*
X144855883Y-87070883D01*
X144980910Y-86918538D01*
X145073814Y-86744727D01*
X145131024Y-86556132D01*
X145150341Y-86360000D01*
X158379659Y-86360000D01*
X158398975Y-86556129D01*
X158456188Y-86744733D01*
X158549086Y-86918532D01*
X158549090Y-86918539D01*
X158674116Y-87070883D01*
X158826460Y-87195909D01*
X158826467Y-87195913D01*
X159000266Y-87288811D01*
X159000269Y-87288811D01*
X159000273Y-87288814D01*
X159188868Y-87346024D01*
X159385000Y-87365341D01*
X159581132Y-87346024D01*
X159769727Y-87288814D01*
X159943538Y-87195910D01*
X160092273Y-87073846D01*
X164864700Y-87073846D01*
X164895461Y-87228489D01*
X164895464Y-87228501D01*
X164955802Y-87374172D01*
X164955809Y-87374185D01*
X165043410Y-87505288D01*
X165043413Y-87505292D01*
X165154907Y-87616786D01*
X165154911Y-87616789D01*
X165286014Y-87704390D01*
X165286027Y-87704397D01*
X165431698Y-87764735D01*
X165431703Y-87764737D01*
X165586353Y-87795499D01*
X165586356Y-87795500D01*
X165586358Y-87795500D01*
X166544044Y-87795500D01*
X166544045Y-87795499D01*
X166698697Y-87764737D01*
X166844379Y-87704394D01*
X166975489Y-87616789D01*
X167086989Y-87505289D01*
X167174594Y-87374179D01*
X167234937Y-87228497D01*
X167265699Y-87073846D01*
X188029500Y-87073846D01*
X188060261Y-87228489D01*
X188060264Y-87228501D01*
X188120602Y-87374172D01*
X188120609Y-87374185D01*
X188208210Y-87505288D01*
X188208213Y-87505292D01*
X188319707Y-87616786D01*
X188319711Y-87616789D01*
X188450814Y-87704390D01*
X188450827Y-87704397D01*
X188596498Y-87764735D01*
X188596503Y-87764737D01*
X188751153Y-87795499D01*
X188751156Y-87795500D01*
X188751158Y-87795500D01*
X189708844Y-87795500D01*
X189708845Y-87795499D01*
X189863497Y-87764737D01*
X190009179Y-87704394D01*
X190140289Y-87616789D01*
X190251789Y-87505289D01*
X190339394Y-87374179D01*
X190399737Y-87228497D01*
X190430500Y-87073842D01*
X190430500Y-86916158D01*
X190430500Y-86916155D01*
X190430499Y-86916153D01*
X190407186Y-86798952D01*
X190399737Y-86761503D01*
X190350009Y-86641447D01*
X190339397Y-86615827D01*
X190339390Y-86615814D01*
X190251789Y-86484711D01*
X190251786Y-86484707D01*
X190140292Y-86373213D01*
X190140288Y-86373210D01*
X190009185Y-86285609D01*
X190009172Y-86285602D01*
X189863501Y-86225264D01*
X189863489Y-86225261D01*
X189708845Y-86194500D01*
X189708842Y-86194500D01*
X188751158Y-86194500D01*
X188751155Y-86194500D01*
X188596510Y-86225261D01*
X188596498Y-86225264D01*
X188450827Y-86285602D01*
X188450814Y-86285609D01*
X188319711Y-86373210D01*
X188319707Y-86373213D01*
X188208213Y-86484707D01*
X188208210Y-86484711D01*
X188120609Y-86615814D01*
X188120602Y-86615827D01*
X188060264Y-86761498D01*
X188060261Y-86761510D01*
X188029500Y-86916153D01*
X188029500Y-87073846D01*
X167265699Y-87073846D01*
X167265700Y-87073842D01*
X167265700Y-86916158D01*
X167265700Y-86916155D01*
X167265699Y-86916153D01*
X167242386Y-86798952D01*
X167234937Y-86761503D01*
X167185209Y-86641447D01*
X167174597Y-86615827D01*
X167174590Y-86615814D01*
X167086989Y-86484711D01*
X167086986Y-86484707D01*
X166975492Y-86373213D01*
X166975488Y-86373210D01*
X166844385Y-86285609D01*
X166844372Y-86285602D01*
X166698701Y-86225264D01*
X166698689Y-86225261D01*
X166544045Y-86194500D01*
X166544042Y-86194500D01*
X165586358Y-86194500D01*
X165586355Y-86194500D01*
X165431710Y-86225261D01*
X165431698Y-86225264D01*
X165286027Y-86285602D01*
X165286014Y-86285609D01*
X165154911Y-86373210D01*
X165154907Y-86373213D01*
X165043413Y-86484707D01*
X165043410Y-86484711D01*
X164955809Y-86615814D01*
X164955802Y-86615827D01*
X164895464Y-86761498D01*
X164895461Y-86761510D01*
X164864700Y-86916153D01*
X164864700Y-87073846D01*
X160092273Y-87073846D01*
X160095883Y-87070883D01*
X160220910Y-86918538D01*
X160313814Y-86744727D01*
X160371024Y-86556132D01*
X160390341Y-86360000D01*
X160371024Y-86163868D01*
X160313814Y-85975273D01*
X160313811Y-85975269D01*
X160313811Y-85975266D01*
X160220913Y-85801467D01*
X160220909Y-85801460D01*
X160095883Y-85649116D01*
X159943539Y-85524090D01*
X159943532Y-85524086D01*
X159769733Y-85431188D01*
X159769727Y-85431186D01*
X159581132Y-85373976D01*
X159581129Y-85373975D01*
X159385000Y-85354659D01*
X159188870Y-85373975D01*
X159000266Y-85431188D01*
X158826467Y-85524086D01*
X158826460Y-85524090D01*
X158674116Y-85649116D01*
X158549090Y-85801460D01*
X158549086Y-85801467D01*
X158456188Y-85975266D01*
X158398975Y-86163870D01*
X158379659Y-86360000D01*
X145150341Y-86360000D01*
X145131024Y-86163868D01*
X145073814Y-85975273D01*
X145073811Y-85975269D01*
X145073811Y-85975266D01*
X144980913Y-85801467D01*
X144980909Y-85801460D01*
X144855883Y-85649116D01*
X144703539Y-85524090D01*
X144703532Y-85524086D01*
X144529733Y-85431188D01*
X144529727Y-85431186D01*
X144341132Y-85373976D01*
X144341129Y-85373975D01*
X144145000Y-85354659D01*
X143948870Y-85373975D01*
X143760266Y-85431188D01*
X143586467Y-85524086D01*
X143586460Y-85524090D01*
X143434116Y-85649116D01*
X143309090Y-85801460D01*
X143309086Y-85801467D01*
X143216188Y-85975266D01*
X143158975Y-86163870D01*
X143139659Y-86360000D01*
X134374823Y-86360000D01*
X134240979Y-86182761D01*
X134076562Y-86032876D01*
X134076560Y-86032874D01*
X133887404Y-85915754D01*
X133887398Y-85915752D01*
X133679940Y-85835382D01*
X133461243Y-85794500D01*
X133238757Y-85794500D01*
X133020060Y-85835382D01*
X132888864Y-85886207D01*
X132812601Y-85915752D01*
X132812595Y-85915754D01*
X132623439Y-86032874D01*
X132623437Y-86032876D01*
X132459020Y-86182761D01*
X132324943Y-86360308D01*
X132324938Y-86360316D01*
X132225775Y-86559461D01*
X132225769Y-86559476D01*
X132164885Y-86773462D01*
X132164884Y-86773464D01*
X132144357Y-86994999D01*
X132144357Y-86995000D01*
X128355141Y-86995000D01*
X128355141Y-86994994D01*
X128334614Y-86747270D01*
X128334612Y-86747261D01*
X128273587Y-86506282D01*
X128173731Y-86278630D01*
X128073434Y-86125116D01*
X127373787Y-86824764D01*
X127362518Y-86782708D01*
X127290110Y-86657292D01*
X127187708Y-86554890D01*
X127062292Y-86482482D01*
X127020235Y-86471212D01*
X127720057Y-85771390D01*
X127720056Y-85771389D01*
X127673229Y-85734943D01*
X127454614Y-85616635D01*
X127454603Y-85616630D01*
X127219493Y-85535916D01*
X126974293Y-85495000D01*
X126725707Y-85495000D01*
X126480506Y-85535916D01*
X126245396Y-85616630D01*
X126245390Y-85616632D01*
X126026761Y-85734949D01*
X125979942Y-85771388D01*
X125979942Y-85771390D01*
X126679765Y-86471212D01*
X126637708Y-86482482D01*
X126512292Y-86554890D01*
X126409890Y-86657292D01*
X126337482Y-86782708D01*
X126326212Y-86824764D01*
X125626564Y-86125116D01*
X125526267Y-86278632D01*
X125426412Y-86506282D01*
X125365387Y-86747261D01*
X125365385Y-86747270D01*
X125344859Y-86994994D01*
X125344859Y-86995005D01*
X121355365Y-86995005D01*
X121299582Y-86798950D01*
X121291494Y-86782708D01*
X121221155Y-86641447D01*
X121208673Y-86616379D01*
X121085764Y-86453621D01*
X121085762Y-86453618D01*
X120935041Y-86316219D01*
X120935039Y-86316217D01*
X120761642Y-86208855D01*
X120761635Y-86208851D01*
X120645519Y-86163868D01*
X120571456Y-86135176D01*
X120370976Y-86097700D01*
X120167024Y-86097700D01*
X119966544Y-86135176D01*
X119966541Y-86135176D01*
X119966541Y-86135177D01*
X119776364Y-86208851D01*
X119776357Y-86208855D01*
X119602960Y-86316217D01*
X119602958Y-86316219D01*
X119452237Y-86453618D01*
X119329327Y-86616378D01*
X119238422Y-86798939D01*
X119238417Y-86798952D01*
X119182602Y-86995117D01*
X119163785Y-87198199D01*
X119163785Y-87198200D01*
X119182602Y-87401282D01*
X119238417Y-87597447D01*
X119238422Y-87597460D01*
X119329327Y-87780021D01*
X119452237Y-87942781D01*
X119602958Y-88080180D01*
X119602960Y-88080182D01*
X119702141Y-88141592D01*
X119776363Y-88187548D01*
X119787610Y-88191905D01*
X119843011Y-88234475D01*
X119866603Y-88300241D01*
X119850895Y-88368322D01*
X119800872Y-88417103D01*
X119783082Y-88424813D01*
X119704703Y-88451721D01*
X119704697Y-88451723D01*
X119500650Y-88562149D01*
X119470200Y-88585847D01*
X120139591Y-89255237D01*
X120076007Y-89272275D01*
X119961993Y-89338101D01*
X119868901Y-89431193D01*
X119803075Y-89545207D01*
X119786037Y-89608791D01*
X119117811Y-88940565D01*
X119033516Y-89069590D01*
X118940317Y-89282064D01*
X118883361Y-89506981D01*
X118864202Y-89738194D01*
X118864202Y-89738205D01*
X118883361Y-89969418D01*
X118940317Y-90194335D01*
X119033515Y-90406806D01*
X119117812Y-90535833D01*
X119786037Y-89867608D01*
X119803075Y-89931193D01*
X119868901Y-90045207D01*
X119961993Y-90138299D01*
X120076007Y-90204125D01*
X120139590Y-90221162D01*
X119470201Y-90890551D01*
X119500649Y-90914250D01*
X119704697Y-91024676D01*
X119704706Y-91024679D01*
X119783081Y-91051586D01*
X119840096Y-91091971D01*
X119866227Y-91156771D01*
X119853176Y-91225411D01*
X119805087Y-91276099D01*
X119787615Y-91284492D01*
X119776373Y-91288847D01*
X119776357Y-91288855D01*
X119602960Y-91396217D01*
X119602958Y-91396219D01*
X119452237Y-91533618D01*
X119329327Y-91696378D01*
X119238422Y-91878939D01*
X119238417Y-91878952D01*
X119182602Y-92075117D01*
X119163785Y-92278199D01*
X119163785Y-92278200D01*
X119182602Y-92481282D01*
X119238417Y-92677447D01*
X119238422Y-92677460D01*
X119329327Y-92860021D01*
X119452237Y-93022781D01*
X119602958Y-93160180D01*
X119602960Y-93160182D01*
X119702141Y-93221592D01*
X119776363Y-93267548D01*
X119787610Y-93271905D01*
X119843011Y-93314475D01*
X119866603Y-93380241D01*
X119850895Y-93448322D01*
X119800872Y-93497103D01*
X119783082Y-93504813D01*
X119704703Y-93531721D01*
X119704697Y-93531723D01*
X119500650Y-93642149D01*
X119470200Y-93665847D01*
X120139591Y-94335237D01*
X120076007Y-94352275D01*
X119961993Y-94418101D01*
X119868901Y-94511193D01*
X119803075Y-94625207D01*
X119786037Y-94688791D01*
X119117811Y-94020565D01*
X119033516Y-94149590D01*
X118940317Y-94362064D01*
X118883361Y-94586981D01*
X118864202Y-94818194D01*
X118864202Y-94818205D01*
X99695000Y-94818205D01*
X99695000Y-84533846D01*
X164864700Y-84533846D01*
X164895461Y-84688489D01*
X164895464Y-84688501D01*
X164955802Y-84834172D01*
X164955809Y-84834185D01*
X165043410Y-84965288D01*
X165043413Y-84965292D01*
X165154907Y-85076786D01*
X165154911Y-85076789D01*
X165286014Y-85164390D01*
X165286027Y-85164397D01*
X165431698Y-85224735D01*
X165431703Y-85224737D01*
X165586353Y-85255499D01*
X165586356Y-85255500D01*
X165586358Y-85255500D01*
X166544044Y-85255500D01*
X166544045Y-85255499D01*
X166698697Y-85224737D01*
X166844379Y-85164394D01*
X166975489Y-85076789D01*
X167086989Y-84965289D01*
X167174594Y-84834179D01*
X167234937Y-84688497D01*
X167265700Y-84533842D01*
X167265700Y-84376158D01*
X167265700Y-84376155D01*
X167265699Y-84376153D01*
X167234937Y-84221503D01*
X167228101Y-84204999D01*
X187755884Y-84204999D01*
X187755885Y-84205000D01*
X188914314Y-84205000D01*
X188909920Y-84209394D01*
X188857259Y-84300606D01*
X188830000Y-84402339D01*
X188830000Y-84507661D01*
X188857259Y-84609394D01*
X188909920Y-84700606D01*
X188914314Y-84705000D01*
X187755885Y-84705000D01*
X187757085Y-84712584D01*
X187810591Y-84877255D01*
X187889195Y-85031524D01*
X187990967Y-85171602D01*
X188113397Y-85294032D01*
X188253475Y-85395804D01*
X188407742Y-85474408D01*
X188572415Y-85527914D01*
X188743429Y-85555000D01*
X188980000Y-85555000D01*
X188980000Y-84770686D01*
X188984394Y-84775080D01*
X189075606Y-84827741D01*
X189177339Y-84855000D01*
X189282661Y-84855000D01*
X189384394Y-84827741D01*
X189475606Y-84775080D01*
X189480000Y-84770686D01*
X189480000Y-85555000D01*
X189716571Y-85555000D01*
X189887584Y-85527914D01*
X190052257Y-85474408D01*
X190206524Y-85395804D01*
X190346602Y-85294032D01*
X190469032Y-85171602D01*
X190570804Y-85031524D01*
X190649408Y-84877255D01*
X190702914Y-84712584D01*
X190704115Y-84705000D01*
X189545686Y-84705000D01*
X189550080Y-84700606D01*
X189602741Y-84609394D01*
X189630000Y-84507661D01*
X189630000Y-84402339D01*
X189602741Y-84300606D01*
X189550080Y-84209394D01*
X189545686Y-84205000D01*
X190704115Y-84205000D01*
X190704115Y-84204999D01*
X190702914Y-84197415D01*
X190649408Y-84032744D01*
X190570804Y-83878475D01*
X190469032Y-83738397D01*
X190346602Y-83615967D01*
X190206524Y-83514195D01*
X190052257Y-83435591D01*
X189887584Y-83382085D01*
X189716571Y-83355000D01*
X189480000Y-83355000D01*
X189480000Y-84139314D01*
X189475606Y-84134920D01*
X189384394Y-84082259D01*
X189282661Y-84055000D01*
X189177339Y-84055000D01*
X189075606Y-84082259D01*
X188984394Y-84134920D01*
X188980000Y-84139314D01*
X188980000Y-83355000D01*
X188743429Y-83355000D01*
X188572415Y-83382085D01*
X188407742Y-83435591D01*
X188253475Y-83514195D01*
X188113397Y-83615967D01*
X187990967Y-83738397D01*
X187889195Y-83878475D01*
X187810591Y-84032744D01*
X187757085Y-84197415D01*
X187755884Y-84204999D01*
X167228101Y-84204999D01*
X167174597Y-84075827D01*
X167174590Y-84075814D01*
X167086989Y-83944711D01*
X167086986Y-83944707D01*
X166975492Y-83833213D01*
X166975488Y-83833210D01*
X166844385Y-83745609D01*
X166844372Y-83745602D01*
X166698701Y-83685264D01*
X166698689Y-83685261D01*
X166544045Y-83654500D01*
X166544042Y-83654500D01*
X165586358Y-83654500D01*
X165586355Y-83654500D01*
X165431710Y-83685261D01*
X165431698Y-83685264D01*
X165286027Y-83745602D01*
X165286014Y-83745609D01*
X165154911Y-83833210D01*
X165154907Y-83833213D01*
X165043413Y-83944707D01*
X165043410Y-83944711D01*
X164955809Y-84075814D01*
X164955802Y-84075827D01*
X164895464Y-84221498D01*
X164895461Y-84221510D01*
X164864700Y-84376153D01*
X164864700Y-84533846D01*
X99695000Y-84533846D01*
X99695000Y-82039000D01*
X99714685Y-81971961D01*
X99767489Y-81926206D01*
X99819000Y-81915000D01*
X191646000Y-81915000D01*
X191713039Y-81934685D01*
G37*
G04 #@! TD.AperFunction*
M02*
