M48
; DRILL file {KiCad 8.0.1} date 2024-04-23T21:20:46-0700
; FORMAT={-:-/ absolute / metric / decimal}
; #@! TF.CreationDate,2024-04-23T21:20:46-07:00
; #@! TF.GenerationSoftware,Kicad,Pcbnew,8.0.1
; #@! TF.FileFunction,Plated,1,4,PTH
FMAT,2
METRIC
; #@! TA.AperFunction,Plated,PTH,ComponentDrill
T1C0.800
; #@! TA.AperFunction,Plated,PTH,ComponentDrill
T2C1.000
; #@! TA.AperFunction,Plated,PTH,ComponentDrill
T3C1.100
; #@! TA.AperFunction,Plated,PTH,ComponentDrill
T4C1.300
; #@! TA.AperFunction,Plated,PTH,ComponentDrill
T5C1.600
%
G90
G05
T1
X85.573Y-70.952
X85.573Y-73.492
X85.573Y-76.032
X85.573Y-78.572
X85.573Y-81.112
X85.573Y-83.652
X85.573Y-86.192
X85.573Y-88.732
X85.573Y-91.272
X85.573Y-93.812
X85.573Y-96.352
X85.573Y-98.892
X85.573Y-101.432
X85.573Y-103.972
X85.573Y-106.512
X85.573Y-109.052
X85.573Y-111.592
X85.573Y-114.132
X85.573Y-116.672
X108.737Y-70.952
X108.737Y-73.492
X108.737Y-76.032
X108.737Y-78.572
X108.737Y-81.112
X108.737Y-83.652
X108.737Y-86.192
X108.737Y-88.732
X108.737Y-91.272
X108.737Y-93.812
X108.737Y-96.352
X108.737Y-98.892
X108.737Y-101.432
X108.737Y-103.972
X108.737Y-106.512
X108.737Y-109.052
X108.737Y-111.592
X108.737Y-114.132
X108.737Y-116.672
X114.3Y-112.395
X114.3Y-118.11
X124.435Y-95.05
X124.46Y-102.87
X126.935Y-95.05
X126.96Y-102.87
X129.54Y-112.395
X129.54Y-118.11
X134.545Y-93.373
X134.545Y-108.612
X143.435Y-93.373
X143.435Y-108.612
X151.13Y-94.615
X151.13Y-97.155
X151.13Y-99.695
X151.13Y-102.235
X151.13Y-104.775
X151.13Y-107.315
X151.13Y-109.855
X158.93Y-94.615
X158.93Y-97.155
X158.93Y-99.695
X158.93Y-102.235
X158.93Y-104.775
X158.93Y-107.315
X158.93Y-109.855
X167.005Y-106.362
X167.005Y-121.602
T2
X88.16Y-123.521
X88.16Y-126.061
X88.16Y-128.601
X88.16Y-131.141
X88.16Y-133.681
X88.16Y-136.221
X88.16Y-138.761
X120.315Y-128.945
X120.315Y-134.177
X120.315Y-139.409
X170.18Y-93.345
X170.18Y-95.885
X170.18Y-98.425
X170.18Y-100.965
X170.506Y-128.945
X170.506Y-134.177
X170.506Y-139.409
T3
X137.645Y-115.252
X137.645Y-119.752
X144.145Y-115.252
X144.145Y-119.752
X150.98Y-115.252
X150.98Y-119.752
X157.48Y-115.252
X157.48Y-119.752
T4
X116.84Y-70.396
X116.84Y-88.278
X156.921Y-70.396
X156.921Y-88.278
T5
X167.35Y-79.45
X172.05Y-76.45
X172.05Y-82.65
M30
