G04 #@! TF.GenerationSoftware,KiCad,Pcbnew,8.0.1*
G04 #@! TF.CreationDate,2024-04-23T21:18:21-07:00*
G04 #@! TF.ProjectId,FanSystem,46616e53-7973-4746-956d-2e6b69636164,1*
G04 #@! TF.SameCoordinates,Original*
G04 #@! TF.FileFunction,Legend,Top*
G04 #@! TF.FilePolarity,Positive*
%FSLAX46Y46*%
G04 Gerber Fmt 4.6, Leading zero omitted, Abs format (unit mm)*
G04 Created by KiCad (PCBNEW 8.0.1) date 2024-04-23 21:18:21*
%MOMM*%
%LPD*%
G01*
G04 APERTURE LIST*
%ADD10C,0.300000*%
%ADD11C,0.150000*%
%ADD12C,0.100000*%
%ADD13C,0.120000*%
%ADD14O,3.180000X1.200000*%
%ADD15C,1.600000*%
%ADD16O,1.600000X1.600000*%
%ADD17R,1.600000X1.600000*%
%ADD18C,2.000000*%
%ADD19R,4.500000X2.000000*%
%ADD20O,4.000000X2.000000*%
%ADD21O,2.000000X4.000000*%
%ADD22R,1.700000X1.700000*%
%ADD23O,1.700000X1.700000*%
%ADD24O,3.800000X2.800000*%
%ADD25R,3.100000X3.100000*%
%ADD26O,2.000000X1.200000*%
%ADD27R,2.000000X1.200000*%
%ADD28C,1.800000*%
G04 APERTURE END LIST*
D10*
X174060225Y-92352257D02*
X173917368Y-92280828D01*
X173917368Y-92280828D02*
X173703082Y-92280828D01*
X173703082Y-92280828D02*
X173488796Y-92352257D01*
X173488796Y-92352257D02*
X173345939Y-92495114D01*
X173345939Y-92495114D02*
X173274510Y-92637971D01*
X173274510Y-92637971D02*
X173203082Y-92923685D01*
X173203082Y-92923685D02*
X173203082Y-93137971D01*
X173203082Y-93137971D02*
X173274510Y-93423685D01*
X173274510Y-93423685D02*
X173345939Y-93566542D01*
X173345939Y-93566542D02*
X173488796Y-93709400D01*
X173488796Y-93709400D02*
X173703082Y-93780828D01*
X173703082Y-93780828D02*
X173845939Y-93780828D01*
X173845939Y-93780828D02*
X174060225Y-93709400D01*
X174060225Y-93709400D02*
X174131653Y-93637971D01*
X174131653Y-93637971D02*
X174131653Y-93137971D01*
X174131653Y-93137971D02*
X173845939Y-93137971D01*
X174774510Y-93780828D02*
X174774510Y-92280828D01*
X174774510Y-92280828D02*
X175631653Y-93780828D01*
X175631653Y-93780828D02*
X175631653Y-92280828D01*
X176345939Y-93780828D02*
X176345939Y-92280828D01*
X176345939Y-92280828D02*
X176703082Y-92280828D01*
X176703082Y-92280828D02*
X176917368Y-92352257D01*
X176917368Y-92352257D02*
X177060225Y-92495114D01*
X177060225Y-92495114D02*
X177131654Y-92637971D01*
X177131654Y-92637971D02*
X177203082Y-92923685D01*
X177203082Y-92923685D02*
X177203082Y-93137971D01*
X177203082Y-93137971D02*
X177131654Y-93423685D01*
X177131654Y-93423685D02*
X177060225Y-93566542D01*
X177060225Y-93566542D02*
X176917368Y-93709400D01*
X176917368Y-93709400D02*
X176703082Y-93780828D01*
X176703082Y-93780828D02*
X176345939Y-93780828D01*
D11*
X173691779Y-101469819D02*
X173691779Y-100469819D01*
X173691779Y-100469819D02*
X174072731Y-100469819D01*
X174072731Y-100469819D02*
X174167969Y-100517438D01*
X174167969Y-100517438D02*
X174215588Y-100565057D01*
X174215588Y-100565057D02*
X174263207Y-100660295D01*
X174263207Y-100660295D02*
X174263207Y-100803152D01*
X174263207Y-100803152D02*
X174215588Y-100898390D01*
X174215588Y-100898390D02*
X174167969Y-100946009D01*
X174167969Y-100946009D02*
X174072731Y-100993628D01*
X174072731Y-100993628D02*
X173691779Y-100993628D01*
X174596541Y-100469819D02*
X174834636Y-101469819D01*
X174834636Y-101469819D02*
X175025112Y-100755533D01*
X175025112Y-100755533D02*
X175215588Y-101469819D01*
X175215588Y-101469819D02*
X175453684Y-100469819D01*
X175834636Y-101469819D02*
X175834636Y-100469819D01*
X175834636Y-100469819D02*
X176167969Y-101184104D01*
X176167969Y-101184104D02*
X176501302Y-100469819D01*
X176501302Y-100469819D02*
X176501302Y-101469819D01*
X173548922Y-97929819D02*
X174120350Y-97929819D01*
X173834636Y-98929819D02*
X173834636Y-97929819D01*
X174882255Y-98929819D02*
X174882255Y-98406009D01*
X174882255Y-98406009D02*
X174834636Y-98310771D01*
X174834636Y-98310771D02*
X174739398Y-98263152D01*
X174739398Y-98263152D02*
X174548922Y-98263152D01*
X174548922Y-98263152D02*
X174453684Y-98310771D01*
X174882255Y-98882200D02*
X174787017Y-98929819D01*
X174787017Y-98929819D02*
X174548922Y-98929819D01*
X174548922Y-98929819D02*
X174453684Y-98882200D01*
X174453684Y-98882200D02*
X174406065Y-98786961D01*
X174406065Y-98786961D02*
X174406065Y-98691723D01*
X174406065Y-98691723D02*
X174453684Y-98596485D01*
X174453684Y-98596485D02*
X174548922Y-98548866D01*
X174548922Y-98548866D02*
X174787017Y-98548866D01*
X174787017Y-98548866D02*
X174882255Y-98501247D01*
X175787017Y-98882200D02*
X175691779Y-98929819D01*
X175691779Y-98929819D02*
X175501303Y-98929819D01*
X175501303Y-98929819D02*
X175406065Y-98882200D01*
X175406065Y-98882200D02*
X175358446Y-98834580D01*
X175358446Y-98834580D02*
X175310827Y-98739342D01*
X175310827Y-98739342D02*
X175310827Y-98453628D01*
X175310827Y-98453628D02*
X175358446Y-98358390D01*
X175358446Y-98358390D02*
X175406065Y-98310771D01*
X175406065Y-98310771D02*
X175501303Y-98263152D01*
X175501303Y-98263152D02*
X175691779Y-98263152D01*
X175691779Y-98263152D02*
X175787017Y-98310771D01*
X176215589Y-98929819D02*
X176215589Y-97929819D01*
X176644160Y-98929819D02*
X176644160Y-98406009D01*
X176644160Y-98406009D02*
X176596541Y-98310771D01*
X176596541Y-98310771D02*
X176501303Y-98263152D01*
X176501303Y-98263152D02*
X176358446Y-98263152D01*
X176358446Y-98263152D02*
X176263208Y-98310771D01*
X176263208Y-98310771D02*
X176215589Y-98358390D01*
X177263208Y-98929819D02*
X177167970Y-98882200D01*
X177167970Y-98882200D02*
X177120351Y-98834580D01*
X177120351Y-98834580D02*
X177072732Y-98739342D01*
X177072732Y-98739342D02*
X177072732Y-98453628D01*
X177072732Y-98453628D02*
X177120351Y-98358390D01*
X177120351Y-98358390D02*
X177167970Y-98310771D01*
X177167970Y-98310771D02*
X177263208Y-98263152D01*
X177263208Y-98263152D02*
X177406065Y-98263152D01*
X177406065Y-98263152D02*
X177501303Y-98310771D01*
X177501303Y-98310771D02*
X177548922Y-98358390D01*
X177548922Y-98358390D02*
X177596541Y-98453628D01*
X177596541Y-98453628D02*
X177596541Y-98739342D01*
X177596541Y-98739342D02*
X177548922Y-98834580D01*
X177548922Y-98834580D02*
X177501303Y-98882200D01*
X177501303Y-98882200D02*
X177406065Y-98929819D01*
X177406065Y-98929819D02*
X177263208Y-98929819D01*
X173691779Y-96389819D02*
X173691779Y-95389819D01*
X173691779Y-95389819D02*
X174072731Y-95389819D01*
X174072731Y-95389819D02*
X174167969Y-95437438D01*
X174167969Y-95437438D02*
X174215588Y-95485057D01*
X174215588Y-95485057D02*
X174263207Y-95580295D01*
X174263207Y-95580295D02*
X174263207Y-95723152D01*
X174263207Y-95723152D02*
X174215588Y-95818390D01*
X174215588Y-95818390D02*
X174167969Y-95866009D01*
X174167969Y-95866009D02*
X174072731Y-95913628D01*
X174072731Y-95913628D02*
X173691779Y-95913628D01*
X174834636Y-96389819D02*
X174739398Y-96342200D01*
X174739398Y-96342200D02*
X174691779Y-96294580D01*
X174691779Y-96294580D02*
X174644160Y-96199342D01*
X174644160Y-96199342D02*
X174644160Y-95913628D01*
X174644160Y-95913628D02*
X174691779Y-95818390D01*
X174691779Y-95818390D02*
X174739398Y-95770771D01*
X174739398Y-95770771D02*
X174834636Y-95723152D01*
X174834636Y-95723152D02*
X174977493Y-95723152D01*
X174977493Y-95723152D02*
X175072731Y-95770771D01*
X175072731Y-95770771D02*
X175120350Y-95818390D01*
X175120350Y-95818390D02*
X175167969Y-95913628D01*
X175167969Y-95913628D02*
X175167969Y-96199342D01*
X175167969Y-96199342D02*
X175120350Y-96294580D01*
X175120350Y-96294580D02*
X175072731Y-96342200D01*
X175072731Y-96342200D02*
X174977493Y-96389819D01*
X174977493Y-96389819D02*
X174834636Y-96389819D01*
X175501303Y-95723152D02*
X175691779Y-96389819D01*
X175691779Y-96389819D02*
X175882255Y-95913628D01*
X175882255Y-95913628D02*
X176072731Y-96389819D01*
X176072731Y-96389819D02*
X176263207Y-95723152D01*
X177025112Y-96342200D02*
X176929874Y-96389819D01*
X176929874Y-96389819D02*
X176739398Y-96389819D01*
X176739398Y-96389819D02*
X176644160Y-96342200D01*
X176644160Y-96342200D02*
X176596541Y-96246961D01*
X176596541Y-96246961D02*
X176596541Y-95866009D01*
X176596541Y-95866009D02*
X176644160Y-95770771D01*
X176644160Y-95770771D02*
X176739398Y-95723152D01*
X176739398Y-95723152D02*
X176929874Y-95723152D01*
X176929874Y-95723152D02*
X177025112Y-95770771D01*
X177025112Y-95770771D02*
X177072731Y-95866009D01*
X177072731Y-95866009D02*
X177072731Y-95961247D01*
X177072731Y-95961247D02*
X176596541Y-96056485D01*
X177501303Y-96389819D02*
X177501303Y-95723152D01*
X177501303Y-95913628D02*
X177548922Y-95818390D01*
X177548922Y-95818390D02*
X177596541Y-95770771D01*
X177596541Y-95770771D02*
X177691779Y-95723152D01*
X177691779Y-95723152D02*
X177787017Y-95723152D01*
X154268095Y-91969819D02*
X154268095Y-92779342D01*
X154268095Y-92779342D02*
X154315714Y-92874580D01*
X154315714Y-92874580D02*
X154363333Y-92922200D01*
X154363333Y-92922200D02*
X154458571Y-92969819D01*
X154458571Y-92969819D02*
X154649047Y-92969819D01*
X154649047Y-92969819D02*
X154744285Y-92922200D01*
X154744285Y-92922200D02*
X154791904Y-92874580D01*
X154791904Y-92874580D02*
X154839523Y-92779342D01*
X154839523Y-92779342D02*
X154839523Y-91969819D01*
X155220476Y-91969819D02*
X155839523Y-91969819D01*
X155839523Y-91969819D02*
X155506190Y-92350771D01*
X155506190Y-92350771D02*
X155649047Y-92350771D01*
X155649047Y-92350771D02*
X155744285Y-92398390D01*
X155744285Y-92398390D02*
X155791904Y-92446009D01*
X155791904Y-92446009D02*
X155839523Y-92541247D01*
X155839523Y-92541247D02*
X155839523Y-92779342D01*
X155839523Y-92779342D02*
X155791904Y-92874580D01*
X155791904Y-92874580D02*
X155744285Y-92922200D01*
X155744285Y-92922200D02*
X155649047Y-92969819D01*
X155649047Y-92969819D02*
X155363333Y-92969819D01*
X155363333Y-92969819D02*
X155268095Y-92922200D01*
X155268095Y-92922200D02*
X155220476Y-92874580D01*
X170179819Y-114149166D02*
X169703628Y-114482499D01*
X170179819Y-114720594D02*
X169179819Y-114720594D01*
X169179819Y-114720594D02*
X169179819Y-114339642D01*
X169179819Y-114339642D02*
X169227438Y-114244404D01*
X169227438Y-114244404D02*
X169275057Y-114196785D01*
X169275057Y-114196785D02*
X169370295Y-114149166D01*
X169370295Y-114149166D02*
X169513152Y-114149166D01*
X169513152Y-114149166D02*
X169608390Y-114196785D01*
X169608390Y-114196785D02*
X169656009Y-114244404D01*
X169656009Y-114244404D02*
X169703628Y-114339642D01*
X169703628Y-114339642D02*
X169703628Y-114720594D01*
X170179819Y-113196785D02*
X170179819Y-113768213D01*
X170179819Y-113482499D02*
X169179819Y-113482499D01*
X169179819Y-113482499D02*
X169322676Y-113577737D01*
X169322676Y-113577737D02*
X169417914Y-113672975D01*
X169417914Y-113672975D02*
X169465533Y-113768213D01*
X127423446Y-99362780D02*
X127375827Y-99410400D01*
X127375827Y-99410400D02*
X127232970Y-99458019D01*
X127232970Y-99458019D02*
X127137732Y-99458019D01*
X127137732Y-99458019D02*
X126994875Y-99410400D01*
X126994875Y-99410400D02*
X126899637Y-99315161D01*
X126899637Y-99315161D02*
X126852018Y-99219923D01*
X126852018Y-99219923D02*
X126804399Y-99029447D01*
X126804399Y-99029447D02*
X126804399Y-98886590D01*
X126804399Y-98886590D02*
X126852018Y-98696114D01*
X126852018Y-98696114D02*
X126899637Y-98600876D01*
X126899637Y-98600876D02*
X126994875Y-98505638D01*
X126994875Y-98505638D02*
X127137732Y-98458019D01*
X127137732Y-98458019D02*
X127232970Y-98458019D01*
X127232970Y-98458019D02*
X127375827Y-98505638D01*
X127375827Y-98505638D02*
X127423446Y-98553257D01*
X128375827Y-99458019D02*
X127804399Y-99458019D01*
X128090113Y-99458019D02*
X128090113Y-98458019D01*
X128090113Y-98458019D02*
X127994875Y-98600876D01*
X127994875Y-98600876D02*
X127899637Y-98696114D01*
X127899637Y-98696114D02*
X127804399Y-98743733D01*
X152896667Y-113659700D02*
X153039524Y-113707319D01*
X153039524Y-113707319D02*
X153277619Y-113707319D01*
X153277619Y-113707319D02*
X153372857Y-113659700D01*
X153372857Y-113659700D02*
X153420476Y-113612080D01*
X153420476Y-113612080D02*
X153468095Y-113516842D01*
X153468095Y-113516842D02*
X153468095Y-113421604D01*
X153468095Y-113421604D02*
X153420476Y-113326366D01*
X153420476Y-113326366D02*
X153372857Y-113278747D01*
X153372857Y-113278747D02*
X153277619Y-113231128D01*
X153277619Y-113231128D02*
X153087143Y-113183509D01*
X153087143Y-113183509D02*
X152991905Y-113135890D01*
X152991905Y-113135890D02*
X152944286Y-113088271D01*
X152944286Y-113088271D02*
X152896667Y-112993033D01*
X152896667Y-112993033D02*
X152896667Y-112897795D01*
X152896667Y-112897795D02*
X152944286Y-112802557D01*
X152944286Y-112802557D02*
X152991905Y-112754938D01*
X152991905Y-112754938D02*
X153087143Y-112707319D01*
X153087143Y-112707319D02*
X153325238Y-112707319D01*
X153325238Y-112707319D02*
X153468095Y-112754938D01*
X153801429Y-112707319D02*
X154039524Y-113707319D01*
X154039524Y-113707319D02*
X154230000Y-112993033D01*
X154230000Y-112993033D02*
X154420476Y-113707319D01*
X154420476Y-113707319D02*
X154658572Y-112707319D01*
X154944286Y-112707319D02*
X155563333Y-112707319D01*
X155563333Y-112707319D02*
X155230000Y-113088271D01*
X155230000Y-113088271D02*
X155372857Y-113088271D01*
X155372857Y-113088271D02*
X155468095Y-113135890D01*
X155468095Y-113135890D02*
X155515714Y-113183509D01*
X155515714Y-113183509D02*
X155563333Y-113278747D01*
X155563333Y-113278747D02*
X155563333Y-113516842D01*
X155563333Y-113516842D02*
X155515714Y-113612080D01*
X155515714Y-113612080D02*
X155468095Y-113659700D01*
X155468095Y-113659700D02*
X155372857Y-113707319D01*
X155372857Y-113707319D02*
X155087143Y-113707319D01*
X155087143Y-113707319D02*
X154991905Y-113659700D01*
X154991905Y-113659700D02*
X154944286Y-113612080D01*
X172595180Y-84756666D02*
X171880895Y-84756666D01*
X171880895Y-84756666D02*
X171738038Y-84709047D01*
X171738038Y-84709047D02*
X171642800Y-84613809D01*
X171642800Y-84613809D02*
X171595180Y-84470952D01*
X171595180Y-84470952D02*
X171595180Y-84375714D01*
X171595180Y-85756666D02*
X171595180Y-85185238D01*
X171595180Y-85470952D02*
X172595180Y-85470952D01*
X172595180Y-85470952D02*
X172452323Y-85375714D01*
X172452323Y-85375714D02*
X172357085Y-85280476D01*
X172357085Y-85280476D02*
X172309466Y-85185238D01*
X169418095Y-90469819D02*
X169418095Y-91279342D01*
X169418095Y-91279342D02*
X169465714Y-91374580D01*
X169465714Y-91374580D02*
X169513333Y-91422200D01*
X169513333Y-91422200D02*
X169608571Y-91469819D01*
X169608571Y-91469819D02*
X169799047Y-91469819D01*
X169799047Y-91469819D02*
X169894285Y-91422200D01*
X169894285Y-91422200D02*
X169941904Y-91374580D01*
X169941904Y-91374580D02*
X169989523Y-91279342D01*
X169989523Y-91279342D02*
X169989523Y-90469819D01*
X170894285Y-90469819D02*
X170703809Y-90469819D01*
X170703809Y-90469819D02*
X170608571Y-90517438D01*
X170608571Y-90517438D02*
X170560952Y-90565057D01*
X170560952Y-90565057D02*
X170465714Y-90707914D01*
X170465714Y-90707914D02*
X170418095Y-90898390D01*
X170418095Y-90898390D02*
X170418095Y-91279342D01*
X170418095Y-91279342D02*
X170465714Y-91374580D01*
X170465714Y-91374580D02*
X170513333Y-91422200D01*
X170513333Y-91422200D02*
X170608571Y-91469819D01*
X170608571Y-91469819D02*
X170799047Y-91469819D01*
X170799047Y-91469819D02*
X170894285Y-91422200D01*
X170894285Y-91422200D02*
X170941904Y-91374580D01*
X170941904Y-91374580D02*
X170989523Y-91279342D01*
X170989523Y-91279342D02*
X170989523Y-91041247D01*
X170989523Y-91041247D02*
X170941904Y-90946009D01*
X170941904Y-90946009D02*
X170894285Y-90898390D01*
X170894285Y-90898390D02*
X170799047Y-90850771D01*
X170799047Y-90850771D02*
X170608571Y-90850771D01*
X170608571Y-90850771D02*
X170513333Y-90898390D01*
X170513333Y-90898390D02*
X170465714Y-90946009D01*
X170465714Y-90946009D02*
X170418095Y-91041247D01*
X146609819Y-101159166D02*
X146133628Y-101492499D01*
X146609819Y-101730594D02*
X145609819Y-101730594D01*
X145609819Y-101730594D02*
X145609819Y-101349642D01*
X145609819Y-101349642D02*
X145657438Y-101254404D01*
X145657438Y-101254404D02*
X145705057Y-101206785D01*
X145705057Y-101206785D02*
X145800295Y-101159166D01*
X145800295Y-101159166D02*
X145943152Y-101159166D01*
X145943152Y-101159166D02*
X146038390Y-101206785D01*
X146038390Y-101206785D02*
X146086009Y-101254404D01*
X146086009Y-101254404D02*
X146133628Y-101349642D01*
X146133628Y-101349642D02*
X146133628Y-101730594D01*
X145943152Y-100302023D02*
X146609819Y-100302023D01*
X145562200Y-100540118D02*
X146276485Y-100778213D01*
X146276485Y-100778213D02*
X146276485Y-100159166D01*
X133435419Y-133465804D02*
X134244942Y-133465804D01*
X134244942Y-133465804D02*
X134340180Y-133418185D01*
X134340180Y-133418185D02*
X134387800Y-133370566D01*
X134387800Y-133370566D02*
X134435419Y-133275328D01*
X134435419Y-133275328D02*
X134435419Y-133084852D01*
X134435419Y-133084852D02*
X134387800Y-132989614D01*
X134387800Y-132989614D02*
X134340180Y-132941995D01*
X134340180Y-132941995D02*
X134244942Y-132894376D01*
X134244942Y-132894376D02*
X133435419Y-132894376D01*
X133768752Y-131989614D02*
X134435419Y-131989614D01*
X133387800Y-132227709D02*
X134102085Y-132465804D01*
X134102085Y-132465804D02*
X134102085Y-131846757D01*
D12*
X173502084Y-139942319D02*
X173502084Y-138942319D01*
X173502084Y-138942319D02*
X174073512Y-139942319D01*
X174073512Y-139942319D02*
X174073512Y-138942319D01*
X174740179Y-138942319D02*
X174930655Y-138942319D01*
X174930655Y-138942319D02*
X175025893Y-138989938D01*
X175025893Y-138989938D02*
X175121131Y-139085176D01*
X175121131Y-139085176D02*
X175168750Y-139275652D01*
X175168750Y-139275652D02*
X175168750Y-139608985D01*
X175168750Y-139608985D02*
X175121131Y-139799461D01*
X175121131Y-139799461D02*
X175025893Y-139894700D01*
X175025893Y-139894700D02*
X174930655Y-139942319D01*
X174930655Y-139942319D02*
X174740179Y-139942319D01*
X174740179Y-139942319D02*
X174644941Y-139894700D01*
X174644941Y-139894700D02*
X174549703Y-139799461D01*
X174549703Y-139799461D02*
X174502084Y-139608985D01*
X174502084Y-139608985D02*
X174502084Y-139275652D01*
X174502084Y-139275652D02*
X174549703Y-139085176D01*
X174549703Y-139085176D02*
X174644941Y-138989938D01*
X174644941Y-138989938D02*
X174740179Y-138942319D01*
X173870312Y-134563880D02*
X173822693Y-134611500D01*
X173822693Y-134611500D02*
X173679836Y-134659119D01*
X173679836Y-134659119D02*
X173584598Y-134659119D01*
X173584598Y-134659119D02*
X173441741Y-134611500D01*
X173441741Y-134611500D02*
X173346503Y-134516261D01*
X173346503Y-134516261D02*
X173298884Y-134421023D01*
X173298884Y-134421023D02*
X173251265Y-134230547D01*
X173251265Y-134230547D02*
X173251265Y-134087690D01*
X173251265Y-134087690D02*
X173298884Y-133897214D01*
X173298884Y-133897214D02*
X173346503Y-133801976D01*
X173346503Y-133801976D02*
X173441741Y-133706738D01*
X173441741Y-133706738D02*
X173584598Y-133659119D01*
X173584598Y-133659119D02*
X173679836Y-133659119D01*
X173679836Y-133659119D02*
X173822693Y-133706738D01*
X173822693Y-133706738D02*
X173870312Y-133754357D01*
X174489360Y-133659119D02*
X174679836Y-133659119D01*
X174679836Y-133659119D02*
X174775074Y-133706738D01*
X174775074Y-133706738D02*
X174870312Y-133801976D01*
X174870312Y-133801976D02*
X174917931Y-133992452D01*
X174917931Y-133992452D02*
X174917931Y-134325785D01*
X174917931Y-134325785D02*
X174870312Y-134516261D01*
X174870312Y-134516261D02*
X174775074Y-134611500D01*
X174775074Y-134611500D02*
X174679836Y-134659119D01*
X174679836Y-134659119D02*
X174489360Y-134659119D01*
X174489360Y-134659119D02*
X174394122Y-134611500D01*
X174394122Y-134611500D02*
X174298884Y-134516261D01*
X174298884Y-134516261D02*
X174251265Y-134325785D01*
X174251265Y-134325785D02*
X174251265Y-133992452D01*
X174251265Y-133992452D02*
X174298884Y-133801976D01*
X174298884Y-133801976D02*
X174394122Y-133706738D01*
X174394122Y-133706738D02*
X174489360Y-133659119D01*
X175346503Y-134659119D02*
X175346503Y-133659119D01*
X175346503Y-133659119D02*
X175679836Y-134373404D01*
X175679836Y-134373404D02*
X176013169Y-133659119D01*
X176013169Y-133659119D02*
X176013169Y-134659119D01*
X115793284Y-134811519D02*
X115793284Y-133811519D01*
X116269474Y-134811519D02*
X116269474Y-133811519D01*
X116269474Y-133811519D02*
X116840902Y-134811519D01*
X116840902Y-134811519D02*
X116840902Y-133811519D01*
X173349684Y-129477519D02*
X173349684Y-128477519D01*
X173349684Y-128477519D02*
X173921112Y-129477519D01*
X173921112Y-129477519D02*
X173921112Y-128477519D01*
X174968731Y-129382280D02*
X174921112Y-129429900D01*
X174921112Y-129429900D02*
X174778255Y-129477519D01*
X174778255Y-129477519D02*
X174683017Y-129477519D01*
X174683017Y-129477519D02*
X174540160Y-129429900D01*
X174540160Y-129429900D02*
X174444922Y-129334661D01*
X174444922Y-129334661D02*
X174397303Y-129239423D01*
X174397303Y-129239423D02*
X174349684Y-129048947D01*
X174349684Y-129048947D02*
X174349684Y-128906090D01*
X174349684Y-128906090D02*
X174397303Y-128715614D01*
X174397303Y-128715614D02*
X174444922Y-128620376D01*
X174444922Y-128620376D02*
X174540160Y-128525138D01*
X174540160Y-128525138D02*
X174683017Y-128477519D01*
X174683017Y-128477519D02*
X174778255Y-128477519D01*
X174778255Y-128477519D02*
X174921112Y-128525138D01*
X174921112Y-128525138D02*
X174968731Y-128572757D01*
X115345627Y-128375919D02*
X115678960Y-129375919D01*
X115678960Y-129375919D02*
X116012293Y-128375919D01*
X116774198Y-129328300D02*
X116678960Y-129375919D01*
X116678960Y-129375919D02*
X116488484Y-129375919D01*
X116488484Y-129375919D02*
X116393246Y-129328300D01*
X116393246Y-129328300D02*
X116345627Y-129280680D01*
X116345627Y-129280680D02*
X116298008Y-129185442D01*
X116298008Y-129185442D02*
X116298008Y-128899728D01*
X116298008Y-128899728D02*
X116345627Y-128804490D01*
X116345627Y-128804490D02*
X116393246Y-128756871D01*
X116393246Y-128756871D02*
X116488484Y-128709252D01*
X116488484Y-128709252D02*
X116678960Y-128709252D01*
X116678960Y-128709252D02*
X116774198Y-128756871D01*
X117631341Y-129328300D02*
X117536103Y-129375919D01*
X117536103Y-129375919D02*
X117345627Y-129375919D01*
X117345627Y-129375919D02*
X117250389Y-129328300D01*
X117250389Y-129328300D02*
X117202770Y-129280680D01*
X117202770Y-129280680D02*
X117155151Y-129185442D01*
X117155151Y-129185442D02*
X117155151Y-128899728D01*
X117155151Y-128899728D02*
X117202770Y-128804490D01*
X117202770Y-128804490D02*
X117250389Y-128756871D01*
X117250389Y-128756871D02*
X117345627Y-128709252D01*
X117345627Y-128709252D02*
X117536103Y-128709252D01*
X117536103Y-128709252D02*
X117631341Y-128756871D01*
X115555093Y-139091538D02*
X115459855Y-139043919D01*
X115459855Y-139043919D02*
X115316998Y-139043919D01*
X115316998Y-139043919D02*
X115174141Y-139091538D01*
X115174141Y-139091538D02*
X115078903Y-139186776D01*
X115078903Y-139186776D02*
X115031284Y-139282014D01*
X115031284Y-139282014D02*
X114983665Y-139472490D01*
X114983665Y-139472490D02*
X114983665Y-139615347D01*
X114983665Y-139615347D02*
X115031284Y-139805823D01*
X115031284Y-139805823D02*
X115078903Y-139901061D01*
X115078903Y-139901061D02*
X115174141Y-139996300D01*
X115174141Y-139996300D02*
X115316998Y-140043919D01*
X115316998Y-140043919D02*
X115412236Y-140043919D01*
X115412236Y-140043919D02*
X115555093Y-139996300D01*
X115555093Y-139996300D02*
X115602712Y-139948680D01*
X115602712Y-139948680D02*
X115602712Y-139615347D01*
X115602712Y-139615347D02*
X115412236Y-139615347D01*
X116031284Y-140043919D02*
X116031284Y-139043919D01*
X116031284Y-139043919D02*
X116602712Y-140043919D01*
X116602712Y-140043919D02*
X116602712Y-139043919D01*
X117078903Y-140043919D02*
X117078903Y-139043919D01*
X117078903Y-139043919D02*
X117316998Y-139043919D01*
X117316998Y-139043919D02*
X117459855Y-139091538D01*
X117459855Y-139091538D02*
X117555093Y-139186776D01*
X117555093Y-139186776D02*
X117602712Y-139282014D01*
X117602712Y-139282014D02*
X117650331Y-139472490D01*
X117650331Y-139472490D02*
X117650331Y-139615347D01*
X117650331Y-139615347D02*
X117602712Y-139805823D01*
X117602712Y-139805823D02*
X117555093Y-139901061D01*
X117555093Y-139901061D02*
X117459855Y-139996300D01*
X117459855Y-139996300D02*
X117316998Y-140043919D01*
X117316998Y-140043919D02*
X117078903Y-140043919D01*
D11*
X137719819Y-101159166D02*
X137243628Y-101492499D01*
X137719819Y-101730594D02*
X136719819Y-101730594D01*
X136719819Y-101730594D02*
X136719819Y-101349642D01*
X136719819Y-101349642D02*
X136767438Y-101254404D01*
X136767438Y-101254404D02*
X136815057Y-101206785D01*
X136815057Y-101206785D02*
X136910295Y-101159166D01*
X136910295Y-101159166D02*
X137053152Y-101159166D01*
X137053152Y-101159166D02*
X137148390Y-101206785D01*
X137148390Y-101206785D02*
X137196009Y-101254404D01*
X137196009Y-101254404D02*
X137243628Y-101349642D01*
X137243628Y-101349642D02*
X137243628Y-101730594D01*
X136815057Y-100778213D02*
X136767438Y-100730594D01*
X136767438Y-100730594D02*
X136719819Y-100635356D01*
X136719819Y-100635356D02*
X136719819Y-100397261D01*
X136719819Y-100397261D02*
X136767438Y-100302023D01*
X136767438Y-100302023D02*
X136815057Y-100254404D01*
X136815057Y-100254404D02*
X136910295Y-100206785D01*
X136910295Y-100206785D02*
X137005533Y-100206785D01*
X137005533Y-100206785D02*
X137148390Y-100254404D01*
X137148390Y-100254404D02*
X137719819Y-100825832D01*
X137719819Y-100825832D02*
X137719819Y-100206785D01*
X125543333Y-106979580D02*
X125495714Y-107027200D01*
X125495714Y-107027200D02*
X125352857Y-107074819D01*
X125352857Y-107074819D02*
X125257619Y-107074819D01*
X125257619Y-107074819D02*
X125114762Y-107027200D01*
X125114762Y-107027200D02*
X125019524Y-106931961D01*
X125019524Y-106931961D02*
X124971905Y-106836723D01*
X124971905Y-106836723D02*
X124924286Y-106646247D01*
X124924286Y-106646247D02*
X124924286Y-106503390D01*
X124924286Y-106503390D02*
X124971905Y-106312914D01*
X124971905Y-106312914D02*
X125019524Y-106217676D01*
X125019524Y-106217676D02*
X125114762Y-106122438D01*
X125114762Y-106122438D02*
X125257619Y-106074819D01*
X125257619Y-106074819D02*
X125352857Y-106074819D01*
X125352857Y-106074819D02*
X125495714Y-106122438D01*
X125495714Y-106122438D02*
X125543333Y-106170057D01*
X125924286Y-106170057D02*
X125971905Y-106122438D01*
X125971905Y-106122438D02*
X126067143Y-106074819D01*
X126067143Y-106074819D02*
X126305238Y-106074819D01*
X126305238Y-106074819D02*
X126400476Y-106122438D01*
X126400476Y-106122438D02*
X126448095Y-106170057D01*
X126448095Y-106170057D02*
X126495714Y-106265295D01*
X126495714Y-106265295D02*
X126495714Y-106360533D01*
X126495714Y-106360533D02*
X126448095Y-106503390D01*
X126448095Y-106503390D02*
X125876667Y-107074819D01*
X125876667Y-107074819D02*
X126495714Y-107074819D01*
X121753333Y-115569819D02*
X121420000Y-115093628D01*
X121181905Y-115569819D02*
X121181905Y-114569819D01*
X121181905Y-114569819D02*
X121562857Y-114569819D01*
X121562857Y-114569819D02*
X121658095Y-114617438D01*
X121658095Y-114617438D02*
X121705714Y-114665057D01*
X121705714Y-114665057D02*
X121753333Y-114760295D01*
X121753333Y-114760295D02*
X121753333Y-114903152D01*
X121753333Y-114903152D02*
X121705714Y-114998390D01*
X121705714Y-114998390D02*
X121658095Y-115046009D01*
X121658095Y-115046009D02*
X121562857Y-115093628D01*
X121562857Y-115093628D02*
X121181905Y-115093628D01*
X122086667Y-114569819D02*
X122705714Y-114569819D01*
X122705714Y-114569819D02*
X122372381Y-114950771D01*
X122372381Y-114950771D02*
X122515238Y-114950771D01*
X122515238Y-114950771D02*
X122610476Y-114998390D01*
X122610476Y-114998390D02*
X122658095Y-115046009D01*
X122658095Y-115046009D02*
X122705714Y-115141247D01*
X122705714Y-115141247D02*
X122705714Y-115379342D01*
X122705714Y-115379342D02*
X122658095Y-115474580D01*
X122658095Y-115474580D02*
X122610476Y-115522200D01*
X122610476Y-115522200D02*
X122515238Y-115569819D01*
X122515238Y-115569819D02*
X122229524Y-115569819D01*
X122229524Y-115569819D02*
X122134286Y-115522200D01*
X122134286Y-115522200D02*
X122086667Y-115474580D01*
X147435219Y-80657604D02*
X148244742Y-80657604D01*
X148244742Y-80657604D02*
X148339980Y-80609985D01*
X148339980Y-80609985D02*
X148387600Y-80562366D01*
X148387600Y-80562366D02*
X148435219Y-80467128D01*
X148435219Y-80467128D02*
X148435219Y-80276652D01*
X148435219Y-80276652D02*
X148387600Y-80181414D01*
X148387600Y-80181414D02*
X148339980Y-80133795D01*
X148339980Y-80133795D02*
X148244742Y-80086176D01*
X148244742Y-80086176D02*
X147435219Y-80086176D01*
X147530457Y-79657604D02*
X147482838Y-79609985D01*
X147482838Y-79609985D02*
X147435219Y-79514747D01*
X147435219Y-79514747D02*
X147435219Y-79276652D01*
X147435219Y-79276652D02*
X147482838Y-79181414D01*
X147482838Y-79181414D02*
X147530457Y-79133795D01*
X147530457Y-79133795D02*
X147625695Y-79086176D01*
X147625695Y-79086176D02*
X147720933Y-79086176D01*
X147720933Y-79086176D02*
X147863790Y-79133795D01*
X147863790Y-79133795D02*
X148435219Y-79705223D01*
X148435219Y-79705223D02*
X148435219Y-79086176D01*
D12*
X154686915Y-70015680D02*
X154686915Y-71015680D01*
X154210725Y-70015680D02*
X154210725Y-71015680D01*
X154210725Y-71015680D02*
X153639297Y-70015680D01*
X153639297Y-70015680D02*
X153639297Y-71015680D01*
X153163106Y-70396633D02*
X152401202Y-70396633D01*
X154686915Y-87744880D02*
X154686915Y-88744880D01*
X154210725Y-87744880D02*
X154210725Y-88744880D01*
X154210725Y-88744880D02*
X153639297Y-87744880D01*
X153639297Y-87744880D02*
X153639297Y-88744880D01*
X153163106Y-88125833D02*
X152401202Y-88125833D01*
X152782154Y-87744880D02*
X152782154Y-88506785D01*
X122441639Y-71015680D02*
X122251163Y-71015680D01*
X122251163Y-71015680D02*
X122155925Y-70968061D01*
X122155925Y-70968061D02*
X122060687Y-70872823D01*
X122060687Y-70872823D02*
X122013068Y-70682347D01*
X122013068Y-70682347D02*
X122013068Y-70349014D01*
X122013068Y-70349014D02*
X122060687Y-70158538D01*
X122060687Y-70158538D02*
X122155925Y-70063300D01*
X122155925Y-70063300D02*
X122251163Y-70015680D01*
X122251163Y-70015680D02*
X122441639Y-70015680D01*
X122441639Y-70015680D02*
X122536877Y-70063300D01*
X122536877Y-70063300D02*
X122632115Y-70158538D01*
X122632115Y-70158538D02*
X122679734Y-70349014D01*
X122679734Y-70349014D02*
X122679734Y-70682347D01*
X122679734Y-70682347D02*
X122632115Y-70872823D01*
X122632115Y-70872823D02*
X122536877Y-70968061D01*
X122536877Y-70968061D02*
X122441639Y-71015680D01*
X121584496Y-71015680D02*
X121584496Y-70206157D01*
X121584496Y-70206157D02*
X121536877Y-70110919D01*
X121536877Y-70110919D02*
X121489258Y-70063300D01*
X121489258Y-70063300D02*
X121394020Y-70015680D01*
X121394020Y-70015680D02*
X121203544Y-70015680D01*
X121203544Y-70015680D02*
X121108306Y-70063300D01*
X121108306Y-70063300D02*
X121060687Y-70110919D01*
X121060687Y-70110919D02*
X121013068Y-70206157D01*
X121013068Y-70206157D02*
X121013068Y-71015680D01*
X120679734Y-71015680D02*
X120108306Y-71015680D01*
X120394020Y-70015680D02*
X120394020Y-71015680D01*
X119774972Y-70396633D02*
X119013068Y-70396633D01*
X122644839Y-88897280D02*
X122454363Y-88897280D01*
X122454363Y-88897280D02*
X122359125Y-88849661D01*
X122359125Y-88849661D02*
X122263887Y-88754423D01*
X122263887Y-88754423D02*
X122216268Y-88563947D01*
X122216268Y-88563947D02*
X122216268Y-88230614D01*
X122216268Y-88230614D02*
X122263887Y-88040138D01*
X122263887Y-88040138D02*
X122359125Y-87944900D01*
X122359125Y-87944900D02*
X122454363Y-87897280D01*
X122454363Y-87897280D02*
X122644839Y-87897280D01*
X122644839Y-87897280D02*
X122740077Y-87944900D01*
X122740077Y-87944900D02*
X122835315Y-88040138D01*
X122835315Y-88040138D02*
X122882934Y-88230614D01*
X122882934Y-88230614D02*
X122882934Y-88563947D01*
X122882934Y-88563947D02*
X122835315Y-88754423D01*
X122835315Y-88754423D02*
X122740077Y-88849661D01*
X122740077Y-88849661D02*
X122644839Y-88897280D01*
X121787696Y-88897280D02*
X121787696Y-88087757D01*
X121787696Y-88087757D02*
X121740077Y-87992519D01*
X121740077Y-87992519D02*
X121692458Y-87944900D01*
X121692458Y-87944900D02*
X121597220Y-87897280D01*
X121597220Y-87897280D02*
X121406744Y-87897280D01*
X121406744Y-87897280D02*
X121311506Y-87944900D01*
X121311506Y-87944900D02*
X121263887Y-87992519D01*
X121263887Y-87992519D02*
X121216268Y-88087757D01*
X121216268Y-88087757D02*
X121216268Y-88897280D01*
X120882934Y-88897280D02*
X120311506Y-88897280D01*
X120597220Y-87897280D02*
X120597220Y-88897280D01*
X119978172Y-88278233D02*
X119216268Y-88278233D01*
X119597220Y-87897280D02*
X119597220Y-88659185D01*
D11*
X96647095Y-106576019D02*
X96647095Y-107385542D01*
X96647095Y-107385542D02*
X96694714Y-107480780D01*
X96694714Y-107480780D02*
X96742333Y-107528400D01*
X96742333Y-107528400D02*
X96837571Y-107576019D01*
X96837571Y-107576019D02*
X97028047Y-107576019D01*
X97028047Y-107576019D02*
X97123285Y-107528400D01*
X97123285Y-107528400D02*
X97170904Y-107480780D01*
X97170904Y-107480780D02*
X97218523Y-107385542D01*
X97218523Y-107385542D02*
X97218523Y-106576019D01*
X98218523Y-107576019D02*
X97647095Y-107576019D01*
X97932809Y-107576019D02*
X97932809Y-106576019D01*
X97932809Y-106576019D02*
X97837571Y-106718876D01*
X97837571Y-106718876D02*
X97742333Y-106814114D01*
X97742333Y-106814114D02*
X97647095Y-106861733D01*
D12*
X107011115Y-80680380D02*
X107011115Y-81680380D01*
X107011115Y-81680380D02*
X106630163Y-81680380D01*
X106630163Y-81680380D02*
X106534925Y-81632761D01*
X106534925Y-81632761D02*
X106487306Y-81585142D01*
X106487306Y-81585142D02*
X106439687Y-81489904D01*
X106439687Y-81489904D02*
X106439687Y-81347047D01*
X106439687Y-81347047D02*
X106487306Y-81251809D01*
X106487306Y-81251809D02*
X106534925Y-81204190D01*
X106534925Y-81204190D02*
X106630163Y-81156571D01*
X106630163Y-81156571D02*
X107011115Y-81156571D01*
X105487306Y-80680380D02*
X106058734Y-80680380D01*
X105773020Y-80680380D02*
X105773020Y-81680380D01*
X105773020Y-81680380D02*
X105868258Y-81537523D01*
X105868258Y-81537523D02*
X105963496Y-81442285D01*
X105963496Y-81442285D02*
X106058734Y-81394666D01*
X105153972Y-81680380D02*
X104534925Y-81680380D01*
X104534925Y-81680380D02*
X104868258Y-81299428D01*
X104868258Y-81299428D02*
X104725401Y-81299428D01*
X104725401Y-81299428D02*
X104630163Y-81251809D01*
X104630163Y-81251809D02*
X104582544Y-81204190D01*
X104582544Y-81204190D02*
X104534925Y-81108952D01*
X104534925Y-81108952D02*
X104534925Y-80870857D01*
X104534925Y-80870857D02*
X104582544Y-80775619D01*
X104582544Y-80775619D02*
X104630163Y-80728000D01*
X104630163Y-80728000D02*
X104725401Y-80680380D01*
X104725401Y-80680380D02*
X105011115Y-80680380D01*
X105011115Y-80680380D02*
X105106353Y-80728000D01*
X105106353Y-80728000D02*
X105153972Y-80775619D01*
X89789915Y-90840380D02*
X89789915Y-91840380D01*
X89789915Y-91840380D02*
X89408963Y-91840380D01*
X89408963Y-91840380D02*
X89313725Y-91792761D01*
X89313725Y-91792761D02*
X89266106Y-91745142D01*
X89266106Y-91745142D02*
X89218487Y-91649904D01*
X89218487Y-91649904D02*
X89218487Y-91507047D01*
X89218487Y-91507047D02*
X89266106Y-91411809D01*
X89266106Y-91411809D02*
X89313725Y-91364190D01*
X89313725Y-91364190D02*
X89408963Y-91316571D01*
X89408963Y-91316571D02*
X89789915Y-91316571D01*
X88266106Y-90840380D02*
X88837534Y-90840380D01*
X88551820Y-90840380D02*
X88551820Y-91840380D01*
X88551820Y-91840380D02*
X88647058Y-91697523D01*
X88647058Y-91697523D02*
X88742296Y-91602285D01*
X88742296Y-91602285D02*
X88837534Y-91554666D01*
X87932772Y-91840380D02*
X87266106Y-91840380D01*
X87266106Y-91840380D02*
X87694677Y-90840380D01*
X89789915Y-95920380D02*
X89789915Y-96920380D01*
X89789915Y-96920380D02*
X89408963Y-96920380D01*
X89408963Y-96920380D02*
X89313725Y-96872761D01*
X89313725Y-96872761D02*
X89266106Y-96825142D01*
X89266106Y-96825142D02*
X89218487Y-96729904D01*
X89218487Y-96729904D02*
X89218487Y-96587047D01*
X89218487Y-96587047D02*
X89266106Y-96491809D01*
X89266106Y-96491809D02*
X89313725Y-96444190D01*
X89313725Y-96444190D02*
X89408963Y-96396571D01*
X89408963Y-96396571D02*
X89789915Y-96396571D01*
X88266106Y-95920380D02*
X88837534Y-95920380D01*
X88551820Y-95920380D02*
X88551820Y-96920380D01*
X88551820Y-96920380D02*
X88647058Y-96777523D01*
X88647058Y-96777523D02*
X88742296Y-96682285D01*
X88742296Y-96682285D02*
X88837534Y-96634666D01*
X87694677Y-96491809D02*
X87789915Y-96539428D01*
X87789915Y-96539428D02*
X87837534Y-96587047D01*
X87837534Y-96587047D02*
X87885153Y-96682285D01*
X87885153Y-96682285D02*
X87885153Y-96729904D01*
X87885153Y-96729904D02*
X87837534Y-96825142D01*
X87837534Y-96825142D02*
X87789915Y-96872761D01*
X87789915Y-96872761D02*
X87694677Y-96920380D01*
X87694677Y-96920380D02*
X87504201Y-96920380D01*
X87504201Y-96920380D02*
X87408963Y-96872761D01*
X87408963Y-96872761D02*
X87361344Y-96825142D01*
X87361344Y-96825142D02*
X87313725Y-96729904D01*
X87313725Y-96729904D02*
X87313725Y-96682285D01*
X87313725Y-96682285D02*
X87361344Y-96587047D01*
X87361344Y-96587047D02*
X87408963Y-96539428D01*
X87408963Y-96539428D02*
X87504201Y-96491809D01*
X87504201Y-96491809D02*
X87694677Y-96491809D01*
X87694677Y-96491809D02*
X87789915Y-96444190D01*
X87789915Y-96444190D02*
X87837534Y-96396571D01*
X87837534Y-96396571D02*
X87885153Y-96301333D01*
X87885153Y-96301333D02*
X87885153Y-96110857D01*
X87885153Y-96110857D02*
X87837534Y-96015619D01*
X87837534Y-96015619D02*
X87789915Y-95968000D01*
X87789915Y-95968000D02*
X87694677Y-95920380D01*
X87694677Y-95920380D02*
X87504201Y-95920380D01*
X87504201Y-95920380D02*
X87408963Y-95968000D01*
X87408963Y-95968000D02*
X87361344Y-96015619D01*
X87361344Y-96015619D02*
X87313725Y-96110857D01*
X87313725Y-96110857D02*
X87313725Y-96301333D01*
X87313725Y-96301333D02*
X87361344Y-96396571D01*
X87361344Y-96396571D02*
X87408963Y-96444190D01*
X87408963Y-96444190D02*
X87504201Y-96491809D01*
X107007934Y-108515600D02*
X106865077Y-108467980D01*
X106865077Y-108467980D02*
X106626982Y-108467980D01*
X106626982Y-108467980D02*
X106531744Y-108515600D01*
X106531744Y-108515600D02*
X106484125Y-108563219D01*
X106484125Y-108563219D02*
X106436506Y-108658457D01*
X106436506Y-108658457D02*
X106436506Y-108753695D01*
X106436506Y-108753695D02*
X106484125Y-108848933D01*
X106484125Y-108848933D02*
X106531744Y-108896552D01*
X106531744Y-108896552D02*
X106626982Y-108944171D01*
X106626982Y-108944171D02*
X106817458Y-108991790D01*
X106817458Y-108991790D02*
X106912696Y-109039409D01*
X106912696Y-109039409D02*
X106960315Y-109087028D01*
X106960315Y-109087028D02*
X107007934Y-109182266D01*
X107007934Y-109182266D02*
X107007934Y-109277504D01*
X107007934Y-109277504D02*
X106960315Y-109372742D01*
X106960315Y-109372742D02*
X106912696Y-109420361D01*
X106912696Y-109420361D02*
X106817458Y-109467980D01*
X106817458Y-109467980D02*
X106579363Y-109467980D01*
X106579363Y-109467980D02*
X106436506Y-109420361D01*
X106150791Y-109467980D02*
X105817458Y-108467980D01*
X105817458Y-108467980D02*
X105484125Y-109467980D01*
X105150791Y-108467980D02*
X105150791Y-109467980D01*
X105150791Y-109467980D02*
X104579363Y-108467980D01*
X104579363Y-108467980D02*
X104579363Y-109467980D01*
X107011115Y-105978780D02*
X107011115Y-106978780D01*
X107011115Y-106978780D02*
X106630163Y-106978780D01*
X106630163Y-106978780D02*
X106534925Y-106931161D01*
X106534925Y-106931161D02*
X106487306Y-106883542D01*
X106487306Y-106883542D02*
X106439687Y-106788304D01*
X106439687Y-106788304D02*
X106439687Y-106645447D01*
X106439687Y-106645447D02*
X106487306Y-106550209D01*
X106487306Y-106550209D02*
X106534925Y-106502590D01*
X106534925Y-106502590D02*
X106630163Y-106454971D01*
X106630163Y-106454971D02*
X107011115Y-106454971D01*
X106106353Y-106978780D02*
X105487306Y-106978780D01*
X105487306Y-106978780D02*
X105820639Y-106597828D01*
X105820639Y-106597828D02*
X105677782Y-106597828D01*
X105677782Y-106597828D02*
X105582544Y-106550209D01*
X105582544Y-106550209D02*
X105534925Y-106502590D01*
X105534925Y-106502590D02*
X105487306Y-106407352D01*
X105487306Y-106407352D02*
X105487306Y-106169257D01*
X105487306Y-106169257D02*
X105534925Y-106074019D01*
X105534925Y-106074019D02*
X105582544Y-106026400D01*
X105582544Y-106026400D02*
X105677782Y-105978780D01*
X105677782Y-105978780D02*
X105963496Y-105978780D01*
X105963496Y-105978780D02*
X106058734Y-106026400D01*
X106058734Y-106026400D02*
X106106353Y-106074019D01*
X104630163Y-106645447D02*
X104630163Y-105978780D01*
X104868258Y-107026400D02*
X105106353Y-106312114D01*
X105106353Y-106312114D02*
X104487306Y-106312114D01*
X106439687Y-73155619D02*
X106487306Y-73108000D01*
X106487306Y-73108000D02*
X106630163Y-73060380D01*
X106630163Y-73060380D02*
X106725401Y-73060380D01*
X106725401Y-73060380D02*
X106868258Y-73108000D01*
X106868258Y-73108000D02*
X106963496Y-73203238D01*
X106963496Y-73203238D02*
X107011115Y-73298476D01*
X107011115Y-73298476D02*
X107058734Y-73488952D01*
X107058734Y-73488952D02*
X107058734Y-73631809D01*
X107058734Y-73631809D02*
X107011115Y-73822285D01*
X107011115Y-73822285D02*
X106963496Y-73917523D01*
X106963496Y-73917523D02*
X106868258Y-74012761D01*
X106868258Y-74012761D02*
X106725401Y-74060380D01*
X106725401Y-74060380D02*
X106630163Y-74060380D01*
X106630163Y-74060380D02*
X106487306Y-74012761D01*
X106487306Y-74012761D02*
X106439687Y-73965142D01*
X106011115Y-73060380D02*
X106011115Y-74060380D01*
X106011115Y-74060380D02*
X105439687Y-73060380D01*
X105439687Y-73060380D02*
X105439687Y-74060380D01*
X104963496Y-73060380D02*
X104963496Y-74060380D01*
X104963496Y-74060380D02*
X104725401Y-74060380D01*
X104725401Y-74060380D02*
X104582544Y-74012761D01*
X104582544Y-74012761D02*
X104487306Y-73917523D01*
X104487306Y-73917523D02*
X104439687Y-73822285D01*
X104439687Y-73822285D02*
X104392068Y-73631809D01*
X104392068Y-73631809D02*
X104392068Y-73488952D01*
X104392068Y-73488952D02*
X104439687Y-73298476D01*
X104439687Y-73298476D02*
X104487306Y-73203238D01*
X104487306Y-73203238D02*
X104582544Y-73108000D01*
X104582544Y-73108000D02*
X104725401Y-73060380D01*
X104725401Y-73060380D02*
X104963496Y-73060380D01*
X107011115Y-100949580D02*
X107011115Y-101949580D01*
X107011115Y-101949580D02*
X106630163Y-101949580D01*
X106630163Y-101949580D02*
X106534925Y-101901961D01*
X106534925Y-101901961D02*
X106487306Y-101854342D01*
X106487306Y-101854342D02*
X106439687Y-101759104D01*
X106439687Y-101759104D02*
X106439687Y-101616247D01*
X106439687Y-101616247D02*
X106487306Y-101521009D01*
X106487306Y-101521009D02*
X106534925Y-101473390D01*
X106534925Y-101473390D02*
X106630163Y-101425771D01*
X106630163Y-101425771D02*
X107011115Y-101425771D01*
X106106353Y-101949580D02*
X105487306Y-101949580D01*
X105487306Y-101949580D02*
X105820639Y-101568628D01*
X105820639Y-101568628D02*
X105677782Y-101568628D01*
X105677782Y-101568628D02*
X105582544Y-101521009D01*
X105582544Y-101521009D02*
X105534925Y-101473390D01*
X105534925Y-101473390D02*
X105487306Y-101378152D01*
X105487306Y-101378152D02*
X105487306Y-101140057D01*
X105487306Y-101140057D02*
X105534925Y-101044819D01*
X105534925Y-101044819D02*
X105582544Y-100997200D01*
X105582544Y-100997200D02*
X105677782Y-100949580D01*
X105677782Y-100949580D02*
X105963496Y-100949580D01*
X105963496Y-100949580D02*
X106058734Y-100997200D01*
X106058734Y-100997200D02*
X106106353Y-101044819D01*
X105106353Y-101854342D02*
X105058734Y-101901961D01*
X105058734Y-101901961D02*
X104963496Y-101949580D01*
X104963496Y-101949580D02*
X104725401Y-101949580D01*
X104725401Y-101949580D02*
X104630163Y-101901961D01*
X104630163Y-101901961D02*
X104582544Y-101854342D01*
X104582544Y-101854342D02*
X104534925Y-101759104D01*
X104534925Y-101759104D02*
X104534925Y-101663866D01*
X104534925Y-101663866D02*
X104582544Y-101521009D01*
X104582544Y-101521009D02*
X105153972Y-100949580D01*
X105153972Y-100949580D02*
X104534925Y-100949580D01*
X89789915Y-80680380D02*
X89789915Y-81680380D01*
X89789915Y-81680380D02*
X89408963Y-81680380D01*
X89408963Y-81680380D02*
X89313725Y-81632761D01*
X89313725Y-81632761D02*
X89266106Y-81585142D01*
X89266106Y-81585142D02*
X89218487Y-81489904D01*
X89218487Y-81489904D02*
X89218487Y-81347047D01*
X89218487Y-81347047D02*
X89266106Y-81251809D01*
X89266106Y-81251809D02*
X89313725Y-81204190D01*
X89313725Y-81204190D02*
X89408963Y-81156571D01*
X89408963Y-81156571D02*
X89789915Y-81156571D01*
X88837534Y-81585142D02*
X88789915Y-81632761D01*
X88789915Y-81632761D02*
X88694677Y-81680380D01*
X88694677Y-81680380D02*
X88456582Y-81680380D01*
X88456582Y-81680380D02*
X88361344Y-81632761D01*
X88361344Y-81632761D02*
X88313725Y-81585142D01*
X88313725Y-81585142D02*
X88266106Y-81489904D01*
X88266106Y-81489904D02*
X88266106Y-81394666D01*
X88266106Y-81394666D02*
X88313725Y-81251809D01*
X88313725Y-81251809D02*
X88885153Y-80680380D01*
X88885153Y-80680380D02*
X88266106Y-80680380D01*
X89316906Y-101952761D02*
X89412144Y-102000380D01*
X89412144Y-102000380D02*
X89555001Y-102000380D01*
X89555001Y-102000380D02*
X89697858Y-101952761D01*
X89697858Y-101952761D02*
X89793096Y-101857523D01*
X89793096Y-101857523D02*
X89840715Y-101762285D01*
X89840715Y-101762285D02*
X89888334Y-101571809D01*
X89888334Y-101571809D02*
X89888334Y-101428952D01*
X89888334Y-101428952D02*
X89840715Y-101238476D01*
X89840715Y-101238476D02*
X89793096Y-101143238D01*
X89793096Y-101143238D02*
X89697858Y-101048000D01*
X89697858Y-101048000D02*
X89555001Y-101000380D01*
X89555001Y-101000380D02*
X89459763Y-101000380D01*
X89459763Y-101000380D02*
X89316906Y-101048000D01*
X89316906Y-101048000D02*
X89269287Y-101095619D01*
X89269287Y-101095619D02*
X89269287Y-101428952D01*
X89269287Y-101428952D02*
X89459763Y-101428952D01*
X88840715Y-101000380D02*
X88840715Y-102000380D01*
X88840715Y-102000380D02*
X88269287Y-101000380D01*
X88269287Y-101000380D02*
X88269287Y-102000380D01*
X87793096Y-101000380D02*
X87793096Y-102000380D01*
X87793096Y-102000380D02*
X87555001Y-102000380D01*
X87555001Y-102000380D02*
X87412144Y-101952761D01*
X87412144Y-101952761D02*
X87316906Y-101857523D01*
X87316906Y-101857523D02*
X87269287Y-101762285D01*
X87269287Y-101762285D02*
X87221668Y-101571809D01*
X87221668Y-101571809D02*
X87221668Y-101428952D01*
X87221668Y-101428952D02*
X87269287Y-101238476D01*
X87269287Y-101238476D02*
X87316906Y-101143238D01*
X87316906Y-101143238D02*
X87412144Y-101048000D01*
X87412144Y-101048000D02*
X87555001Y-101000380D01*
X87555001Y-101000380D02*
X87793096Y-101000380D01*
X89739115Y-113598780D02*
X89739115Y-114598780D01*
X89739115Y-114598780D02*
X89358163Y-114598780D01*
X89358163Y-114598780D02*
X89262925Y-114551161D01*
X89262925Y-114551161D02*
X89215306Y-114503542D01*
X89215306Y-114503542D02*
X89167687Y-114408304D01*
X89167687Y-114408304D02*
X89167687Y-114265447D01*
X89167687Y-114265447D02*
X89215306Y-114170209D01*
X89215306Y-114170209D02*
X89262925Y-114122590D01*
X89262925Y-114122590D02*
X89358163Y-114074971D01*
X89358163Y-114074971D02*
X89739115Y-114074971D01*
X88786734Y-114503542D02*
X88739115Y-114551161D01*
X88739115Y-114551161D02*
X88643877Y-114598780D01*
X88643877Y-114598780D02*
X88405782Y-114598780D01*
X88405782Y-114598780D02*
X88310544Y-114551161D01*
X88310544Y-114551161D02*
X88262925Y-114503542D01*
X88262925Y-114503542D02*
X88215306Y-114408304D01*
X88215306Y-114408304D02*
X88215306Y-114313066D01*
X88215306Y-114313066D02*
X88262925Y-114170209D01*
X88262925Y-114170209D02*
X88834353Y-113598780D01*
X88834353Y-113598780D02*
X88215306Y-113598780D01*
X87881972Y-114598780D02*
X87262925Y-114598780D01*
X87262925Y-114598780D02*
X87596258Y-114217828D01*
X87596258Y-114217828D02*
X87453401Y-114217828D01*
X87453401Y-114217828D02*
X87358163Y-114170209D01*
X87358163Y-114170209D02*
X87310544Y-114122590D01*
X87310544Y-114122590D02*
X87262925Y-114027352D01*
X87262925Y-114027352D02*
X87262925Y-113789257D01*
X87262925Y-113789257D02*
X87310544Y-113694019D01*
X87310544Y-113694019D02*
X87358163Y-113646400D01*
X87358163Y-113646400D02*
X87453401Y-113598780D01*
X87453401Y-113598780D02*
X87739115Y-113598780D01*
X87739115Y-113598780D02*
X87834353Y-113646400D01*
X87834353Y-113646400D02*
X87881972Y-113694019D01*
X107011115Y-88300380D02*
X107011115Y-89300380D01*
X107011115Y-89300380D02*
X106630163Y-89300380D01*
X106630163Y-89300380D02*
X106534925Y-89252761D01*
X106534925Y-89252761D02*
X106487306Y-89205142D01*
X106487306Y-89205142D02*
X106439687Y-89109904D01*
X106439687Y-89109904D02*
X106439687Y-88967047D01*
X106439687Y-88967047D02*
X106487306Y-88871809D01*
X106487306Y-88871809D02*
X106534925Y-88824190D01*
X106534925Y-88824190D02*
X106630163Y-88776571D01*
X106630163Y-88776571D02*
X107011115Y-88776571D01*
X105487306Y-88300380D02*
X106058734Y-88300380D01*
X105773020Y-88300380D02*
X105773020Y-89300380D01*
X105773020Y-89300380D02*
X105868258Y-89157523D01*
X105868258Y-89157523D02*
X105963496Y-89062285D01*
X105963496Y-89062285D02*
X106058734Y-89014666D01*
X104630163Y-88967047D02*
X104630163Y-88300380D01*
X104868258Y-89348000D02*
X105106353Y-88633714D01*
X105106353Y-88633714D02*
X104487306Y-88633714D01*
X89218487Y-106080380D02*
X89551820Y-106556571D01*
X89789915Y-106080380D02*
X89789915Y-107080380D01*
X89789915Y-107080380D02*
X89408963Y-107080380D01*
X89408963Y-107080380D02*
X89313725Y-107032761D01*
X89313725Y-107032761D02*
X89266106Y-106985142D01*
X89266106Y-106985142D02*
X89218487Y-106889904D01*
X89218487Y-106889904D02*
X89218487Y-106747047D01*
X89218487Y-106747047D02*
X89266106Y-106651809D01*
X89266106Y-106651809D02*
X89313725Y-106604190D01*
X89313725Y-106604190D02*
X89408963Y-106556571D01*
X89408963Y-106556571D02*
X89789915Y-106556571D01*
X88885153Y-107080380D02*
X88218487Y-106080380D01*
X88218487Y-107080380D02*
X88885153Y-106080380D01*
X89786734Y-75698800D02*
X89643877Y-75651180D01*
X89643877Y-75651180D02*
X89405782Y-75651180D01*
X89405782Y-75651180D02*
X89310544Y-75698800D01*
X89310544Y-75698800D02*
X89262925Y-75746419D01*
X89262925Y-75746419D02*
X89215306Y-75841657D01*
X89215306Y-75841657D02*
X89215306Y-75936895D01*
X89215306Y-75936895D02*
X89262925Y-76032133D01*
X89262925Y-76032133D02*
X89310544Y-76079752D01*
X89310544Y-76079752D02*
X89405782Y-76127371D01*
X89405782Y-76127371D02*
X89596258Y-76174990D01*
X89596258Y-76174990D02*
X89691496Y-76222609D01*
X89691496Y-76222609D02*
X89739115Y-76270228D01*
X89739115Y-76270228D02*
X89786734Y-76365466D01*
X89786734Y-76365466D02*
X89786734Y-76460704D01*
X89786734Y-76460704D02*
X89739115Y-76555942D01*
X89739115Y-76555942D02*
X89691496Y-76603561D01*
X89691496Y-76603561D02*
X89596258Y-76651180D01*
X89596258Y-76651180D02*
X89358163Y-76651180D01*
X89358163Y-76651180D02*
X89215306Y-76603561D01*
X88786734Y-75651180D02*
X88786734Y-76651180D01*
X88786734Y-76651180D02*
X88548639Y-76651180D01*
X88548639Y-76651180D02*
X88405782Y-76603561D01*
X88405782Y-76603561D02*
X88310544Y-76508323D01*
X88310544Y-76508323D02*
X88262925Y-76413085D01*
X88262925Y-76413085D02*
X88215306Y-76222609D01*
X88215306Y-76222609D02*
X88215306Y-76079752D01*
X88215306Y-76079752D02*
X88262925Y-75889276D01*
X88262925Y-75889276D02*
X88310544Y-75794038D01*
X88310544Y-75794038D02*
X88405782Y-75698800D01*
X88405782Y-75698800D02*
X88548639Y-75651180D01*
X88548639Y-75651180D02*
X88786734Y-75651180D01*
X87262925Y-75651180D02*
X87834353Y-75651180D01*
X87548639Y-75651180D02*
X87548639Y-76651180D01*
X87548639Y-76651180D02*
X87643877Y-76508323D01*
X87643877Y-76508323D02*
X87739115Y-76413085D01*
X87739115Y-76413085D02*
X87834353Y-76365466D01*
X89789915Y-98561980D02*
X89789915Y-99561980D01*
X89789915Y-99561980D02*
X89408963Y-99561980D01*
X89408963Y-99561980D02*
X89313725Y-99514361D01*
X89313725Y-99514361D02*
X89266106Y-99466742D01*
X89266106Y-99466742D02*
X89218487Y-99371504D01*
X89218487Y-99371504D02*
X89218487Y-99228647D01*
X89218487Y-99228647D02*
X89266106Y-99133409D01*
X89266106Y-99133409D02*
X89313725Y-99085790D01*
X89313725Y-99085790D02*
X89408963Y-99038171D01*
X89408963Y-99038171D02*
X89789915Y-99038171D01*
X88266106Y-98561980D02*
X88837534Y-98561980D01*
X88551820Y-98561980D02*
X88551820Y-99561980D01*
X88551820Y-99561980D02*
X88647058Y-99419123D01*
X88647058Y-99419123D02*
X88742296Y-99323885D01*
X88742296Y-99323885D02*
X88837534Y-99276266D01*
X87789915Y-98561980D02*
X87599439Y-98561980D01*
X87599439Y-98561980D02*
X87504201Y-98609600D01*
X87504201Y-98609600D02*
X87456582Y-98657219D01*
X87456582Y-98657219D02*
X87361344Y-98800076D01*
X87361344Y-98800076D02*
X87313725Y-98990552D01*
X87313725Y-98990552D02*
X87313725Y-99371504D01*
X87313725Y-99371504D02*
X87361344Y-99466742D01*
X87361344Y-99466742D02*
X87408963Y-99514361D01*
X87408963Y-99514361D02*
X87504201Y-99561980D01*
X87504201Y-99561980D02*
X87694677Y-99561980D01*
X87694677Y-99561980D02*
X87789915Y-99514361D01*
X87789915Y-99514361D02*
X87837534Y-99466742D01*
X87837534Y-99466742D02*
X87885153Y-99371504D01*
X87885153Y-99371504D02*
X87885153Y-99133409D01*
X87885153Y-99133409D02*
X87837534Y-99038171D01*
X87837534Y-99038171D02*
X87789915Y-98990552D01*
X87789915Y-98990552D02*
X87694677Y-98942933D01*
X87694677Y-98942933D02*
X87504201Y-98942933D01*
X87504201Y-98942933D02*
X87408963Y-98990552D01*
X87408963Y-98990552D02*
X87361344Y-99038171D01*
X87361344Y-99038171D02*
X87313725Y-99133409D01*
X89739115Y-88300380D02*
X89739115Y-89300380D01*
X89739115Y-89300380D02*
X89358163Y-89300380D01*
X89358163Y-89300380D02*
X89262925Y-89252761D01*
X89262925Y-89252761D02*
X89215306Y-89205142D01*
X89215306Y-89205142D02*
X89167687Y-89109904D01*
X89167687Y-89109904D02*
X89167687Y-88967047D01*
X89167687Y-88967047D02*
X89215306Y-88871809D01*
X89215306Y-88871809D02*
X89262925Y-88824190D01*
X89262925Y-88824190D02*
X89358163Y-88776571D01*
X89358163Y-88776571D02*
X89739115Y-88776571D01*
X88215306Y-88300380D02*
X88786734Y-88300380D01*
X88501020Y-88300380D02*
X88501020Y-89300380D01*
X88501020Y-89300380D02*
X88596258Y-89157523D01*
X88596258Y-89157523D02*
X88691496Y-89062285D01*
X88691496Y-89062285D02*
X88786734Y-89014666D01*
X87358163Y-89300380D02*
X87548639Y-89300380D01*
X87548639Y-89300380D02*
X87643877Y-89252761D01*
X87643877Y-89252761D02*
X87691496Y-89205142D01*
X87691496Y-89205142D02*
X87786734Y-89062285D01*
X87786734Y-89062285D02*
X87834353Y-88871809D01*
X87834353Y-88871809D02*
X87834353Y-88490857D01*
X87834353Y-88490857D02*
X87786734Y-88395619D01*
X87786734Y-88395619D02*
X87739115Y-88348000D01*
X87739115Y-88348000D02*
X87643877Y-88300380D01*
X87643877Y-88300380D02*
X87453401Y-88300380D01*
X87453401Y-88300380D02*
X87358163Y-88348000D01*
X87358163Y-88348000D02*
X87310544Y-88395619D01*
X87310544Y-88395619D02*
X87262925Y-88490857D01*
X87262925Y-88490857D02*
X87262925Y-88728952D01*
X87262925Y-88728952D02*
X87310544Y-88824190D01*
X87310544Y-88824190D02*
X87358163Y-88871809D01*
X87358163Y-88871809D02*
X87453401Y-88919428D01*
X87453401Y-88919428D02*
X87643877Y-88919428D01*
X87643877Y-88919428D02*
X87739115Y-88871809D01*
X87739115Y-88871809D02*
X87786734Y-88824190D01*
X87786734Y-88824190D02*
X87834353Y-88728952D01*
X107109534Y-78137200D02*
X106966677Y-78089580D01*
X106966677Y-78089580D02*
X106728582Y-78089580D01*
X106728582Y-78089580D02*
X106633344Y-78137200D01*
X106633344Y-78137200D02*
X106585725Y-78184819D01*
X106585725Y-78184819D02*
X106538106Y-78280057D01*
X106538106Y-78280057D02*
X106538106Y-78375295D01*
X106538106Y-78375295D02*
X106585725Y-78470533D01*
X106585725Y-78470533D02*
X106633344Y-78518152D01*
X106633344Y-78518152D02*
X106728582Y-78565771D01*
X106728582Y-78565771D02*
X106919058Y-78613390D01*
X106919058Y-78613390D02*
X107014296Y-78661009D01*
X107014296Y-78661009D02*
X107061915Y-78708628D01*
X107061915Y-78708628D02*
X107109534Y-78803866D01*
X107109534Y-78803866D02*
X107109534Y-78899104D01*
X107109534Y-78899104D02*
X107061915Y-78994342D01*
X107061915Y-78994342D02*
X107014296Y-79041961D01*
X107014296Y-79041961D02*
X106919058Y-79089580D01*
X106919058Y-79089580D02*
X106680963Y-79089580D01*
X106680963Y-79089580D02*
X106538106Y-79041961D01*
X106109534Y-78089580D02*
X106109534Y-79089580D01*
X106109534Y-79089580D02*
X105871439Y-79089580D01*
X105871439Y-79089580D02*
X105728582Y-79041961D01*
X105728582Y-79041961D02*
X105633344Y-78946723D01*
X105633344Y-78946723D02*
X105585725Y-78851485D01*
X105585725Y-78851485D02*
X105538106Y-78661009D01*
X105538106Y-78661009D02*
X105538106Y-78518152D01*
X105538106Y-78518152D02*
X105585725Y-78327676D01*
X105585725Y-78327676D02*
X105633344Y-78232438D01*
X105633344Y-78232438D02*
X105728582Y-78137200D01*
X105728582Y-78137200D02*
X105871439Y-78089580D01*
X105871439Y-78089580D02*
X106109534Y-78089580D01*
X105157153Y-78994342D02*
X105109534Y-79041961D01*
X105109534Y-79041961D02*
X105014296Y-79089580D01*
X105014296Y-79089580D02*
X104776201Y-79089580D01*
X104776201Y-79089580D02*
X104680963Y-79041961D01*
X104680963Y-79041961D02*
X104633344Y-78994342D01*
X104633344Y-78994342D02*
X104585725Y-78899104D01*
X104585725Y-78899104D02*
X104585725Y-78803866D01*
X104585725Y-78803866D02*
X104633344Y-78661009D01*
X104633344Y-78661009D02*
X105204772Y-78089580D01*
X105204772Y-78089580D02*
X104585725Y-78089580D01*
X107157153Y-117138780D02*
X106538106Y-117138780D01*
X106538106Y-117138780D02*
X106871439Y-116757828D01*
X106871439Y-116757828D02*
X106728582Y-116757828D01*
X106728582Y-116757828D02*
X106633344Y-116710209D01*
X106633344Y-116710209D02*
X106585725Y-116662590D01*
X106585725Y-116662590D02*
X106538106Y-116567352D01*
X106538106Y-116567352D02*
X106538106Y-116329257D01*
X106538106Y-116329257D02*
X106585725Y-116234019D01*
X106585725Y-116234019D02*
X106633344Y-116186400D01*
X106633344Y-116186400D02*
X106728582Y-116138780D01*
X106728582Y-116138780D02*
X107014296Y-116138780D01*
X107014296Y-116138780D02*
X107109534Y-116186400D01*
X107109534Y-116186400D02*
X107157153Y-116234019D01*
X106252391Y-117138780D02*
X105919058Y-116138780D01*
X105919058Y-116138780D02*
X105585725Y-117138780D01*
X105347629Y-117138780D02*
X104728582Y-117138780D01*
X104728582Y-117138780D02*
X105061915Y-116757828D01*
X105061915Y-116757828D02*
X104919058Y-116757828D01*
X104919058Y-116757828D02*
X104823820Y-116710209D01*
X104823820Y-116710209D02*
X104776201Y-116662590D01*
X104776201Y-116662590D02*
X104728582Y-116567352D01*
X104728582Y-116567352D02*
X104728582Y-116329257D01*
X104728582Y-116329257D02*
X104776201Y-116234019D01*
X104776201Y-116234019D02*
X104823820Y-116186400D01*
X104823820Y-116186400D02*
X104919058Y-116138780D01*
X104919058Y-116138780D02*
X105204772Y-116138780D01*
X105204772Y-116138780D02*
X105300010Y-116186400D01*
X105300010Y-116186400D02*
X105347629Y-116234019D01*
X89789915Y-93380380D02*
X89789915Y-94380380D01*
X89789915Y-94380380D02*
X89408963Y-94380380D01*
X89408963Y-94380380D02*
X89313725Y-94332761D01*
X89313725Y-94332761D02*
X89266106Y-94285142D01*
X89266106Y-94285142D02*
X89218487Y-94189904D01*
X89218487Y-94189904D02*
X89218487Y-94047047D01*
X89218487Y-94047047D02*
X89266106Y-93951809D01*
X89266106Y-93951809D02*
X89313725Y-93904190D01*
X89313725Y-93904190D02*
X89408963Y-93856571D01*
X89408963Y-93856571D02*
X89789915Y-93856571D01*
X88313725Y-94380380D02*
X88789915Y-94380380D01*
X88789915Y-94380380D02*
X88837534Y-93904190D01*
X88837534Y-93904190D02*
X88789915Y-93951809D01*
X88789915Y-93951809D02*
X88694677Y-93999428D01*
X88694677Y-93999428D02*
X88456582Y-93999428D01*
X88456582Y-93999428D02*
X88361344Y-93951809D01*
X88361344Y-93951809D02*
X88313725Y-93904190D01*
X88313725Y-93904190D02*
X88266106Y-93808952D01*
X88266106Y-93808952D02*
X88266106Y-93570857D01*
X88266106Y-93570857D02*
X88313725Y-93475619D01*
X88313725Y-93475619D02*
X88361344Y-93428000D01*
X88361344Y-93428000D02*
X88456582Y-93380380D01*
X88456582Y-93380380D02*
X88694677Y-93380380D01*
X88694677Y-93380380D02*
X88789915Y-93428000D01*
X88789915Y-93428000D02*
X88837534Y-93475619D01*
D11*
X98467704Y-72538980D02*
X98467704Y-71729457D01*
X98467704Y-71729457D02*
X98420085Y-71634219D01*
X98420085Y-71634219D02*
X98372466Y-71586600D01*
X98372466Y-71586600D02*
X98277228Y-71538980D01*
X98277228Y-71538980D02*
X98086752Y-71538980D01*
X98086752Y-71538980D02*
X97991514Y-71586600D01*
X97991514Y-71586600D02*
X97943895Y-71634219D01*
X97943895Y-71634219D02*
X97896276Y-71729457D01*
X97896276Y-71729457D02*
X97896276Y-72538980D01*
X97467704Y-71586600D02*
X97324847Y-71538980D01*
X97324847Y-71538980D02*
X97086752Y-71538980D01*
X97086752Y-71538980D02*
X96991514Y-71586600D01*
X96991514Y-71586600D02*
X96943895Y-71634219D01*
X96943895Y-71634219D02*
X96896276Y-71729457D01*
X96896276Y-71729457D02*
X96896276Y-71824695D01*
X96896276Y-71824695D02*
X96943895Y-71919933D01*
X96943895Y-71919933D02*
X96991514Y-71967552D01*
X96991514Y-71967552D02*
X97086752Y-72015171D01*
X97086752Y-72015171D02*
X97277228Y-72062790D01*
X97277228Y-72062790D02*
X97372466Y-72110409D01*
X97372466Y-72110409D02*
X97420085Y-72158028D01*
X97420085Y-72158028D02*
X97467704Y-72253266D01*
X97467704Y-72253266D02*
X97467704Y-72348504D01*
X97467704Y-72348504D02*
X97420085Y-72443742D01*
X97420085Y-72443742D02*
X97372466Y-72491361D01*
X97372466Y-72491361D02*
X97277228Y-72538980D01*
X97277228Y-72538980D02*
X97039133Y-72538980D01*
X97039133Y-72538980D02*
X96896276Y-72491361D01*
X96134371Y-72062790D02*
X95991514Y-72015171D01*
X95991514Y-72015171D02*
X95943895Y-71967552D01*
X95943895Y-71967552D02*
X95896276Y-71872314D01*
X95896276Y-71872314D02*
X95896276Y-71729457D01*
X95896276Y-71729457D02*
X95943895Y-71634219D01*
X95943895Y-71634219D02*
X95991514Y-71586600D01*
X95991514Y-71586600D02*
X96086752Y-71538980D01*
X96086752Y-71538980D02*
X96467704Y-71538980D01*
X96467704Y-71538980D02*
X96467704Y-72538980D01*
X96467704Y-72538980D02*
X96134371Y-72538980D01*
X96134371Y-72538980D02*
X96039133Y-72491361D01*
X96039133Y-72491361D02*
X95991514Y-72443742D01*
X95991514Y-72443742D02*
X95943895Y-72348504D01*
X95943895Y-72348504D02*
X95943895Y-72253266D01*
X95943895Y-72253266D02*
X95991514Y-72158028D01*
X95991514Y-72158028D02*
X96039133Y-72110409D01*
X96039133Y-72110409D02*
X96134371Y-72062790D01*
X96134371Y-72062790D02*
X96467704Y-72062790D01*
D12*
X107011115Y-85760380D02*
X107011115Y-86760380D01*
X107011115Y-86760380D02*
X106630163Y-86760380D01*
X106630163Y-86760380D02*
X106534925Y-86712761D01*
X106534925Y-86712761D02*
X106487306Y-86665142D01*
X106487306Y-86665142D02*
X106439687Y-86569904D01*
X106439687Y-86569904D02*
X106439687Y-86427047D01*
X106439687Y-86427047D02*
X106487306Y-86331809D01*
X106487306Y-86331809D02*
X106534925Y-86284190D01*
X106534925Y-86284190D02*
X106630163Y-86236571D01*
X106630163Y-86236571D02*
X107011115Y-86236571D01*
X105487306Y-85760380D02*
X106058734Y-85760380D01*
X105773020Y-85760380D02*
X105773020Y-86760380D01*
X105773020Y-86760380D02*
X105868258Y-86617523D01*
X105868258Y-86617523D02*
X105963496Y-86522285D01*
X105963496Y-86522285D02*
X106058734Y-86474666D01*
X105106353Y-86665142D02*
X105058734Y-86712761D01*
X105058734Y-86712761D02*
X104963496Y-86760380D01*
X104963496Y-86760380D02*
X104725401Y-86760380D01*
X104725401Y-86760380D02*
X104630163Y-86712761D01*
X104630163Y-86712761D02*
X104582544Y-86665142D01*
X104582544Y-86665142D02*
X104534925Y-86569904D01*
X104534925Y-86569904D02*
X104534925Y-86474666D01*
X104534925Y-86474666D02*
X104582544Y-86331809D01*
X104582544Y-86331809D02*
X105153972Y-85760380D01*
X105153972Y-85760380D02*
X104534925Y-85760380D01*
X107058734Y-75597200D02*
X106915877Y-75549580D01*
X106915877Y-75549580D02*
X106677782Y-75549580D01*
X106677782Y-75549580D02*
X106582544Y-75597200D01*
X106582544Y-75597200D02*
X106534925Y-75644819D01*
X106534925Y-75644819D02*
X106487306Y-75740057D01*
X106487306Y-75740057D02*
X106487306Y-75835295D01*
X106487306Y-75835295D02*
X106534925Y-75930533D01*
X106534925Y-75930533D02*
X106582544Y-75978152D01*
X106582544Y-75978152D02*
X106677782Y-76025771D01*
X106677782Y-76025771D02*
X106868258Y-76073390D01*
X106868258Y-76073390D02*
X106963496Y-76121009D01*
X106963496Y-76121009D02*
X107011115Y-76168628D01*
X107011115Y-76168628D02*
X107058734Y-76263866D01*
X107058734Y-76263866D02*
X107058734Y-76359104D01*
X107058734Y-76359104D02*
X107011115Y-76454342D01*
X107011115Y-76454342D02*
X106963496Y-76501961D01*
X106963496Y-76501961D02*
X106868258Y-76549580D01*
X106868258Y-76549580D02*
X106630163Y-76549580D01*
X106630163Y-76549580D02*
X106487306Y-76501961D01*
X106058734Y-75549580D02*
X106058734Y-76549580D01*
X106058734Y-76549580D02*
X105820639Y-76549580D01*
X105820639Y-76549580D02*
X105677782Y-76501961D01*
X105677782Y-76501961D02*
X105582544Y-76406723D01*
X105582544Y-76406723D02*
X105534925Y-76311485D01*
X105534925Y-76311485D02*
X105487306Y-76121009D01*
X105487306Y-76121009D02*
X105487306Y-75978152D01*
X105487306Y-75978152D02*
X105534925Y-75787676D01*
X105534925Y-75787676D02*
X105582544Y-75692438D01*
X105582544Y-75692438D02*
X105677782Y-75597200D01*
X105677782Y-75597200D02*
X105820639Y-75549580D01*
X105820639Y-75549580D02*
X106058734Y-75549580D01*
X105153972Y-76549580D02*
X104534925Y-76549580D01*
X104534925Y-76549580D02*
X104868258Y-76168628D01*
X104868258Y-76168628D02*
X104725401Y-76168628D01*
X104725401Y-76168628D02*
X104630163Y-76121009D01*
X104630163Y-76121009D02*
X104582544Y-76073390D01*
X104582544Y-76073390D02*
X104534925Y-75978152D01*
X104534925Y-75978152D02*
X104534925Y-75740057D01*
X104534925Y-75740057D02*
X104582544Y-75644819D01*
X104582544Y-75644819D02*
X104630163Y-75597200D01*
X104630163Y-75597200D02*
X104725401Y-75549580D01*
X104725401Y-75549580D02*
X105011115Y-75549580D01*
X105011115Y-75549580D02*
X105106353Y-75597200D01*
X105106353Y-75597200D02*
X105153972Y-75644819D01*
X107011115Y-93329580D02*
X107011115Y-94329580D01*
X107011115Y-94329580D02*
X106630163Y-94329580D01*
X106630163Y-94329580D02*
X106534925Y-94281961D01*
X106534925Y-94281961D02*
X106487306Y-94234342D01*
X106487306Y-94234342D02*
X106439687Y-94139104D01*
X106439687Y-94139104D02*
X106439687Y-93996247D01*
X106439687Y-93996247D02*
X106487306Y-93901009D01*
X106487306Y-93901009D02*
X106534925Y-93853390D01*
X106534925Y-93853390D02*
X106630163Y-93805771D01*
X106630163Y-93805771D02*
X107011115Y-93805771D01*
X106058734Y-94234342D02*
X106011115Y-94281961D01*
X106011115Y-94281961D02*
X105915877Y-94329580D01*
X105915877Y-94329580D02*
X105677782Y-94329580D01*
X105677782Y-94329580D02*
X105582544Y-94281961D01*
X105582544Y-94281961D02*
X105534925Y-94234342D01*
X105534925Y-94234342D02*
X105487306Y-94139104D01*
X105487306Y-94139104D02*
X105487306Y-94043866D01*
X105487306Y-94043866D02*
X105534925Y-93901009D01*
X105534925Y-93901009D02*
X106106353Y-93329580D01*
X106106353Y-93329580D02*
X105487306Y-93329580D01*
X104630163Y-94329580D02*
X104820639Y-94329580D01*
X104820639Y-94329580D02*
X104915877Y-94281961D01*
X104915877Y-94281961D02*
X104963496Y-94234342D01*
X104963496Y-94234342D02*
X105058734Y-94091485D01*
X105058734Y-94091485D02*
X105106353Y-93901009D01*
X105106353Y-93901009D02*
X105106353Y-93520057D01*
X105106353Y-93520057D02*
X105058734Y-93424819D01*
X105058734Y-93424819D02*
X105011115Y-93377200D01*
X105011115Y-93377200D02*
X104915877Y-93329580D01*
X104915877Y-93329580D02*
X104725401Y-93329580D01*
X104725401Y-93329580D02*
X104630163Y-93377200D01*
X104630163Y-93377200D02*
X104582544Y-93424819D01*
X104582544Y-93424819D02*
X104534925Y-93520057D01*
X104534925Y-93520057D02*
X104534925Y-93758152D01*
X104534925Y-93758152D02*
X104582544Y-93853390D01*
X104582544Y-93853390D02*
X104630163Y-93901009D01*
X104630163Y-93901009D02*
X104725401Y-93948628D01*
X104725401Y-93948628D02*
X104915877Y-93948628D01*
X104915877Y-93948628D02*
X105011115Y-93901009D01*
X105011115Y-93901009D02*
X105058734Y-93853390D01*
X105058734Y-93853390D02*
X105106353Y-93758152D01*
X106484125Y-71469580D02*
X106960315Y-71469580D01*
X106960315Y-71469580D02*
X107007934Y-70993390D01*
X107007934Y-70993390D02*
X106960315Y-71041009D01*
X106960315Y-71041009D02*
X106865077Y-71088628D01*
X106865077Y-71088628D02*
X106626982Y-71088628D01*
X106626982Y-71088628D02*
X106531744Y-71041009D01*
X106531744Y-71041009D02*
X106484125Y-70993390D01*
X106484125Y-70993390D02*
X106436506Y-70898152D01*
X106436506Y-70898152D02*
X106436506Y-70660057D01*
X106436506Y-70660057D02*
X106484125Y-70564819D01*
X106484125Y-70564819D02*
X106531744Y-70517200D01*
X106531744Y-70517200D02*
X106626982Y-70469580D01*
X106626982Y-70469580D02*
X106865077Y-70469580D01*
X106865077Y-70469580D02*
X106960315Y-70517200D01*
X106960315Y-70517200D02*
X107007934Y-70564819D01*
X106150791Y-71469580D02*
X105817458Y-70469580D01*
X105817458Y-70469580D02*
X105484125Y-71469580D01*
X106487306Y-84121961D02*
X106582544Y-84169580D01*
X106582544Y-84169580D02*
X106725401Y-84169580D01*
X106725401Y-84169580D02*
X106868258Y-84121961D01*
X106868258Y-84121961D02*
X106963496Y-84026723D01*
X106963496Y-84026723D02*
X107011115Y-83931485D01*
X107011115Y-83931485D02*
X107058734Y-83741009D01*
X107058734Y-83741009D02*
X107058734Y-83598152D01*
X107058734Y-83598152D02*
X107011115Y-83407676D01*
X107011115Y-83407676D02*
X106963496Y-83312438D01*
X106963496Y-83312438D02*
X106868258Y-83217200D01*
X106868258Y-83217200D02*
X106725401Y-83169580D01*
X106725401Y-83169580D02*
X106630163Y-83169580D01*
X106630163Y-83169580D02*
X106487306Y-83217200D01*
X106487306Y-83217200D02*
X106439687Y-83264819D01*
X106439687Y-83264819D02*
X106439687Y-83598152D01*
X106439687Y-83598152D02*
X106630163Y-83598152D01*
X106011115Y-83169580D02*
X106011115Y-84169580D01*
X106011115Y-84169580D02*
X105439687Y-83169580D01*
X105439687Y-83169580D02*
X105439687Y-84169580D01*
X104963496Y-83169580D02*
X104963496Y-84169580D01*
X104963496Y-84169580D02*
X104725401Y-84169580D01*
X104725401Y-84169580D02*
X104582544Y-84121961D01*
X104582544Y-84121961D02*
X104487306Y-84026723D01*
X104487306Y-84026723D02*
X104439687Y-83931485D01*
X104439687Y-83931485D02*
X104392068Y-83741009D01*
X104392068Y-83741009D02*
X104392068Y-83598152D01*
X104392068Y-83598152D02*
X104439687Y-83407676D01*
X104439687Y-83407676D02*
X104487306Y-83312438D01*
X104487306Y-83312438D02*
X104582544Y-83217200D01*
X104582544Y-83217200D02*
X104725401Y-83169580D01*
X104725401Y-83169580D02*
X104963496Y-83169580D01*
X89739115Y-78191180D02*
X89739115Y-79191180D01*
X89739115Y-79191180D02*
X89358163Y-79191180D01*
X89358163Y-79191180D02*
X89262925Y-79143561D01*
X89262925Y-79143561D02*
X89215306Y-79095942D01*
X89215306Y-79095942D02*
X89167687Y-79000704D01*
X89167687Y-79000704D02*
X89167687Y-78857847D01*
X89167687Y-78857847D02*
X89215306Y-78762609D01*
X89215306Y-78762609D02*
X89262925Y-78714990D01*
X89262925Y-78714990D02*
X89358163Y-78667371D01*
X89358163Y-78667371D02*
X89739115Y-78667371D01*
X88215306Y-78191180D02*
X88786734Y-78191180D01*
X88501020Y-78191180D02*
X88501020Y-79191180D01*
X88501020Y-79191180D02*
X88596258Y-79048323D01*
X88596258Y-79048323D02*
X88691496Y-78953085D01*
X88691496Y-78953085D02*
X88786734Y-78905466D01*
X87310544Y-79191180D02*
X87786734Y-79191180D01*
X87786734Y-79191180D02*
X87834353Y-78714990D01*
X87834353Y-78714990D02*
X87786734Y-78762609D01*
X87786734Y-78762609D02*
X87691496Y-78810228D01*
X87691496Y-78810228D02*
X87453401Y-78810228D01*
X87453401Y-78810228D02*
X87358163Y-78762609D01*
X87358163Y-78762609D02*
X87310544Y-78714990D01*
X87310544Y-78714990D02*
X87262925Y-78619752D01*
X87262925Y-78619752D02*
X87262925Y-78381657D01*
X87262925Y-78381657D02*
X87310544Y-78286419D01*
X87310544Y-78286419D02*
X87358163Y-78238800D01*
X87358163Y-78238800D02*
X87453401Y-78191180D01*
X87453401Y-78191180D02*
X87691496Y-78191180D01*
X87691496Y-78191180D02*
X87786734Y-78238800D01*
X87786734Y-78238800D02*
X87834353Y-78286419D01*
X107061915Y-95920380D02*
X107061915Y-96920380D01*
X107061915Y-96920380D02*
X106680963Y-96920380D01*
X106680963Y-96920380D02*
X106585725Y-96872761D01*
X106585725Y-96872761D02*
X106538106Y-96825142D01*
X106538106Y-96825142D02*
X106490487Y-96729904D01*
X106490487Y-96729904D02*
X106490487Y-96587047D01*
X106490487Y-96587047D02*
X106538106Y-96491809D01*
X106538106Y-96491809D02*
X106585725Y-96444190D01*
X106585725Y-96444190D02*
X106680963Y-96396571D01*
X106680963Y-96396571D02*
X107061915Y-96396571D01*
X106109534Y-96825142D02*
X106061915Y-96872761D01*
X106061915Y-96872761D02*
X105966677Y-96920380D01*
X105966677Y-96920380D02*
X105728582Y-96920380D01*
X105728582Y-96920380D02*
X105633344Y-96872761D01*
X105633344Y-96872761D02*
X105585725Y-96825142D01*
X105585725Y-96825142D02*
X105538106Y-96729904D01*
X105538106Y-96729904D02*
X105538106Y-96634666D01*
X105538106Y-96634666D02*
X105585725Y-96491809D01*
X105585725Y-96491809D02*
X106157153Y-95920380D01*
X106157153Y-95920380D02*
X105538106Y-95920380D01*
X104633344Y-96920380D02*
X105109534Y-96920380D01*
X105109534Y-96920380D02*
X105157153Y-96444190D01*
X105157153Y-96444190D02*
X105109534Y-96491809D01*
X105109534Y-96491809D02*
X105014296Y-96539428D01*
X105014296Y-96539428D02*
X104776201Y-96539428D01*
X104776201Y-96539428D02*
X104680963Y-96491809D01*
X104680963Y-96491809D02*
X104633344Y-96444190D01*
X104633344Y-96444190D02*
X104585725Y-96348952D01*
X104585725Y-96348952D02*
X104585725Y-96110857D01*
X104585725Y-96110857D02*
X104633344Y-96015619D01*
X104633344Y-96015619D02*
X104680963Y-95968000D01*
X104680963Y-95968000D02*
X104776201Y-95920380D01*
X104776201Y-95920380D02*
X105014296Y-95920380D01*
X105014296Y-95920380D02*
X105109534Y-95968000D01*
X105109534Y-95968000D02*
X105157153Y-96015619D01*
X107061915Y-98511180D02*
X107061915Y-99511180D01*
X107061915Y-99511180D02*
X106680963Y-99511180D01*
X106680963Y-99511180D02*
X106585725Y-99463561D01*
X106585725Y-99463561D02*
X106538106Y-99415942D01*
X106538106Y-99415942D02*
X106490487Y-99320704D01*
X106490487Y-99320704D02*
X106490487Y-99177847D01*
X106490487Y-99177847D02*
X106538106Y-99082609D01*
X106538106Y-99082609D02*
X106585725Y-99034990D01*
X106585725Y-99034990D02*
X106680963Y-98987371D01*
X106680963Y-98987371D02*
X107061915Y-98987371D01*
X106157153Y-99511180D02*
X105538106Y-99511180D01*
X105538106Y-99511180D02*
X105871439Y-99130228D01*
X105871439Y-99130228D02*
X105728582Y-99130228D01*
X105728582Y-99130228D02*
X105633344Y-99082609D01*
X105633344Y-99082609D02*
X105585725Y-99034990D01*
X105585725Y-99034990D02*
X105538106Y-98939752D01*
X105538106Y-98939752D02*
X105538106Y-98701657D01*
X105538106Y-98701657D02*
X105585725Y-98606419D01*
X105585725Y-98606419D02*
X105633344Y-98558800D01*
X105633344Y-98558800D02*
X105728582Y-98511180D01*
X105728582Y-98511180D02*
X106014296Y-98511180D01*
X106014296Y-98511180D02*
X106109534Y-98558800D01*
X106109534Y-98558800D02*
X106157153Y-98606419D01*
X105204772Y-99511180D02*
X104585725Y-99511180D01*
X104585725Y-99511180D02*
X104919058Y-99130228D01*
X104919058Y-99130228D02*
X104776201Y-99130228D01*
X104776201Y-99130228D02*
X104680963Y-99082609D01*
X104680963Y-99082609D02*
X104633344Y-99034990D01*
X104633344Y-99034990D02*
X104585725Y-98939752D01*
X104585725Y-98939752D02*
X104585725Y-98701657D01*
X104585725Y-98701657D02*
X104633344Y-98606419D01*
X104633344Y-98606419D02*
X104680963Y-98558800D01*
X104680963Y-98558800D02*
X104776201Y-98511180D01*
X104776201Y-98511180D02*
X105061915Y-98511180D01*
X105061915Y-98511180D02*
X105157153Y-98558800D01*
X105157153Y-98558800D02*
X105204772Y-98606419D01*
X89739115Y-111211180D02*
X89739115Y-112211180D01*
X89739115Y-112211180D02*
X89358163Y-112211180D01*
X89358163Y-112211180D02*
X89262925Y-112163561D01*
X89262925Y-112163561D02*
X89215306Y-112115942D01*
X89215306Y-112115942D02*
X89167687Y-112020704D01*
X89167687Y-112020704D02*
X89167687Y-111877847D01*
X89167687Y-111877847D02*
X89215306Y-111782609D01*
X89215306Y-111782609D02*
X89262925Y-111734990D01*
X89262925Y-111734990D02*
X89358163Y-111687371D01*
X89358163Y-111687371D02*
X89739115Y-111687371D01*
X88786734Y-112115942D02*
X88739115Y-112163561D01*
X88739115Y-112163561D02*
X88643877Y-112211180D01*
X88643877Y-112211180D02*
X88405782Y-112211180D01*
X88405782Y-112211180D02*
X88310544Y-112163561D01*
X88310544Y-112163561D02*
X88262925Y-112115942D01*
X88262925Y-112115942D02*
X88215306Y-112020704D01*
X88215306Y-112020704D02*
X88215306Y-111925466D01*
X88215306Y-111925466D02*
X88262925Y-111782609D01*
X88262925Y-111782609D02*
X88834353Y-111211180D01*
X88834353Y-111211180D02*
X88215306Y-111211180D01*
X87834353Y-112115942D02*
X87786734Y-112163561D01*
X87786734Y-112163561D02*
X87691496Y-112211180D01*
X87691496Y-112211180D02*
X87453401Y-112211180D01*
X87453401Y-112211180D02*
X87358163Y-112163561D01*
X87358163Y-112163561D02*
X87310544Y-112115942D01*
X87310544Y-112115942D02*
X87262925Y-112020704D01*
X87262925Y-112020704D02*
X87262925Y-111925466D01*
X87262925Y-111925466D02*
X87310544Y-111782609D01*
X87310544Y-111782609D02*
X87881972Y-111211180D01*
X87881972Y-111211180D02*
X87262925Y-111211180D01*
X89786734Y-73158800D02*
X89643877Y-73111180D01*
X89643877Y-73111180D02*
X89405782Y-73111180D01*
X89405782Y-73111180D02*
X89310544Y-73158800D01*
X89310544Y-73158800D02*
X89262925Y-73206419D01*
X89262925Y-73206419D02*
X89215306Y-73301657D01*
X89215306Y-73301657D02*
X89215306Y-73396895D01*
X89215306Y-73396895D02*
X89262925Y-73492133D01*
X89262925Y-73492133D02*
X89310544Y-73539752D01*
X89310544Y-73539752D02*
X89405782Y-73587371D01*
X89405782Y-73587371D02*
X89596258Y-73634990D01*
X89596258Y-73634990D02*
X89691496Y-73682609D01*
X89691496Y-73682609D02*
X89739115Y-73730228D01*
X89739115Y-73730228D02*
X89786734Y-73825466D01*
X89786734Y-73825466D02*
X89786734Y-73920704D01*
X89786734Y-73920704D02*
X89739115Y-74015942D01*
X89739115Y-74015942D02*
X89691496Y-74063561D01*
X89691496Y-74063561D02*
X89596258Y-74111180D01*
X89596258Y-74111180D02*
X89358163Y-74111180D01*
X89358163Y-74111180D02*
X89215306Y-74063561D01*
X88786734Y-73111180D02*
X88786734Y-74111180D01*
X88786734Y-74111180D02*
X88548639Y-74111180D01*
X88548639Y-74111180D02*
X88405782Y-74063561D01*
X88405782Y-74063561D02*
X88310544Y-73968323D01*
X88310544Y-73968323D02*
X88262925Y-73873085D01*
X88262925Y-73873085D02*
X88215306Y-73682609D01*
X88215306Y-73682609D02*
X88215306Y-73539752D01*
X88215306Y-73539752D02*
X88262925Y-73349276D01*
X88262925Y-73349276D02*
X88310544Y-73254038D01*
X88310544Y-73254038D02*
X88405782Y-73158800D01*
X88405782Y-73158800D02*
X88548639Y-73111180D01*
X88548639Y-73111180D02*
X88786734Y-73111180D01*
X87596258Y-74111180D02*
X87501020Y-74111180D01*
X87501020Y-74111180D02*
X87405782Y-74063561D01*
X87405782Y-74063561D02*
X87358163Y-74015942D01*
X87358163Y-74015942D02*
X87310544Y-73920704D01*
X87310544Y-73920704D02*
X87262925Y-73730228D01*
X87262925Y-73730228D02*
X87262925Y-73492133D01*
X87262925Y-73492133D02*
X87310544Y-73301657D01*
X87310544Y-73301657D02*
X87358163Y-73206419D01*
X87358163Y-73206419D02*
X87405782Y-73158800D01*
X87405782Y-73158800D02*
X87501020Y-73111180D01*
X87501020Y-73111180D02*
X87596258Y-73111180D01*
X87596258Y-73111180D02*
X87691496Y-73158800D01*
X87691496Y-73158800D02*
X87739115Y-73206419D01*
X87739115Y-73206419D02*
X87786734Y-73301657D01*
X87786734Y-73301657D02*
X87834353Y-73492133D01*
X87834353Y-73492133D02*
X87834353Y-73730228D01*
X87834353Y-73730228D02*
X87786734Y-73920704D01*
X87786734Y-73920704D02*
X87739115Y-74015942D01*
X87739115Y-74015942D02*
X87691496Y-74063561D01*
X87691496Y-74063561D02*
X87596258Y-74111180D01*
X89739115Y-103591180D02*
X89739115Y-104591180D01*
X89739115Y-104591180D02*
X89358163Y-104591180D01*
X89358163Y-104591180D02*
X89262925Y-104543561D01*
X89262925Y-104543561D02*
X89215306Y-104495942D01*
X89215306Y-104495942D02*
X89167687Y-104400704D01*
X89167687Y-104400704D02*
X89167687Y-104257847D01*
X89167687Y-104257847D02*
X89215306Y-104162609D01*
X89215306Y-104162609D02*
X89262925Y-104114990D01*
X89262925Y-104114990D02*
X89358163Y-104067371D01*
X89358163Y-104067371D02*
X89739115Y-104067371D01*
X88786734Y-104495942D02*
X88739115Y-104543561D01*
X88739115Y-104543561D02*
X88643877Y-104591180D01*
X88643877Y-104591180D02*
X88405782Y-104591180D01*
X88405782Y-104591180D02*
X88310544Y-104543561D01*
X88310544Y-104543561D02*
X88262925Y-104495942D01*
X88262925Y-104495942D02*
X88215306Y-104400704D01*
X88215306Y-104400704D02*
X88215306Y-104305466D01*
X88215306Y-104305466D02*
X88262925Y-104162609D01*
X88262925Y-104162609D02*
X88834353Y-103591180D01*
X88834353Y-103591180D02*
X88215306Y-103591180D01*
X87262925Y-103591180D02*
X87834353Y-103591180D01*
X87548639Y-103591180D02*
X87548639Y-104591180D01*
X87548639Y-104591180D02*
X87643877Y-104448323D01*
X87643877Y-104448323D02*
X87739115Y-104353085D01*
X87739115Y-104353085D02*
X87834353Y-104305466D01*
X89729572Y-109620380D02*
X89158144Y-109620380D01*
X89443858Y-108620380D02*
X89443858Y-109620380D01*
X88920048Y-109620380D02*
X88253382Y-108620380D01*
X88253382Y-109620380D02*
X88920048Y-108620380D01*
X107011115Y-90840380D02*
X107011115Y-91840380D01*
X107011115Y-91840380D02*
X106630163Y-91840380D01*
X106630163Y-91840380D02*
X106534925Y-91792761D01*
X106534925Y-91792761D02*
X106487306Y-91745142D01*
X106487306Y-91745142D02*
X106439687Y-91649904D01*
X106439687Y-91649904D02*
X106439687Y-91507047D01*
X106439687Y-91507047D02*
X106487306Y-91411809D01*
X106487306Y-91411809D02*
X106534925Y-91364190D01*
X106534925Y-91364190D02*
X106630163Y-91316571D01*
X106630163Y-91316571D02*
X107011115Y-91316571D01*
X106058734Y-91745142D02*
X106011115Y-91792761D01*
X106011115Y-91792761D02*
X105915877Y-91840380D01*
X105915877Y-91840380D02*
X105677782Y-91840380D01*
X105677782Y-91840380D02*
X105582544Y-91792761D01*
X105582544Y-91792761D02*
X105534925Y-91745142D01*
X105534925Y-91745142D02*
X105487306Y-91649904D01*
X105487306Y-91649904D02*
X105487306Y-91554666D01*
X105487306Y-91554666D02*
X105534925Y-91411809D01*
X105534925Y-91411809D02*
X106106353Y-90840380D01*
X106106353Y-90840380D02*
X105487306Y-90840380D01*
X105153972Y-91840380D02*
X104487306Y-91840380D01*
X104487306Y-91840380D02*
X104915877Y-90840380D01*
X107061915Y-114224190D02*
X106728582Y-114224190D01*
X106585725Y-113700380D02*
X107061915Y-113700380D01*
X107061915Y-113700380D02*
X107061915Y-114700380D01*
X107061915Y-114700380D02*
X106585725Y-114700380D01*
X106157153Y-113700380D02*
X106157153Y-114700380D01*
X106157153Y-114700380D02*
X105585725Y-113700380D01*
X105585725Y-113700380D02*
X105585725Y-114700380D01*
X107058734Y-111157200D02*
X106915877Y-111109580D01*
X106915877Y-111109580D02*
X106677782Y-111109580D01*
X106677782Y-111109580D02*
X106582544Y-111157200D01*
X106582544Y-111157200D02*
X106534925Y-111204819D01*
X106534925Y-111204819D02*
X106487306Y-111300057D01*
X106487306Y-111300057D02*
X106487306Y-111395295D01*
X106487306Y-111395295D02*
X106534925Y-111490533D01*
X106534925Y-111490533D02*
X106582544Y-111538152D01*
X106582544Y-111538152D02*
X106677782Y-111585771D01*
X106677782Y-111585771D02*
X106868258Y-111633390D01*
X106868258Y-111633390D02*
X106963496Y-111681009D01*
X106963496Y-111681009D02*
X107011115Y-111728628D01*
X107011115Y-111728628D02*
X107058734Y-111823866D01*
X107058734Y-111823866D02*
X107058734Y-111919104D01*
X107058734Y-111919104D02*
X107011115Y-112014342D01*
X107011115Y-112014342D02*
X106963496Y-112061961D01*
X106963496Y-112061961D02*
X106868258Y-112109580D01*
X106868258Y-112109580D02*
X106630163Y-112109580D01*
X106630163Y-112109580D02*
X106487306Y-112061961D01*
X106201591Y-112109580D02*
X105868258Y-111109580D01*
X105868258Y-111109580D02*
X105534925Y-112109580D01*
X105201591Y-111109580D02*
X105201591Y-112109580D01*
X105201591Y-112109580D02*
X104820639Y-112109580D01*
X104820639Y-112109580D02*
X104725401Y-112061961D01*
X104725401Y-112061961D02*
X104677782Y-112014342D01*
X104677782Y-112014342D02*
X104630163Y-111919104D01*
X104630163Y-111919104D02*
X104630163Y-111776247D01*
X104630163Y-111776247D02*
X104677782Y-111681009D01*
X104677782Y-111681009D02*
X104725401Y-111633390D01*
X104725401Y-111633390D02*
X104820639Y-111585771D01*
X104820639Y-111585771D02*
X105201591Y-111585771D01*
X107011115Y-103591180D02*
X107011115Y-104591180D01*
X107011115Y-104591180D02*
X106630163Y-104591180D01*
X106630163Y-104591180D02*
X106534925Y-104543561D01*
X106534925Y-104543561D02*
X106487306Y-104495942D01*
X106487306Y-104495942D02*
X106439687Y-104400704D01*
X106439687Y-104400704D02*
X106439687Y-104257847D01*
X106439687Y-104257847D02*
X106487306Y-104162609D01*
X106487306Y-104162609D02*
X106534925Y-104114990D01*
X106534925Y-104114990D02*
X106630163Y-104067371D01*
X106630163Y-104067371D02*
X107011115Y-104067371D01*
X106106353Y-104591180D02*
X105487306Y-104591180D01*
X105487306Y-104591180D02*
X105820639Y-104210228D01*
X105820639Y-104210228D02*
X105677782Y-104210228D01*
X105677782Y-104210228D02*
X105582544Y-104162609D01*
X105582544Y-104162609D02*
X105534925Y-104114990D01*
X105534925Y-104114990D02*
X105487306Y-104019752D01*
X105487306Y-104019752D02*
X105487306Y-103781657D01*
X105487306Y-103781657D02*
X105534925Y-103686419D01*
X105534925Y-103686419D02*
X105582544Y-103638800D01*
X105582544Y-103638800D02*
X105677782Y-103591180D01*
X105677782Y-103591180D02*
X105963496Y-103591180D01*
X105963496Y-103591180D02*
X106058734Y-103638800D01*
X106058734Y-103638800D02*
X106106353Y-103686419D01*
X104582544Y-104591180D02*
X105058734Y-104591180D01*
X105058734Y-104591180D02*
X105106353Y-104114990D01*
X105106353Y-104114990D02*
X105058734Y-104162609D01*
X105058734Y-104162609D02*
X104963496Y-104210228D01*
X104963496Y-104210228D02*
X104725401Y-104210228D01*
X104725401Y-104210228D02*
X104630163Y-104162609D01*
X104630163Y-104162609D02*
X104582544Y-104114990D01*
X104582544Y-104114990D02*
X104534925Y-104019752D01*
X104534925Y-104019752D02*
X104534925Y-103781657D01*
X104534925Y-103781657D02*
X104582544Y-103686419D01*
X104582544Y-103686419D02*
X104630163Y-103638800D01*
X104630163Y-103638800D02*
X104725401Y-103591180D01*
X104725401Y-103591180D02*
X104963496Y-103591180D01*
X104963496Y-103591180D02*
X105058734Y-103638800D01*
X105058734Y-103638800D02*
X105106353Y-103686419D01*
X89789915Y-83271180D02*
X89789915Y-84271180D01*
X89789915Y-84271180D02*
X89408963Y-84271180D01*
X89408963Y-84271180D02*
X89313725Y-84223561D01*
X89313725Y-84223561D02*
X89266106Y-84175942D01*
X89266106Y-84175942D02*
X89218487Y-84080704D01*
X89218487Y-84080704D02*
X89218487Y-83937847D01*
X89218487Y-83937847D02*
X89266106Y-83842609D01*
X89266106Y-83842609D02*
X89313725Y-83794990D01*
X89313725Y-83794990D02*
X89408963Y-83747371D01*
X89408963Y-83747371D02*
X89789915Y-83747371D01*
X88599439Y-84271180D02*
X88504201Y-84271180D01*
X88504201Y-84271180D02*
X88408963Y-84223561D01*
X88408963Y-84223561D02*
X88361344Y-84175942D01*
X88361344Y-84175942D02*
X88313725Y-84080704D01*
X88313725Y-84080704D02*
X88266106Y-83890228D01*
X88266106Y-83890228D02*
X88266106Y-83652133D01*
X88266106Y-83652133D02*
X88313725Y-83461657D01*
X88313725Y-83461657D02*
X88361344Y-83366419D01*
X88361344Y-83366419D02*
X88408963Y-83318800D01*
X88408963Y-83318800D02*
X88504201Y-83271180D01*
X88504201Y-83271180D02*
X88599439Y-83271180D01*
X88599439Y-83271180D02*
X88694677Y-83318800D01*
X88694677Y-83318800D02*
X88742296Y-83366419D01*
X88742296Y-83366419D02*
X88789915Y-83461657D01*
X88789915Y-83461657D02*
X88837534Y-83652133D01*
X88837534Y-83652133D02*
X88837534Y-83890228D01*
X88837534Y-83890228D02*
X88789915Y-84080704D01*
X88789915Y-84080704D02*
X88742296Y-84175942D01*
X88742296Y-84175942D02*
X88694677Y-84223561D01*
X88694677Y-84223561D02*
X88599439Y-84271180D01*
X89167687Y-70615619D02*
X89215306Y-70568000D01*
X89215306Y-70568000D02*
X89358163Y-70520380D01*
X89358163Y-70520380D02*
X89453401Y-70520380D01*
X89453401Y-70520380D02*
X89596258Y-70568000D01*
X89596258Y-70568000D02*
X89691496Y-70663238D01*
X89691496Y-70663238D02*
X89739115Y-70758476D01*
X89739115Y-70758476D02*
X89786734Y-70948952D01*
X89786734Y-70948952D02*
X89786734Y-71091809D01*
X89786734Y-71091809D02*
X89739115Y-71282285D01*
X89739115Y-71282285D02*
X89691496Y-71377523D01*
X89691496Y-71377523D02*
X89596258Y-71472761D01*
X89596258Y-71472761D02*
X89453401Y-71520380D01*
X89453401Y-71520380D02*
X89358163Y-71520380D01*
X89358163Y-71520380D02*
X89215306Y-71472761D01*
X89215306Y-71472761D02*
X89167687Y-71425142D01*
X88262925Y-70520380D02*
X88739115Y-70520380D01*
X88739115Y-70520380D02*
X88739115Y-71520380D01*
X87929591Y-70520380D02*
X87929591Y-71520380D01*
X87358163Y-70520380D02*
X87786734Y-71091809D01*
X87358163Y-71520380D02*
X87929591Y-70948952D01*
X89266106Y-117091161D02*
X89361344Y-117138780D01*
X89361344Y-117138780D02*
X89504201Y-117138780D01*
X89504201Y-117138780D02*
X89647058Y-117091161D01*
X89647058Y-117091161D02*
X89742296Y-116995923D01*
X89742296Y-116995923D02*
X89789915Y-116900685D01*
X89789915Y-116900685D02*
X89837534Y-116710209D01*
X89837534Y-116710209D02*
X89837534Y-116567352D01*
X89837534Y-116567352D02*
X89789915Y-116376876D01*
X89789915Y-116376876D02*
X89742296Y-116281638D01*
X89742296Y-116281638D02*
X89647058Y-116186400D01*
X89647058Y-116186400D02*
X89504201Y-116138780D01*
X89504201Y-116138780D02*
X89408963Y-116138780D01*
X89408963Y-116138780D02*
X89266106Y-116186400D01*
X89266106Y-116186400D02*
X89218487Y-116234019D01*
X89218487Y-116234019D02*
X89218487Y-116567352D01*
X89218487Y-116567352D02*
X89408963Y-116567352D01*
X88789915Y-116138780D02*
X88789915Y-117138780D01*
X88789915Y-117138780D02*
X88218487Y-116138780D01*
X88218487Y-116138780D02*
X88218487Y-117138780D01*
X87742296Y-116138780D02*
X87742296Y-117138780D01*
X87742296Y-117138780D02*
X87504201Y-117138780D01*
X87504201Y-117138780D02*
X87361344Y-117091161D01*
X87361344Y-117091161D02*
X87266106Y-116995923D01*
X87266106Y-116995923D02*
X87218487Y-116900685D01*
X87218487Y-116900685D02*
X87170868Y-116710209D01*
X87170868Y-116710209D02*
X87170868Y-116567352D01*
X87170868Y-116567352D02*
X87218487Y-116376876D01*
X87218487Y-116376876D02*
X87266106Y-116281638D01*
X87266106Y-116281638D02*
X87361344Y-116186400D01*
X87361344Y-116186400D02*
X87504201Y-116138780D01*
X87504201Y-116138780D02*
X87742296Y-116138780D01*
X89789915Y-85760380D02*
X89789915Y-86760380D01*
X89789915Y-86760380D02*
X89408963Y-86760380D01*
X89408963Y-86760380D02*
X89313725Y-86712761D01*
X89313725Y-86712761D02*
X89266106Y-86665142D01*
X89266106Y-86665142D02*
X89218487Y-86569904D01*
X89218487Y-86569904D02*
X89218487Y-86427047D01*
X89218487Y-86427047D02*
X89266106Y-86331809D01*
X89266106Y-86331809D02*
X89313725Y-86284190D01*
X89313725Y-86284190D02*
X89408963Y-86236571D01*
X89408963Y-86236571D02*
X89789915Y-86236571D01*
X88361344Y-86427047D02*
X88361344Y-85760380D01*
X88599439Y-86808000D02*
X88837534Y-86093714D01*
X88837534Y-86093714D02*
X88218487Y-86093714D01*
D11*
X121753333Y-121284819D02*
X121420000Y-120808628D01*
X121181905Y-121284819D02*
X121181905Y-120284819D01*
X121181905Y-120284819D02*
X121562857Y-120284819D01*
X121562857Y-120284819D02*
X121658095Y-120332438D01*
X121658095Y-120332438D02*
X121705714Y-120380057D01*
X121705714Y-120380057D02*
X121753333Y-120475295D01*
X121753333Y-120475295D02*
X121753333Y-120618152D01*
X121753333Y-120618152D02*
X121705714Y-120713390D01*
X121705714Y-120713390D02*
X121658095Y-120761009D01*
X121658095Y-120761009D02*
X121562857Y-120808628D01*
X121562857Y-120808628D02*
X121181905Y-120808628D01*
X122658095Y-120284819D02*
X122181905Y-120284819D01*
X122181905Y-120284819D02*
X122134286Y-120761009D01*
X122134286Y-120761009D02*
X122181905Y-120713390D01*
X122181905Y-120713390D02*
X122277143Y-120665771D01*
X122277143Y-120665771D02*
X122515238Y-120665771D01*
X122515238Y-120665771D02*
X122610476Y-120713390D01*
X122610476Y-120713390D02*
X122658095Y-120761009D01*
X122658095Y-120761009D02*
X122705714Y-120856247D01*
X122705714Y-120856247D02*
X122705714Y-121094342D01*
X122705714Y-121094342D02*
X122658095Y-121189580D01*
X122658095Y-121189580D02*
X122610476Y-121237200D01*
X122610476Y-121237200D02*
X122515238Y-121284819D01*
X122515238Y-121284819D02*
X122277143Y-121284819D01*
X122277143Y-121284819D02*
X122181905Y-121237200D01*
X122181905Y-121237200D02*
X122134286Y-121189580D01*
X96606619Y-134391804D02*
X97416142Y-134391804D01*
X97416142Y-134391804D02*
X97511380Y-134344185D01*
X97511380Y-134344185D02*
X97559000Y-134296566D01*
X97559000Y-134296566D02*
X97606619Y-134201328D01*
X97606619Y-134201328D02*
X97606619Y-134010852D01*
X97606619Y-134010852D02*
X97559000Y-133915614D01*
X97559000Y-133915614D02*
X97511380Y-133867995D01*
X97511380Y-133867995D02*
X97416142Y-133820376D01*
X97416142Y-133820376D02*
X96606619Y-133820376D01*
X96606619Y-132867995D02*
X96606619Y-133344185D01*
X96606619Y-133344185D02*
X97082809Y-133391804D01*
X97082809Y-133391804D02*
X97035190Y-133344185D01*
X97035190Y-133344185D02*
X96987571Y-133248947D01*
X96987571Y-133248947D02*
X96987571Y-133010852D01*
X96987571Y-133010852D02*
X97035190Y-132915614D01*
X97035190Y-132915614D02*
X97082809Y-132867995D01*
X97082809Y-132867995D02*
X97178047Y-132820376D01*
X97178047Y-132820376D02*
X97416142Y-132820376D01*
X97416142Y-132820376D02*
X97511380Y-132867995D01*
X97511380Y-132867995D02*
X97559000Y-132915614D01*
X97559000Y-132915614D02*
X97606619Y-133010852D01*
X97606619Y-133010852D02*
X97606619Y-133248947D01*
X97606619Y-133248947D02*
X97559000Y-133344185D01*
X97559000Y-133344185D02*
X97511380Y-133391804D01*
D12*
X90108693Y-135801138D02*
X90013455Y-135753519D01*
X90013455Y-135753519D02*
X89870598Y-135753519D01*
X89870598Y-135753519D02*
X89727741Y-135801138D01*
X89727741Y-135801138D02*
X89632503Y-135896376D01*
X89632503Y-135896376D02*
X89584884Y-135991614D01*
X89584884Y-135991614D02*
X89537265Y-136182090D01*
X89537265Y-136182090D02*
X89537265Y-136324947D01*
X89537265Y-136324947D02*
X89584884Y-136515423D01*
X89584884Y-136515423D02*
X89632503Y-136610661D01*
X89632503Y-136610661D02*
X89727741Y-136705900D01*
X89727741Y-136705900D02*
X89870598Y-136753519D01*
X89870598Y-136753519D02*
X89965836Y-136753519D01*
X89965836Y-136753519D02*
X90108693Y-136705900D01*
X90108693Y-136705900D02*
X90156312Y-136658280D01*
X90156312Y-136658280D02*
X90156312Y-136324947D01*
X90156312Y-136324947D02*
X89965836Y-136324947D01*
X90584884Y-136753519D02*
X90584884Y-135753519D01*
X90584884Y-135753519D02*
X91156312Y-136753519D01*
X91156312Y-136753519D02*
X91156312Y-135753519D01*
X91632503Y-136753519D02*
X91632503Y-135753519D01*
X91632503Y-135753519D02*
X91870598Y-135753519D01*
X91870598Y-135753519D02*
X92013455Y-135801138D01*
X92013455Y-135801138D02*
X92108693Y-135896376D01*
X92108693Y-135896376D02*
X92156312Y-135991614D01*
X92156312Y-135991614D02*
X92203931Y-136182090D01*
X92203931Y-136182090D02*
X92203931Y-136324947D01*
X92203931Y-136324947D02*
X92156312Y-136515423D01*
X92156312Y-136515423D02*
X92108693Y-136610661D01*
X92108693Y-136610661D02*
X92013455Y-136705900D01*
X92013455Y-136705900D02*
X91870598Y-136753519D01*
X91870598Y-136753519D02*
X91632503Y-136753519D01*
X89537265Y-134165900D02*
X89680122Y-134213519D01*
X89680122Y-134213519D02*
X89918217Y-134213519D01*
X89918217Y-134213519D02*
X90013455Y-134165900D01*
X90013455Y-134165900D02*
X90061074Y-134118280D01*
X90061074Y-134118280D02*
X90108693Y-134023042D01*
X90108693Y-134023042D02*
X90108693Y-133927804D01*
X90108693Y-133927804D02*
X90061074Y-133832566D01*
X90061074Y-133832566D02*
X90013455Y-133784947D01*
X90013455Y-133784947D02*
X89918217Y-133737328D01*
X89918217Y-133737328D02*
X89727741Y-133689709D01*
X89727741Y-133689709D02*
X89632503Y-133642090D01*
X89632503Y-133642090D02*
X89584884Y-133594471D01*
X89584884Y-133594471D02*
X89537265Y-133499233D01*
X89537265Y-133499233D02*
X89537265Y-133403995D01*
X89537265Y-133403995D02*
X89584884Y-133308757D01*
X89584884Y-133308757D02*
X89632503Y-133261138D01*
X89632503Y-133261138D02*
X89727741Y-133213519D01*
X89727741Y-133213519D02*
X89965836Y-133213519D01*
X89965836Y-133213519D02*
X90108693Y-133261138D01*
X90537265Y-134213519D02*
X90537265Y-133213519D01*
X90537265Y-133213519D02*
X90775360Y-133213519D01*
X90775360Y-133213519D02*
X90918217Y-133261138D01*
X90918217Y-133261138D02*
X91013455Y-133356376D01*
X91013455Y-133356376D02*
X91061074Y-133451614D01*
X91061074Y-133451614D02*
X91108693Y-133642090D01*
X91108693Y-133642090D02*
X91108693Y-133784947D01*
X91108693Y-133784947D02*
X91061074Y-133975423D01*
X91061074Y-133975423D02*
X91013455Y-134070661D01*
X91013455Y-134070661D02*
X90918217Y-134165900D01*
X90918217Y-134165900D02*
X90775360Y-134213519D01*
X90775360Y-134213519D02*
X90537265Y-134213519D01*
X90108693Y-130670338D02*
X90013455Y-130622719D01*
X90013455Y-130622719D02*
X89870598Y-130622719D01*
X89870598Y-130622719D02*
X89727741Y-130670338D01*
X89727741Y-130670338D02*
X89632503Y-130765576D01*
X89632503Y-130765576D02*
X89584884Y-130860814D01*
X89584884Y-130860814D02*
X89537265Y-131051290D01*
X89537265Y-131051290D02*
X89537265Y-131194147D01*
X89537265Y-131194147D02*
X89584884Y-131384623D01*
X89584884Y-131384623D02*
X89632503Y-131479861D01*
X89632503Y-131479861D02*
X89727741Y-131575100D01*
X89727741Y-131575100D02*
X89870598Y-131622719D01*
X89870598Y-131622719D02*
X89965836Y-131622719D01*
X89965836Y-131622719D02*
X90108693Y-131575100D01*
X90108693Y-131575100D02*
X90156312Y-131527480D01*
X90156312Y-131527480D02*
X90156312Y-131194147D01*
X90156312Y-131194147D02*
X89965836Y-131194147D01*
X90537265Y-131337004D02*
X91013455Y-131337004D01*
X90442027Y-131622719D02*
X90775360Y-130622719D01*
X90775360Y-130622719D02*
X91108693Y-131622719D01*
X91442027Y-131622719D02*
X91442027Y-130622719D01*
X91918217Y-131622719D02*
X91918217Y-130622719D01*
X91918217Y-130622719D02*
X92489645Y-131622719D01*
X92489645Y-131622719D02*
X92489645Y-130622719D01*
X102437284Y-130174966D02*
X103199189Y-130174966D01*
X102488084Y-133273766D02*
X103249989Y-133273766D01*
X102869036Y-133654719D02*
X102869036Y-132892814D01*
X105851780Y-125793060D02*
X105851780Y-125983536D01*
X105851780Y-125983536D02*
X105804161Y-126078774D01*
X105804161Y-126078774D02*
X105708923Y-126174012D01*
X105708923Y-126174012D02*
X105518447Y-126221631D01*
X105518447Y-126221631D02*
X105185114Y-126221631D01*
X105185114Y-126221631D02*
X104994638Y-126174012D01*
X104994638Y-126174012D02*
X104899400Y-126078774D01*
X104899400Y-126078774D02*
X104851780Y-125983536D01*
X104851780Y-125983536D02*
X104851780Y-125793060D01*
X104851780Y-125793060D02*
X104899400Y-125697822D01*
X104899400Y-125697822D02*
X104994638Y-125602584D01*
X104994638Y-125602584D02*
X105185114Y-125554965D01*
X105185114Y-125554965D02*
X105518447Y-125554965D01*
X105518447Y-125554965D02*
X105708923Y-125602584D01*
X105708923Y-125602584D02*
X105804161Y-125697822D01*
X105804161Y-125697822D02*
X105851780Y-125793060D01*
X105851780Y-126650203D02*
X105042257Y-126650203D01*
X105042257Y-126650203D02*
X104947019Y-126697822D01*
X104947019Y-126697822D02*
X104899400Y-126745441D01*
X104899400Y-126745441D02*
X104851780Y-126840679D01*
X104851780Y-126840679D02*
X104851780Y-127031155D01*
X104851780Y-127031155D02*
X104899400Y-127126393D01*
X104899400Y-127126393D02*
X104947019Y-127174012D01*
X104947019Y-127174012D02*
X105042257Y-127221631D01*
X105042257Y-127221631D02*
X105851780Y-127221631D01*
X105851780Y-127554965D02*
X105851780Y-128126393D01*
X104851780Y-127840679D02*
X105851780Y-127840679D01*
X105851780Y-129078775D02*
X105851780Y-129650203D01*
X104851780Y-129364489D02*
X105851780Y-129364489D01*
X105851780Y-130174013D02*
X105851780Y-130364489D01*
X105851780Y-130364489D02*
X105804161Y-130459727D01*
X105804161Y-130459727D02*
X105708923Y-130554965D01*
X105708923Y-130554965D02*
X105518447Y-130602584D01*
X105518447Y-130602584D02*
X105185114Y-130602584D01*
X105185114Y-130602584D02*
X104994638Y-130554965D01*
X104994638Y-130554965D02*
X104899400Y-130459727D01*
X104899400Y-130459727D02*
X104851780Y-130364489D01*
X104851780Y-130364489D02*
X104851780Y-130174013D01*
X104851780Y-130174013D02*
X104899400Y-130078775D01*
X104899400Y-130078775D02*
X104994638Y-129983537D01*
X104994638Y-129983537D02*
X105185114Y-129935918D01*
X105185114Y-129935918D02*
X105518447Y-129935918D01*
X105518447Y-129935918D02*
X105708923Y-129983537D01*
X105708923Y-129983537D02*
X105804161Y-130078775D01*
X105804161Y-130078775D02*
X105851780Y-130174013D01*
X104899400Y-131745442D02*
X104851780Y-131888299D01*
X104851780Y-131888299D02*
X104851780Y-132126394D01*
X104851780Y-132126394D02*
X104899400Y-132221632D01*
X104899400Y-132221632D02*
X104947019Y-132269251D01*
X104947019Y-132269251D02*
X105042257Y-132316870D01*
X105042257Y-132316870D02*
X105137495Y-132316870D01*
X105137495Y-132316870D02*
X105232733Y-132269251D01*
X105232733Y-132269251D02*
X105280352Y-132221632D01*
X105280352Y-132221632D02*
X105327971Y-132126394D01*
X105327971Y-132126394D02*
X105375590Y-131935918D01*
X105375590Y-131935918D02*
X105423209Y-131840680D01*
X105423209Y-131840680D02*
X105470828Y-131793061D01*
X105470828Y-131793061D02*
X105566066Y-131745442D01*
X105566066Y-131745442D02*
X105661304Y-131745442D01*
X105661304Y-131745442D02*
X105756542Y-131793061D01*
X105756542Y-131793061D02*
X105804161Y-131840680D01*
X105804161Y-131840680D02*
X105851780Y-131935918D01*
X105851780Y-131935918D02*
X105851780Y-132174013D01*
X105851780Y-132174013D02*
X105804161Y-132316870D01*
X104851780Y-132745442D02*
X105851780Y-132745442D01*
X105851780Y-132745442D02*
X105851780Y-133126394D01*
X105851780Y-133126394D02*
X105804161Y-133221632D01*
X105804161Y-133221632D02*
X105756542Y-133269251D01*
X105756542Y-133269251D02*
X105661304Y-133316870D01*
X105661304Y-133316870D02*
X105518447Y-133316870D01*
X105518447Y-133316870D02*
X105423209Y-133269251D01*
X105423209Y-133269251D02*
X105375590Y-133221632D01*
X105375590Y-133221632D02*
X105327971Y-133126394D01*
X105327971Y-133126394D02*
X105327971Y-132745442D01*
X105375590Y-133745442D02*
X105375590Y-134078775D01*
X104851780Y-134221632D02*
X104851780Y-133745442D01*
X104851780Y-133745442D02*
X105851780Y-133745442D01*
X105851780Y-133745442D02*
X105851780Y-134221632D01*
X105137495Y-134602585D02*
X105137495Y-135078775D01*
X104851780Y-134507347D02*
X105851780Y-134840680D01*
X105851780Y-134840680D02*
X104851780Y-135174013D01*
X104851780Y-135507347D02*
X105851780Y-135507347D01*
X104851780Y-136078775D02*
X105423209Y-135650204D01*
X105851780Y-136078775D02*
X105280352Y-135507347D01*
X105375590Y-136507347D02*
X105375590Y-136840680D01*
X104851780Y-136983537D02*
X104851780Y-136507347D01*
X104851780Y-136507347D02*
X105851780Y-136507347D01*
X105851780Y-136507347D02*
X105851780Y-136983537D01*
X104851780Y-137983537D02*
X105327971Y-137650204D01*
X104851780Y-137412109D02*
X105851780Y-137412109D01*
X105851780Y-137412109D02*
X105851780Y-137793061D01*
X105851780Y-137793061D02*
X105804161Y-137888299D01*
X105804161Y-137888299D02*
X105756542Y-137935918D01*
X105756542Y-137935918D02*
X105661304Y-137983537D01*
X105661304Y-137983537D02*
X105518447Y-137983537D01*
X105518447Y-137983537D02*
X105423209Y-137935918D01*
X105423209Y-137935918D02*
X105375590Y-137888299D01*
X105375590Y-137888299D02*
X105327971Y-137793061D01*
X105327971Y-137793061D02*
X105327971Y-137412109D01*
X90010274Y-124002719D02*
X89534084Y-124002719D01*
X89534084Y-124002719D02*
X89534084Y-123002719D01*
X90915036Y-124002719D02*
X90581703Y-123526528D01*
X90343608Y-124002719D02*
X90343608Y-123002719D01*
X90343608Y-123002719D02*
X90724560Y-123002719D01*
X90724560Y-123002719D02*
X90819798Y-123050338D01*
X90819798Y-123050338D02*
X90867417Y-123097957D01*
X90867417Y-123097957D02*
X90915036Y-123193195D01*
X90915036Y-123193195D02*
X90915036Y-123336052D01*
X90915036Y-123336052D02*
X90867417Y-123431290D01*
X90867417Y-123431290D02*
X90819798Y-123478909D01*
X90819798Y-123478909D02*
X90724560Y-123526528D01*
X90724560Y-123526528D02*
X90343608Y-123526528D01*
X91915036Y-123907480D02*
X91867417Y-123955100D01*
X91867417Y-123955100D02*
X91724560Y-124002719D01*
X91724560Y-124002719D02*
X91629322Y-124002719D01*
X91629322Y-124002719D02*
X91486465Y-123955100D01*
X91486465Y-123955100D02*
X91391227Y-123859861D01*
X91391227Y-123859861D02*
X91343608Y-123764623D01*
X91343608Y-123764623D02*
X91295989Y-123574147D01*
X91295989Y-123574147D02*
X91295989Y-123431290D01*
X91295989Y-123431290D02*
X91343608Y-123240814D01*
X91343608Y-123240814D02*
X91391227Y-123145576D01*
X91391227Y-123145576D02*
X91486465Y-123050338D01*
X91486465Y-123050338D02*
X91629322Y-123002719D01*
X91629322Y-123002719D02*
X91724560Y-123002719D01*
X91724560Y-123002719D02*
X91867417Y-123050338D01*
X91867417Y-123050338D02*
X91915036Y-123097957D01*
X92819798Y-124002719D02*
X92343608Y-124002719D01*
X92343608Y-124002719D02*
X92343608Y-123002719D01*
X93153132Y-124002719D02*
X93153132Y-123002719D01*
X93724560Y-124002719D02*
X93295989Y-123431290D01*
X93724560Y-123002719D02*
X93153132Y-123574147D01*
X89584884Y-129082719D02*
X89584884Y-128082719D01*
X89584884Y-128082719D02*
X89822979Y-128082719D01*
X89822979Y-128082719D02*
X89965836Y-128130338D01*
X89965836Y-128130338D02*
X90061074Y-128225576D01*
X90061074Y-128225576D02*
X90108693Y-128320814D01*
X90108693Y-128320814D02*
X90156312Y-128511290D01*
X90156312Y-128511290D02*
X90156312Y-128654147D01*
X90156312Y-128654147D02*
X90108693Y-128844623D01*
X90108693Y-128844623D02*
X90061074Y-128939861D01*
X90061074Y-128939861D02*
X89965836Y-129035100D01*
X89965836Y-129035100D02*
X89822979Y-129082719D01*
X89822979Y-129082719D02*
X89584884Y-129082719D01*
X90584884Y-129082719D02*
X90584884Y-128082719D01*
X91061074Y-129082719D02*
X91061074Y-128082719D01*
X91061074Y-128082719D02*
X91632502Y-129082719D01*
X91632502Y-129082719D02*
X91632502Y-128082719D01*
X89588065Y-138439557D02*
X89635684Y-138391938D01*
X89635684Y-138391938D02*
X89730922Y-138344319D01*
X89730922Y-138344319D02*
X89969017Y-138344319D01*
X89969017Y-138344319D02*
X90064255Y-138391938D01*
X90064255Y-138391938D02*
X90111874Y-138439557D01*
X90111874Y-138439557D02*
X90159493Y-138534795D01*
X90159493Y-138534795D02*
X90159493Y-138630033D01*
X90159493Y-138630033D02*
X90111874Y-138772890D01*
X90111874Y-138772890D02*
X89540446Y-139344319D01*
X89540446Y-139344319D02*
X90159493Y-139344319D01*
X90588065Y-139249080D02*
X90635684Y-139296700D01*
X90635684Y-139296700D02*
X90588065Y-139344319D01*
X90588065Y-139344319D02*
X90540446Y-139296700D01*
X90540446Y-139296700D02*
X90588065Y-139249080D01*
X90588065Y-139249080D02*
X90588065Y-139344319D01*
X91540445Y-138344319D02*
X91064255Y-138344319D01*
X91064255Y-138344319D02*
X91016636Y-138820509D01*
X91016636Y-138820509D02*
X91064255Y-138772890D01*
X91064255Y-138772890D02*
X91159493Y-138725271D01*
X91159493Y-138725271D02*
X91397588Y-138725271D01*
X91397588Y-138725271D02*
X91492826Y-138772890D01*
X91492826Y-138772890D02*
X91540445Y-138820509D01*
X91540445Y-138820509D02*
X91588064Y-138915747D01*
X91588064Y-138915747D02*
X91588064Y-139153842D01*
X91588064Y-139153842D02*
X91540445Y-139249080D01*
X91540445Y-139249080D02*
X91492826Y-139296700D01*
X91492826Y-139296700D02*
X91397588Y-139344319D01*
X91397588Y-139344319D02*
X91159493Y-139344319D01*
X91159493Y-139344319D02*
X91064255Y-139296700D01*
X91064255Y-139296700D02*
X91016636Y-139249080D01*
X92016636Y-138963366D02*
X92778541Y-138963366D01*
X93730921Y-138344319D02*
X93254731Y-138344319D01*
X93254731Y-138344319D02*
X93207112Y-138820509D01*
X93207112Y-138820509D02*
X93254731Y-138772890D01*
X93254731Y-138772890D02*
X93349969Y-138725271D01*
X93349969Y-138725271D02*
X93588064Y-138725271D01*
X93588064Y-138725271D02*
X93683302Y-138772890D01*
X93683302Y-138772890D02*
X93730921Y-138820509D01*
X93730921Y-138820509D02*
X93778540Y-138915747D01*
X93778540Y-138915747D02*
X93778540Y-139153842D01*
X93778540Y-139153842D02*
X93730921Y-139249080D01*
X93730921Y-139249080D02*
X93683302Y-139296700D01*
X93683302Y-139296700D02*
X93588064Y-139344319D01*
X93588064Y-139344319D02*
X93349969Y-139344319D01*
X93349969Y-139344319D02*
X93254731Y-139296700D01*
X93254731Y-139296700D02*
X93207112Y-139249080D01*
X94064255Y-138344319D02*
X94397588Y-139344319D01*
X94397588Y-139344319D02*
X94730921Y-138344319D01*
X89867417Y-126069709D02*
X90010274Y-126117328D01*
X90010274Y-126117328D02*
X90057893Y-126164947D01*
X90057893Y-126164947D02*
X90105512Y-126260185D01*
X90105512Y-126260185D02*
X90105512Y-126403042D01*
X90105512Y-126403042D02*
X90057893Y-126498280D01*
X90057893Y-126498280D02*
X90010274Y-126545900D01*
X90010274Y-126545900D02*
X89915036Y-126593519D01*
X89915036Y-126593519D02*
X89534084Y-126593519D01*
X89534084Y-126593519D02*
X89534084Y-125593519D01*
X89534084Y-125593519D02*
X89867417Y-125593519D01*
X89867417Y-125593519D02*
X89962655Y-125641138D01*
X89962655Y-125641138D02*
X90010274Y-125688757D01*
X90010274Y-125688757D02*
X90057893Y-125783995D01*
X90057893Y-125783995D02*
X90057893Y-125879233D01*
X90057893Y-125879233D02*
X90010274Y-125974471D01*
X90010274Y-125974471D02*
X89962655Y-126022090D01*
X89962655Y-126022090D02*
X89867417Y-126069709D01*
X89867417Y-126069709D02*
X89534084Y-126069709D01*
X91105512Y-126498280D02*
X91057893Y-126545900D01*
X91057893Y-126545900D02*
X90915036Y-126593519D01*
X90915036Y-126593519D02*
X90819798Y-126593519D01*
X90819798Y-126593519D02*
X90676941Y-126545900D01*
X90676941Y-126545900D02*
X90581703Y-126450661D01*
X90581703Y-126450661D02*
X90534084Y-126355423D01*
X90534084Y-126355423D02*
X90486465Y-126164947D01*
X90486465Y-126164947D02*
X90486465Y-126022090D01*
X90486465Y-126022090D02*
X90534084Y-125831614D01*
X90534084Y-125831614D02*
X90581703Y-125736376D01*
X90581703Y-125736376D02*
X90676941Y-125641138D01*
X90676941Y-125641138D02*
X90819798Y-125593519D01*
X90819798Y-125593519D02*
X90915036Y-125593519D01*
X90915036Y-125593519D02*
X91057893Y-125641138D01*
X91057893Y-125641138D02*
X91105512Y-125688757D01*
X92010274Y-126593519D02*
X91534084Y-126593519D01*
X91534084Y-126593519D02*
X91534084Y-125593519D01*
X92343608Y-126593519D02*
X92343608Y-125593519D01*
X92915036Y-126593519D02*
X92486465Y-126022090D01*
X92915036Y-125593519D02*
X92343608Y-126164947D01*
D11*
X139561667Y-113659700D02*
X139704524Y-113707319D01*
X139704524Y-113707319D02*
X139942619Y-113707319D01*
X139942619Y-113707319D02*
X140037857Y-113659700D01*
X140037857Y-113659700D02*
X140085476Y-113612080D01*
X140085476Y-113612080D02*
X140133095Y-113516842D01*
X140133095Y-113516842D02*
X140133095Y-113421604D01*
X140133095Y-113421604D02*
X140085476Y-113326366D01*
X140085476Y-113326366D02*
X140037857Y-113278747D01*
X140037857Y-113278747D02*
X139942619Y-113231128D01*
X139942619Y-113231128D02*
X139752143Y-113183509D01*
X139752143Y-113183509D02*
X139656905Y-113135890D01*
X139656905Y-113135890D02*
X139609286Y-113088271D01*
X139609286Y-113088271D02*
X139561667Y-112993033D01*
X139561667Y-112993033D02*
X139561667Y-112897795D01*
X139561667Y-112897795D02*
X139609286Y-112802557D01*
X139609286Y-112802557D02*
X139656905Y-112754938D01*
X139656905Y-112754938D02*
X139752143Y-112707319D01*
X139752143Y-112707319D02*
X139990238Y-112707319D01*
X139990238Y-112707319D02*
X140133095Y-112754938D01*
X140466429Y-112707319D02*
X140704524Y-113707319D01*
X140704524Y-113707319D02*
X140895000Y-112993033D01*
X140895000Y-112993033D02*
X141085476Y-113707319D01*
X141085476Y-113707319D02*
X141323572Y-112707319D01*
X141656905Y-112802557D02*
X141704524Y-112754938D01*
X141704524Y-112754938D02*
X141799762Y-112707319D01*
X141799762Y-112707319D02*
X142037857Y-112707319D01*
X142037857Y-112707319D02*
X142133095Y-112754938D01*
X142133095Y-112754938D02*
X142180714Y-112802557D01*
X142180714Y-112802557D02*
X142228333Y-112897795D01*
X142228333Y-112897795D02*
X142228333Y-112993033D01*
X142228333Y-112993033D02*
X142180714Y-113135890D01*
X142180714Y-113135890D02*
X141609286Y-113707319D01*
X141609286Y-113707319D02*
X142228333Y-113707319D01*
D13*
X149040000Y-110955000D02*
X161019999Y-110955000D01*
X149040001Y-93515000D02*
X149040000Y-110955000D01*
X153033334Y-93515000D02*
X149040001Y-93515000D01*
X153033334Y-93875000D02*
X153033334Y-93515000D01*
X157026666Y-93515000D02*
X157026666Y-93875000D01*
X157026666Y-93875000D02*
X153033334Y-93875000D01*
X161019999Y-110955000D02*
X161020000Y-93515000D01*
X161020000Y-93515000D02*
X157026666Y-93515000D01*
X165285000Y-109362500D02*
X165285000Y-118602500D01*
X165285000Y-118602500D02*
X168725000Y-118602500D01*
X167005000Y-107402500D02*
X167005000Y-109362500D01*
X167005000Y-120562500D02*
X167005000Y-118602500D01*
X168725000Y-109362500D02*
X165285000Y-109362500D01*
X168725000Y-118602500D02*
X168725000Y-109362500D01*
X123084113Y-95334000D02*
X123084113Y-94766000D01*
X123124113Y-95568000D02*
X123124113Y-94532000D01*
X123164113Y-95727000D02*
X123164113Y-94373000D01*
X123204113Y-95855000D02*
X123204113Y-94245000D01*
X123244113Y-95965000D02*
X123244113Y-94135000D01*
X123284113Y-96061000D02*
X123284113Y-94039000D01*
X123324113Y-96148000D02*
X123324113Y-93952000D01*
X123364113Y-96228000D02*
X123364113Y-93872000D01*
X123404113Y-94010000D02*
X123404113Y-93799000D01*
X123404113Y-96301000D02*
X123404113Y-96090000D01*
X123444113Y-94010000D02*
X123444113Y-93731000D01*
X123444113Y-96369000D02*
X123444113Y-96090000D01*
X123484113Y-94010000D02*
X123484113Y-93667000D01*
X123484113Y-96433000D02*
X123484113Y-96090000D01*
X123524113Y-94010000D02*
X123524113Y-93607000D01*
X123524113Y-96493000D02*
X123524113Y-96090000D01*
X123564113Y-94010000D02*
X123564113Y-93550000D01*
X123564113Y-96550000D02*
X123564113Y-96090000D01*
X123604113Y-94010000D02*
X123604113Y-93496000D01*
X123604113Y-96604000D02*
X123604113Y-96090000D01*
X123644113Y-94010000D02*
X123644113Y-93445000D01*
X123644113Y-96655000D02*
X123644113Y-96090000D01*
X123684113Y-94010000D02*
X123684113Y-93397000D01*
X123684113Y-96703000D02*
X123684113Y-96090000D01*
X123724113Y-94010000D02*
X123724113Y-93351000D01*
X123724113Y-96749000D02*
X123724113Y-96090000D01*
X123764113Y-94010000D02*
X123764113Y-93307000D01*
X123764113Y-96793000D02*
X123764113Y-96090000D01*
X123804113Y-94010000D02*
X123804113Y-93265000D01*
X123804113Y-96835000D02*
X123804113Y-96090000D01*
X123844113Y-94010000D02*
X123844113Y-93224000D01*
X123844113Y-96876000D02*
X123844113Y-96090000D01*
X123884113Y-94010000D02*
X123884113Y-93186000D01*
X123884113Y-96914000D02*
X123884113Y-96090000D01*
X123924113Y-94010000D02*
X123924113Y-93149000D01*
X123924113Y-96951000D02*
X123924113Y-96090000D01*
X123964113Y-94010000D02*
X123964113Y-93113000D01*
X123964113Y-96987000D02*
X123964113Y-96090000D01*
X124004113Y-94010000D02*
X124004113Y-93079000D01*
X124004113Y-97021000D02*
X124004113Y-96090000D01*
X124044113Y-94010000D02*
X124044113Y-93046000D01*
X124044113Y-97054000D02*
X124044113Y-96090000D01*
X124084113Y-94010000D02*
X124084113Y-93015000D01*
X124084113Y-97085000D02*
X124084113Y-96090000D01*
X124124113Y-94010000D02*
X124124113Y-92985000D01*
X124124113Y-97115000D02*
X124124113Y-96090000D01*
X124164113Y-94010000D02*
X124164113Y-92955000D01*
X124164113Y-97145000D02*
X124164113Y-96090000D01*
X124204113Y-94010000D02*
X124204113Y-92928000D01*
X124204113Y-97172000D02*
X124204113Y-96090000D01*
X124244113Y-94010000D02*
X124244113Y-92901000D01*
X124244113Y-97199000D02*
X124244113Y-96090000D01*
X124284113Y-94010000D02*
X124284113Y-92875000D01*
X124284113Y-97225000D02*
X124284113Y-96090000D01*
X124324113Y-94010000D02*
X124324113Y-92850000D01*
X124324113Y-97250000D02*
X124324113Y-96090000D01*
X124364113Y-94010000D02*
X124364113Y-92826000D01*
X124364113Y-97274000D02*
X124364113Y-96090000D01*
X124404113Y-94010000D02*
X124404113Y-92803000D01*
X124404113Y-97297000D02*
X124404113Y-96090000D01*
X124444113Y-94010000D02*
X124444113Y-92782000D01*
X124444113Y-97318000D02*
X124444113Y-96090000D01*
X124484113Y-94010000D02*
X124484113Y-92760000D01*
X124484113Y-97340000D02*
X124484113Y-96090000D01*
X124524113Y-94010000D02*
X124524113Y-92740000D01*
X124524113Y-97360000D02*
X124524113Y-96090000D01*
X124564113Y-94010000D02*
X124564113Y-92721000D01*
X124564113Y-97379000D02*
X124564113Y-96090000D01*
X124604113Y-94010000D02*
X124604113Y-92702000D01*
X124604113Y-97398000D02*
X124604113Y-96090000D01*
X124644113Y-94010000D02*
X124644113Y-92685000D01*
X124644113Y-97415000D02*
X124644113Y-96090000D01*
X124684113Y-94010000D02*
X124684113Y-92668000D01*
X124684113Y-97432000D02*
X124684113Y-96090000D01*
X124724113Y-94010000D02*
X124724113Y-92652000D01*
X124724113Y-97448000D02*
X124724113Y-96090000D01*
X124764113Y-94010000D02*
X124764113Y-92636000D01*
X124764113Y-97464000D02*
X124764113Y-96090000D01*
X124804113Y-94010000D02*
X124804113Y-92622000D01*
X124804113Y-97478000D02*
X124804113Y-96090000D01*
X124844113Y-94010000D02*
X124844113Y-92608000D01*
X124844113Y-97492000D02*
X124844113Y-96090000D01*
X124884113Y-94010000D02*
X124884113Y-92595000D01*
X124884113Y-97505000D02*
X124884113Y-96090000D01*
X124924113Y-94010000D02*
X124924113Y-92582000D01*
X124924113Y-97518000D02*
X124924113Y-96090000D01*
X124964113Y-94010000D02*
X124964113Y-92570000D01*
X124964113Y-97530000D02*
X124964113Y-96090000D01*
X125005113Y-94010000D02*
X125005113Y-92559000D01*
X125005113Y-97541000D02*
X125005113Y-96090000D01*
X125045113Y-94010000D02*
X125045113Y-92549000D01*
X125045113Y-97551000D02*
X125045113Y-96090000D01*
X125085113Y-94010000D02*
X125085113Y-92539000D01*
X125085113Y-97561000D02*
X125085113Y-96090000D01*
X125125113Y-94010000D02*
X125125113Y-92530000D01*
X125125113Y-97570000D02*
X125125113Y-96090000D01*
X125165113Y-94010000D02*
X125165113Y-92522000D01*
X125165113Y-97578000D02*
X125165113Y-96090000D01*
X125205113Y-94010000D02*
X125205113Y-92514000D01*
X125205113Y-97586000D02*
X125205113Y-96090000D01*
X125245113Y-94010000D02*
X125245113Y-92507000D01*
X125245113Y-97593000D02*
X125245113Y-96090000D01*
X125285113Y-94010000D02*
X125285113Y-92500000D01*
X125285113Y-97600000D02*
X125285113Y-96090000D01*
X125325113Y-94010000D02*
X125325113Y-92494000D01*
X125325113Y-97606000D02*
X125325113Y-96090000D01*
X125365113Y-94010000D02*
X125365113Y-92489000D01*
X125365113Y-97611000D02*
X125365113Y-96090000D01*
X125405113Y-94010000D02*
X125405113Y-92485000D01*
X125405113Y-97615000D02*
X125405113Y-96090000D01*
X125445113Y-94010000D02*
X125445113Y-92481000D01*
X125445113Y-97619000D02*
X125445113Y-96090000D01*
X125485113Y-97623000D02*
X125485113Y-92477000D01*
X125525113Y-97626000D02*
X125525113Y-92474000D01*
X125565113Y-97628000D02*
X125565113Y-92472000D01*
X125605113Y-97629000D02*
X125605113Y-92471000D01*
X125645113Y-97630000D02*
X125645113Y-92470000D01*
X125685113Y-97630000D02*
X125685113Y-92470000D01*
X128239888Y-96775000D02*
X128239888Y-96275000D01*
X128489888Y-96525000D02*
X127989888Y-96525000D01*
X128305113Y-95050000D02*
G75*
G02*
X123065113Y-95050000I-2620000J0D01*
G01*
X123065113Y-95050000D02*
G75*
G02*
X128305113Y-95050000I2620000J0D01*
G01*
X150730000Y-116752500D02*
X150730000Y-118252500D01*
X151980000Y-120752500D02*
X156480000Y-120752500D01*
X156480000Y-114252500D02*
X151980000Y-114252500D01*
X157730000Y-118252500D02*
X157730000Y-116752500D01*
X167430000Y-68630000D02*
X167430000Y-76750000D01*
X167430000Y-82150000D02*
X167430000Y-83370000D01*
X167430000Y-83370000D02*
X169100000Y-83370000D01*
X175000000Y-83370000D02*
X176670000Y-83370000D01*
X176670000Y-68630000D02*
X167430000Y-68630000D01*
X176670000Y-83370000D02*
X176670000Y-68630000D01*
X168850000Y-92015000D02*
X170180000Y-92015000D01*
X168850000Y-93345000D02*
X168850000Y-92015000D01*
X168850000Y-94615000D02*
X168850000Y-102295000D01*
X168850000Y-94615000D02*
X171510000Y-94615000D01*
X168850000Y-102295000D02*
X171510000Y-102295000D01*
X171510000Y-94615000D02*
X171510000Y-102295000D01*
X141715000Y-96372500D02*
X141715000Y-105612500D01*
X141715000Y-105612500D02*
X145155000Y-105612500D01*
X143435000Y-94412500D02*
X143435000Y-96372500D01*
X143435000Y-107572500D02*
X143435000Y-105612500D01*
X145155000Y-96372500D02*
X141715000Y-96372500D01*
X145155000Y-105612500D02*
X145155000Y-96372500D01*
X110326600Y-125744300D02*
X110326600Y-142644300D01*
X110326600Y-142644300D02*
X180486600Y-142644300D01*
X180486600Y-125744300D02*
X110326600Y-125744300D01*
D12*
X180513400Y-142644300D02*
X180513400Y-125744300D01*
D13*
X132825000Y-96372500D02*
X132825000Y-105612500D01*
X132825000Y-105612500D02*
X136265000Y-105612500D01*
X134545000Y-94412500D02*
X134545000Y-96372500D01*
X134545000Y-107572500D02*
X134545000Y-105612500D01*
X136265000Y-96372500D02*
X132825000Y-96372500D01*
X136265000Y-105612500D02*
X136265000Y-96372500D01*
X123109000Y-103154000D02*
X123109000Y-102586000D01*
X123149000Y-103388000D02*
X123149000Y-102352000D01*
X123189000Y-103547000D02*
X123189000Y-102193000D01*
X123229000Y-103675000D02*
X123229000Y-102065000D01*
X123269000Y-103785000D02*
X123269000Y-101955000D01*
X123309000Y-103881000D02*
X123309000Y-101859000D01*
X123349000Y-103968000D02*
X123349000Y-101772000D01*
X123389000Y-104048000D02*
X123389000Y-101692000D01*
X123429000Y-101830000D02*
X123429000Y-101619000D01*
X123429000Y-104121000D02*
X123429000Y-103910000D01*
X123469000Y-101830000D02*
X123469000Y-101551000D01*
X123469000Y-104189000D02*
X123469000Y-103910000D01*
X123509000Y-101830000D02*
X123509000Y-101487000D01*
X123509000Y-104253000D02*
X123509000Y-103910000D01*
X123549000Y-101830000D02*
X123549000Y-101427000D01*
X123549000Y-104313000D02*
X123549000Y-103910000D01*
X123589000Y-101830000D02*
X123589000Y-101370000D01*
X123589000Y-104370000D02*
X123589000Y-103910000D01*
X123629000Y-101830000D02*
X123629000Y-101316000D01*
X123629000Y-104424000D02*
X123629000Y-103910000D01*
X123669000Y-101830000D02*
X123669000Y-101265000D01*
X123669000Y-104475000D02*
X123669000Y-103910000D01*
X123709000Y-101830000D02*
X123709000Y-101217000D01*
X123709000Y-104523000D02*
X123709000Y-103910000D01*
X123749000Y-101830000D02*
X123749000Y-101171000D01*
X123749000Y-104569000D02*
X123749000Y-103910000D01*
X123789000Y-101830000D02*
X123789000Y-101127000D01*
X123789000Y-104613000D02*
X123789000Y-103910000D01*
X123829000Y-101830000D02*
X123829000Y-101085000D01*
X123829000Y-104655000D02*
X123829000Y-103910000D01*
X123869000Y-101830000D02*
X123869000Y-101044000D01*
X123869000Y-104696000D02*
X123869000Y-103910000D01*
X123909000Y-101830000D02*
X123909000Y-101006000D01*
X123909000Y-104734000D02*
X123909000Y-103910000D01*
X123949000Y-101830000D02*
X123949000Y-100969000D01*
X123949000Y-104771000D02*
X123949000Y-103910000D01*
X123989000Y-101830000D02*
X123989000Y-100933000D01*
X123989000Y-104807000D02*
X123989000Y-103910000D01*
X124029000Y-101830000D02*
X124029000Y-100899000D01*
X124029000Y-104841000D02*
X124029000Y-103910000D01*
X124069000Y-101830000D02*
X124069000Y-100866000D01*
X124069000Y-104874000D02*
X124069000Y-103910000D01*
X124109000Y-101830000D02*
X124109000Y-100835000D01*
X124109000Y-104905000D02*
X124109000Y-103910000D01*
X124149000Y-101830000D02*
X124149000Y-100805000D01*
X124149000Y-104935000D02*
X124149000Y-103910000D01*
X124189000Y-101830000D02*
X124189000Y-100775000D01*
X124189000Y-104965000D02*
X124189000Y-103910000D01*
X124229000Y-101830000D02*
X124229000Y-100748000D01*
X124229000Y-104992000D02*
X124229000Y-103910000D01*
X124269000Y-101830000D02*
X124269000Y-100721000D01*
X124269000Y-105019000D02*
X124269000Y-103910000D01*
X124309000Y-101830000D02*
X124309000Y-100695000D01*
X124309000Y-105045000D02*
X124309000Y-103910000D01*
X124349000Y-101830000D02*
X124349000Y-100670000D01*
X124349000Y-105070000D02*
X124349000Y-103910000D01*
X124389000Y-101830000D02*
X124389000Y-100646000D01*
X124389000Y-105094000D02*
X124389000Y-103910000D01*
X124429000Y-101830000D02*
X124429000Y-100623000D01*
X124429000Y-105117000D02*
X124429000Y-103910000D01*
X124469000Y-101830000D02*
X124469000Y-100602000D01*
X124469000Y-105138000D02*
X124469000Y-103910000D01*
X124509000Y-101830000D02*
X124509000Y-100580000D01*
X124509000Y-105160000D02*
X124509000Y-103910000D01*
X124549000Y-101830000D02*
X124549000Y-100560000D01*
X124549000Y-105180000D02*
X124549000Y-103910000D01*
X124589000Y-101830000D02*
X124589000Y-100541000D01*
X124589000Y-105199000D02*
X124589000Y-103910000D01*
X124629000Y-101830000D02*
X124629000Y-100522000D01*
X124629000Y-105218000D02*
X124629000Y-103910000D01*
X124669000Y-101830000D02*
X124669000Y-100505000D01*
X124669000Y-105235000D02*
X124669000Y-103910000D01*
X124709000Y-101830000D02*
X124709000Y-100488000D01*
X124709000Y-105252000D02*
X124709000Y-103910000D01*
X124749000Y-101830000D02*
X124749000Y-100472000D01*
X124749000Y-105268000D02*
X124749000Y-103910000D01*
X124789000Y-101830000D02*
X124789000Y-100456000D01*
X124789000Y-105284000D02*
X124789000Y-103910000D01*
X124829000Y-101830000D02*
X124829000Y-100442000D01*
X124829000Y-105298000D02*
X124829000Y-103910000D01*
X124869000Y-101830000D02*
X124869000Y-100428000D01*
X124869000Y-105312000D02*
X124869000Y-103910000D01*
X124909000Y-101830000D02*
X124909000Y-100415000D01*
X124909000Y-105325000D02*
X124909000Y-103910000D01*
X124949000Y-101830000D02*
X124949000Y-100402000D01*
X124949000Y-105338000D02*
X124949000Y-103910000D01*
X124989000Y-101830000D02*
X124989000Y-100390000D01*
X124989000Y-105350000D02*
X124989000Y-103910000D01*
X125030000Y-101830000D02*
X125030000Y-100379000D01*
X125030000Y-105361000D02*
X125030000Y-103910000D01*
X125070000Y-101830000D02*
X125070000Y-100369000D01*
X125070000Y-105371000D02*
X125070000Y-103910000D01*
X125110000Y-101830000D02*
X125110000Y-100359000D01*
X125110000Y-105381000D02*
X125110000Y-103910000D01*
X125150000Y-101830000D02*
X125150000Y-100350000D01*
X125150000Y-105390000D02*
X125150000Y-103910000D01*
X125190000Y-101830000D02*
X125190000Y-100342000D01*
X125190000Y-105398000D02*
X125190000Y-103910000D01*
X125230000Y-101830000D02*
X125230000Y-100334000D01*
X125230000Y-105406000D02*
X125230000Y-103910000D01*
X125270000Y-101830000D02*
X125270000Y-100327000D01*
X125270000Y-105413000D02*
X125270000Y-103910000D01*
X125310000Y-101830000D02*
X125310000Y-100320000D01*
X125310000Y-105420000D02*
X125310000Y-103910000D01*
X125350000Y-101830000D02*
X125350000Y-100314000D01*
X125350000Y-105426000D02*
X125350000Y-103910000D01*
X125390000Y-101830000D02*
X125390000Y-100309000D01*
X125390000Y-105431000D02*
X125390000Y-103910000D01*
X125430000Y-101830000D02*
X125430000Y-100305000D01*
X125430000Y-105435000D02*
X125430000Y-103910000D01*
X125470000Y-101830000D02*
X125470000Y-100301000D01*
X125470000Y-105439000D02*
X125470000Y-103910000D01*
X125510000Y-105443000D02*
X125510000Y-100297000D01*
X125550000Y-105446000D02*
X125550000Y-100294000D01*
X125590000Y-105448000D02*
X125590000Y-100292000D01*
X125630000Y-105449000D02*
X125630000Y-100291000D01*
X125670000Y-105450000D02*
X125670000Y-100290000D01*
X125710000Y-105450000D02*
X125710000Y-100290000D01*
X128264775Y-104595000D02*
X128264775Y-104095000D01*
X128514775Y-104345000D02*
X128014775Y-104345000D01*
X128330000Y-102870000D02*
G75*
G02*
X123090000Y-102870000I-2620000J0D01*
G01*
X123090000Y-102870000D02*
G75*
G02*
X128330000Y-102870000I2620000J0D01*
G01*
X115340000Y-112395000D02*
X117300000Y-112395000D01*
X117300000Y-110675000D02*
X117300000Y-114115000D01*
X117300000Y-114115000D02*
X126540000Y-114115000D01*
X126540000Y-110675000D02*
X117300000Y-110675000D01*
X126540000Y-114115000D02*
X126540000Y-110675000D01*
X128500000Y-112395000D02*
X126540000Y-112395000D01*
D12*
X115062000Y-68654900D02*
X115062000Y-90011900D01*
D13*
X115080400Y-90004900D02*
X158680400Y-90004900D01*
X158680400Y-68654900D02*
X115080400Y-68654900D01*
X158680400Y-90004900D02*
X158680400Y-68654900D01*
X84225000Y-117821200D02*
X110085000Y-117821200D01*
X84225001Y-69478400D02*
X84225000Y-117821200D01*
X84225001Y-69478400D02*
X93401001Y-69478400D01*
X110085000Y-69478400D02*
X100909000Y-69478400D01*
X110085000Y-117821200D02*
X110085000Y-69478400D01*
X100905800Y-74560400D02*
X93405800Y-74560400D01*
X93405800Y-68868800D01*
X100905800Y-68868800D01*
X100905800Y-74560400D01*
X115340000Y-118110000D02*
X117300000Y-118110000D01*
X117300000Y-116390000D02*
X117300000Y-119830000D01*
X117300000Y-119830000D02*
X126540000Y-119830000D01*
X126540000Y-116390000D02*
X117300000Y-116390000D01*
X126540000Y-119830000D02*
X126540000Y-116390000D01*
X128500000Y-118110000D02*
X126540000Y-118110000D01*
X86687000Y-120675900D02*
X86687000Y-141575900D01*
X86687000Y-141575900D02*
X107737000Y-141575900D01*
X107737000Y-120675900D02*
X86687000Y-120675900D01*
D12*
X107769000Y-141589100D02*
X107769000Y-120689100D01*
D13*
X137395000Y-116752500D02*
X137395000Y-118252500D01*
X138645000Y-120752500D02*
X143145000Y-120752500D01*
X143145000Y-114252500D02*
X138645000Y-114252500D01*
X144395000Y-118252500D02*
X144395000Y-116752500D01*
%LPC*%
D14*
X151130000Y-94615000D03*
X151130000Y-97155000D03*
X151130000Y-99695000D03*
X151130000Y-102235000D03*
X151130000Y-104775000D03*
X151130000Y-107315000D03*
X151130000Y-109855000D03*
X158930000Y-109855000D03*
X158930000Y-107315000D03*
X158930000Y-104775000D03*
X158930000Y-102235000D03*
X158930000Y-99695000D03*
X158930000Y-97155000D03*
X158930000Y-94615000D03*
D15*
X167005000Y-106362500D03*
D16*
X167005000Y-121602500D03*
D17*
X126935113Y-95050000D03*
D15*
X124435113Y-95050000D03*
D18*
X150980000Y-115252500D03*
X157480000Y-115252500D03*
X150980000Y-119752500D03*
X157480000Y-119752500D03*
D19*
X172050000Y-82650000D03*
D20*
X172050000Y-76450000D03*
D21*
X167350000Y-79450000D03*
D22*
X170180000Y-93345000D03*
D23*
X170180000Y-95885000D03*
X170180000Y-98425000D03*
X170180000Y-100965000D03*
D15*
X143435000Y-93372500D03*
D16*
X143435000Y-108612500D03*
D24*
X120315400Y-128944700D03*
X120315400Y-134177100D03*
X120315400Y-139409500D03*
X170505800Y-128944700D03*
X170505800Y-134177100D03*
X170505800Y-139409500D03*
D15*
X134545000Y-93372500D03*
D16*
X134545000Y-108612500D03*
D17*
X126960000Y-102870000D03*
D15*
X124460000Y-102870000D03*
X129540000Y-112395000D03*
D16*
X114300000Y-112395000D03*
D25*
X156921200Y-88277700D03*
X156921200Y-70396100D03*
X116840000Y-88277700D03*
X116840000Y-70396100D03*
D26*
X108737400Y-116671600D03*
X108737400Y-114131600D03*
X108737400Y-111591600D03*
X108737400Y-109051600D03*
X108737400Y-106511600D03*
X108737400Y-103971600D03*
X108737400Y-101431600D03*
X108737400Y-98891600D03*
X108737400Y-96351600D03*
X108737400Y-93811600D03*
X108737400Y-91271600D03*
X108737400Y-88731600D03*
X108737400Y-86191600D03*
X108737400Y-83651600D03*
X108737400Y-81111600D03*
D27*
X108737400Y-78571600D03*
D26*
X108737400Y-76031600D03*
X108737400Y-73491600D03*
X108737400Y-70951600D03*
X85572600Y-116671600D03*
X85572600Y-114131600D03*
X85572600Y-111591600D03*
X85572600Y-109051600D03*
X85572600Y-106511600D03*
X85572600Y-103971600D03*
X85572600Y-101431600D03*
X85572600Y-98891600D03*
X85572600Y-96351600D03*
X85572600Y-93811600D03*
X85572600Y-91271600D03*
X85572600Y-88731600D03*
X85572600Y-86191600D03*
X85572600Y-83651600D03*
X85572600Y-81111600D03*
D27*
X85572600Y-78571600D03*
D26*
X85572600Y-76031600D03*
X85572600Y-73491600D03*
X85572600Y-70951600D03*
D15*
X129540000Y-118110000D03*
D16*
X114300000Y-118110000D03*
D28*
X88160200Y-123520700D03*
X88160200Y-126060700D03*
X88160200Y-128600700D03*
X88160200Y-131140700D03*
X88160200Y-133680700D03*
X88160200Y-136220700D03*
X88160200Y-138760700D03*
D18*
X137645000Y-115252500D03*
X144145000Y-115252500D03*
X137645000Y-119752500D03*
X144145000Y-119752500D03*
%LPD*%
M02*
