G04 #@! TF.GenerationSoftware,KiCad,Pcbnew,8.0.1*
G04 #@! TF.CreationDate,2024-04-23T21:18:21-07:00*
G04 #@! TF.ProjectId,FanSystem,46616e53-7973-4746-956d-2e6b69636164,1*
G04 #@! TF.SameCoordinates,Original*
G04 #@! TF.FileFunction,Copper,L4,Bot*
G04 #@! TF.FilePolarity,Positive*
%FSLAX46Y46*%
G04 Gerber Fmt 4.6, Leading zero omitted, Abs format (unit mm)*
G04 Created by KiCad (PCBNEW 8.0.1) date 2024-04-23 21:18:21*
%MOMM*%
%LPD*%
G01*
G04 APERTURE LIST*
G04 #@! TA.AperFunction,ComponentPad*
%ADD10O,3.180000X1.200000*%
G04 #@! TD*
G04 #@! TA.AperFunction,ComponentPad*
%ADD11C,1.600000*%
G04 #@! TD*
G04 #@! TA.AperFunction,ComponentPad*
%ADD12O,1.600000X1.600000*%
G04 #@! TD*
G04 #@! TA.AperFunction,ComponentPad*
%ADD13R,1.600000X1.600000*%
G04 #@! TD*
G04 #@! TA.AperFunction,ComponentPad*
%ADD14C,2.000000*%
G04 #@! TD*
G04 #@! TA.AperFunction,ComponentPad*
%ADD15R,4.500000X2.000000*%
G04 #@! TD*
G04 #@! TA.AperFunction,ComponentPad*
%ADD16O,4.000000X2.000000*%
G04 #@! TD*
G04 #@! TA.AperFunction,ComponentPad*
%ADD17O,2.000000X4.000000*%
G04 #@! TD*
G04 #@! TA.AperFunction,ComponentPad*
%ADD18R,1.700000X1.700000*%
G04 #@! TD*
G04 #@! TA.AperFunction,ComponentPad*
%ADD19O,1.700000X1.700000*%
G04 #@! TD*
G04 #@! TA.AperFunction,ComponentPad*
%ADD20O,3.800000X2.800000*%
G04 #@! TD*
G04 #@! TA.AperFunction,ComponentPad*
%ADD21R,3.100000X3.100000*%
G04 #@! TD*
G04 #@! TA.AperFunction,ComponentPad*
%ADD22O,2.000000X1.200000*%
G04 #@! TD*
G04 #@! TA.AperFunction,ComponentPad*
%ADD23R,2.000000X1.200000*%
G04 #@! TD*
G04 #@! TA.AperFunction,ComponentPad*
%ADD24C,1.800000*%
G04 #@! TD*
G04 #@! TA.AperFunction,Conductor*
%ADD25C,0.254000*%
G04 #@! TD*
G04 APERTURE END LIST*
D10*
X151130000Y-94615000D03*
X151130000Y-97155000D03*
X151130000Y-99695000D03*
X151130000Y-102235000D03*
X151130000Y-104775000D03*
X151130000Y-107315000D03*
X151130000Y-109855000D03*
X158930000Y-109855000D03*
X158930000Y-107315000D03*
X158930000Y-104775000D03*
X158930000Y-102235000D03*
X158930000Y-99695000D03*
X158930000Y-97155000D03*
X158930000Y-94615000D03*
D11*
X167005000Y-106362500D03*
D12*
X167005000Y-121602500D03*
D13*
X126935113Y-95050000D03*
D11*
X124435113Y-95050000D03*
D14*
X150980000Y-115252500D03*
X157480000Y-115252500D03*
X150980000Y-119752500D03*
X157480000Y-119752500D03*
D15*
X172050000Y-82650000D03*
D16*
X172050000Y-76450000D03*
D17*
X167350000Y-79450000D03*
D18*
X170180000Y-93345000D03*
D19*
X170180000Y-95885000D03*
X170180000Y-98425000D03*
X170180000Y-100965000D03*
D11*
X143435000Y-93372500D03*
D12*
X143435000Y-108612500D03*
D20*
X120315400Y-128944700D03*
X120315400Y-134177100D03*
X120315400Y-139409500D03*
X170505800Y-128944700D03*
X170505800Y-134177100D03*
X170505800Y-139409500D03*
D11*
X134545000Y-93372500D03*
D12*
X134545000Y-108612500D03*
D13*
X126960000Y-102870000D03*
D11*
X124460000Y-102870000D03*
X129540000Y-112395000D03*
D12*
X114300000Y-112395000D03*
D21*
X156921200Y-88277700D03*
X156921200Y-70396100D03*
X116840000Y-88277700D03*
X116840000Y-70396100D03*
D22*
X108737400Y-116671600D03*
X108737400Y-114131600D03*
X108737400Y-111591600D03*
X108737400Y-109051600D03*
X108737400Y-106511600D03*
X108737400Y-103971600D03*
X108737400Y-101431600D03*
X108737400Y-98891600D03*
X108737400Y-96351600D03*
X108737400Y-93811600D03*
X108737400Y-91271600D03*
X108737400Y-88731600D03*
X108737400Y-86191600D03*
X108737400Y-83651600D03*
X108737400Y-81111600D03*
D23*
X108737400Y-78571600D03*
D22*
X108737400Y-76031600D03*
X108737400Y-73491600D03*
X108737400Y-70951600D03*
X85572600Y-116671600D03*
X85572600Y-114131600D03*
X85572600Y-111591600D03*
X85572600Y-109051600D03*
X85572600Y-106511600D03*
X85572600Y-103971600D03*
X85572600Y-101431600D03*
X85572600Y-98891600D03*
X85572600Y-96351600D03*
X85572600Y-93811600D03*
X85572600Y-91271600D03*
X85572600Y-88731600D03*
X85572600Y-86191600D03*
X85572600Y-83651600D03*
X85572600Y-81111600D03*
D23*
X85572600Y-78571600D03*
D22*
X85572600Y-76031600D03*
X85572600Y-73491600D03*
X85572600Y-70951600D03*
D11*
X129540000Y-118110000D03*
D12*
X114300000Y-118110000D03*
D24*
X88160200Y-123520700D03*
X88160200Y-126060700D03*
X88160200Y-128600700D03*
X88160200Y-131140700D03*
X88160200Y-133680700D03*
X88160200Y-136220700D03*
X88160200Y-138760700D03*
D14*
X137645000Y-115252500D03*
X144145000Y-115252500D03*
X137645000Y-119752500D03*
X144145000Y-119752500D03*
D25*
X130810000Y-128270000D02*
X126365000Y-123825000D01*
X88731600Y-78571600D02*
X85572600Y-78571600D01*
X92710000Y-106045000D02*
X92710000Y-82550000D01*
X126365000Y-123825000D02*
X110490000Y-123825000D01*
X110490000Y-123825000D02*
X92710000Y-106045000D01*
X160337500Y-128270000D02*
X130810000Y-128270000D01*
X167005000Y-121602500D02*
X160337500Y-128270000D01*
X92710000Y-82550000D02*
X88731600Y-78571600D01*
X120315400Y-134177100D02*
X103312900Y-134177100D01*
X81280000Y-138430000D02*
X81280000Y-103184200D01*
X103312900Y-134177100D02*
X96520000Y-140970000D01*
X96520000Y-140970000D02*
X83820000Y-140970000D01*
X83820000Y-140970000D02*
X81280000Y-138430000D01*
X81280000Y-103184200D02*
X85572600Y-98891600D01*
X111760000Y-97790000D02*
X111760000Y-91754200D01*
X151130000Y-102235000D02*
X137160000Y-102235000D01*
X122555000Y-108585000D02*
X111760000Y-97790000D01*
X130810000Y-108585000D02*
X122555000Y-108585000D01*
X137160000Y-102235000D02*
X130810000Y-108585000D01*
X111760000Y-91754200D02*
X108737400Y-88731600D01*
X128905000Y-97155000D02*
X127000000Y-99060000D01*
X121285000Y-99060000D02*
X108737400Y-86512400D01*
X108737400Y-86512400D02*
X108737400Y-86191600D01*
X151130000Y-97155000D02*
X128905000Y-97155000D01*
X127000000Y-99060000D02*
X121285000Y-99060000D01*
X121920000Y-80010000D02*
X137795000Y-80010000D01*
X110490000Y-68580000D02*
X121920000Y-80010000D01*
X81915000Y-70485000D02*
X83820000Y-68580000D01*
X165100000Y-99695000D02*
X166370000Y-100965000D01*
X166370000Y-100965000D02*
X170180000Y-100965000D01*
X149860000Y-92075000D02*
X161925000Y-92075000D01*
X165100000Y-95250000D02*
X165100000Y-99695000D01*
X161925000Y-92075000D02*
X165100000Y-95250000D01*
X85572600Y-88731600D02*
X81915000Y-85074000D01*
X81915000Y-85074000D02*
X81915000Y-70485000D01*
X83820000Y-68580000D02*
X110490000Y-68580000D01*
X137795000Y-80010000D02*
X149860000Y-92075000D01*
M02*
